<svg width="146" height="143" viewBox="0 0 146 143" fill="none" xmlns="http://www.w3.org/2000/svg">
<path d="M89.9992 177.3C138.214 177.3 177.299 138.215 177.299 90.0002C177.299 41.7857 138.214 2.7002 89.9992 2.7002C41.7848 2.7002 2.69922 41.7857 2.69922 90.0002C2.69922 138.215 41.7848 177.3 89.9992 177.3Z" fill="url(#paint0_linear_9274_3163)"/>
<path d="M128.204 124.785L98.6838 53.4153C97.0188 49.7253 94.5438 47.9253 91.2813 47.9253H88.6713C85.4088 47.9253 82.9338 49.7253 81.2688 53.4153L68.4213 84.5103H58.7013C55.7988 84.5328 53.4363 86.8728 53.4138 89.7978V89.8653C53.4363 92.7678 55.7988 95.1303 58.7013 95.1528H63.9213L51.6588 124.785C51.4338 125.438 51.2988 126.113 51.2988 126.81C51.2988 128.475 51.8163 129.78 52.7388 130.793C53.6613 131.805 54.9888 132.3 56.6538 132.3C57.7563 132.278 58.8138 131.94 59.6913 131.288C60.6363 130.635 61.2888 129.69 61.8063 128.61L75.3063 95.1303H84.6663C87.5688 95.1078 89.9313 92.7678 89.9538 89.8428V89.7078C89.9313 86.8053 87.5688 84.4428 84.6663 84.4203H79.6713L89.9763 58.7478L118.056 128.588C118.574 129.668 119.226 130.613 120.171 131.265C121.049 131.918 122.129 132.255 123.209 132.278C124.874 132.278 126.179 131.783 127.124 130.77C128.069 129.758 128.564 128.453 128.564 126.788C128.586 126.113 128.474 125.415 128.204 124.785Z" fill="white"/>
<defs>
<linearGradient id="paint0_linear_9274_3163" x1="155.089" y1="35.2321" x2="25.1864" y2="144.532" gradientUnits="userSpaceOnUse">
<stop stop-color="#B6509E"/>
<stop offset="1" stop-color="#2EBAC6"/>
</linearGradient>
</defs>
</svg>
