<svg width="42" height="42" viewBox="0 0 42 42" fill="none" xmlns="http://www.w3.org/2000/svg">
<path d="M10.9335 31C8.89625 31 7.22714 30.4814 5.92594 29.4444C4.64202 28.3889 4 26.8889 4 24.9444C4 24.537 4.04283 24.037 4.12835 23.4444C4.35101 22.1111 4.66769 20.5093 5.07855 18.6389C6.24263 13.5463 9.24725 11 14.0922 11C15.4104 11 16.5916 11.2407 17.6359 11.7223C18.6802 12.1851 19.5019 12.8889 20.1011 13.8333C20.7003 14.7593 21 15.8704 21 17.1667C21 17.5556 20.9572 18.0463 20.8715 18.6389C20.6148 20.287 20.3066 21.8889 19.9471 23.4444C19.3479 25.9814 18.3122 27.8796 16.8398 29.1389C15.3676 30.3796 13.3988 31 10.9335 31ZM11.293 27C12.2517 27 13.0649 26.6944 13.7326 26.0833C14.4174 25.4723 14.9054 24.537 15.1964 23.2777C15.5901 21.537 15.8897 20.0186 16.0951 18.7223C16.1636 18.3333 16.1978 17.9351 16.1978 17.5277C16.1978 15.8426 15.3847 15 13.7583 15C12.7996 15 11.9779 15.3056 11.293 15.9167C10.6253 16.5277 10.146 17.463 9.85496 18.7223C9.54678 19.963 9.23861 21.4814 8.93056 23.2777C8.86207 23.6481 8.82775 24.037 8.82775 24.4444C8.82775 26.1481 9.64946 27 11.293 27Z" fill="#FF0420"/>
<path d="M22.5441 31C22.3502 31 22.2003 30.9333 22.0944 30.7999C22.0063 30.6475 21.9799 30.4762 22.0151 30.2856L25.665 11.7144C25.7002 11.5049 25.7972 11.3334 25.956 11.2001C26.1146 11.0667 26.2821 11 26.4584 11H33.4937C35.4509 11 37.0201 11.4382 38.2015 12.3144C39.4005 13.1905 40 14.4572 40 16.1143C40 16.5905 39.9471 17.0857 39.8414 17.6C39.4005 19.7906 38.5101 21.4095 37.17 22.4572C35.8476 23.5047 34.0314 24.0285 31.7217 24.0285H28.1511L26.9345 30.2856C26.8993 30.4951 26.8023 30.6666 26.6435 30.7999C26.4849 30.9333 26.3173 31 26.141 31H22.5441ZM31.9067 20.0858C32.6473 20.0858 33.2909 19.8667 33.8376 19.4286C34.4017 18.9905 34.772 18.3619 34.9484 17.5428C35.0013 17.2191 35.0277 16.9333 35.0277 16.6858C35.0277 16.1334 34.8779 15.7144 34.5781 15.4286C34.2783 15.1238 33.767 14.9714 33.044 14.9714H29.8703L28.8652 20.0858H31.9067Z" fill="#FF0420"/>
</svg>
