<svg width="320" height="234" viewBox="0 0 320 234" fill="none" xmlns="http://www.w3.org/2000/svg">
<rect width="319.761" height="233.804" rx="13.7532" fill="black"/>
<path d="M27.3861 19.5111V20.7102H25.0008V28.4722H23.5309V20.7102H21.1327V19.5111H27.3861ZM31.9563 28.5882C31.2858 28.5882 30.6798 28.4378 30.1383 28.1369C29.5968 27.8275 29.1713 27.3977 28.8618 26.8476C28.5524 26.2889 28.3977 25.6442 28.3977 24.9135C28.3977 24.1915 28.5567 23.5511 28.8747 22.9924C29.1928 22.4337 29.6268 22.0039 30.177 21.703C30.7271 21.4022 31.3417 21.2518 32.0208 21.2518C32.6998 21.2518 33.3144 21.4022 33.8645 21.703C34.4147 22.0039 34.8488 22.4337 35.1668 22.9924C35.4848 23.5511 35.6439 24.1915 35.6439 24.9135C35.6439 25.6356 35.4805 26.276 35.1539 26.8347C34.8273 27.3934 34.3803 27.8275 33.813 28.1369C33.2542 28.4378 32.6354 28.5882 31.9563 28.5882ZM31.9563 27.3117C32.3345 27.3117 32.6869 27.2215 33.0136 27.041C33.3488 26.8605 33.6196 26.5897 33.8259 26.2287C34.0322 25.8677 34.1353 25.4293 34.1353 24.9135C34.1353 24.3978 34.0365 23.9637 33.8388 23.6113C33.6411 23.2503 33.3789 22.9795 33.0522 22.799C32.7256 22.6185 32.3732 22.5282 31.995 22.5282C31.6168 22.5282 31.2643 22.6185 30.9377 22.799C30.6197 22.9795 30.3661 23.2503 30.177 23.6113C29.9879 23.9637 29.8933 24.3978 29.8933 24.9135C29.8933 25.6786 30.0867 26.2717 30.4735 26.6929C30.8689 27.1054 31.3632 27.3117 31.9563 27.3117ZM38.8117 22.5669V26.4994C38.8117 26.7659 38.8719 26.9593 38.9923 27.0797C39.1212 27.1914 39.3361 27.2473 39.6369 27.2473H40.5395V28.4722H39.3791C38.7172 28.4722 38.21 28.3174 37.8576 28.008C37.5052 27.6986 37.329 27.1957 37.329 26.4994V22.5669H36.4909V21.3678H37.329V19.6014H38.8117V21.3678H40.5395V22.5669H38.8117ZM41.4043 24.8878C41.4043 24.1743 41.5504 23.5425 41.8426 22.9924C42.1435 22.4423 42.5475 22.0168 43.0546 21.7159C43.5704 21.4065 44.1377 21.2518 44.7566 21.2518C45.3153 21.2518 45.801 21.3635 46.2136 21.587C46.6348 21.8019 46.97 22.0727 47.2193 22.3993V21.3678H48.702V28.4722H47.2193V27.4149C46.97 27.7501 46.6305 28.0295 46.2007 28.253C45.7709 28.4765 45.2809 28.5882 44.7308 28.5882C44.1205 28.5882 43.5618 28.4335 43.0546 28.124C42.5475 27.806 42.1435 27.3676 41.8426 26.8089C41.5504 26.2416 41.4043 25.6012 41.4043 24.8878ZM47.2193 24.9135C47.2193 24.4236 47.1161 23.9981 46.9098 23.6371C46.7121 23.2761 46.45 23.001 46.1233 22.8119C45.7967 22.6228 45.4443 22.5282 45.066 22.5282C44.6878 22.5282 44.3354 22.6228 44.0088 22.8119C43.6821 22.9924 43.4157 23.2632 43.2094 23.6242C43.0117 23.9766 42.9128 24.3978 42.9128 24.8878C42.9128 25.3777 43.0117 25.8075 43.2094 26.1771C43.4157 26.5467 43.6821 26.8304 44.0088 27.0281C44.344 27.2172 44.6964 27.3117 45.066 27.3117C45.4443 27.3117 45.7967 27.2172 46.1233 27.0281C46.45 26.839 46.7121 26.5639 46.9098 26.2029C47.1161 25.8333 47.2193 25.4035 47.2193 24.9135ZM52.1025 18.9309V28.4722H50.6326V18.9309H52.1025ZM58.8515 22.4122C59.1008 22.0855 59.4403 21.8105 59.8701 21.587C60.2999 21.3635 60.7855 21.2518 61.3271 21.2518C61.946 21.2518 62.509 21.4065 63.0161 21.7159C63.5319 22.0168 63.9359 22.4423 64.2281 22.9924C64.5204 23.5425 64.6665 24.1743 64.6665 24.8878C64.6665 25.6012 64.5204 26.2416 64.2281 26.8089C63.9359 27.3676 63.5319 27.806 63.0161 28.124C62.509 28.4335 61.946 28.5882 61.3271 28.5882C60.7855 28.5882 60.3042 28.4808 59.883 28.2659C59.4618 28.0424 59.118 27.7673 58.8515 27.4407V31.8503H57.3816V21.3678H58.8515V22.4122ZM63.1708 24.8878C63.1708 24.3978 63.0677 23.9766 62.8614 23.6242C62.6637 23.2632 62.3972 22.9924 62.062 22.8119C61.7354 22.6228 61.3829 22.5282 61.0047 22.5282C60.6351 22.5282 60.2827 22.6228 59.9474 22.8119C59.6208 23.001 59.3543 23.2761 59.148 23.6371C58.9503 23.9981 58.8515 24.4236 58.8515 24.9135C58.8515 25.4035 58.9503 25.8333 59.148 26.2029C59.3543 26.5639 59.6208 26.839 59.9474 27.0281C60.2827 27.2172 60.6351 27.3117 61.0047 27.3117C61.3829 27.3117 61.7354 27.2172 62.062 27.0281C62.3972 26.8304 62.6637 26.5467 62.8614 26.1771C63.0677 25.8075 63.1708 25.3777 63.1708 24.8878ZM69.2016 28.5882C68.5311 28.5882 67.9252 28.4378 67.3836 28.1369C66.8421 27.8275 66.4166 27.3977 66.1072 26.8476C65.7977 26.2889 65.643 25.6442 65.643 24.9135C65.643 24.1915 65.802 23.5511 66.12 22.9924C66.4381 22.4337 66.8722 22.0039 67.4223 21.703C67.9724 21.4022 68.587 21.2518 69.2661 21.2518C69.9451 21.2518 70.5597 21.4022 71.1099 21.703C71.66 22.0039 72.0941 22.4337 72.4121 22.9924C72.7302 23.5511 72.8892 24.1915 72.8892 24.9135C72.8892 25.6356 72.7259 26.276 72.3992 26.8347C72.0726 27.3934 71.6256 27.8275 71.0583 28.1369C70.4996 28.4378 69.8807 28.5882 69.2016 28.5882ZM69.2016 27.3117C69.5798 27.3117 69.9323 27.2215 70.2589 27.041C70.5941 26.8605 70.8649 26.5897 71.0712 26.2287C71.2775 25.8677 71.3806 25.4293 71.3806 24.9135C71.3806 24.3978 71.2818 23.9637 71.0841 23.6113C70.8864 23.2503 70.6242 22.9795 70.2976 22.799C69.9709 22.6185 69.6185 22.5282 69.2403 22.5282C68.8621 22.5282 68.5097 22.6185 68.183 22.799C67.865 22.9795 67.6114 23.2503 67.4223 23.6113C67.2332 23.9637 67.1386 24.3978 67.1386 24.9135C67.1386 25.6786 67.332 26.2717 67.7189 26.6929C68.1143 27.1054 68.6085 27.3117 69.2016 27.3117ZM75.8121 22.3993C76.027 22.0383 76.3106 21.7589 76.6631 21.5612C77.0241 21.3549 77.4496 21.2518 77.9395 21.2518V22.7732H77.5656C76.9897 22.7732 76.5513 22.9193 76.2505 23.2116C75.9582 23.5038 75.8121 24.011 75.8121 24.733V28.4722H74.3422V21.3678H75.8121V22.3993ZM81.0055 22.5669V26.4994C81.0055 26.7659 81.0657 26.9593 81.186 27.0797C81.3149 27.1914 81.5298 27.2473 81.8307 27.2473H82.7332V28.4722H81.5728C80.9109 28.4722 80.4038 28.3174 80.0514 28.008C79.6989 27.6986 79.5227 27.1957 79.5227 26.4994V22.5669H78.6846V21.3678H79.5227V19.6014H81.0055V21.3678H82.7332V22.5669H81.0055ZM87.0664 22.5669H85.7512V28.4722H84.2685V22.5669H83.4304V21.3678H84.2685V20.865C84.2685 20.0484 84.4834 19.4553 84.9131 19.0856C85.3515 18.7074 86.0349 18.5183 86.9632 18.5183V19.7432C86.5163 19.7432 86.2025 19.8292 86.022 20.0011C85.8415 20.1644 85.7512 20.4524 85.7512 20.865V21.3678H87.0664V22.5669ZM91.4506 28.5882C90.7801 28.5882 90.1741 28.4378 89.6326 28.1369C89.0911 27.8275 88.6656 27.3977 88.3561 26.8476C88.0467 26.2889 87.892 25.6442 87.892 24.9135C87.892 24.1915 88.051 23.5511 88.369 22.9924C88.6871 22.4337 89.1212 22.0039 89.6713 21.703C90.2214 21.4022 90.836 21.2518 91.5151 21.2518C92.1941 21.2518 92.8087 21.4022 93.3589 21.703C93.909 22.0039 94.3431 22.4337 94.6611 22.9924C94.9791 23.5511 95.1382 24.1915 95.1382 24.9135C95.1382 25.6356 94.9748 26.276 94.6482 26.8347C94.3216 27.3934 93.8746 27.8275 93.3073 28.1369C92.7486 28.4378 92.1297 28.5882 91.4506 28.5882ZM91.4506 27.3117C91.8288 27.3117 92.1812 27.2215 92.5079 27.041C92.8431 26.8605 93.1139 26.5897 93.3202 26.2287C93.5265 25.8677 93.6296 25.4293 93.6296 24.9135C93.6296 24.3978 93.5308 23.9637 93.3331 23.6113C93.1354 23.2503 92.8732 22.9795 92.5466 22.799C92.2199 22.6185 91.8675 22.5282 91.4893 22.5282C91.1111 22.5282 90.7586 22.6185 90.432 22.799C90.114 22.9795 89.8604 23.2503 89.6713 23.6113C89.4822 23.9637 89.3876 24.3978 89.3876 24.9135C89.3876 25.6786 89.581 26.2717 89.9678 26.6929C90.3632 27.1054 90.8575 27.3117 91.4506 27.3117ZM98.0611 18.9309V28.4722H96.5912V18.9309H98.0611ZM100.739 20.4266C100.472 20.4266 100.249 20.3363 100.068 20.1558C99.8877 19.9753 99.7975 19.7518 99.7975 19.4853C99.7975 19.2189 99.8877 18.9954 100.068 18.8149C100.249 18.6344 100.472 18.5441 100.739 18.5441C100.997 18.5441 101.216 18.6344 101.396 18.8149C101.577 18.9954 101.667 19.2189 101.667 19.4853C101.667 19.7518 101.577 19.9753 101.396 20.1558C101.216 20.3363 100.997 20.4266 100.739 20.4266ZM101.461 21.3678V28.4722H99.9909V21.3678H101.461ZM106.472 28.5882C105.802 28.5882 105.196 28.4378 104.654 28.1369C104.113 27.8275 103.687 27.3977 103.378 26.8476C103.068 26.2889 102.913 25.6442 102.913 24.9135C102.913 24.1915 103.073 23.5511 103.391 22.9924C103.709 22.4337 104.143 22.0039 104.693 21.703C105.243 21.4022 105.858 21.2518 106.537 21.2518C107.216 21.2518 107.83 21.4022 108.38 21.703C108.93 22.0039 109.365 22.4337 109.683 22.9924C110.001 23.5511 110.16 24.1915 110.16 24.9135C110.16 25.6356 109.996 26.276 109.67 26.8347C109.343 27.3934 108.896 27.8275 108.329 28.1369C107.77 28.4378 107.151 28.5882 106.472 28.5882ZM106.472 27.3117C106.85 27.3117 107.203 27.2215 107.529 27.041C107.865 26.8605 108.135 26.5897 108.342 26.2287C108.548 25.8677 108.651 25.4293 108.651 24.9135C108.651 24.3978 108.552 23.9637 108.355 23.6113C108.157 23.2503 107.895 22.9795 107.568 22.799C107.241 22.6185 106.889 22.5282 106.511 22.5282C106.133 22.5282 105.78 22.6185 105.454 22.799C105.135 22.9795 104.882 23.2503 104.693 23.6113C104.504 23.9637 104.409 24.3978 104.409 24.9135C104.409 25.6786 104.603 26.2717 104.989 26.6929C105.385 27.1054 105.879 27.3117 106.472 27.3117ZM117.708 27.157L119.72 21.3678H121.28L118.572 28.4722H116.819L114.124 21.3678H115.697L117.708 27.157ZM121.901 24.8878C121.901 24.1743 122.047 23.5425 122.339 22.9924C122.64 22.4423 123.044 22.0168 123.551 21.7159C124.067 21.4065 124.634 21.2518 125.253 21.2518C125.812 21.2518 126.298 21.3635 126.71 21.587C127.132 21.8019 127.467 22.0727 127.716 22.3993V21.3678H129.199V28.4722H127.716V27.4149C127.467 27.7501 127.127 28.0295 126.697 28.253C126.268 28.4765 125.778 28.5882 125.228 28.5882C124.617 28.5882 124.059 28.4335 123.551 28.124C123.044 27.806 122.64 27.3676 122.339 26.8089C122.047 26.2416 121.901 25.6012 121.901 24.8878ZM127.716 24.9135C127.716 24.4236 127.613 23.9981 127.407 23.6371C127.209 23.2761 126.947 23.001 126.62 22.8119C126.293 22.6228 125.941 22.5282 125.563 22.5282C125.185 22.5282 124.832 22.6228 124.506 22.8119C124.179 22.9924 123.912 23.2632 123.706 23.6242C123.508 23.9766 123.41 24.3978 123.41 24.8878C123.41 25.3777 123.508 25.8075 123.706 26.1771C123.912 26.5467 124.179 26.8304 124.506 27.0281C124.841 27.2172 125.193 27.3117 125.563 27.3117C125.941 27.3117 126.293 27.2172 126.62 27.0281C126.947 26.839 127.209 26.5639 127.407 26.2029C127.613 25.8333 127.716 25.4035 127.716 24.9135ZM132.599 18.9309V28.4722H131.129V18.9309H132.599ZM140.963 21.3678V28.4722H139.493V27.6341C139.261 27.9263 138.956 28.1584 138.578 28.3303C138.208 28.4937 137.813 28.5753 137.391 28.5753C136.833 28.5753 136.33 28.4593 135.883 28.2272C135.445 27.9951 135.096 27.6513 134.839 27.1957C134.589 26.7401 134.465 26.19 134.465 25.5453V21.3678H135.922V25.3261C135.922 25.9622 136.081 26.4522 136.399 26.796C136.717 27.1312 137.151 27.2989 137.701 27.2989C138.251 27.2989 138.685 27.1312 139.003 26.796C139.33 26.4522 139.493 25.9622 139.493 25.3261V21.3678H140.963ZM149.414 24.7459C149.414 25.0124 149.396 25.2531 149.362 25.468H143.934C143.977 26.0353 144.187 26.4909 144.566 26.8347C144.944 27.1785 145.408 27.3504 145.958 27.3504C146.749 27.3504 147.308 27.0195 147.634 26.3576H149.22C149.005 27.0109 148.614 27.5481 148.047 27.9693C147.488 28.3819 146.792 28.5882 145.958 28.5882C145.279 28.5882 144.669 28.4378 144.127 28.1369C143.594 27.8275 143.173 27.3977 142.864 26.8476C142.563 26.2889 142.412 25.6442 142.412 24.9135C142.412 24.1829 142.559 23.5425 142.851 22.9924C143.152 22.4337 143.569 22.0039 144.101 21.703C144.643 21.4022 145.262 21.2518 145.958 21.2518C146.629 21.2518 147.226 21.3979 147.75 21.6901C148.275 21.9824 148.683 22.395 148.975 22.9279C149.267 23.4523 149.414 24.0583 149.414 24.7459ZM147.879 24.2818C147.871 23.7402 147.677 23.3061 147.299 22.9795C146.921 22.6529 146.452 22.4895 145.894 22.4895C145.387 22.4895 144.952 22.6529 144.591 22.9795C144.23 23.2975 144.015 23.7316 143.947 24.2818H147.879Z" fill="#98959E"/>
<path d="M31.8525 61.3321C31.8525 62.0197 31.6805 62.6661 31.3367 63.2713C31.0066 63.8764 30.5115 64.3853 29.8514 64.7979C29.205 65.2105 28.4348 65.458 27.5408 65.5405V67.2115H26.1999V65.5405C24.9071 65.4167 23.8619 65.011 23.0642 64.3234C22.2665 63.6357 21.8677 62.728 21.8677 61.6002H24.3845C24.4258 62.1366 24.5977 62.5836 24.9002 62.9412C25.2028 63.285 25.636 63.5051 26.1999 63.6013V59.0628C25.2784 58.829 24.5289 58.5952 23.9513 58.3614C23.3736 58.1138 22.8785 57.7287 22.4659 57.2061C22.0671 56.6835 21.8677 55.9683 21.8677 55.0606C21.8677 53.9191 22.2665 52.977 23.0642 52.2343C23.8619 51.4779 24.9071 51.0378 26.1999 50.914V49.243H27.5408V50.914C28.7511 51.0241 29.7207 51.4092 30.4496 52.0693C31.1923 52.7157 31.6118 53.6097 31.708 54.7512H29.1912C29.15 54.3248 28.9849 53.9466 28.6961 53.6165C28.4073 53.2727 28.0222 53.0389 27.5408 52.9151V57.3712C28.4623 57.5912 29.2119 57.825 29.7895 58.0726C30.3671 58.3064 30.8554 58.6846 31.2542 59.2072C31.653 59.7161 31.8525 60.4244 31.8525 61.3321ZM24.2607 54.9368C24.2607 55.5007 24.4258 55.9408 24.7558 56.2571C25.0997 56.5735 25.581 56.8279 26.1999 57.0204V52.8532C25.6085 52.922 25.134 53.1352 24.7765 53.4928C24.4326 53.8503 24.2607 54.3317 24.2607 54.9368ZM27.5408 63.6013C28.146 63.5051 28.6205 63.2644 28.9643 62.8793C29.3081 62.4804 29.48 62.006 29.48 61.4558C29.48 60.9057 29.3081 60.4794 28.9643 60.1768C28.6342 59.8605 28.1597 59.606 27.5408 59.4135V63.6013ZM36.5847 62.2191C37.905 61.0776 38.9434 60.1424 39.6998 59.4135C40.47 58.6708 41.1095 57.9006 41.6184 57.103C42.1272 56.3053 42.3817 55.5076 42.3817 54.7099C42.3817 53.8847 42.1823 53.2383 41.7834 52.7707C41.3983 52.3031 40.7863 52.0693 39.9474 52.0693C39.1359 52.0693 38.5033 52.3306 38.0494 52.8532C37.6093 53.3621 37.3755 54.0498 37.348 54.9162H35.0788C35.12 53.3484 35.5876 52.1518 36.4816 51.3266C37.3893 50.4877 38.5377 50.0682 39.9267 50.0682C41.4258 50.0682 42.5949 50.4808 43.4338 51.306C44.2865 52.1312 44.7128 53.2315 44.7128 54.6068C44.7128 55.597 44.4584 56.5528 43.9495 57.4743C43.4544 58.382 42.8562 59.2003 42.1548 59.9292C41.4671 60.6444 40.5869 61.4765 39.5141 62.4254L38.5858 63.2506H45.1254V65.2105H35.0994V63.4982L36.5847 62.2191ZM56.8874 52.3994H49.9765V56.5047C50.2653 56.1196 50.6916 55.7964 51.2555 55.5351C51.8332 55.2738 52.4452 55.1431 53.0916 55.1431C54.2468 55.1431 55.1821 55.3907 55.8972 55.8858C56.6261 56.3809 57.1419 57.0067 57.4444 57.7631C57.7608 58.5195 57.9189 59.3172 57.9189 60.1562C57.9189 61.1739 57.7195 62.0816 57.3207 62.8793C56.9356 63.6632 56.3511 64.2821 55.5671 64.736C54.797 65.1898 53.848 65.4167 52.7202 65.4167C51.2211 65.4167 50.0177 65.0454 49.11 64.3027C48.2023 63.5601 47.6591 62.5767 47.4803 61.3527H49.7702C49.9215 61.9991 50.2584 62.5148 50.781 62.8999C51.3037 63.2713 51.9569 63.4569 52.7409 63.4569C53.7173 63.4569 54.4463 63.1612 54.9276 62.5698C55.4227 61.9785 55.6703 61.1945 55.6703 60.2181C55.6703 59.2278 55.4227 58.4714 54.9276 57.9488C54.4325 57.4124 53.7036 57.1442 52.7409 57.1442C52.067 57.1442 51.4962 57.3161 51.0286 57.66C50.5747 57.99 50.2447 58.4439 50.0384 59.0215H47.8104V50.3364H56.8874V52.3994ZM63.2553 62.5905L60.7591 68.2843H59.2325L60.6972 62.5905H63.2553ZM67.9302 61.3321C68.0677 62.0197 68.3634 62.5423 68.8172 62.8999C69.2711 63.2575 69.8831 63.4363 70.6533 63.4363C71.6298 63.4363 72.3449 63.0512 72.7988 62.281C73.2526 61.5109 73.4796 60.1974 73.4796 58.3407C73.1495 58.8084 72.6819 59.1728 72.0767 59.4341C71.4853 59.6817 70.8389 59.8055 70.1375 59.8055C69.2436 59.8055 68.4321 59.6267 67.7032 59.2691C66.9743 58.8978 66.3967 58.3545 65.9703 57.6393C65.5577 56.9104 65.3514 56.0302 65.3514 54.9987C65.3514 53.4859 65.7915 52.2825 66.6717 51.3885C67.5657 50.4808 68.7897 50.027 70.3438 50.027C72.2143 50.027 73.5414 50.6527 74.3254 51.9043C75.1231 53.1421 75.5219 55.0469 75.5219 57.6187C75.5219 59.3929 75.3706 60.8438 75.068 61.9716C74.7792 63.0993 74.2704 63.952 73.5414 64.5297C72.8125 65.1073 71.8017 65.3961 70.5089 65.3961C69.0373 65.3961 67.9026 65.011 67.105 64.2409C66.3073 63.4707 65.8603 62.5011 65.764 61.3321H67.9302ZM70.5501 57.825C71.3753 57.825 72.0217 57.5706 72.4893 57.0617C72.9707 56.5391 73.2114 55.8514 73.2114 54.9987C73.2114 54.0498 72.9569 53.314 72.4481 52.7914C71.953 52.255 71.2722 51.9868 70.4057 51.9868C69.5393 51.9868 68.8516 52.2619 68.3427 52.812C67.8476 53.3484 67.6001 54.0566 67.6001 54.9368C67.6001 55.7758 67.8408 56.4703 68.3221 57.0204C68.8172 57.5568 69.5599 57.825 70.5501 57.825ZM86.1826 53.8641C86.0313 53.2315 85.7563 52.757 85.3574 52.4406C84.9586 52.1243 84.4016 51.9662 83.6864 51.9662C82.5999 51.9662 81.7885 52.3856 81.2521 53.2246C80.7158 54.0498 80.4338 55.4251 80.4063 57.3505C80.7639 56.7454 81.2865 56.2778 81.9742 55.9477C82.6618 55.6176 83.4045 55.4526 84.2022 55.4526C85.1099 55.4526 85.9076 55.652 86.5952 56.0508C87.2966 56.4359 87.8399 56.9998 88.225 57.7425C88.6238 58.4852 88.8232 59.3722 88.8232 60.4037C88.8232 61.3664 88.6307 62.226 88.2456 62.9824C87.8743 63.7389 87.3173 64.3371 86.5746 64.7772C85.8319 65.2036 84.938 65.4167 83.8927 65.4167C82.4762 65.4167 81.3621 65.1073 80.5507 64.4884C79.753 63.8558 79.1892 62.9687 78.8591 61.8272C78.5428 60.6857 78.3846 59.2622 78.3846 57.5568C78.3846 52.5232 80.1587 50.0063 83.7071 50.0063C85.0824 50.0063 86.162 50.3777 86.9459 51.1203C87.7436 51.863 88.2112 52.7776 88.3488 53.8641H86.1826ZM83.6864 57.433C82.8475 57.433 82.1323 57.6875 81.5409 58.1963C80.9633 58.6915 80.6745 59.4135 80.6745 60.3625C80.6745 61.3114 80.9427 62.0679 81.4791 62.6317C82.0292 63.1819 82.7925 63.4569 83.769 63.4569C84.6354 63.4569 85.3162 63.1887 85.8113 62.6524C86.3202 62.116 86.5746 61.4008 86.5746 60.5069C86.5746 59.5717 86.327 58.829 85.8319 58.2789C85.3506 57.715 84.6354 57.433 83.6864 57.433ZM91.3318 57.7012C91.3318 55.3219 91.7307 53.4653 92.5284 52.1312C93.3398 50.7834 94.7289 50.1095 96.6956 50.1095C98.6623 50.1095 100.044 50.7834 100.842 52.1312C101.654 53.4653 102.059 55.3219 102.059 57.7012C102.059 60.108 101.654 61.9922 100.842 63.3538C100.044 64.7016 98.6623 65.3755 96.6956 65.3755C94.7289 65.3755 93.3398 64.7016 92.5284 63.3538C91.7307 61.9922 91.3318 60.108 91.3318 57.7012ZM99.7488 57.7012C99.7488 56.5872 99.6731 55.6451 99.5219 54.875C99.3843 54.1048 99.0955 53.479 98.6554 52.9976C98.2153 52.5025 97.562 52.255 96.6956 52.255C95.8291 52.255 95.1759 52.5025 94.7358 52.9976C94.2957 53.479 94 54.1048 93.8487 54.875C93.7111 55.6451 93.6424 56.5872 93.6424 57.7012C93.6424 58.8565 93.7111 59.8261 93.8487 60.61C93.9862 61.394 94.275 62.0266 94.7151 62.508C95.169 62.9893 95.8291 63.23 96.6956 63.23C97.562 63.23 98.2153 62.9893 98.6554 62.508C99.1093 62.0266 99.4049 61.394 99.5425 60.61C99.68 59.8261 99.7488 58.8565 99.7488 57.7012Z" fill="#C8C8C8"/>
<path d="M217.923 52.5232V50.3777H222.214V65.4167H219.842V52.5232H217.923ZM226.703 65.5612C226.277 65.5612 225.92 65.4167 225.631 65.1279C225.342 64.8391 225.197 64.4815 225.197 64.0552C225.197 63.6288 225.342 63.2713 225.631 62.9824C225.92 62.6936 226.277 62.5492 226.703 62.5492C227.116 62.5492 227.467 62.6936 227.756 62.9824C228.044 63.2713 228.189 63.6288 228.189 64.0552C228.189 64.4815 228.044 64.8391 227.756 65.1279C227.467 65.4167 227.116 65.5612 226.703 65.5612ZM230.421 57.7012C230.421 55.3219 230.82 53.4653 231.618 52.1312C232.429 50.7834 233.818 50.1095 235.785 50.1095C237.752 50.1095 239.134 50.7834 239.931 52.1312C240.743 53.4653 241.149 55.3219 241.149 57.7012C241.149 60.108 240.743 61.9922 239.931 63.3538C239.134 64.7016 237.752 65.3755 235.785 65.3755C233.818 65.3755 232.429 64.7016 231.618 63.3538C230.82 61.9922 230.421 60.108 230.421 57.7012ZM238.838 57.7012C238.838 56.5872 238.762 55.6451 238.611 54.875C238.474 54.1048 238.185 53.479 237.745 52.9976C237.305 52.5025 236.651 52.255 235.785 52.255C234.918 52.255 234.265 52.5025 233.825 52.9976C233.385 53.479 233.089 54.1048 232.938 54.875C232.8 55.6451 232.732 56.5872 232.732 57.7012C232.732 58.8565 232.8 59.8261 232.938 60.61C233.076 61.394 233.364 62.0266 233.804 62.508C234.258 62.9893 234.918 63.23 235.785 63.23C236.651 63.23 237.305 62.9893 237.745 62.508C238.199 62.0266 238.494 61.394 238.632 60.61C238.769 59.8261 238.838 58.8565 238.838 57.7012ZM243.348 62.281V60.5069L250.28 50.5633H253.127V60.2387H255.045V62.281H253.127V65.4167H250.816V62.281H243.348ZM250.919 52.9564L246.051 60.2387H250.919V52.9564ZM270.337 58.0519C271.107 58.1895 271.76 58.5952 272.296 59.2691C272.833 59.943 273.101 60.7063 273.101 61.559C273.101 62.2879 272.908 62.9481 272.523 63.5394C272.152 64.1171 271.609 64.5778 270.894 64.9216C270.178 65.2517 269.346 65.4167 268.397 65.4167H262.662V51.0791H268.129C269.106 51.0791 269.945 51.2441 270.646 51.5742C271.347 51.9043 271.877 52.3513 272.235 52.9151C272.592 53.4653 272.771 54.0841 272.771 54.7718C272.771 55.597 272.551 56.2847 272.111 56.8348C271.671 57.3849 271.079 57.7906 270.337 58.0519ZM265.014 57.103H267.923C268.693 57.103 269.291 56.9311 269.718 56.5872C270.158 56.2296 270.378 55.7208 270.378 55.0606C270.378 54.4142 270.158 53.9122 269.718 53.5547C269.291 53.1833 268.693 52.9976 267.923 52.9976H265.014V57.103ZM268.191 63.4982C268.989 63.4982 269.615 63.3056 270.068 62.9206C270.522 62.5355 270.749 61.9991 270.749 61.3114C270.749 60.61 270.509 60.053 270.027 59.6404C269.546 59.2278 268.906 59.0215 268.109 59.0215H265.014V63.4982H268.191ZM284.919 51.0791V52.9976H281.103V65.4167H278.751V52.9976H274.914V51.0791H284.919ZM286.517 58.217C286.517 56.8141 286.84 55.5557 287.487 54.4417C288.147 53.3277 289.034 52.4613 290.148 51.8424C291.276 51.2097 292.507 50.8934 293.841 50.8934C295.367 50.8934 296.722 51.2716 297.905 52.0281C299.101 52.7707 299.968 53.8297 300.504 55.205H297.678C297.307 54.4486 296.791 53.8847 296.131 53.5134C295.471 53.1421 294.707 52.9564 293.841 52.9564C292.892 52.9564 292.046 53.1696 291.303 53.5959C290.561 54.0223 289.976 54.6343 289.55 55.432C289.137 56.2296 288.931 57.158 288.931 58.217C288.931 59.276 289.137 60.2043 289.55 61.002C289.976 61.7997 290.561 62.4186 291.303 62.8587C292.046 63.285 292.892 63.4982 293.841 63.4982C294.707 63.4982 295.471 63.3125 296.131 62.9412C296.791 62.5698 297.307 62.006 297.678 61.2495H300.504C299.968 62.6249 299.101 63.6839 297.905 64.4265C296.722 65.1692 295.367 65.5405 293.841 65.5405C292.493 65.5405 291.262 65.2311 290.148 64.6122C289.034 63.9795 288.147 63.1062 287.487 61.9922C286.84 60.8782 286.517 59.6198 286.517 58.217Z" fill="#7E7B86"/>
<rect x="237.242" y="15.4722" width="64.9276" height="19.4383" rx="5.15743" fill="#0F271F"/>
<path d="M245.408 29.0593L245.408 21.3234M245.408 21.3234L242.399 24.2705M245.408 21.3234L248.417 24.2705" stroke="#20A273" stroke-width="1.2034" stroke-linecap="round" stroke-linejoin="round"/>
<path d="M263.683 25.5374H261.303V27.951H260.353V25.5374H257.984V24.6769H260.353V22.2521H261.303V24.6769H263.683V25.5374ZM270.484 21.9951H266.562V24.5428C266.733 24.3045 266.987 24.1108 267.322 23.9618C267.657 23.8053 268.018 23.7271 268.406 23.7271C269.024 23.7271 269.527 23.8575 269.914 24.1182C270.302 24.3715 270.577 24.703 270.741 25.1127C270.913 25.515 270.998 25.9434 270.998 26.3978C270.998 26.9342 270.898 27.4147 270.697 27.8393C270.495 28.2639 270.186 28.5992 269.769 28.845C269.359 29.0908 268.849 29.2138 268.238 29.2138C267.456 29.2138 266.823 29.0126 266.339 28.6103C265.854 28.2081 265.56 27.6717 265.456 27.0012H266.45C266.547 27.4258 266.752 27.7574 267.065 27.9957C267.378 28.2341 267.773 28.3533 268.249 28.3533C268.838 28.3533 269.281 28.1783 269.579 27.8281C269.877 27.4705 270.026 27.0012 270.026 26.4201C270.026 25.8391 269.877 25.3921 269.579 25.0792C269.281 24.7589 268.842 24.5987 268.261 24.5987C267.866 24.5987 267.519 24.6956 267.221 24.8892C266.931 25.0755 266.719 25.3325 266.584 25.6603H265.623V21.1011H270.484V21.9951ZM272.841 29.2585C272.648 29.2585 272.484 29.1914 272.35 29.0573C272.216 28.9232 272.149 28.7593 272.149 28.5656C272.149 28.3719 272.216 28.2081 272.35 28.074C272.484 27.9399 272.648 27.8728 272.841 27.8728C273.028 27.8728 273.184 27.9399 273.311 28.074C273.445 28.2081 273.512 28.3719 273.512 28.5656C273.512 28.7593 273.445 28.9232 273.311 29.0573C273.184 29.1914 273.028 29.2585 272.841 29.2585ZM279.847 21.9951H275.925V24.5428C276.096 24.3045 276.35 24.1108 276.685 23.9618C277.02 23.8053 277.381 23.7271 277.769 23.7271C278.387 23.7271 278.89 23.8575 279.277 24.1182C279.665 24.3715 279.94 24.703 280.104 25.1127C280.276 25.515 280.361 25.9434 280.361 26.3978C280.361 26.9342 280.261 27.4147 280.06 27.8393C279.858 28.2639 279.549 28.5992 279.132 28.845C278.722 29.0908 278.212 29.2138 277.601 29.2138C276.819 29.2138 276.186 29.0126 275.702 28.6103C275.217 28.2081 274.923 27.6717 274.819 27.0012H275.813C275.91 27.4258 276.115 27.7574 276.428 27.9957C276.741 28.2341 277.136 28.3533 277.612 28.3533C278.201 28.3533 278.644 28.1783 278.942 27.8281C279.24 27.4705 279.389 27.0012 279.389 26.4201C279.389 25.8391 279.24 25.3921 278.942 25.0792C278.644 24.7589 278.205 24.5987 277.624 24.5987C277.229 24.5987 276.882 24.6956 276.584 24.8892C276.294 25.0755 276.081 25.3325 275.947 25.6603H274.986V21.1011H279.847V21.9951ZM281.467 27.3923V26.6213L285.389 21.1905H286.607V26.5095H287.724V27.3923H286.607V29.1914H285.601V27.3923H281.467ZM285.646 22.2521L282.64 26.5095H285.646V22.2521ZM288.517 22.9337C288.517 22.4271 288.67 22.0249 288.975 21.7269C289.28 21.4214 289.671 21.2687 290.148 21.2687C290.625 21.2687 291.016 21.4214 291.322 21.7269C291.627 22.0249 291.78 22.4271 291.78 22.9337C291.78 23.4477 291.627 23.8575 291.322 24.1629C291.016 24.4609 290.625 24.6099 290.148 24.6099C289.671 24.6099 289.28 24.4609 288.975 24.1629C288.67 23.8575 288.517 23.4477 288.517 22.9337ZM295.043 21.3916L290.517 29.1914H289.511L294.037 21.3916H295.043ZM290.148 21.8945C289.895 21.8945 289.694 21.9839 289.545 22.1627C289.403 22.334 289.333 22.591 289.333 22.9337C289.333 23.2764 289.403 23.5371 289.545 23.7159C289.694 23.8947 289.895 23.9841 290.148 23.9841C290.402 23.9841 290.603 23.8947 290.752 23.7159C290.901 23.5297 290.975 23.269 290.975 22.9337C290.975 22.591 290.901 22.334 290.752 22.1627C290.603 21.9839 290.402 21.8945 290.148 21.8945ZM292.797 27.6493C292.797 27.1353 292.949 26.7293 293.255 26.4313C293.56 26.1259 293.951 25.9732 294.428 25.9732C294.905 25.9732 295.292 26.1259 295.59 26.4313C295.896 26.7293 296.048 27.1353 296.048 27.6493C296.048 28.1559 295.896 28.5619 295.59 28.8673C295.292 29.1728 294.905 29.3255 294.428 29.3255C293.951 29.3255 293.56 29.1765 293.255 28.8785C292.949 28.5731 292.797 28.1634 292.797 27.6493ZM294.417 26.6101C294.164 26.6101 293.962 26.6995 293.813 26.8783C293.664 27.0496 293.59 27.3067 293.59 27.6493C293.59 27.9846 293.664 28.2416 293.813 28.4204C293.962 28.5917 294.164 28.6774 294.417 28.6774C294.67 28.6774 294.871 28.5917 295.02 28.4204C295.169 28.2416 295.244 27.9846 295.244 27.6493C295.244 27.3067 295.169 27.0496 295.02 26.8783C294.871 26.6995 294.67 26.6101 294.417 26.6101Z" fill="#20A273"/>
<rect x="76.5015" y="134.093" width="64.9276" height="19.4383" rx="5.15743" fill="#0F271F"/>
<path d="M84.6673 147.68L84.6673 139.944M84.6673 139.944L81.6588 142.891M84.6673 139.944L87.6758 142.891" stroke="#20A273" stroke-width="1.2034" stroke-linecap="round" stroke-linejoin="round"/>
<path d="M102.943 144.158H100.563V146.572H99.6129V144.158H97.2439V143.298H99.6129V140.873H100.563V143.298H102.943V144.158ZM109.744 140.616H105.822V143.163C105.993 142.925 106.246 142.731 106.581 142.582C106.917 142.426 107.278 142.348 107.665 142.348C108.284 142.348 108.787 142.478 109.174 142.739C109.561 142.992 109.837 143.324 110.001 143.733C110.172 144.136 110.258 144.564 110.258 145.018C110.258 145.555 110.157 146.035 109.956 146.46C109.755 146.885 109.446 147.22 109.029 147.466C108.619 147.711 108.109 147.834 107.498 147.834C106.716 147.834 106.082 147.633 105.598 147.231C105.114 146.829 104.82 146.292 104.715 145.622H105.71C105.807 146.046 106.012 146.378 106.324 146.616C106.637 146.855 107.032 146.974 107.509 146.974C108.097 146.974 108.541 146.799 108.839 146.449C109.137 146.091 109.286 145.622 109.286 145.041C109.286 144.46 109.137 144.013 108.839 143.7C108.541 143.379 108.101 143.219 107.52 143.219C107.125 143.219 106.779 143.316 106.481 143.51C106.19 143.696 105.978 143.953 105.844 144.281H104.883V139.722H109.744V140.616ZM112.101 147.879C111.907 147.879 111.743 147.812 111.609 147.678C111.475 147.544 111.408 147.38 111.408 147.186C111.408 146.993 111.475 146.829 111.609 146.695C111.743 146.56 111.907 146.493 112.101 146.493C112.287 146.493 112.444 146.56 112.57 146.695C112.704 146.829 112.771 146.993 112.771 147.186C112.771 147.38 112.704 147.544 112.57 147.678C112.444 147.812 112.287 147.879 112.101 147.879ZM119.107 140.616H115.185V143.163C115.356 142.925 115.609 142.731 115.944 142.582C116.28 142.426 116.641 142.348 117.028 142.348C117.647 142.348 118.15 142.478 118.537 142.739C118.924 142.992 119.2 143.324 119.364 143.733C119.535 144.136 119.621 144.564 119.621 145.018C119.621 145.555 119.52 146.035 119.319 146.46C119.118 146.885 118.809 147.22 118.392 147.466C117.982 147.711 117.472 147.834 116.861 147.834C116.079 147.834 115.445 147.633 114.961 147.231C114.477 146.829 114.183 146.292 114.078 145.622H115.073C115.17 146.046 115.375 146.378 115.687 146.616C116 146.855 116.395 146.974 116.872 146.974C117.46 146.974 117.904 146.799 118.202 146.449C118.5 146.091 118.649 145.622 118.649 145.041C118.649 144.46 118.5 144.013 118.202 143.7C117.904 143.379 117.464 143.219 116.883 143.219C116.488 143.219 116.142 143.316 115.844 143.51C115.553 143.696 115.341 143.953 115.207 144.281H114.246V139.722H119.107V140.616ZM120.726 146.013V145.242L124.649 139.811H125.867V145.13H126.984V146.013H125.867V147.812H124.861V146.013H120.726ZM124.906 140.873L121.9 145.13H124.906V140.873ZM127.776 141.554C127.776 141.048 127.929 140.645 128.234 140.347C128.54 140.042 128.931 139.889 129.408 139.889C129.885 139.889 130.276 140.042 130.581 140.347C130.887 140.645 131.039 141.048 131.039 141.554C131.039 142.068 130.887 142.478 130.581 142.784C130.276 143.081 129.885 143.23 129.408 143.23C128.931 143.23 128.54 143.081 128.234 142.784C127.929 142.478 127.776 142.068 127.776 141.554ZM134.302 140.012L129.777 147.812H128.771L133.296 140.012H134.302ZM129.408 140.515C129.154 140.515 128.953 140.604 128.804 140.783C128.663 140.955 128.592 141.212 128.592 141.554C128.592 141.897 128.663 142.158 128.804 142.337C128.953 142.515 129.154 142.605 129.408 142.605C129.661 142.605 129.862 142.515 130.011 142.337C130.16 142.15 130.235 141.89 130.235 141.554C130.235 141.212 130.16 140.955 130.011 140.783C129.862 140.604 129.661 140.515 129.408 140.515ZM132.056 146.27C132.056 145.756 132.209 145.35 132.514 145.052C132.82 144.746 133.211 144.594 133.688 144.594C134.164 144.594 134.552 144.746 134.85 145.052C135.155 145.35 135.308 145.756 135.308 146.27C135.308 146.777 135.155 147.183 134.85 147.488C134.552 147.793 134.164 147.946 133.688 147.946C133.211 147.946 132.82 147.797 132.514 147.499C132.209 147.194 132.056 146.784 132.056 146.27ZM133.676 145.231C133.423 145.231 133.222 145.32 133.073 145.499C132.924 145.67 132.85 145.927 132.85 146.27C132.85 146.605 132.924 146.862 133.073 147.041C133.222 147.212 133.423 147.298 133.676 147.298C133.93 147.298 134.131 147.212 134.28 147.041C134.429 146.862 134.503 146.605 134.503 146.27C134.503 145.927 134.429 145.67 134.28 145.499C134.131 145.32 133.93 145.231 133.676 145.231Z" fill="#20A273"/>
<rect x="76.5017" y="201.14" width="64.9276" height="19.4383" rx="5.15743" fill="#0F271F"/>
<path d="M84.6678 214.727L84.6678 206.991M84.6678 206.991L81.6593 209.938M84.6678 206.991L87.6763 209.938" stroke="#20A273" stroke-width="1.2034" stroke-linecap="round" stroke-linejoin="round"/>
<path d="M102.943 211.205H100.563V213.619H99.6131V211.205H97.2441V210.345H99.6131V207.92H100.563V210.345H102.943V211.205ZM109.744 207.663H105.822V210.211C105.993 209.972 106.246 209.778 106.582 209.629C106.917 209.473 107.278 209.395 107.666 209.395C108.284 209.395 108.787 209.525 109.174 209.786C109.562 210.039 109.837 210.371 110.001 210.78C110.172 211.183 110.258 211.611 110.258 212.066C110.258 212.602 110.158 213.082 109.956 213.507C109.755 213.932 109.446 214.267 109.029 214.513C108.619 214.759 108.109 214.881 107.498 214.881C106.716 214.881 106.083 214.68 105.598 214.278C105.114 213.876 104.82 213.339 104.716 212.669H105.71C105.807 213.094 106.012 213.425 106.325 213.663C106.638 213.902 107.032 214.021 107.509 214.021C108.098 214.021 108.541 213.846 108.839 213.496C109.137 213.138 109.286 212.669 109.286 212.088C109.286 211.507 109.137 211.06 108.839 210.747C108.541 210.427 108.101 210.266 107.52 210.266C107.126 210.266 106.779 210.363 106.481 210.557C106.191 210.743 105.978 211 105.844 211.328H104.883V206.769H109.744V207.663ZM112.101 214.926C111.907 214.926 111.744 214.859 111.609 214.725C111.475 214.591 111.408 214.427 111.408 214.233C111.408 214.04 111.475 213.876 111.609 213.742C111.744 213.608 111.907 213.541 112.101 213.541C112.287 213.541 112.444 213.608 112.57 213.742C112.705 213.876 112.772 214.04 112.772 214.233C112.772 214.427 112.705 214.591 112.57 214.725C112.444 214.859 112.287 214.926 112.101 214.926ZM119.107 207.663H115.185V210.211C115.356 209.972 115.609 209.778 115.945 209.629C116.28 209.473 116.641 209.395 117.029 209.395C117.647 209.395 118.15 209.525 118.537 209.786C118.925 210.039 119.2 210.371 119.364 210.78C119.535 211.183 119.621 211.611 119.621 212.066C119.621 212.602 119.52 213.082 119.319 213.507C119.118 213.932 118.809 214.267 118.392 214.513C117.982 214.759 117.472 214.881 116.861 214.881C116.079 214.881 115.446 214.68 114.961 214.278C114.477 213.876 114.183 213.339 114.079 212.669H115.073C115.17 213.094 115.375 213.425 115.688 213.663C116.001 213.902 116.395 214.021 116.872 214.021C117.461 214.021 117.904 213.846 118.202 213.496C118.5 213.138 118.649 212.669 118.649 212.088C118.649 211.507 118.5 211.06 118.202 210.747C117.904 210.427 117.464 210.266 116.883 210.266C116.488 210.266 116.142 210.363 115.844 210.557C115.554 210.743 115.341 211 115.207 211.328H114.246V206.769H119.107V207.663ZM120.727 213.06V212.289L124.649 206.858H125.867V212.177H126.984V213.06H125.867V214.859H124.861V213.06H120.727ZM124.906 207.92L121.9 212.177H124.906V207.92ZM127.777 208.601C127.777 208.095 127.929 207.693 128.235 207.395C128.54 207.089 128.931 206.936 129.408 206.936C129.885 206.936 130.276 207.089 130.581 207.395C130.887 207.693 131.039 208.095 131.039 208.601C131.039 209.115 130.887 209.525 130.581 209.831C130.276 210.129 129.885 210.278 129.408 210.278C128.931 210.278 128.54 210.129 128.235 209.831C127.929 209.525 127.777 209.115 127.777 208.601ZM134.302 207.059L129.777 214.859H128.771L133.297 207.059H134.302ZM129.408 207.562C129.155 207.562 128.954 207.652 128.805 207.83C128.663 208.002 128.592 208.259 128.592 208.601C128.592 208.944 128.663 209.205 128.805 209.384C128.954 209.562 129.155 209.652 129.408 209.652C129.661 209.652 129.862 209.562 130.011 209.384C130.16 209.197 130.235 208.937 130.235 208.601C130.235 208.259 130.16 208.002 130.011 207.83C129.862 207.652 129.661 207.562 129.408 207.562ZM132.056 213.317C132.056 212.803 132.209 212.397 132.515 212.099C132.82 211.794 133.211 211.641 133.688 211.641C134.165 211.641 134.552 211.794 134.85 212.099C135.155 212.397 135.308 212.803 135.308 213.317C135.308 213.824 135.155 214.23 134.85 214.535C134.552 214.841 134.165 214.993 133.688 214.993C133.211 214.993 132.82 214.844 132.515 214.546C132.209 214.241 132.056 213.831 132.056 213.317ZM133.677 212.278C133.423 212.278 133.222 212.367 133.073 212.546C132.924 212.717 132.85 212.974 132.85 213.317C132.85 213.652 132.924 213.909 133.073 214.088C133.222 214.259 133.423 214.345 133.677 214.345C133.93 214.345 134.131 214.259 134.28 214.088C134.429 213.909 134.504 213.652 134.504 213.317C134.504 212.974 134.429 212.717 134.28 212.546C134.131 212.367 133.93 212.278 133.677 212.278Z" fill="#20A273"/>
<rect x="237.242" y="134.093" width="64.9276" height="19.4383" rx="5.15743" fill="#0F271F"/>
<path d="M245.408 147.68L245.408 139.944M245.408 139.944L242.399 142.891M245.408 139.944L248.416 142.891" stroke="#20A273" stroke-width="1.2034" stroke-linecap="round" stroke-linejoin="round"/>
<path d="M263.683 144.158H261.303V146.572H260.353V144.158H257.984V143.298H260.353V140.873H261.303V143.298H263.683V144.158ZM265.333 143.689C265.333 142.407 265.541 141.409 265.958 140.694C266.376 139.971 267.106 139.61 268.149 139.61C269.184 139.61 269.91 139.971 270.328 140.694C270.745 141.409 270.953 142.407 270.953 143.689C270.953 144.992 270.745 146.005 270.328 146.728C269.91 147.451 269.184 147.812 268.149 147.812C267.106 147.812 266.376 147.451 265.958 146.728C265.541 146.005 265.333 144.992 265.333 143.689ZM269.948 143.689C269.948 143.041 269.903 142.493 269.814 142.046C269.732 141.592 269.557 141.227 269.288 140.951C269.028 140.675 268.648 140.537 268.149 140.537C267.642 140.537 267.255 140.675 266.986 140.951C266.726 141.227 266.551 141.592 266.461 142.046C266.379 142.493 266.338 143.041 266.338 143.689C266.338 144.359 266.379 144.922 266.461 145.376C266.551 145.83 266.726 146.195 266.986 146.471C267.255 146.747 267.642 146.885 268.149 146.885C268.648 146.885 269.028 146.747 269.288 146.471C269.557 146.195 269.732 145.83 269.814 145.376C269.903 144.922 269.948 144.359 269.948 143.689ZM272.841 147.879C272.647 147.879 272.483 147.812 272.349 147.678C272.215 147.544 272.148 147.38 272.148 147.186C272.148 146.993 272.215 146.829 272.349 146.695C272.483 146.56 272.647 146.493 272.841 146.493C273.027 146.493 273.184 146.56 273.31 146.695C273.444 146.829 273.512 146.993 273.512 147.186C273.512 147.38 273.444 147.544 273.31 147.678C273.184 147.812 273.027 147.879 272.841 147.879ZM279.847 140.616H275.925V143.163C276.096 142.925 276.349 142.731 276.685 142.582C277.02 142.426 277.381 142.348 277.769 142.348C278.387 142.348 278.89 142.478 279.277 142.739C279.664 142.992 279.94 143.324 280.104 143.733C280.275 144.136 280.361 144.564 280.361 145.018C280.361 145.555 280.26 146.035 280.059 146.46C279.858 146.885 279.549 147.22 279.132 147.466C278.722 147.711 278.212 147.834 277.601 147.834C276.819 147.834 276.186 147.633 275.701 147.231C275.217 146.829 274.923 146.292 274.819 145.622H275.813C275.91 146.046 276.115 146.378 276.428 146.616C276.741 146.855 277.135 146.974 277.612 146.974C278.201 146.974 278.644 146.799 278.942 146.449C279.24 146.091 279.389 145.622 279.389 145.041C279.389 144.46 279.24 144.013 278.942 143.7C278.644 143.379 278.204 143.219 277.623 143.219C277.228 143.219 276.882 143.316 276.584 143.51C276.294 143.696 276.081 143.953 275.947 144.281H274.986V139.722H279.847V140.616ZM281.467 146.013V145.242L285.389 139.811H286.607V145.13H287.724V146.013H286.607V147.812H285.601V146.013H281.467ZM285.646 140.873L282.64 145.13H285.646V140.873ZM288.517 141.554C288.517 141.048 288.669 140.645 288.975 140.347C289.28 140.042 289.671 139.889 290.148 139.889C290.625 139.889 291.016 140.042 291.321 140.347C291.627 140.645 291.779 141.048 291.779 141.554C291.779 142.068 291.627 142.478 291.321 142.784C291.016 143.081 290.625 143.23 290.148 143.23C289.671 143.23 289.28 143.081 288.975 142.784C288.669 142.478 288.517 142.068 288.517 141.554ZM295.042 140.012L290.517 147.812H289.511L294.037 140.012H295.042ZM290.148 140.515C289.895 140.515 289.694 140.604 289.545 140.783C289.403 140.955 289.332 141.212 289.332 141.554C289.332 141.897 289.403 142.158 289.545 142.337C289.694 142.515 289.895 142.605 290.148 142.605C290.401 142.605 290.602 142.515 290.751 142.337C290.9 142.15 290.975 141.89 290.975 141.554C290.975 141.212 290.9 140.955 290.751 140.783C290.602 140.604 290.401 140.515 290.148 140.515ZM292.796 146.27C292.796 145.756 292.949 145.35 293.255 145.052C293.56 144.746 293.951 144.594 294.428 144.594C294.905 144.594 295.292 144.746 295.59 145.052C295.895 145.35 296.048 145.756 296.048 146.27C296.048 146.777 295.895 147.183 295.59 147.488C295.292 147.793 294.905 147.946 294.428 147.946C293.951 147.946 293.56 147.797 293.255 147.499C292.949 147.194 292.796 146.784 292.796 146.27ZM294.417 145.231C294.163 145.231 293.962 145.32 293.813 145.499C293.664 145.67 293.59 145.927 293.59 146.27C293.59 146.605 293.664 146.862 293.813 147.041C293.962 147.212 294.163 147.298 294.417 147.298C294.67 147.298 294.871 147.212 295.02 147.041C295.169 146.862 295.244 146.605 295.244 146.27C295.244 145.927 295.169 145.67 295.02 145.499C294.871 145.32 294.67 145.231 294.417 145.231Z" fill="#20A273"/>
<rect x="237.242" y="201.14" width="64.9276" height="19.4383" rx="5.15743" fill="#290C0C"/>
<path d="M245.408 206.991V214.727M245.408 214.727L248.416 211.78M245.408 214.727L242.399 211.78" stroke="#D34141" stroke-width="1.2034" stroke-linecap="round" stroke-linejoin="round"/>
<path d="M263.683 211.205H261.303V213.619H260.353V211.205H257.984V210.345H260.353V207.92H261.303V210.345H263.683V211.205ZM265.333 210.736C265.333 209.454 265.541 208.456 265.959 207.741C266.376 207.018 267.106 206.657 268.149 206.657C269.184 206.657 269.911 207.018 270.328 207.741C270.745 208.456 270.954 209.454 270.954 210.736C270.954 212.039 270.745 213.053 270.328 213.775C269.911 214.498 269.184 214.859 268.149 214.859C267.106 214.859 266.376 214.498 265.959 213.775C265.541 213.053 265.333 212.039 265.333 210.736ZM269.948 210.736C269.948 210.088 269.903 209.54 269.814 209.093C269.732 208.639 269.557 208.274 269.289 207.998C269.028 207.722 268.648 207.585 268.149 207.585C267.642 207.585 267.255 207.722 266.987 207.998C266.726 208.274 266.551 208.639 266.462 209.093C266.38 209.54 266.339 210.088 266.339 210.736C266.339 211.406 266.38 211.969 266.462 212.423C266.551 212.878 266.726 213.243 266.987 213.518C267.255 213.794 267.642 213.932 268.149 213.932C268.648 213.932 269.028 213.794 269.289 213.518C269.557 213.243 269.732 212.878 269.814 212.423C269.903 211.969 269.948 211.406 269.948 210.736ZM272.841 214.926C272.648 214.926 272.484 214.859 272.35 214.725C272.216 214.591 272.149 214.427 272.149 214.233C272.149 214.04 272.216 213.876 272.35 213.742C272.484 213.608 272.648 213.541 272.841 213.541C273.028 213.541 273.184 213.608 273.311 213.742C273.445 213.876 273.512 214.04 273.512 214.233C273.512 214.427 273.445 214.591 273.311 214.725C273.184 214.859 273.028 214.926 272.841 214.926ZM279.847 207.663H275.925V210.211C276.096 209.972 276.35 209.778 276.685 209.629C277.02 209.473 277.381 209.395 277.769 209.395C278.387 209.395 278.89 209.525 279.277 209.786C279.665 210.039 279.94 210.371 280.104 210.78C280.276 211.183 280.361 211.611 280.361 212.066C280.361 212.602 280.261 213.082 280.06 213.507C279.858 213.932 279.549 214.267 279.132 214.513C278.722 214.759 278.212 214.881 277.601 214.881C276.819 214.881 276.186 214.68 275.702 214.278C275.217 213.876 274.923 213.339 274.819 212.669H275.813C275.91 213.094 276.115 213.425 276.428 213.663C276.741 213.902 277.136 214.021 277.612 214.021C278.201 214.021 278.644 213.846 278.942 213.496C279.24 213.138 279.389 212.669 279.389 212.088C279.389 211.507 279.24 211.06 278.942 210.747C278.644 210.427 278.205 210.266 277.624 210.266C277.229 210.266 276.882 210.363 276.584 210.557C276.294 210.743 276.081 211 275.947 211.328H274.986V206.769H279.847V207.663ZM281.467 213.06V212.289L285.389 206.858H286.607V212.177H287.724V213.06H286.607V214.859H285.601V213.06H281.467ZM285.646 207.92L282.64 212.177H285.646V207.92ZM288.517 208.601C288.517 208.095 288.67 207.693 288.975 207.395C289.28 207.089 289.671 206.936 290.148 206.936C290.625 206.936 291.016 207.089 291.322 207.395C291.627 207.693 291.78 208.095 291.78 208.601C291.78 209.115 291.627 209.525 291.322 209.831C291.016 210.129 290.625 210.278 290.148 210.278C289.671 210.278 289.28 210.129 288.975 209.831C288.67 209.525 288.517 209.115 288.517 208.601ZM295.043 207.059L290.517 214.859H289.511L294.037 207.059H295.043ZM290.148 207.562C289.895 207.562 289.694 207.652 289.545 207.83C289.403 208.002 289.333 208.259 289.333 208.601C289.333 208.944 289.403 209.205 289.545 209.384C289.694 209.562 289.895 209.652 290.148 209.652C290.402 209.652 290.603 209.562 290.752 209.384C290.901 209.197 290.975 208.937 290.975 208.601C290.975 208.259 290.901 208.002 290.752 207.83C290.603 207.652 290.402 207.562 290.148 207.562ZM292.797 213.317C292.797 212.803 292.949 212.397 293.255 212.099C293.56 211.794 293.951 211.641 294.428 211.641C294.905 211.641 295.292 211.794 295.59 212.099C295.896 212.397 296.048 212.803 296.048 213.317C296.048 213.824 295.896 214.23 295.59 214.535C295.292 214.841 294.905 214.993 294.428 214.993C293.951 214.993 293.56 214.844 293.255 214.546C292.949 214.241 292.797 213.831 292.797 213.317ZM294.417 212.278C294.164 212.278 293.962 212.367 293.813 212.546C293.664 212.717 293.59 212.974 293.59 213.317C293.59 213.652 293.664 213.909 293.813 214.088C293.962 214.259 294.164 214.345 294.417 214.345C294.67 214.345 294.871 214.259 295.02 214.088C295.169 213.909 295.244 213.652 295.244 213.317C295.244 212.974 295.169 212.717 295.02 212.546C294.871 212.367 294.67 212.278 294.417 212.278Z" fill="#D34141"/>
<line x1="20.6299" y1="85.5275" x2="301.71" y2="85.5275" stroke="#464646" stroke-width="0.859572"/>
<path d="M26.3933 114.125C26.8747 114.21 27.283 114.464 27.6182 114.885C27.9534 115.306 28.1211 115.784 28.1211 116.316C28.1211 116.772 28.0007 117.185 27.76 117.554C27.5279 117.915 27.1884 118.203 26.7414 118.418C26.2945 118.624 25.7744 118.728 25.1813 118.728H21.5969V109.766H25.0137C25.624 109.766 26.1483 109.87 26.5867 110.076C27.0251 110.282 27.356 110.562 27.5795 110.914C27.803 111.258 27.9148 111.645 27.9148 112.074C27.9148 112.59 27.7772 113.02 27.5022 113.364C27.2271 113.708 26.8575 113.961 26.3933 114.125ZM23.0668 113.531H24.8848C25.3661 113.531 25.74 113.424 26.0065 113.209C26.2816 112.986 26.4191 112.668 26.4191 112.255C26.4191 111.851 26.2816 111.537 26.0065 111.314C25.74 111.082 25.3661 110.966 24.8848 110.966H23.0668V113.531ZM25.0524 117.528C25.5509 117.528 25.942 117.408 26.2257 117.167C26.5094 116.927 26.6512 116.592 26.6512 116.162C26.6512 115.723 26.5008 115.375 26.1999 115.117C25.8991 114.859 25.4994 114.731 25.0008 114.731H23.0668V117.528H25.0524ZM36.2296 115.001C36.2296 115.268 36.2124 115.508 36.178 115.723H30.7498C30.7928 116.291 31.0034 116.746 31.3816 117.09C31.7598 117.434 32.224 117.606 32.7741 117.606C33.5649 117.606 34.1237 117.275 34.4503 116.613H36.0362C35.8213 117.266 35.4302 117.803 34.8629 118.225C34.3042 118.637 33.6079 118.844 32.7741 118.844C32.0951 118.844 31.4848 118.693 30.9432 118.392C30.4103 118.083 29.9891 117.653 29.6797 117.103C29.3788 116.544 29.2284 115.9 29.2284 115.169C29.2284 114.438 29.3745 113.798 29.6668 113.248C29.9676 112.689 30.3845 112.259 30.9175 111.958C31.459 111.658 32.0779 111.507 32.7741 111.507C33.4446 111.507 34.042 111.653 34.5663 111.946C35.0907 112.238 35.499 112.65 35.7912 113.183C36.0835 113.708 36.2296 114.314 36.2296 115.001ZM34.6953 114.537C34.6867 113.996 34.4933 113.562 34.1151 113.235C33.7368 112.908 33.2684 112.745 32.7097 112.745C32.2025 112.745 31.7684 112.908 31.4074 113.235C31.0464 113.553 30.8315 113.987 30.7627 114.537H34.6953ZM40.2548 118.844C39.6961 118.844 39.1932 118.745 38.7463 118.547C38.3079 118.341 37.9598 118.066 37.7019 117.722C37.444 117.369 37.3065 116.978 37.2893 116.549H38.8107C38.8365 116.849 38.9784 117.103 39.2362 117.309C39.5027 117.507 39.8336 117.606 40.229 117.606C40.6416 117.606 40.9597 117.528 41.1832 117.374C41.4152 117.21 41.5313 117.004 41.5313 116.755C41.5313 116.488 41.4023 116.291 41.1445 116.162C40.8952 116.033 40.4955 115.891 39.9454 115.736C39.4124 115.59 38.9784 115.448 38.6431 115.311C38.3079 115.173 38.0156 114.963 37.7664 114.679C37.5257 114.395 37.4053 114.021 37.4053 113.557C37.4053 113.179 37.5171 112.835 37.7406 112.526C37.9641 112.208 38.2821 111.958 38.6947 111.778C39.1159 111.597 39.5972 111.507 40.1388 111.507C40.9468 111.507 41.5958 111.713 42.0857 112.126C42.5843 112.53 42.8507 113.084 42.8851 113.789H41.4152C41.3895 113.471 41.2605 113.218 41.0284 113.029C40.7964 112.839 40.4826 112.745 40.0872 112.745C39.7004 112.745 39.4038 112.818 39.1975 112.964C38.9912 113.11 38.8881 113.304 38.8881 113.544C38.8881 113.733 38.9569 113.892 39.0944 114.021C39.2319 114.15 39.3995 114.253 39.5972 114.331C39.7949 114.4 40.0872 114.49 40.474 114.602C40.9898 114.739 41.4109 114.881 41.7376 115.027C42.0728 115.165 42.3608 115.371 42.6015 115.646C42.8421 115.921 42.9668 116.286 42.9754 116.742C42.9754 117.146 42.8636 117.507 42.6401 117.825C42.4166 118.143 42.0986 118.392 41.686 118.573C41.282 118.753 40.8049 118.844 40.2548 118.844ZM46.2784 112.822V116.755C46.2784 117.021 46.3386 117.215 46.459 117.335C46.5879 117.447 46.8028 117.503 47.1036 117.503H48.0062V118.728H46.8458C46.1839 118.728 45.6767 118.573 45.3243 118.263C44.9719 117.954 44.7957 117.451 44.7957 116.755V112.822H43.9576V111.623H44.7957V109.857H46.2784V111.623H48.0062V112.822H46.2784ZM54.1801 112.668C54.4294 112.341 54.7689 112.066 55.1987 111.842C55.6285 111.619 56.1141 111.507 56.6557 111.507C57.2746 111.507 57.8376 111.662 58.3447 111.971C58.8605 112.272 59.2645 112.698 59.5567 113.248C59.849 113.798 59.9951 114.43 59.9951 115.143C59.9951 115.857 59.849 116.497 59.5567 117.064C59.2645 117.623 58.8605 118.061 58.3447 118.379C57.8376 118.689 57.2746 118.844 56.6557 118.844C56.1141 118.844 55.6328 118.736 55.2116 118.521C54.7904 118.298 54.4466 118.023 54.1801 117.696V122.106H52.7102V111.623H54.1801V112.668ZM58.4994 115.143C58.4994 114.653 58.3963 114.232 58.19 113.88C57.9923 113.519 57.7258 113.248 57.3906 113.067C57.064 112.878 56.7115 112.784 56.3333 112.784C55.9637 112.784 55.6113 112.878 55.276 113.067C54.9494 113.256 54.6829 113.531 54.4766 113.892C54.2789 114.253 54.1801 114.679 54.1801 115.169C54.1801 115.659 54.2789 116.089 54.4766 116.458C54.6829 116.819 54.9494 117.094 55.276 117.283C55.6113 117.473 55.9637 117.567 56.3333 117.567C56.7115 117.567 57.064 117.473 57.3906 117.283C57.7258 117.086 57.9923 116.802 58.19 116.432C58.3963 116.063 58.4994 115.633 58.4994 115.143ZM67.9599 115.001C67.9599 115.268 67.9427 115.508 67.9083 115.723H62.4801C62.5231 116.291 62.7337 116.746 63.1119 117.09C63.4901 117.434 63.9543 117.606 64.5044 117.606C65.2952 117.606 65.854 117.275 66.1806 116.613H67.7665C67.5516 117.266 67.1605 117.803 66.5932 118.225C66.0345 118.637 65.3382 118.844 64.5044 118.844C63.8254 118.844 63.2151 118.693 62.6735 118.392C62.1406 118.083 61.7194 117.653 61.41 117.103C61.1091 116.544 60.9587 115.9 60.9587 115.169C60.9587 114.438 61.1048 113.798 61.3971 113.248C61.6979 112.689 62.1148 112.259 62.6478 111.958C63.1893 111.658 63.8082 111.507 64.5044 111.507C65.1749 111.507 65.7723 111.653 66.2966 111.946C66.821 112.238 67.2293 112.65 67.5215 113.183C67.8138 113.708 67.9599 114.314 67.9599 115.001ZM66.4256 114.537C66.417 113.996 66.2236 113.562 65.8454 113.235C65.4671 112.908 64.9987 112.745 64.44 112.745C63.9328 112.745 63.4987 112.908 63.1377 113.235C62.7767 113.553 62.5618 113.987 62.493 114.537H66.4256ZM70.8763 112.655C71.0912 112.294 71.3748 112.014 71.7272 111.817C72.0883 111.61 72.5138 111.507 73.0037 111.507V113.029H72.6298C72.0539 113.029 71.6155 113.175 71.3147 113.467C71.0224 113.759 70.8763 114.266 70.8763 114.988V118.728H69.4064V111.623H70.8763V112.655ZM77.3332 112.822H76.0181V118.728H74.5353V112.822H73.6972V111.623H74.5353V111.12C74.5353 110.304 74.7502 109.711 75.18 109.341C75.6184 108.963 76.3017 108.774 77.2301 108.774V109.999C76.7831 109.999 76.4694 110.085 76.2889 110.256C76.1083 110.42 76.0181 110.708 76.0181 111.12V111.623H77.3332V112.822ZM81.7175 118.844C81.047 118.844 80.441 118.693 79.8995 118.392C79.3579 118.083 78.9324 117.653 78.623 117.103C78.3136 116.544 78.1588 115.9 78.1588 115.169C78.1588 114.447 78.3178 113.806 78.6359 113.248C78.9539 112.689 79.388 112.259 79.9381 111.958C80.4883 111.658 81.1029 111.507 81.7819 111.507C82.461 111.507 83.0756 111.658 83.6257 111.958C84.1758 112.259 84.6099 112.689 84.928 113.248C85.246 113.806 85.405 114.447 85.405 115.169C85.405 115.891 85.2417 116.531 84.9151 117.09C84.5884 117.649 84.1415 118.083 83.5741 118.392C83.0154 118.693 82.3965 118.844 81.7175 118.844ZM81.7175 117.567C82.0957 117.567 82.4481 117.477 82.7747 117.296C83.11 117.116 83.3807 116.845 83.587 116.484C83.7933 116.123 83.8965 115.685 83.8965 115.169C83.8965 114.653 83.7976 114.219 83.5999 113.867C83.4022 113.506 83.14 113.235 82.8134 113.054C82.4868 112.874 82.1344 112.784 81.7561 112.784C81.3779 112.784 81.0255 112.874 80.6989 113.054C80.3808 113.235 80.1272 113.506 79.9381 113.867C79.749 114.219 79.6545 114.653 79.6545 115.169C79.6545 115.934 79.8479 116.527 80.2347 116.948C80.6301 117.361 81.1244 117.567 81.7175 117.567ZM88.3279 112.655C88.5428 112.294 88.8265 112.014 89.1789 111.817C89.5399 111.61 89.9654 111.507 90.4554 111.507V113.029H90.0815C89.5055 113.029 89.0672 113.175 88.7663 113.467C88.4741 113.759 88.3279 114.266 88.3279 114.988V118.728H86.8581V111.623H88.3279V112.655ZM100.407 111.507C100.965 111.507 101.464 111.623 101.902 111.855C102.349 112.087 102.697 112.431 102.947 112.887C103.204 113.342 103.333 113.892 103.333 114.537V118.728H101.876V114.756C101.876 114.12 101.717 113.635 101.399 113.299C101.081 112.956 100.647 112.784 100.097 112.784C99.5469 112.784 99.1085 112.956 98.7819 113.299C98.4639 113.635 98.3048 114.12 98.3048 114.756V118.728H96.8479V114.756C96.8479 114.12 96.6889 113.635 96.3708 113.299C96.0528 112.956 95.6187 112.784 95.0686 112.784C94.5184 112.784 94.08 112.956 93.7534 113.299C93.4354 113.635 93.2763 114.12 93.2763 114.756V118.728H91.8065V111.623H93.2763V112.435C93.517 112.143 93.8222 111.915 94.1918 111.752C94.5614 111.589 94.9568 111.507 95.378 111.507C95.9453 111.507 96.4525 111.627 96.8994 111.868C97.3464 112.109 97.6903 112.457 97.9309 112.913C98.1458 112.483 98.4811 112.143 98.9366 111.894C99.3922 111.636 99.8822 111.507 100.407 111.507ZM111.715 115.001C111.715 115.268 111.698 115.508 111.663 115.723H106.235C106.278 116.291 106.489 116.746 106.867 117.09C107.245 117.434 107.709 117.606 108.259 117.606C109.05 117.606 109.609 117.275 109.936 116.613H111.522C111.307 117.266 110.916 117.803 110.348 118.225C109.79 118.637 109.093 118.844 108.259 118.844C107.58 118.844 106.97 118.693 106.429 118.392C105.896 118.083 105.474 117.653 105.165 117.103C104.864 116.544 104.714 115.9 104.714 115.169C104.714 114.438 104.86 113.798 105.152 113.248C105.453 112.689 105.87 112.259 106.403 111.958C106.944 111.658 107.563 111.507 108.259 111.507C108.93 111.507 109.527 111.653 110.052 111.946C110.576 112.238 110.984 112.65 111.277 113.183C111.569 113.708 111.715 114.314 111.715 115.001ZM110.181 114.537C110.172 113.996 109.979 113.562 109.6 113.235C109.222 112.908 108.754 112.745 108.195 112.745C107.688 112.745 107.254 112.908 106.893 113.235C106.532 113.553 106.317 113.987 106.248 114.537H110.181ZM114.631 112.655C114.846 112.294 115.13 112.014 115.482 111.817C115.843 111.61 116.269 111.507 116.759 111.507V113.029H116.385C115.809 113.029 115.371 113.175 115.07 113.467C114.777 113.759 114.631 114.266 114.631 114.988V118.728H113.161V111.623H114.631V112.655Z" fill="#98959E"/>
<path d="M28.7528 176.813V185.774H27.283V181.854H23.0668V185.774H21.5969V176.813H23.0668V180.655H27.283V176.813H28.7528ZM31.4357 177.728C31.1692 177.728 30.9458 177.638 30.7652 177.457C30.5847 177.277 30.4945 177.053 30.4945 176.787C30.4945 176.52 30.5847 176.297 30.7652 176.116C30.9458 175.936 31.1692 175.846 31.4357 175.846C31.6936 175.846 31.9128 175.936 32.0933 176.116C32.2738 176.297 32.364 176.52 32.364 176.787C32.364 177.053 32.2738 177.277 32.0933 177.457C31.9128 177.638 31.6936 177.728 31.4357 177.728ZM32.1578 178.669V185.774H30.6879V178.669H32.1578ZM36.9499 178.553C37.5001 178.553 37.9857 178.665 38.4069 178.889C38.8367 179.103 39.1719 179.374 39.4126 179.701V178.669H40.8954V185.89C40.8954 186.543 40.7578 187.123 40.4828 187.63C40.2077 188.146 39.808 188.55 39.2837 188.842C38.7679 189.135 38.149 189.281 37.427 189.281C36.4643 189.281 35.6649 189.053 35.0288 188.597C34.3927 188.15 34.0317 187.54 33.9457 186.766H35.4027C35.5144 187.136 35.7508 187.433 36.1119 187.656C36.4815 187.888 36.9198 188.004 37.427 188.004C38.0201 188.004 38.4972 187.824 38.8582 187.463C39.2278 187.102 39.4126 186.577 39.4126 185.89V184.704C39.1633 185.039 38.8238 185.322 38.394 185.554C37.9728 185.778 37.4915 185.89 36.9499 185.89C36.331 185.89 35.7637 185.735 35.248 185.426C34.7408 185.108 34.3368 184.669 34.036 184.11C33.7437 183.543 33.5976 182.903 33.5976 182.189C33.5976 181.476 33.7437 180.844 34.036 180.294C34.3368 179.744 34.7408 179.318 35.248 179.017C35.7637 178.708 36.331 178.553 36.9499 178.553ZM39.4126 182.215C39.4126 181.725 39.3095 181.3 39.1032 180.939C38.9055 180.578 38.6433 180.303 38.3167 180.113C37.99 179.924 37.6376 179.83 37.2594 179.83C36.8812 179.83 36.5287 179.924 36.2021 180.113C35.8755 180.294 35.609 180.565 35.4027 180.926C35.205 181.278 35.1062 181.699 35.1062 182.189C35.1062 182.679 35.205 183.109 35.4027 183.479C35.609 183.848 35.8755 184.132 36.2021 184.33C36.5373 184.519 36.8898 184.613 37.2594 184.613C37.6376 184.613 37.99 184.519 38.3167 184.33C38.6433 184.14 38.9055 183.865 39.1032 183.504C39.3095 183.135 39.4126 182.705 39.4126 182.215ZM46.5007 178.553C47.0422 178.553 47.5235 178.669 47.9447 178.901C48.3745 179.133 48.7098 179.477 48.9504 179.933C49.1997 180.388 49.3243 180.939 49.3243 181.583V185.774H47.8674V181.802C47.8674 181.166 47.7084 180.681 47.3903 180.345C47.0723 180.002 46.6382 179.83 46.0881 179.83C45.5379 179.83 45.0995 180.002 44.7729 180.345C44.4549 180.681 44.2959 181.166 44.2959 181.802V185.774H42.826V176.232H44.2959V179.495C44.5451 179.194 44.8589 178.962 45.2371 178.798C45.6239 178.635 46.0451 178.553 46.5007 178.553ZM52.6691 176.232V185.774H51.1993V176.232H52.6691ZM55.3468 177.728C55.0803 177.728 54.8568 177.638 54.6763 177.457C54.4958 177.277 54.4055 177.053 54.4055 176.787C54.4055 176.52 54.4958 176.297 54.6763 176.116C54.8568 175.936 55.0803 175.846 55.3468 175.846C55.6046 175.846 55.8238 175.936 56.0043 176.116C56.1848 176.297 56.2751 176.52 56.2751 176.787C56.2751 177.053 56.1848 177.277 56.0043 177.457C55.8238 177.638 55.6046 177.728 55.3468 177.728ZM56.0688 178.669V185.774H54.5989V178.669H56.0688ZM60.861 178.553C61.4111 178.553 61.8968 178.665 62.318 178.889C62.7477 179.103 63.083 179.374 63.3237 179.701V178.669H64.8064V185.89C64.8064 186.543 64.6689 187.123 64.3938 187.63C64.1188 188.146 63.7191 188.55 63.1947 188.842C62.679 189.135 62.0601 189.281 61.338 189.281C60.3753 189.281 59.5759 189.053 58.9398 188.597C58.3038 188.15 57.9427 187.54 57.8568 186.766H59.3137C59.4255 187.136 59.6619 187.433 60.0229 187.656C60.3925 187.888 60.8309 188.004 61.338 188.004C61.9311 188.004 62.4082 187.824 62.7692 187.463C63.1388 187.102 63.3237 186.577 63.3237 185.89V184.704C63.0744 185.039 62.7348 185.322 62.3051 185.554C61.8839 185.778 61.4025 185.89 60.861 185.89C60.2421 185.89 59.6748 185.735 59.159 185.426C58.6519 185.108 58.2479 184.669 57.947 184.11C57.6548 183.543 57.5086 182.903 57.5086 182.189C57.5086 181.476 57.6548 180.844 57.947 180.294C58.2479 179.744 58.6519 179.318 59.159 179.017C59.6748 178.708 60.2421 178.553 60.861 178.553ZM63.3237 182.215C63.3237 181.725 63.2205 181.3 63.0142 180.939C62.8165 180.578 62.5543 180.303 62.2277 180.113C61.9011 179.924 61.5486 179.83 61.1704 179.83C60.7922 179.83 60.4398 179.924 60.1132 180.113C59.7865 180.294 59.52 180.565 59.3137 180.926C59.116 181.278 59.0172 181.699 59.0172 182.189C59.0172 182.679 59.116 183.109 59.3137 183.479C59.52 183.848 59.7865 184.132 60.1132 184.33C60.4484 184.519 60.8008 184.613 61.1704 184.613C61.5486 184.613 61.9011 184.519 62.2277 184.33C62.5543 184.14 62.8165 183.865 63.0142 183.504C63.2205 183.135 63.3237 182.705 63.3237 182.215ZM70.4117 178.553C70.9532 178.553 71.4346 178.669 71.8558 178.901C72.2856 179.133 72.6208 179.477 72.8615 179.933C73.1108 180.388 73.2354 180.939 73.2354 181.583V185.774H71.7784V181.802C71.7784 181.166 71.6194 180.681 71.3014 180.345C70.9833 180.002 70.5492 179.83 69.9991 179.83C69.449 179.83 69.0106 180.002 68.684 180.345C68.3659 180.681 68.2069 181.166 68.2069 181.802V185.774H66.737V176.232H68.2069V179.495C68.4562 179.194 68.7699 178.962 69.1481 178.798C69.5349 178.635 69.9561 178.553 70.4117 178.553ZM76.8251 179.868V183.801C76.8251 184.067 76.8853 184.261 77.0057 184.381C77.1346 184.493 77.3495 184.549 77.6503 184.549H78.5529V185.774H77.3925C76.7306 185.774 76.2234 185.619 75.871 185.31C75.5186 185 75.3424 184.497 75.3424 183.801V179.868H74.5043V178.669H75.3424V176.903H76.8251V178.669H78.5529V179.868H76.8251Z" fill="#98959E"/>
<path d="M194.005 109.766L191.349 118.728H189.686L187.804 111.946L185.805 118.728L184.155 118.74L181.615 109.766H183.175L185.031 117.064L187.043 109.766H188.693L190.563 117.026L192.432 109.766H194.005ZM198.299 118.844C197.629 118.844 197.023 118.693 196.481 118.392C195.94 118.083 195.514 117.653 195.205 117.103C194.895 116.544 194.741 115.9 194.741 115.169C194.741 114.447 194.9 113.806 195.218 113.248C195.536 112.689 195.97 112.259 196.52 111.958C197.07 111.658 197.685 111.507 198.364 111.507C199.043 111.507 199.657 111.658 200.207 111.958C200.758 112.259 201.192 112.689 201.51 113.248C201.828 113.806 201.987 114.447 201.987 115.169C201.987 115.891 201.823 116.531 201.497 117.09C201.17 117.649 200.723 118.083 200.156 118.392C199.597 118.693 198.978 118.844 198.299 118.844ZM198.299 117.567C198.677 117.567 199.03 117.477 199.356 117.296C199.692 117.116 199.962 116.845 200.169 116.484C200.375 116.123 200.478 115.685 200.478 115.169C200.478 114.653 200.379 114.219 200.182 113.867C199.984 113.506 199.722 113.235 199.395 113.054C199.069 112.874 198.716 112.784 198.338 112.784C197.96 112.784 197.607 112.874 197.281 113.054C196.963 113.235 196.709 113.506 196.52 113.867C196.331 114.219 196.236 114.653 196.236 115.169C196.236 115.934 196.43 116.527 196.816 116.948C197.212 117.361 197.706 117.567 198.299 117.567ZM204.91 112.655C205.125 112.294 205.408 112.014 205.761 111.817C206.122 111.61 206.547 111.507 207.037 111.507V113.029H206.663C206.087 113.029 205.649 113.175 205.348 113.467C205.056 113.759 204.91 114.266 204.91 114.988V118.728H203.44V111.623H204.91V112.655ZM210.967 118.844C210.408 118.844 209.905 118.745 209.458 118.547C209.02 118.341 208.672 118.066 208.414 117.722C208.156 117.369 208.019 116.978 208.001 116.549H209.523C209.549 116.849 209.69 117.103 209.948 117.309C210.215 117.507 210.546 117.606 210.941 117.606C211.354 117.606 211.672 117.528 211.895 117.374C212.127 117.21 212.243 117.004 212.243 116.755C212.243 116.488 212.114 116.291 211.857 116.162C211.607 116.033 211.208 115.891 210.658 115.736C210.125 115.59 209.69 115.448 209.355 115.311C209.02 115.173 208.728 114.963 208.478 114.679C208.238 114.395 208.117 114.021 208.117 113.557C208.117 113.179 208.229 112.835 208.453 112.526C208.676 112.208 208.994 111.958 209.407 111.778C209.828 111.597 210.309 111.507 210.851 111.507C211.659 111.507 212.308 111.713 212.798 112.126C213.296 112.53 213.563 113.084 213.597 113.789H212.127C212.102 113.471 211.973 113.218 211.741 113.029C211.508 112.839 211.195 112.745 210.799 112.745C210.413 112.745 210.116 112.818 209.91 112.964C209.703 113.11 209.6 113.304 209.6 113.544C209.6 113.733 209.669 113.892 209.807 114.021C209.944 114.15 210.112 114.253 210.309 114.331C210.507 114.4 210.799 114.49 211.186 114.602C211.702 114.739 212.123 114.881 212.45 115.027C212.785 115.165 213.073 115.371 213.314 115.646C213.554 115.921 213.679 116.286 213.687 116.742C213.687 117.146 213.576 117.507 213.352 117.825C213.129 118.143 212.811 118.392 212.398 118.573C211.994 118.753 211.517 118.844 210.967 118.844ZM216.991 112.822V116.755C216.991 117.021 217.051 117.215 217.171 117.335C217.3 117.447 217.515 117.503 217.816 117.503H218.718V118.728H217.558C216.896 118.728 216.389 118.573 216.036 118.263C215.684 117.954 215.508 117.451 215.508 116.755V112.822H214.67V111.623H215.508V109.857H216.991V111.623H218.718V112.822H216.991ZM224.892 112.668C225.141 112.341 225.481 112.066 225.911 111.842C226.341 111.619 226.826 111.507 227.368 111.507C227.987 111.507 228.55 111.662 229.057 111.971C229.573 112.272 229.977 112.698 230.269 113.248C230.561 113.798 230.707 114.43 230.707 115.143C230.707 115.857 230.561 116.497 230.269 117.064C229.977 117.623 229.573 118.061 229.057 118.379C228.55 118.689 227.987 118.844 227.368 118.844C226.826 118.844 226.345 118.736 225.924 118.521C225.503 118.298 225.159 118.023 224.892 117.696V122.106H223.422V111.623H224.892V112.668ZM229.212 115.143C229.212 114.653 229.108 114.232 228.902 113.88C228.704 113.519 228.438 113.248 228.103 113.067C227.776 112.878 227.424 112.784 227.045 112.784C226.676 112.784 226.323 112.878 225.988 113.067C225.662 113.256 225.395 113.531 225.189 113.892C224.991 114.253 224.892 114.679 224.892 115.169C224.892 115.659 224.991 116.089 225.189 116.458C225.395 116.819 225.662 117.094 225.988 117.283C226.323 117.473 226.676 117.567 227.045 117.567C227.424 117.567 227.776 117.473 228.103 117.283C228.438 117.086 228.704 116.802 228.902 116.432C229.108 116.063 229.212 115.633 229.212 115.143ZM238.672 115.001C238.672 115.268 238.655 115.508 238.62 115.723H233.192C233.235 116.291 233.446 116.746 233.824 117.09C234.202 117.434 234.666 117.606 235.217 117.606C236.007 117.606 236.566 117.275 236.893 116.613H238.479C238.264 117.266 237.873 117.803 237.305 118.225C236.747 118.637 236.05 118.844 235.217 118.844C234.537 118.844 233.927 118.693 233.386 118.392C232.853 118.083 232.432 117.653 232.122 117.103C231.821 116.544 231.671 115.9 231.671 115.169C231.671 114.438 231.817 113.798 232.109 113.248C232.41 112.689 232.827 112.259 233.36 111.958C233.901 111.658 234.52 111.507 235.217 111.507C235.887 111.507 236.484 111.653 237.009 111.946C237.533 112.238 237.941 112.65 238.234 113.183C238.526 113.708 238.672 114.314 238.672 115.001ZM237.138 114.537C237.129 113.996 236.936 113.562 236.557 113.235C236.179 112.908 235.711 112.745 235.152 112.745C234.645 112.745 234.211 112.908 233.85 113.235C233.489 113.553 233.274 113.987 233.205 114.537H237.138ZM241.588 112.655C241.803 112.294 242.087 112.014 242.439 111.817C242.8 111.61 243.226 111.507 243.716 111.507V113.029H243.342C242.766 113.029 242.328 113.175 242.027 113.467C241.735 113.759 241.588 114.266 241.588 114.988V118.728H240.119V111.623H241.588V112.655ZM248.045 112.822H246.73V118.728H245.247V112.822H244.409V111.623H245.247V111.12C245.247 110.304 245.462 109.711 245.892 109.341C246.331 108.963 247.014 108.774 247.942 108.774V109.999C247.495 109.999 247.181 110.085 247.001 110.256C246.82 110.42 246.73 110.708 246.73 111.12V111.623H248.045V112.822ZM252.43 118.844C251.759 118.844 251.153 118.693 250.612 118.392C250.07 118.083 249.645 117.653 249.335 117.103C249.026 116.544 248.871 115.9 248.871 115.169C248.871 114.447 249.03 113.806 249.348 113.248C249.666 112.689 250.1 112.259 250.65 111.958C251.2 111.658 251.815 111.507 252.494 111.507C253.173 111.507 253.788 111.658 254.338 111.958C254.888 112.259 255.322 112.689 255.64 113.248C255.958 113.806 256.117 114.447 256.117 115.169C256.117 115.891 255.954 116.531 255.627 117.09C255.301 117.649 254.854 118.083 254.286 118.392C253.728 118.693 253.109 118.844 252.43 118.844ZM252.43 117.567C252.808 117.567 253.16 117.477 253.487 117.296C253.822 117.116 254.093 116.845 254.299 116.484C254.505 116.123 254.609 115.685 254.609 115.169C254.609 114.653 254.51 114.219 254.312 113.867C254.114 113.506 253.852 113.235 253.526 113.054C253.199 112.874 252.846 112.784 252.468 112.784C252.09 112.784 251.738 112.874 251.411 113.054C251.093 113.235 250.839 113.506 250.65 113.867C250.461 114.219 250.367 114.653 250.367 115.169C250.367 115.934 250.56 116.527 250.947 116.948C251.342 117.361 251.836 117.567 252.43 117.567ZM259.04 112.655C259.255 112.294 259.539 112.014 259.891 111.817C260.252 111.61 260.678 111.507 261.168 111.507V113.029H260.794C260.218 113.029 259.779 113.175 259.478 113.467C259.186 113.759 259.04 114.266 259.04 114.988V118.728H257.57V111.623H259.04V112.655ZM271.119 111.507C271.677 111.507 272.176 111.623 272.614 111.855C273.061 112.087 273.409 112.431 273.659 112.887C273.917 113.342 274.045 113.892 274.045 114.537V118.728H272.588V114.756C272.588 114.12 272.429 113.635 272.111 113.299C271.793 112.956 271.359 112.784 270.809 112.784C270.259 112.784 269.821 112.956 269.494 113.299C269.176 113.635 269.017 114.12 269.017 114.756V118.728H267.56V114.756C267.56 114.12 267.401 113.635 267.083 113.299C266.765 112.956 266.331 112.784 265.781 112.784C265.231 112.784 264.792 112.956 264.466 113.299C264.147 113.635 263.988 114.12 263.988 114.756V118.728H262.519V111.623H263.988V112.435C264.229 112.143 264.534 111.915 264.904 111.752C265.274 111.589 265.669 111.507 266.09 111.507C266.657 111.507 267.165 111.627 267.612 111.868C268.059 112.109 268.402 112.457 268.643 112.913C268.858 112.483 269.193 112.143 269.649 111.894C270.104 111.636 270.594 111.507 271.119 111.507ZM282.427 115.001C282.427 115.268 282.41 115.508 282.376 115.723H276.947C276.99 116.291 277.201 116.746 277.579 117.09C277.957 117.434 278.421 117.606 278.972 117.606C279.762 117.606 280.321 117.275 280.648 116.613H282.234C282.019 117.266 281.628 117.803 281.06 118.225C280.502 118.637 279.805 118.844 278.972 118.844C278.293 118.844 277.682 118.693 277.141 118.392C276.608 118.083 276.187 117.653 275.877 117.103C275.576 116.544 275.426 115.9 275.426 115.169C275.426 114.438 275.572 113.798 275.864 113.248C276.165 112.689 276.582 112.259 277.115 111.958C277.656 111.658 278.275 111.507 278.972 111.507C279.642 111.507 280.239 111.653 280.764 111.946C281.288 112.238 281.696 112.65 281.989 113.183C282.281 113.708 282.427 114.314 282.427 115.001ZM280.893 114.537C280.884 113.996 280.691 113.562 280.313 113.235C279.934 112.908 279.466 112.745 278.907 112.745C278.4 112.745 277.966 112.908 277.605 113.235C277.244 113.553 277.029 113.987 276.96 114.537H280.893ZM285.343 112.655C285.558 112.294 285.842 112.014 286.194 111.817C286.555 111.61 286.981 111.507 287.471 111.507V113.029H287.097C286.521 113.029 286.083 113.175 285.782 113.467C285.49 113.759 285.343 114.266 285.343 114.988V118.728H283.874V111.623H285.343V112.655Z" fill="#98959E"/>
<path d="M189.493 176.813V185.774H188.023V181.854H183.807V185.774H182.337V176.813H183.807V180.655H188.023V176.813H189.493ZM192.175 177.728C191.909 177.728 191.686 177.638 191.505 177.457C191.324 177.277 191.234 177.053 191.234 176.787C191.234 176.52 191.324 176.297 191.505 176.116C191.686 175.936 191.909 175.846 192.175 175.846C192.433 175.846 192.653 175.936 192.833 176.116C193.014 176.297 193.104 176.52 193.104 176.787C193.104 177.053 193.014 177.277 192.833 177.457C192.653 177.638 192.433 177.728 192.175 177.728ZM192.897 178.669V185.774H191.428V178.669H192.897ZM197.69 178.553C198.24 178.553 198.725 178.665 199.147 178.889C199.576 179.103 199.912 179.374 200.152 179.701V178.669H201.635V185.89C201.635 186.543 201.498 187.123 201.223 187.63C200.947 188.146 200.548 188.55 200.023 188.842C199.508 189.135 198.889 189.281 198.167 189.281C197.204 189.281 196.405 189.053 195.769 188.597C195.132 188.15 194.771 187.54 194.685 186.766H196.142C196.254 187.136 196.491 187.433 196.852 187.656C197.221 187.888 197.66 188.004 198.167 188.004C198.76 188.004 199.237 187.824 199.598 187.463C199.968 187.102 200.152 186.577 200.152 185.89V184.704C199.903 185.039 199.564 185.322 199.134 185.554C198.713 185.778 198.231 185.89 197.69 185.89C197.071 185.89 196.503 185.735 195.988 185.426C195.481 185.108 195.077 184.669 194.776 184.11C194.483 183.543 194.337 182.903 194.337 182.189C194.337 181.476 194.483 180.844 194.776 180.294C195.077 179.744 195.481 179.318 195.988 179.017C196.503 178.708 197.071 178.553 197.69 178.553ZM200.152 182.215C200.152 181.725 200.049 181.3 199.843 180.939C199.645 180.578 199.383 180.303 199.056 180.113C198.73 179.924 198.377 179.83 197.999 179.83C197.621 179.83 197.268 179.924 196.942 180.113C196.615 180.294 196.349 180.565 196.142 180.926C195.945 181.278 195.846 181.699 195.846 182.189C195.846 182.679 195.945 183.109 196.142 183.479C196.349 183.848 196.615 184.132 196.942 184.33C197.277 184.519 197.63 184.613 197.999 184.613C198.377 184.613 198.73 184.519 199.056 184.33C199.383 184.14 199.645 183.865 199.843 183.504C200.049 183.135 200.152 182.705 200.152 182.215ZM207.24 178.553C207.782 178.553 208.263 178.669 208.684 178.901C209.114 179.133 209.449 179.477 209.69 179.933C209.939 180.388 210.064 180.939 210.064 181.583V185.774H208.607V181.802C208.607 181.166 208.448 180.681 208.13 180.345C207.812 180.002 207.378 179.83 206.828 179.83C206.278 179.83 205.839 180.002 205.513 180.345C205.195 180.681 205.036 181.166 205.036 181.802V185.774H203.566V176.232H205.036V179.495C205.285 179.194 205.599 178.962 205.977 178.798C206.364 178.635 206.785 178.553 207.24 178.553ZM213.409 176.232V185.774H211.939V176.232H213.409ZM216.087 177.728C215.82 177.728 215.597 177.638 215.416 177.457C215.236 177.277 215.145 177.053 215.145 176.787C215.145 176.52 215.236 176.297 215.416 176.116C215.597 175.936 215.82 175.846 216.087 175.846C216.344 175.846 216.564 175.936 216.744 176.116C216.925 176.297 217.015 176.52 217.015 176.787C217.015 177.053 216.925 177.277 216.744 177.457C216.564 177.638 216.344 177.728 216.087 177.728ZM216.809 178.669V185.774H215.339V178.669H216.809ZM221.601 178.553C222.151 178.553 222.637 178.665 223.058 178.889C223.487 179.103 223.823 179.374 224.063 179.701V178.669H225.546V185.89C225.546 186.543 225.409 187.123 225.134 187.63C224.859 188.146 224.459 188.55 223.934 188.842C223.419 189.135 222.8 189.281 222.078 189.281C221.115 189.281 220.316 189.053 219.68 188.597C219.043 188.15 218.682 187.54 218.597 186.766H220.053C220.165 187.136 220.402 187.433 220.763 187.656C221.132 187.888 221.571 188.004 222.078 188.004C222.671 188.004 223.148 187.824 223.509 187.463C223.879 187.102 224.063 186.577 224.063 185.89V184.704C223.814 185.039 223.475 185.322 223.045 185.554C222.624 185.778 222.142 185.89 221.601 185.89C220.982 185.89 220.415 185.735 219.899 185.426C219.392 185.108 218.988 184.669 218.687 184.11C218.395 183.543 218.248 182.903 218.248 182.189C218.248 181.476 218.395 180.844 218.687 180.294C218.988 179.744 219.392 179.318 219.899 179.017C220.415 178.708 220.982 178.553 221.601 178.553ZM224.063 182.215C224.063 181.725 223.96 181.3 223.754 180.939C223.556 180.578 223.294 180.303 222.967 180.113C222.641 179.924 222.288 179.83 221.91 179.83C221.532 179.83 221.18 179.924 220.853 180.113C220.526 180.294 220.26 180.565 220.053 180.926C219.856 181.278 219.757 181.699 219.757 182.189C219.757 182.679 219.856 183.109 220.053 183.479C220.26 183.848 220.526 184.132 220.853 184.33C221.188 184.519 221.541 184.613 221.91 184.613C222.288 184.613 222.641 184.519 222.967 184.33C223.294 184.14 223.556 183.865 223.754 183.504C223.96 183.135 224.063 182.705 224.063 182.215ZM231.151 178.553C231.693 178.553 232.174 178.669 232.596 178.901C233.025 179.133 233.361 179.477 233.601 179.933C233.851 180.388 233.975 180.939 233.975 181.583V185.774H232.518V181.802C232.518 181.166 232.359 180.681 232.041 180.345C231.723 180.002 231.289 179.83 230.739 179.83C230.189 179.83 229.75 180.002 229.424 180.345C229.106 180.681 228.947 181.166 228.947 181.802V185.774H227.477V176.232H228.947V179.495C229.196 179.194 229.51 178.962 229.888 178.798C230.275 178.635 230.696 178.553 231.151 178.553ZM237.565 179.868V183.801C237.565 184.067 237.625 184.261 237.745 184.381C237.874 184.493 238.089 184.549 238.39 184.549H239.293V185.774H238.132C237.47 185.774 236.963 185.619 236.611 185.31C236.258 185 236.082 184.497 236.082 183.801V179.868H235.244V178.669H236.082V176.903H237.565V178.669H239.293V179.868H237.565Z" fill="#98959E"/>
<path d="M30.821 148.445H24.8177L23.7862 151.374H21.3313L26.4681 137.016H29.1912L34.328 151.374H31.8525L30.821 148.445ZM30.1608 146.526L27.8297 139.863L25.4779 146.526H30.1608ZM41.2445 137.036C42.7711 137.036 44.1051 137.332 45.2466 137.923C46.4019 138.501 47.289 139.34 47.9079 140.44C48.5405 141.527 48.8568 142.799 48.8568 144.257C48.8568 145.715 48.5405 146.98 47.9079 148.053C47.289 149.125 46.4019 149.951 45.2466 150.528C44.1051 151.092 42.7711 151.374 41.2445 151.374H36.5615V137.036H41.2445ZM41.2445 149.455C42.9224 149.455 44.2083 149.002 45.1022 148.094C45.9962 147.186 46.4432 145.907 46.4432 144.257C46.4432 142.593 45.9962 141.293 45.1022 140.358C44.2083 139.423 42.9224 138.955 41.2445 138.955H38.9133V149.455H41.2445ZM59.8315 148.445H53.8283L52.7968 151.374H50.3419L55.4787 137.016H58.2018L63.3386 151.374H60.863L59.8315 148.445ZM59.1714 146.526L56.8402 139.863L54.4884 146.526H59.1714Z" fill="#C8C8C8"/>
<path d="M30.821 215.491H24.8177L23.7862 218.42H21.3313L26.4681 204.062H29.1912L34.328 218.42H31.8525L30.821 215.491ZM30.1608 213.572L27.8297 206.909L25.4779 213.572H30.1608ZM41.2445 204.083C42.7711 204.083 44.1051 204.378 45.2466 204.97C46.4019 205.547 47.289 206.386 47.9079 207.487C48.5405 208.573 48.8568 209.845 48.8568 211.303C48.8568 212.761 48.5405 214.026 47.9079 215.099C47.289 216.172 46.4019 216.997 45.2466 217.575C44.1051 218.138 42.7711 218.42 41.2445 218.42H36.5615V204.083H41.2445ZM41.2445 216.502C42.9224 216.502 44.2083 216.048 45.1022 215.14C45.9962 214.233 46.4432 212.954 46.4432 211.303C46.4432 209.639 45.9962 208.339 45.1022 207.404C44.2083 206.469 42.9224 206.001 41.2445 206.001H38.9133V216.502H41.2445ZM59.8315 215.491H53.8283L52.7968 218.42H50.3419L55.4787 204.062H58.2018L63.3386 218.42H60.863L59.8315 215.491ZM59.1714 213.572L56.8402 206.909L54.4884 213.572H59.1714Z" fill="#C8C8C8"/>
<path d="M187.641 151.518C186.678 151.518 185.812 151.353 185.042 151.023C184.272 150.679 183.666 150.198 183.226 149.579C182.786 148.96 182.566 148.238 182.566 147.413H185.083C185.138 148.032 185.379 148.541 185.805 148.94C186.245 149.339 186.857 149.538 187.641 149.538C188.453 149.538 189.085 149.345 189.539 148.96C189.993 148.562 190.22 148.053 190.22 147.434C190.22 146.952 190.075 146.56 189.787 146.258C189.511 145.955 189.161 145.721 188.734 145.556C188.322 145.391 187.744 145.213 187.002 145.02C186.066 144.773 185.303 144.525 184.712 144.277C184.134 144.016 183.639 143.617 183.226 143.081C182.814 142.544 182.607 141.829 182.607 140.935C182.607 140.11 182.814 139.388 183.226 138.769C183.639 138.15 184.217 137.676 184.959 137.346C185.702 137.016 186.561 136.851 187.538 136.851C188.927 136.851 190.062 137.201 190.942 137.903C191.836 138.59 192.331 139.539 192.427 140.75H189.828C189.787 140.227 189.539 139.78 189.085 139.409C188.631 139.037 188.033 138.852 187.29 138.852C186.616 138.852 186.066 139.024 185.64 139.368C185.214 139.711 185 140.206 185 140.853C185 141.293 185.131 141.657 185.392 141.946C185.667 142.221 186.011 142.441 186.424 142.606C186.837 142.771 187.4 142.95 188.116 143.143C189.065 143.404 189.835 143.665 190.426 143.927C191.031 144.188 191.54 144.594 191.953 145.144C192.379 145.68 192.592 146.402 192.592 147.31C192.592 148.039 192.393 148.727 191.994 149.373C191.609 150.019 191.038 150.542 190.282 150.941C189.539 151.326 188.659 151.518 187.641 151.518ZM201.907 151.518C200.573 151.518 199.342 151.209 198.214 150.59C197.1 149.957 196.213 149.084 195.553 147.97C194.906 146.842 194.583 145.577 194.583 144.174C194.583 142.771 194.906 141.513 195.553 140.399C196.213 139.285 197.1 138.419 198.214 137.8C199.342 137.167 200.573 136.851 201.907 136.851C203.255 136.851 204.486 137.167 205.6 137.8C206.727 138.419 207.614 139.285 208.261 140.399C208.907 141.513 209.23 142.771 209.23 144.174C209.23 145.577 208.907 146.842 208.261 147.97C207.614 149.084 206.727 149.957 205.6 150.59C204.486 151.209 203.255 151.518 201.907 151.518ZM201.907 149.476C202.856 149.476 203.702 149.263 204.444 148.837C205.187 148.396 205.765 147.778 206.177 146.98C206.604 146.168 206.817 145.233 206.817 144.174C206.817 143.115 206.604 142.187 206.177 141.389C205.765 140.592 205.187 139.98 204.444 139.553C203.702 139.127 202.856 138.914 201.907 138.914C200.958 138.914 200.112 139.127 199.369 139.553C198.627 139.98 198.042 140.592 197.616 141.389C197.203 142.187 196.997 143.115 196.997 144.174C196.997 145.233 197.203 146.168 197.616 146.98C198.042 147.778 198.627 148.396 199.369 148.837C200.112 149.263 200.958 149.476 201.907 149.476ZM213.896 149.476H218.744V151.374H211.545V137.036H213.896V149.476Z" fill="#C8C8C8"/>
<path d="M187.641 218.565C186.678 218.565 185.812 218.4 185.042 218.07C184.272 217.726 183.666 217.245 183.226 216.626C182.786 216.007 182.566 215.285 182.566 214.46H185.083C185.138 215.078 185.379 215.587 185.805 215.986C186.245 216.385 186.857 216.584 187.641 216.584C188.453 216.584 189.085 216.392 189.539 216.007C189.993 215.608 190.22 215.099 190.22 214.48C190.22 213.999 190.075 213.607 189.787 213.304C189.511 213.002 189.161 212.768 188.734 212.603C188.322 212.438 187.744 212.259 187.002 212.066C186.066 211.819 185.303 211.571 184.712 211.324C184.134 211.062 183.639 210.664 183.226 210.127C182.814 209.591 182.607 208.876 182.607 207.982C182.607 207.157 182.814 206.435 183.226 205.816C183.639 205.197 184.217 204.722 184.959 204.392C185.702 204.062 186.561 203.897 187.538 203.897C188.927 203.897 190.062 204.248 190.942 204.949C191.836 205.637 192.331 206.586 192.427 207.796H189.828C189.787 207.273 189.539 206.826 189.085 206.455C188.631 206.084 188.033 205.898 187.29 205.898C186.616 205.898 186.066 206.07 185.64 206.414C185.214 206.758 185 207.253 185 207.899C185 208.339 185.131 208.704 185.392 208.993C185.667 209.268 186.011 209.488 186.424 209.653C186.837 209.818 187.4 209.997 188.116 210.189C189.065 210.45 189.835 210.712 190.426 210.973C191.031 211.234 191.54 211.64 191.953 212.19C192.379 212.727 192.592 213.449 192.592 214.356C192.592 215.085 192.393 215.773 191.994 216.419C191.609 217.066 191.038 217.588 190.282 217.987C189.539 218.372 188.659 218.565 187.641 218.565ZM201.907 218.565C200.573 218.565 199.342 218.255 198.214 217.636C197.1 217.004 196.213 216.131 195.553 215.017C194.906 213.889 194.583 212.623 194.583 211.221C194.583 209.818 194.906 208.559 195.553 207.445C196.213 206.331 197.1 205.465 198.214 204.846C199.342 204.213 200.573 203.897 201.907 203.897C203.255 203.897 204.486 204.213 205.6 204.846C206.727 205.465 207.614 206.331 208.261 207.445C208.907 208.559 209.23 209.818 209.23 211.221C209.23 212.623 208.907 213.889 208.261 215.017C207.614 216.131 206.727 217.004 205.6 217.636C204.486 218.255 203.255 218.565 201.907 218.565ZM201.907 216.522C202.856 216.522 203.702 216.309 204.444 215.883C205.187 215.443 205.765 214.824 206.177 214.026C206.604 213.215 206.817 212.28 206.817 211.221C206.817 210.162 206.604 209.233 206.177 208.436C205.765 207.638 205.187 207.026 204.444 206.6C203.702 206.173 202.856 205.96 201.907 205.96C200.958 205.96 200.112 206.173 199.369 206.6C198.627 207.026 198.042 207.638 197.616 208.436C197.203 209.233 196.997 210.162 196.997 211.221C196.997 212.28 197.203 213.215 197.616 214.026C198.042 214.824 198.627 215.443 199.369 215.883C200.112 216.309 200.958 216.522 201.907 216.522ZM213.896 216.522H218.744V218.42H211.545V204.083H213.896V216.522Z" fill="#C8C8C8"/>
</svg>
