<svg width="351" height="264" viewBox="0 0 351 264" fill="none" xmlns="http://www.w3.org/2000/svg">
<rect x="1.03052" y="0.475835" width="349.263" height="263.305" rx="22.3642" fill="black"/>
<g filter="url(#filter0_d_23896_5381)">
<g clip-path="url(#clip0_23896_5381)">
<path d="M36.2306 30.6327L33.0423 39.1228H31.4297L28.2292 30.6327H29.7195L32.236 37.6935L34.7647 30.6327H36.2306ZM36.931 35.7268C36.931 35.0508 37.0695 34.4522 37.3464 33.931C37.6314 33.4098 38.0142 33.0067 38.4947 32.7217C38.9833 32.4285 39.5208 32.2819 40.1072 32.2819C40.6365 32.2819 41.0967 32.3878 41.4876 32.5995C41.8866 32.8031 42.2042 33.0596 42.4404 33.3691V32.3918H43.8452V39.1228H42.4404V38.1211C42.2042 38.4387 41.8825 38.7034 41.4754 38.9151C41.0682 39.1269 40.6039 39.2327 40.0827 39.2327C39.5045 39.2327 38.9752 39.0862 38.4947 38.793C38.0142 38.4916 37.6314 38.0763 37.3464 37.5469C37.0695 37.0094 36.931 36.4027 36.931 35.7268ZM42.4404 35.7512C42.4404 35.287 42.3427 34.8839 42.1472 34.5418C41.9599 34.1998 41.7115 33.9392 41.4021 33.76C41.0926 33.5808 40.7587 33.4913 40.4003 33.4913C40.042 33.4913 39.7081 33.5808 39.3986 33.76C39.0892 33.931 38.8367 34.1876 38.6413 34.5296C38.4539 34.8635 38.3603 35.2626 38.3603 35.7268C38.3603 36.191 38.4539 36.5982 38.6413 36.9484C38.8367 37.2986 39.0892 37.5673 39.3986 37.7546C39.7163 37.9338 40.0502 38.0234 40.4003 38.0234C40.7587 38.0234 41.0926 37.9338 41.4021 37.7546C41.7115 37.5755 41.9599 37.3148 42.1472 36.9728C42.3427 36.6226 42.4404 36.2154 42.4404 35.7512ZM47.067 30.083V39.1228H45.6744V30.083H47.067ZM54.9911 32.3918V39.1228H53.5985V38.3288C53.3786 38.6057 53.0895 38.8255 52.7312 38.9884C52.381 39.1432 52.0064 39.2205 51.6073 39.2205C51.078 39.2205 50.6015 39.1106 50.1781 38.8907C49.7627 38.6708 49.4329 38.3451 49.1886 37.9134C48.9524 37.4818 48.8343 36.9606 48.8343 36.3498V32.3918H50.2147V36.1421C50.2147 36.7448 50.3654 37.209 50.6667 37.5347C50.968 37.8523 51.3793 38.0112 51.9005 38.0112C52.4217 38.0112 52.833 37.8523 53.1343 37.5347C53.4438 37.209 53.5985 36.7448 53.5985 36.1421V32.3918H54.9911ZM62.9976 35.5924C62.9976 35.8449 62.9813 36.0729 62.9488 36.2765H57.8059C57.8466 36.814 58.0461 37.2456 58.4044 37.5714C58.7628 37.8971 59.2026 38.06 59.7238 38.06C60.473 38.06 61.0024 37.7465 61.3118 37.1194H62.8144C62.6108 37.7383 62.2402 38.2473 61.7027 38.6464C61.1734 39.0373 60.5137 39.2327 59.7238 39.2327C59.0804 39.2327 58.5022 39.0902 57.9891 38.8052C57.4842 38.512 57.0851 38.1048 56.7919 37.5836C56.5069 37.0542 56.3644 36.4434 56.3644 35.7512C56.3644 35.059 56.5028 34.4522 56.7797 33.931C57.0648 33.4017 57.4597 32.9945 57.9647 32.7094C58.4777 32.4244 59.0641 32.2819 59.7238 32.2819C60.359 32.2819 60.925 32.4203 61.4218 32.6972C61.9186 32.9741 62.3054 33.365 62.5823 33.87C62.8592 34.3667 62.9976 34.9409 62.9976 35.5924ZM61.5439 35.1526C61.5358 34.6396 61.3526 34.2283 60.9942 33.9188C60.6359 33.6093 60.192 33.4546 59.6627 33.4546C59.1822 33.4546 58.7709 33.6093 58.4289 33.9188C58.0868 34.2201 57.8832 34.6314 57.8181 35.1526H61.5439ZM71.0229 32.2819C71.536 32.2819 71.9921 32.3918 72.3911 32.6117C72.7983 32.8316 73.1159 33.1574 73.344 33.589C73.5801 34.0206 73.6982 34.5418 73.6982 35.1526V39.1228H72.3178V35.3603C72.3178 34.7576 72.1672 34.2975 71.8658 33.9799C71.5645 33.6541 71.1532 33.4913 70.632 33.4913C70.1108 33.4913 69.6955 33.6541 69.386 33.9799C69.0847 34.2975 68.934 34.7576 68.934 35.3603V39.1228H67.5414V30.083H68.934V33.1736C69.1702 32.8886 69.4674 32.6687 69.8258 32.514C70.1922 32.3592 70.5913 32.2819 71.0229 32.2819ZM76.1831 31.5001C75.9307 31.5001 75.7189 31.4145 75.5479 31.2435C75.3769 31.0725 75.2914 30.8608 75.2914 30.6083C75.2914 30.3558 75.3769 30.1441 75.5479 29.9731C75.7189 29.802 75.9307 29.7165 76.1831 29.7165C76.4274 29.7165 76.6351 29.802 76.8061 29.9731C76.9772 30.1441 77.0627 30.3558 77.0627 30.6083C77.0627 30.8608 76.9772 31.0725 76.8061 31.2435C76.6351 31.4145 76.4274 31.5001 76.1831 31.5001ZM76.8672 32.3918V39.1228H75.4746V32.3918H76.8672ZM81.1388 39.2327C80.6094 39.2327 80.133 39.1391 79.7095 38.9518C79.2942 38.7563 78.9643 38.4957 78.72 38.17C78.4757 37.8361 78.3454 37.4655 78.3291 37.0583H79.7706C79.795 37.3433 79.9294 37.5836 80.1737 37.779C80.4262 37.9664 80.7397 38.06 81.1143 38.06C81.5053 38.06 81.8066 37.9867 82.0183 37.8401C82.2382 37.6854 82.3482 37.4899 82.3482 37.2538C82.3482 37.0013 82.226 36.814 81.9817 36.6918C81.7455 36.5697 81.3668 36.4353 80.8456 36.2887C80.3407 36.1503 79.9294 36.0159 79.6118 35.8856C79.2942 35.7553 79.0173 35.5557 78.7811 35.287C78.5531 35.0182 78.4391 34.664 78.4391 34.2242C78.4391 33.8659 78.5449 33.5401 78.7567 33.2469C78.9684 32.9456 79.2697 32.7094 79.6607 32.5384C80.0597 32.3674 80.5158 32.2819 81.0288 32.2819C81.7944 32.2819 82.4092 32.4773 82.8734 32.8682C83.3458 33.251 83.5983 33.7763 83.6308 34.4441H82.2382C82.2138 34.1428 82.0916 33.9025 81.8717 33.7234C81.6518 33.5442 81.3546 33.4546 80.98 33.4546C80.6135 33.4546 80.3325 33.5238 80.1371 33.6623C79.9416 33.8007 79.8439 33.984 79.8439 34.212C79.8439 34.3912 79.909 34.5418 80.0393 34.664C80.1696 34.7861 80.3285 34.8839 80.5158 34.9572C80.7031 35.0223 80.98 35.1078 81.3464 35.2137C81.8351 35.344 82.2341 35.4784 82.5436 35.6168C82.8612 35.7471 83.134 35.9426 83.3621 36.2032C83.5901 36.4638 83.7082 36.8099 83.7163 37.2415C83.7163 37.6243 83.6105 37.9664 83.3987 38.2677C83.187 38.569 82.8857 38.8052 82.4947 38.9762C82.112 39.1472 81.66 39.2327 81.1388 39.2327ZM86.8458 33.5279V37.2538C86.8458 37.5062 86.9028 37.6895 87.0168 37.8035C87.139 37.9094 87.3426 37.9623 87.6276 37.9623H88.4827V39.1228H87.3833C86.7562 39.1228 86.2757 38.9762 85.9418 38.683C85.6079 38.3898 85.441 37.9134 85.441 37.2538V33.5279H84.6469V32.3918H85.441V30.7182H86.8458V32.3918H88.4827V33.5279H86.8458ZM92.6859 39.2327C92.0507 39.2327 91.4765 39.0902 90.9634 38.8052C90.4504 38.512 90.0472 38.1048 89.7541 37.5836C89.4609 37.0542 89.3143 36.4434 89.3143 35.7512C89.3143 35.0671 89.465 34.4604 89.7663 33.931C90.0676 33.4017 90.4789 32.9945 91.0001 32.7094C91.5213 32.4244 92.1036 32.2819 92.747 32.2819C93.3903 32.2819 93.9726 32.4244 94.4938 32.7094C95.0151 32.9945 95.4263 33.4017 95.7277 33.931C96.029 34.4604 96.1796 35.0671 96.1796 35.7512C96.1796 36.4353 96.0249 37.042 95.7154 37.5714C95.406 38.1007 94.9825 38.512 94.445 38.8052C93.9156 39.0902 93.3293 39.2327 92.6859 39.2327ZM92.6859 38.0234C93.0442 38.0234 93.3781 37.9379 93.6876 37.7668C94.0052 37.5958 94.2617 37.3393 94.4572 36.9972C94.6527 36.6552 94.7504 36.2398 94.7504 35.7512C94.7504 35.2626 94.6567 34.8513 94.4694 34.5174C94.2821 34.1753 94.0337 33.9188 93.7242 33.7478C93.4148 33.5768 93.0809 33.4913 92.7225 33.4913C92.3642 33.4913 92.0303 33.5768 91.7208 33.7478C91.4195 33.9188 91.1793 34.1753 91.0001 34.5174C90.8209 34.8513 90.7313 35.2626 90.7313 35.7512C90.7313 36.476 90.9146 37.0379 91.2811 37.437C91.6557 37.8279 92.124 38.0234 92.6859 38.0234ZM98.9489 33.3691C99.1525 33.0271 99.4213 32.7624 99.7552 32.5751C100.097 32.3796 100.5 32.2819 100.965 32.2819V33.7234H100.61C100.065 33.7234 99.6493 33.8618 99.3643 34.1387C99.0874 34.4156 98.9489 34.8961 98.9489 35.5802V39.1228H97.5563V32.3918H98.9489V33.3691ZM108.304 32.3918L104.175 42.2867H102.733L104.101 39.0129L101.451 32.3918H103.002L104.896 37.5225L106.862 32.3918H108.304Z" fill="#98959E"/>
<rect x="126.914" y="20.9636" width="89.4092" height="29.3182" rx="9.77275" fill="#131313"/>
<rect x="136.687" y="25.8501" width="19.5455" height="19.5455" rx="6.51517" fill="#2F2B32"/>
<path fill-rule="evenodd" clip-rule="evenodd" d="M143.929 34.5832L146.46 32.0525L148.993 34.5853L150.465 33.1129L146.46 29.1077L142.457 33.1107L143.929 34.5832ZM139.944 35.6236L141.416 34.1516L142.888 35.6236L141.416 37.0957L139.944 35.6236ZM146.46 39.1955L143.929 36.6649L142.455 38.1351L142.457 38.1373L146.46 42.1404L150.465 38.1351L148.993 36.6627L146.46 39.1955ZM150.031 35.6246L151.503 34.1526L152.975 35.6246L151.503 37.0967L150.031 35.6246ZM146.46 34.13L147.954 35.6241L146.46 37.1204L144.966 35.6263V35.622L145.228 35.3596L145.356 35.2338L146.46 34.13Z" fill="#F3BA2F"/>
<path d="M168.886 35.322C169.154 35.3644 169.398 35.4738 169.617 35.6502C169.842 35.8267 170.019 36.0455 170.146 36.3066C170.28 36.5678 170.347 36.8466 170.347 37.143C170.347 37.5171 170.252 37.8559 170.061 38.1594C169.871 38.4558 169.592 38.6923 169.225 38.8687C168.865 39.0381 168.438 39.1228 167.944 39.1228H165.191V31.7436H167.838C168.339 31.7436 168.766 31.8283 169.119 31.9977C169.472 32.16 169.737 32.3823 169.913 32.6646C170.09 32.947 170.178 33.2646 170.178 33.6175C170.178 34.0551 170.058 34.4186 169.818 34.708C169.585 34.9903 169.274 35.195 168.886 35.322ZM166.155 34.9303H167.774C168.226 34.9303 168.576 34.8244 168.823 34.6127C169.07 34.4009 169.193 34.108 169.193 33.7339C169.193 33.3599 169.07 33.067 168.823 32.8552C168.576 32.6435 168.219 32.5376 167.753 32.5376H166.155V34.9303ZM167.859 38.3288C168.339 38.3288 168.713 38.2158 168.981 37.99C169.25 37.7641 169.384 37.45 169.384 37.0477C169.384 36.6384 169.243 36.3172 168.96 36.0843C168.678 35.8443 168.3 35.7243 167.827 35.7243H166.155V38.3288H167.859ZM177.486 39.1228H176.522L172.648 33.2469V39.1228H171.684V31.733H172.648L176.522 37.5983V31.733H177.486V39.1228ZM182.823 35.322C183.091 35.3644 183.335 35.4738 183.554 35.6502C183.779 35.8267 183.956 36.0455 184.083 36.3066C184.217 36.5678 184.284 36.8466 184.284 37.143C184.284 37.5171 184.189 37.8559 183.998 38.1594C183.808 38.4558 183.529 38.6923 183.162 38.8687C182.802 39.0381 182.375 39.1228 181.881 39.1228H179.128V31.7436H181.775C182.276 31.7436 182.703 31.8283 183.056 31.9977C183.409 32.16 183.674 32.3823 183.85 32.6646C184.026 32.947 184.115 33.2646 184.115 33.6175C184.115 34.0551 183.995 34.4186 183.755 34.708C183.522 34.9903 183.211 35.195 182.823 35.322ZM180.092 34.9303H181.711C182.163 34.9303 182.513 34.8244 182.76 34.6127C183.007 34.4009 183.13 34.108 183.13 33.7339C183.13 33.3599 183.007 33.067 182.76 32.8552C182.513 32.6435 182.156 32.5376 181.69 32.5376H180.092V34.9303ZM181.796 38.3288C182.276 38.3288 182.65 38.2158 182.918 37.99C183.187 37.7641 183.321 37.45 183.321 37.0477C183.321 36.6384 183.18 36.3172 182.897 36.0843C182.615 35.8443 182.237 35.7243 181.764 35.7243H180.092V38.3288H181.796Z" fill="#828282"/>
<path d="M196.777 33.9941L200.035 37.2517L203.293 33.9941" stroke="#8F8F8F" stroke-width="1.14015" stroke-linecap="round" stroke-linejoin="round"/>
<path d="M310.296 30.7366L313.554 33.9942L316.812 30.7366" stroke="#8F8F8F" stroke-width="1.14015" stroke-linecap="round" stroke-linejoin="round"/>
<g clip-path="url(#clip1_23896_5381)">
<path d="M32.0487 54.1745V61.282H31.188V55.0768H31.1464L29.4111 56.229V55.3545L31.188 54.1745H32.0487ZM36.3138 61.3792C35.9066 61.3792 35.5399 61.2982 35.2137 61.1362C34.8875 60.9743 34.6261 60.7522 34.4294 60.4699C34.2327 60.1876 34.1252 59.866 34.1066 59.5051H34.9396C34.9719 59.8267 35.1177 60.0928 35.3768 60.3033C35.6383 60.5115 35.9506 60.6157 36.3138 60.6157C36.6054 60.6157 36.8645 60.5474 37.0912 60.4109C37.3203 60.2744 37.4996 60.087 37.6291 59.8487C37.761 59.6081 37.827 59.3362 37.827 59.0331C37.827 58.7231 37.7587 58.4466 37.6222 58.2037C37.488 57.9585 37.3029 57.7653 37.0669 57.6241C36.8309 57.483 36.5614 57.4113 36.2583 57.409C36.0408 57.4067 35.8176 57.4402 35.5885 57.5096C35.3595 57.5767 35.1709 57.6635 35.0228 57.7699L34.2177 57.6727L34.648 54.1745H38.3406V54.938H35.3699L35.12 57.0342H35.1617C35.3074 56.9185 35.4902 56.8225 35.71 56.7461C35.9298 56.6698 36.1588 56.6316 36.3971 56.6316C36.8321 56.6316 37.2196 56.7357 37.5597 56.9439C37.9021 57.1498 38.1705 57.4321 38.3649 57.7907C38.5615 58.1493 38.6599 58.5588 38.6599 59.0193C38.6599 59.4727 38.5581 59.8776 38.3545 60.2339C38.1532 60.5879 37.8755 60.8678 37.5216 61.0738C37.1676 61.2774 36.765 61.3792 36.3138 61.3792ZM40.1634 54.1745H41.1907L43.6061 60.0743H43.6894L46.1048 54.1745H47.1321V61.282H46.3269V55.882H46.2575L44.0364 61.282H43.2591L41.038 55.882H40.9686V61.282H40.1634V54.1745Z" fill="#98959E"/>
<path d="M31.8864 92.645V99.7524H31.0258V93.5473H30.9841L29.2489 94.6995V93.8249L31.0258 92.645H31.8864ZM36.2488 99.8496C35.7259 99.8496 35.2805 99.7073 34.9127 99.4227C34.5448 99.1359 34.2637 98.7206 34.0693 98.1769C33.875 97.6308 33.7778 96.9715 33.7778 96.1987C33.7778 95.4306 33.875 94.7747 34.0693 94.231C34.266 93.685 34.5483 93.2685 34.9161 92.9816C35.2863 92.6924 35.7305 92.5478 36.2488 92.5478C36.767 92.5478 37.2101 92.6924 37.578 92.9816C37.9481 93.2685 38.2304 93.685 38.4247 94.231C38.6214 94.7747 38.7197 95.4306 38.7197 96.1987C38.7197 96.9715 38.6226 97.6308 38.4282 98.1769C38.2339 98.7206 37.9528 99.1359 37.5849 99.4227C37.217 99.7073 36.7717 99.8496 36.2488 99.8496ZM36.2488 99.0861C36.767 99.0861 37.1696 98.8362 37.4565 98.3365C37.7434 97.8368 37.8868 97.1242 37.8868 96.1987C37.8868 95.5833 37.8209 95.0593 37.689 94.6266C37.5594 94.194 37.372 93.8643 37.1268 93.6375C36.8839 93.4108 36.5912 93.2974 36.2488 93.2974C35.7351 93.2974 35.3337 93.5508 35.0445 94.0575C34.7553 94.5618 34.6107 95.2756 34.6107 96.1987C34.6107 96.8141 34.6755 97.337 34.8051 97.7674C34.9346 98.1977 35.1209 98.5251 35.3638 98.7495C35.6091 98.9739 35.904 99.0861 36.2488 99.0861ZM40.1634 92.645H41.1907L43.6061 98.5447H43.6894L46.1048 92.645H47.1321V99.7524H46.3269V94.3524H46.2575L44.0364 99.7524H43.2591L41.038 94.3524H40.9686V99.7524H40.1634V92.645Z" fill="#98959E"/>
<path d="M36.3138 138.32C35.9066 138.32 35.5399 138.239 35.2137 138.077C34.8875 137.915 34.6261 137.693 34.4294 137.411C34.2327 137.129 34.1252 136.807 34.1066 136.446H34.9396C34.9719 136.768 35.1177 137.034 35.3768 137.244C35.6383 137.452 35.9506 137.557 36.3138 137.557C36.6054 137.557 36.8645 137.488 37.0912 137.352C37.3203 137.215 37.4996 137.028 37.6291 136.79C37.761 136.549 37.827 136.277 37.827 135.974C37.827 135.664 37.7587 135.388 37.6222 135.145C37.488 134.899 37.3029 134.706 37.0669 134.565C36.8309 134.424 36.5614 134.352 36.2583 134.35C36.0408 134.348 35.8176 134.381 35.5885 134.451C35.3595 134.518 35.1709 134.604 35.0228 134.711L34.2177 134.614L34.648 131.115H38.3406V131.879H35.3699L35.12 133.975H35.1617C35.3074 133.859 35.4902 133.763 35.71 133.687C35.9298 133.611 36.1588 133.573 36.3971 133.573C36.8321 133.573 37.2196 133.677 37.5597 133.885C37.9021 134.091 38.1705 134.373 38.3649 134.732C38.5615 135.09 38.6599 135.5 38.6599 135.96C38.6599 136.414 38.5581 136.819 38.3545 137.175C38.1532 137.529 37.8755 137.809 37.5216 138.015C37.1676 138.218 36.765 138.32 36.3138 138.32ZM40.1634 131.115H41.1907L43.6061 137.015H43.6894L46.1048 131.115H47.1321V138.223H46.3269V132.823H46.2575L44.0364 138.223H43.2591L41.038 132.823H40.9686V138.223H40.1634V131.115Z" fill="#98959E"/>
<path d="M37.9944 169.586V176.693H37.1337V170.488H37.0921L35.3569 171.64V170.766L37.1337 169.586H37.9944ZM40.1634 169.586H41.1907L43.6061 175.485H43.6894L46.1048 169.586H47.1321V176.693H46.3269V171.293H46.2575L44.0364 176.693H43.2591L41.038 171.293H40.9686V176.693H40.1634V169.586Z" fill="#98959E"/>
<path d="M44.9431 215.261C44.4202 215.261 43.9748 215.118 43.607 214.834C43.2391 214.547 42.958 214.132 42.7637 213.588C42.5693 213.042 42.4721 212.383 42.4721 211.61C42.4721 210.842 42.5693 210.186 42.7637 209.642C42.9603 209.096 43.2426 208.68 43.6104 208.393C43.9806 208.104 44.4248 207.959 44.9431 207.959C45.4613 207.959 45.9044 208.104 46.2723 208.393C46.6424 208.68 46.9247 209.096 47.119 209.642C47.3157 210.186 47.414 210.842 47.414 211.61C47.414 212.383 47.3169 213.042 47.1225 213.588C46.9282 214.132 46.6471 214.547 46.2792 214.834C45.9113 215.118 45.466 215.261 44.9431 215.261ZM44.9431 214.497C45.4613 214.497 45.8639 214.247 46.1508 213.748C46.4377 213.248 46.5811 212.535 46.5811 211.61C46.5811 210.994 46.5152 210.47 46.3833 210.038C46.2538 209.605 46.0664 209.275 45.8211 209.049C45.5782 208.822 45.2855 208.709 44.9431 208.709C44.4295 208.709 44.028 208.962 43.7388 209.469C43.4496 209.973 43.305 210.687 43.305 211.61C43.305 212.225 43.3698 212.748 43.4994 213.178C43.6289 213.609 43.8152 213.936 44.0581 214.161C44.3034 214.385 44.5984 214.497 44.9431 214.497Z" fill="#98959E"/>
<line x1="61.4345" y1="62.9051" x2="760.546" y2="62.9051" stroke="#131313" stroke-width="0.814396" stroke-linecap="round"/>
<line x1="61.4345" y1="101.953" x2="760.546" y2="101.953" stroke="#131313" stroke-width="0.814396" stroke-linecap="round"/>
<line x1="61.4345" y1="141.001" x2="760.546" y2="141.001" stroke="#131313" stroke-width="0.814396" stroke-linecap="round"/>
<line x1="61.4345" y1="180.049" x2="760.546" y2="180.049" stroke="#131313" stroke-width="0.814396" stroke-linecap="round"/>
<line x1="61.4345" y1="219.097" x2="760.546" y2="219.097" stroke="#131313" stroke-width="0.814396" stroke-linecap="round"/>
<path d="M101.762 233.17H102.789L105.204 239.07H105.288L107.703 233.17H108.73V240.277H107.925V234.877H107.856L105.635 240.277H104.857L102.636 234.877H102.567V240.277H101.762V233.17ZM112.51 240.388C112.029 240.388 111.607 240.274 111.244 240.045C110.883 239.816 110.601 239.495 110.397 239.084C110.196 238.672 110.095 238.19 110.095 237.64C110.095 237.085 110.196 236.6 110.397 236.186C110.601 235.772 110.883 235.45 111.244 235.221C111.607 234.992 112.029 234.877 112.51 234.877C112.992 234.877 113.413 234.992 113.774 235.221C114.137 235.45 114.419 235.772 114.62 236.186C114.824 236.6 114.926 237.085 114.926 237.64C114.926 238.19 114.824 238.672 114.62 239.084C114.419 239.495 114.137 239.816 113.774 240.045C113.413 240.274 112.992 240.388 112.51 240.388ZM112.51 239.653C112.876 239.653 113.177 239.559 113.413 239.372C113.649 239.184 113.823 238.938 113.937 238.632C114.05 238.327 114.107 237.996 114.107 237.64C114.107 237.284 114.05 236.952 113.937 236.644C113.823 236.336 113.649 236.087 113.413 235.898C113.177 235.708 112.876 235.613 112.51 235.613C112.145 235.613 111.844 235.708 111.608 235.898C111.372 236.087 111.197 236.336 111.084 236.644C110.971 236.952 110.914 237.284 110.914 237.64C110.914 237.996 110.971 238.327 111.084 238.632C111.197 238.938 111.372 239.184 111.608 239.372C111.844 239.559 112.145 239.653 112.51 239.653ZM116.995 237.071V240.277H116.176V234.947H116.967V235.78H117.037C117.162 235.509 117.351 235.291 117.606 235.127C117.86 234.961 118.189 234.877 118.592 234.877C118.952 234.877 119.268 234.951 119.539 235.099C119.81 235.245 120.02 235.467 120.171 235.766C120.321 236.062 120.396 236.437 120.396 236.89V240.277H119.577V236.946C119.577 236.527 119.468 236.201 119.251 235.967C119.033 235.731 118.735 235.613 118.356 235.613C118.094 235.613 117.86 235.67 117.654 235.783C117.451 235.896 117.29 236.062 117.172 236.279C117.054 236.497 116.995 236.761 116.995 237.071Z" fill="#98959E"/>
<path d="M203.028 233.933V233.17H208.358V233.933H206.123V240.277H205.263V233.933H203.028ZM212.209 238.098V234.947H213.028V240.277H212.209V239.375H212.154C212.029 239.646 211.835 239.876 211.571 240.066C211.307 240.253 210.974 240.347 210.571 240.347C210.238 240.347 209.942 240.274 209.683 240.128C209.424 239.98 209.22 239.758 209.072 239.462C208.924 239.163 208.85 238.787 208.85 238.334V234.947H209.669V238.278C209.669 238.667 209.778 238.977 209.995 239.208C210.215 239.44 210.495 239.555 210.835 239.555C211.039 239.555 211.246 239.503 211.456 239.399C211.669 239.295 211.847 239.136 211.991 238.92C212.137 238.705 212.209 238.431 212.209 238.098ZM216.764 240.388C216.25 240.388 215.807 240.275 215.434 240.048C215.064 239.819 214.778 239.5 214.577 239.09C214.378 238.679 214.279 238.2 214.279 237.654C214.279 237.108 214.378 236.626 214.577 236.21C214.778 235.791 215.058 235.465 215.417 235.231C215.778 234.995 216.199 234.877 216.68 234.877C216.958 234.877 217.232 234.924 217.503 235.016C217.773 235.109 218.02 235.259 218.242 235.467C218.464 235.673 218.641 235.946 218.773 236.286C218.905 236.626 218.971 237.045 218.971 237.543V237.89H214.862V237.182H218.138C218.138 236.881 218.078 236.613 217.957 236.377C217.839 236.141 217.67 235.954 217.451 235.818C217.233 235.681 216.976 235.613 216.68 235.613C216.354 235.613 216.072 235.694 215.833 235.856C215.597 236.016 215.416 236.224 215.289 236.481C215.161 236.737 215.098 237.013 215.098 237.307V237.779C215.098 238.181 215.167 238.522 215.306 238.802C215.447 239.08 215.643 239.292 215.892 239.437C216.142 239.581 216.433 239.653 216.764 239.653C216.979 239.653 217.173 239.623 217.347 239.562C217.522 239.5 217.674 239.407 217.801 239.285C217.928 239.16 218.027 239.005 218.096 238.82L218.887 239.042C218.804 239.31 218.664 239.546 218.468 239.75C218.271 239.951 218.028 240.108 217.739 240.222C217.45 240.333 217.124 240.388 216.764 240.388Z" fill="#98959E"/>
<path d="M302.884 240.277L300.94 233.17H301.815L303.3 238.959H303.37L304.883 233.17H305.854L307.368 238.959H307.437L308.922 233.17H309.797L307.853 240.277H306.965L305.396 234.614H305.341L303.772 240.277H302.884ZM312.497 240.388C311.983 240.388 311.54 240.275 311.168 240.048C310.797 239.819 310.512 239.5 310.31 239.09C310.111 238.679 310.012 238.2 310.012 237.654C310.012 237.108 310.111 236.626 310.31 236.21C310.512 235.791 310.792 235.465 311.15 235.231C311.511 234.995 311.932 234.877 312.414 234.877C312.691 234.877 312.965 234.924 313.236 235.016C313.507 235.109 313.753 235.259 313.975 235.467C314.197 235.673 314.374 235.946 314.506 236.286C314.638 236.626 314.704 237.045 314.704 237.543V237.89H310.595V237.182H313.871C313.871 236.881 313.811 236.613 313.691 236.377C313.573 236.141 313.404 235.954 313.184 235.818C312.966 235.681 312.71 235.613 312.414 235.613C312.087 235.613 311.805 235.694 311.567 235.856C311.331 236.016 311.149 236.224 311.022 236.481C310.895 236.737 310.831 237.013 310.831 237.307V237.779C310.831 238.181 310.9 238.522 311.039 238.802C311.18 239.08 311.376 239.292 311.626 239.437C311.876 239.581 312.166 239.653 312.497 239.653C312.712 239.653 312.906 239.623 313.08 239.562C313.256 239.5 313.407 239.407 313.534 239.285C313.662 239.16 313.76 239.005 313.829 238.82L314.621 239.042C314.537 239.31 314.397 239.546 314.201 239.75C314.004 239.951 313.761 240.108 313.472 240.222C313.183 240.333 312.858 240.388 312.497 240.388ZM317.963 240.388C317.519 240.388 317.126 240.276 316.786 240.052C316.446 239.825 316.18 239.506 315.988 239.094C315.796 238.68 315.7 238.19 315.7 237.626C315.7 237.066 315.796 236.58 315.988 236.168C316.18 235.757 316.447 235.438 316.79 235.214C317.132 234.99 317.528 234.877 317.977 234.877C318.324 234.877 318.598 234.935 318.799 235.051C319.003 235.164 319.158 235.294 319.264 235.44C319.373 235.583 319.457 235.701 319.518 235.794H319.587V233.17H320.406V240.277H319.615V239.458H319.518C319.457 239.555 319.372 239.678 319.261 239.826C319.15 239.972 318.991 240.103 318.785 240.218C318.579 240.332 318.305 240.388 317.963 240.388ZM318.074 239.653C318.402 239.653 318.68 239.567 318.907 239.396C319.133 239.222 319.306 238.983 319.424 238.677C319.542 238.37 319.601 238.015 319.601 237.612C319.601 237.214 319.543 236.866 319.427 236.567C319.312 236.267 319.14 236.033 318.914 235.866C318.687 235.698 318.407 235.613 318.074 235.613C317.727 235.613 317.438 235.702 317.206 235.88C316.977 236.056 316.805 236.296 316.689 236.599C316.576 236.899 316.519 237.237 316.519 237.612C316.519 237.991 316.577 238.336 316.693 238.646C316.811 238.954 316.984 239.199 317.213 239.382C317.444 239.562 317.731 239.653 318.074 239.653Z" fill="#98959E"/>
<path d="M89.7551 118.3C75.9725 116.325 65.6356 129.271 62.1899 135.99V235.399H322.691L323.074 77.1588C314.706 69.3421 308.061 61.9368 299.201 71.3991C296.545 74.2357 288.372 78.8045 277.296 73.8676C266.221 68.9307 250.224 77.1588 245.055 87.8554C239.887 98.552 229.796 99.0395 218.474 94.438C194.225 84.5818 191.402 111.717 183.034 111.717C170.974 111.717 166.335 76.639 144.639 111.717C129.626 135.99 132.087 145.117 117.074 135.99C112.822 133.405 106.983 120.768 89.7551 118.3Z" fill="url(#paint0_linear_23896_5381)"/>
<path d="M62.1899 136.496C65.6356 129.727 75.9725 116.686 89.7551 118.676C106.983 121.162 112.822 133.892 117.074 136.496C132.087 145.69 129.626 136.496 144.639 112.045C166.335 76.7099 170.974 112.045 183.034 112.045C191.402 112.045 194.225 84.7109 218.474 94.6393C229.796 99.2745 239.887 98.7834 245.055 88.0085C250.224 77.2336 266.221 68.9452 277.296 73.9182C288.372 78.8913 296.545 74.289 299.201 71.4317C308.061 61.9001 314.706 69.3596 323.074 77.2336" stroke="#7335F7" stroke-width="2.44319" stroke-linecap="round" stroke-linejoin="round"/>
<g filter="url(#filter1_d_23896_5381)">
<circle cx="6.42572" cy="6.42572" r="7.64732" transform="matrix(-1 0 0 1 130.543 132.129)" fill="#7335F7" stroke="white" stroke-width="2.44319"/>
</g>
</g>
</g>
</g>
<rect x="1.03052" y="0.475835" width="349.263" height="263.305" rx="22.3642" stroke="#1D1D1D" stroke-width="0.95167"/>
<defs>
<filter id="filter0_d_23896_5381" x="1.12213" y="8.74769" width="349.079" height="251.648" filterUnits="userSpaceOnUse" color-interpolation-filters="sRGB">
<feFlood flood-opacity="0" result="BackgroundImageFix"/>
<feColorMatrix in="SourceAlpha" type="matrix" values="0 0 0 0 0 0 0 0 0 0 0 0 0 0 0 0 0 0 127 0" result="hardAlpha"/>
<feOffset dy="2.44319"/>
<feGaussianBlur stdDeviation="7.32956"/>
<feComposite in2="hardAlpha" operator="out"/>
<feColorMatrix type="matrix" values="0 0 0 0 0 0 0 0 0 0 0 0 0 0 0 0 0 0 0.1 0"/>
<feBlend mode="normal" in2="BackgroundImageFix" result="effect1_dropShadow_23896_5381"/>
<feBlend mode="normal" in="SourceGraphic" in2="effect1_dropShadow_23896_5381" result="shape"/>
</filter>
<filter id="filter1_d_23896_5381" x="109.637" y="125.703" width="28.9607" height="28.9605" filterUnits="userSpaceOnUse" color-interpolation-filters="sRGB">
<feFlood flood-opacity="0" result="BackgroundImageFix"/>
<feColorMatrix in="SourceAlpha" type="matrix" values="0 0 0 0 0 0 0 0 0 0 0 0 0 0 0 0 0 0 127 0" result="hardAlpha"/>
<feOffset dy="1.62879"/>
<feGaussianBlur stdDeviation="0.814396"/>
<feComposite in2="hardAlpha" operator="out"/>
<feColorMatrix type="matrix" values="0 0 0 0 0 0 0 0 0 0 0 0 0 0 0 0 0 0 0.1 0"/>
<feBlend mode="normal" in2="BackgroundImageFix" result="effect1_dropShadow_23896_5381"/>
<feBlend mode="normal" in="SourceGraphic" in2="effect1_dropShadow_23896_5381" result="shape"/>
</filter>
<linearGradient id="paint0_linear_23896_5381" x1="192.632" y1="66.9497" x2="192.632" y2="235.399" gradientUnits="userSpaceOnUse">
<stop stop-color="#361777"/>
<stop offset="1" stop-opacity="0"/>
</linearGradient>
<clipPath id="clip0_23896_5381">
<rect x="15.7812" y="20.9636" width="319.761" height="222.33" rx="9.77275" fill="white"/>
</clipPath>
<clipPath id="clip1_23896_5381">
<rect width="295.583" height="194.057" fill="white" transform="translate(27.9971 50.282)"/>
</clipPath>
</defs>
</svg>
