<svg width="243" height="264" viewBox="0 0 243 264" fill="none" xmlns="http://www.w3.org/2000/svg">
<rect x="1.24488" y="0.475835" width="335.939" height="263.305" rx="22.3642" fill="black"/>
<rect x="15.9961" y="20.7834" width="306.438" height="222.691" rx="13.7532" fill="black"/>
<path d="M43.1659 33.0812V34.2803H40.7806V42.0422H39.3107V34.2803H36.9125V33.0812H43.1659ZM47.7361 42.1583C47.0656 42.1583 46.4596 42.0079 45.9181 41.707C45.3765 41.3976 44.9511 40.9678 44.6416 40.4176C44.3322 39.8589 44.1774 39.2142 44.1774 38.4836C44.1774 37.7616 44.3365 37.1212 44.6545 36.5625C44.9726 36.0037 45.4066 35.574 45.9568 35.2731C46.5069 34.9723 47.1215 34.8218 47.8005 34.8218C48.4796 34.8218 49.0942 34.9723 49.6443 35.2731C50.1945 35.574 50.6285 36.0037 50.9466 36.5625C51.2646 37.1212 51.4236 37.7616 51.4236 38.4836C51.4236 39.2056 51.2603 39.846 50.9337 40.4048C50.607 40.9635 50.1601 41.3976 49.5928 41.707C49.034 42.0079 48.4151 42.1583 47.7361 42.1583ZM47.7361 40.8818C48.1143 40.8818 48.4667 40.7916 48.7933 40.611C49.1286 40.4305 49.3993 40.1598 49.6056 39.7988C49.8119 39.4377 49.9151 38.9994 49.9151 38.4836C49.9151 37.9679 49.8162 37.5338 49.6185 37.1814C49.4208 36.8203 49.1587 36.5496 48.832 36.3691C48.5054 36.1886 48.153 36.0983 47.7748 36.0983C47.3965 36.0983 47.0441 36.1886 46.7175 36.3691C46.3994 36.5496 46.1459 36.8203 45.9568 37.1814C45.7677 37.5338 45.6731 37.9679 45.6731 38.4836C45.6731 39.2486 45.8665 39.8417 46.2533 40.2629C46.6487 40.6755 47.143 40.8818 47.7361 40.8818ZM54.3466 35.9823C54.5958 35.6556 54.9354 35.3806 55.3651 35.1571C55.7949 34.9336 56.2806 34.8218 56.8221 34.8218C57.441 34.8218 58.004 34.9766 58.5112 35.286C59.0269 35.5868 59.4309 36.0123 59.7232 36.5625C60.0154 37.1126 60.1616 37.7444 60.1616 38.4578C60.1616 39.1713 60.0154 39.8116 59.7232 40.379C59.4309 40.9377 59.0269 41.3761 58.5112 41.6941C58.004 42.0036 57.441 42.1583 56.8221 42.1583C56.2806 42.1583 55.7992 42.0508 55.378 41.8359C54.9569 41.6125 54.613 41.3374 54.3466 41.0107V45.4204H52.8767V34.9379H54.3466V35.9823ZM58.6659 38.4578C58.6659 37.9679 58.5628 37.5467 58.3565 37.1942C58.1588 36.8332 57.8923 36.5625 57.5571 36.382C57.2304 36.1928 56.878 36.0983 56.4998 36.0983C56.1302 36.0983 55.7777 36.1928 55.4425 36.382C55.1159 36.5711 54.8494 36.8461 54.6431 37.2071C54.4454 37.5682 54.3466 37.9937 54.3466 38.4836C54.3466 38.9736 54.4454 39.4033 54.6431 39.773C54.8494 40.134 55.1159 40.409 55.4425 40.5982C55.7777 40.7873 56.1302 40.8818 56.4998 40.8818C56.878 40.8818 57.2304 40.7873 57.5571 40.5982C57.8923 40.4005 58.1588 40.1168 58.3565 39.7472C58.5628 39.3776 58.6659 38.9478 58.6659 38.4578ZM66.6793 36.137V40.0695C66.6793 40.336 66.7394 40.5294 66.8598 40.6497C66.9887 40.7615 67.2036 40.8173 67.5045 40.8173H68.407V42.0422H67.2466C66.5847 42.0422 66.0776 41.8875 65.7251 41.5781C65.3727 41.2686 65.1965 40.7658 65.1965 40.0695V36.137H64.3584V34.9379H65.1965V33.1715H66.6793V34.9379H68.407V36.137H66.6793ZM72.8433 42.1583C72.1728 42.1583 71.5668 42.0079 71.0253 41.707C70.4838 41.3976 70.0583 40.9678 69.7488 40.4176C69.4394 39.8589 69.2847 39.2142 69.2847 38.4836C69.2847 37.7616 69.4437 37.1212 69.7617 36.5625C70.0798 36.0037 70.5139 35.574 71.064 35.2731C71.6141 34.9723 72.2287 34.8218 72.9078 34.8218C73.5868 34.8218 74.2014 34.9723 74.7516 35.2731C75.3017 35.574 75.7358 36.0037 76.0538 36.5625C76.3718 37.1212 76.5309 37.7616 76.5309 38.4836C76.5309 39.2056 76.3676 39.846 76.0409 40.4048C75.7143 40.9635 75.2673 41.3976 74.7 41.707C74.1413 42.0079 73.5224 42.1583 72.8433 42.1583ZM72.8433 40.8818C73.2215 40.8818 73.5739 40.7916 73.9006 40.611C74.2358 40.4305 74.5066 40.1598 74.7129 39.7988C74.9192 39.4377 75.0223 38.9994 75.0223 38.4836C75.0223 37.9679 74.9235 37.5338 74.7258 37.1814C74.5281 36.8203 74.2659 36.5496 73.9393 36.3691C73.6126 36.1886 73.2602 36.0983 72.882 36.0983C72.5038 36.0983 72.1513 36.1886 71.8247 36.3691C71.5067 36.5496 71.2531 36.8203 71.064 37.1814C70.8749 37.5338 70.7803 37.9679 70.7803 38.4836C70.7803 39.2486 70.9737 39.8417 71.3605 40.2629C71.7559 40.6755 72.2502 40.8818 72.8433 40.8818ZM80.7947 38.4965L84.0697 42.0422H82.0841L79.4538 38.9865V42.0422H77.9839V32.501H79.4538V38.0452L82.0325 34.9379H84.0697L80.7947 38.4965ZM91.6345 38.316C91.6345 38.5825 91.6173 38.8231 91.5829 39.038H86.1547C86.1977 39.6053 86.4083 40.0609 86.7865 40.4048C87.1647 40.7486 87.6289 40.9205 88.179 40.9205C88.9698 40.9205 89.5285 40.5896 89.8552 39.9277H91.4411C91.2262 40.581 90.8351 41.1182 90.2678 41.5394C89.709 41.952 89.0128 42.1583 88.179 42.1583C87.4999 42.1583 86.8897 42.0079 86.3481 41.707C85.8152 41.3976 85.394 40.9678 85.0845 40.4176C84.7837 39.8589 84.6333 39.2142 84.6333 38.4836C84.6333 37.753 84.7794 37.1126 85.0717 36.5625C85.3725 36.0037 85.7894 35.574 86.3223 35.2731C86.8639 34.9723 87.4828 34.8218 88.179 34.8218C88.8495 34.8218 89.4469 34.968 89.9712 35.2602C90.4956 35.5525 90.9039 35.9651 91.1961 36.498C91.4884 37.0223 91.6345 37.6283 91.6345 38.316ZM90.1002 37.8518C90.0916 37.3103 89.8982 36.8762 89.5199 36.5496C89.1417 36.2229 88.6733 36.0596 88.1145 36.0596C87.6074 36.0596 87.1733 36.2229 86.8123 36.5496C86.4513 36.8676 86.2364 37.3017 86.1676 37.8518H90.1002ZM96.6654 34.8218C97.2241 34.8218 97.7227 34.9379 98.1611 35.17C98.608 35.402 98.9562 35.7459 99.2054 36.2014C99.4547 36.657 99.5794 37.2071 99.5794 37.8518V42.0422H98.1224V38.071C98.1224 37.4349 97.9634 36.9493 97.6453 36.614C97.3273 36.2702 96.8932 36.0983 96.3431 36.0983C95.7929 36.0983 95.3546 36.2702 95.0279 36.614C94.7099 36.9493 94.5509 37.4349 94.5509 38.071V42.0422H93.081V34.9379H94.5509V35.7502C94.7915 35.4579 95.0967 35.2301 95.4663 35.0668C95.8445 34.9035 96.2442 34.8218 96.6654 34.8218ZM104.033 42.1583C103.474 42.1583 102.971 42.0594 102.524 41.8617C102.086 41.6554 101.738 41.3804 101.48 41.0365C101.222 40.6841 101.085 40.293 101.067 39.8632H102.589C102.615 40.1641 102.757 40.4176 103.014 40.6239C103.281 40.8216 103.612 40.9205 104.007 40.9205C104.42 40.9205 104.738 40.8431 104.961 40.6884C105.193 40.5251 105.309 40.3188 105.309 40.0695C105.309 39.8031 105.181 39.6053 104.923 39.4764C104.673 39.3475 104.274 39.2056 103.724 39.0509C103.191 38.9048 102.757 38.763 102.421 38.6254C102.086 38.4879 101.794 38.2773 101.545 37.9937C101.304 37.71 101.183 37.3361 101.183 36.8719C101.183 36.4937 101.295 36.1499 101.519 35.8404C101.742 35.5224 102.06 35.2731 102.473 35.0926C102.894 34.9121 103.375 34.8218 103.917 34.8218C104.725 34.8218 105.374 35.0281 105.864 35.4407C106.362 35.8447 106.629 36.3991 106.663 37.104H105.193C105.168 36.786 105.039 36.5324 104.807 36.3433C104.575 36.1542 104.261 36.0596 103.865 36.0596C103.479 36.0596 103.182 36.1327 102.976 36.2788C102.769 36.4249 102.666 36.6183 102.666 36.859C102.666 37.0481 102.735 37.2071 102.873 37.3361C103.01 37.465 103.178 37.5682 103.375 37.6455C103.573 37.7143 103.865 37.8045 104.252 37.9163C104.768 38.0538 105.189 38.1957 105.516 38.3418C105.851 38.4793 106.139 38.6856 106.38 38.9607C106.62 39.2357 106.745 39.6011 106.754 40.0566C106.754 40.4606 106.642 40.8216 106.418 41.1397C106.195 41.4577 105.877 41.707 105.464 41.8875C105.06 42.068 104.583 42.1583 104.033 42.1583Z" fill="#98959E"/>
<path d="M38.465 65.7849C38.465 65.321 38.5663 64.9083 38.769 64.5469C38.9741 64.1855 39.2537 63.901 39.6078 63.6934C39.9643 63.4858 40.3697 63.382 40.8239 63.382C41.283 63.382 41.6908 63.4895 42.0473 63.7044C42.4039 63.9168 42.6835 64.2099 42.8862 64.5835C43.0888 64.9547 43.1877 65.3796 43.1829 65.8582C43.178 66.0926 43.1426 66.3356 43.0766 66.5871C43.0107 66.8386 42.8996 67.1183 42.7433 67.4259C42.587 67.7336 42.3721 68.0902 42.0986 68.4955L40.4137 70.9863H39.4173L41.3953 68.0999C41.3074 68.1292 41.2159 68.1536 41.1206 68.1732C41.0278 68.1927 40.9338 68.2025 40.8386 68.2025C40.3844 68.2025 39.9778 68.0975 39.6188 67.8875C39.2623 67.6775 38.9802 67.3905 38.7727 67.0267C38.5675 66.6628 38.465 66.2489 38.465 65.7849ZM39.3294 65.7849C39.3294 66.1024 39.3929 66.382 39.5199 66.6238C39.6469 66.8655 39.8227 67.0548 40.0474 67.1915C40.272 67.3283 40.5309 67.3966 40.8239 67.3966C41.117 67.3966 41.3758 67.3295 41.6005 67.1952C41.8251 67.0584 42.0009 66.8704 42.1279 66.6311C42.2549 66.3893 42.3184 66.1122 42.3184 65.7996C42.3184 65.4821 42.2549 65.2013 42.1279 64.9571C42.0009 64.7129 41.8251 64.5212 41.6005 64.382C41.3758 64.2428 41.117 64.1732 40.8239 64.1732C40.5309 64.1732 40.272 64.2428 40.0474 64.382C39.8227 64.5188 39.6469 64.7093 39.5199 64.9534C39.3929 65.1952 39.3294 65.4724 39.3294 65.7849ZM47.0106 71.0889C46.4588 71.0889 45.9887 70.9387 45.6004 70.6383C45.2121 70.3355 44.9154 69.8972 44.7103 69.3233C44.5052 68.747 44.4026 68.0511 44.4026 67.2355C44.4026 66.4247 44.5052 65.7324 44.7103 65.1586C44.9179 64.5823 45.2158 64.1427 45.6041 63.8399C45.9948 63.5347 46.4636 63.382 47.0106 63.382C47.5576 63.382 48.0253 63.5347 48.4136 63.8399C48.8043 64.1427 49.1022 64.5823 49.3073 65.1586C49.5149 65.7324 49.6187 66.4247 49.6187 67.2355C49.6187 68.0511 49.5161 68.747 49.311 69.3233C49.1058 69.8972 48.8092 70.3355 48.4209 70.6383C48.0326 70.9387 47.5625 71.0889 47.0106 71.0889ZM47.0106 70.283C47.5576 70.283 47.9825 70.0193 48.2853 69.4918C48.5882 68.9644 48.7396 68.2123 48.7396 67.2355C48.7396 66.5859 48.67 66.0328 48.5308 65.5762C48.394 65.1195 48.1962 64.7715 47.9374 64.5322C47.681 64.2929 47.3721 64.1732 47.0106 64.1732C46.4685 64.1732 46.0448 64.4406 45.7396 64.9754C45.4344 65.5078 45.2817 66.2611 45.2817 67.2355C45.2817 67.885 45.3501 68.4369 45.4869 68.8911C45.6236 69.3453 45.8202 69.6909 46.0766 69.9277C46.3354 70.1646 46.6468 70.283 47.0106 70.283ZM53.4574 71.0889C52.9055 71.0889 52.4355 70.9387 52.0472 70.6383C51.6589 70.3355 51.3622 69.8972 51.1571 69.3233C50.952 68.747 50.8494 68.0511 50.8494 67.2355C50.8494 66.4247 50.952 65.7324 51.1571 65.1586C51.3647 64.5823 51.6626 64.1427 52.0509 63.8399C52.4416 63.5347 52.9104 63.382 53.4574 63.382C54.0044 63.382 54.4721 63.5347 54.8603 63.8399C55.2511 64.1427 55.549 64.5823 55.7541 65.1586C55.9617 65.7324 56.0655 66.4247 56.0655 67.2355C56.0655 68.0511 55.9629 68.747 55.7578 69.3233C55.5526 69.8972 55.2559 70.3355 54.8677 70.6383C54.4794 70.9387 54.0093 71.0889 53.4574 71.0889ZM53.4574 70.283C54.0044 70.283 54.4293 70.0193 54.7321 69.4918C55.0349 68.9644 55.1863 68.2123 55.1863 67.2355C55.1863 66.5859 55.1168 66.0328 54.9776 65.5762C54.8408 65.1195 54.643 64.7715 54.3842 64.5322C54.1278 64.2929 53.8188 64.1732 53.4574 64.1732C52.9153 64.1732 52.4916 64.4406 52.1864 64.9754C51.8811 65.5078 51.7285 66.2611 51.7285 67.2355C51.7285 67.885 51.7969 68.4369 51.9336 68.8911C52.0704 69.3453 52.267 69.6909 52.5234 69.9277C52.7822 70.1646 53.0936 70.283 53.4574 70.283ZM57.5892 70.9863V63.4846H58.4977V67.2062H58.5856L61.9555 63.4846H63.1423L59.9921 66.8692L63.1423 70.9863H62.0434L59.4354 67.4992L58.4977 68.5541V70.9863H57.5892Z" fill="#98959E"/>
<path d="M38.465 108.661C38.4699 108.426 38.5053 108.183 38.5712 107.932C38.6371 107.68 38.7482 107.401 38.9045 107.093C39.0608 106.785 39.2757 106.429 39.5492 106.024L41.2342 103.533H42.2305L40.2525 106.419C40.3404 106.39 40.4308 106.365 40.5236 106.346C40.6188 106.326 40.714 106.317 40.8093 106.317C41.2635 106.317 41.6688 106.422 42.0254 106.632C42.3843 106.842 42.6664 107.128 42.8715 107.492C43.0791 107.856 43.1829 108.27 43.1829 108.734C43.1829 109.198 43.0803 109.611 42.8752 109.972C42.6725 110.334 42.3929 110.618 42.0364 110.826C41.6823 111.033 41.2781 111.137 40.8239 111.137C40.3648 111.137 39.957 111.031 39.6005 110.818C39.244 110.603 38.9644 110.31 38.7617 109.939C38.559 109.566 38.4601 109.139 38.465 108.661ZM39.3294 108.719C39.3294 109.037 39.3929 109.318 39.5199 109.562C39.6469 109.806 39.8227 109.998 40.0474 110.137C40.272 110.276 40.5309 110.346 40.8239 110.346C41.117 110.346 41.3758 110.277 41.6005 110.141C41.8251 110.001 42.0009 109.811 42.1279 109.569C42.2549 109.325 42.3184 109.047 42.3184 108.734C42.3184 108.417 42.2549 108.137 42.1279 107.895C42.0009 107.654 41.8251 107.464 41.6005 107.328C41.3758 107.191 41.117 107.122 40.8239 107.122C40.5309 107.122 40.272 107.191 40.0474 107.328C39.8227 107.462 39.6469 107.65 39.5199 107.892C39.3929 108.131 39.3294 108.407 39.3294 108.719ZM47.0106 111.137C46.4588 111.137 45.9887 110.987 45.6004 110.686C45.2121 110.384 44.9154 109.945 44.7103 109.371C44.5052 108.795 44.4026 108.099 44.4026 107.284C44.4026 106.473 44.5052 105.781 44.7103 105.207C44.9179 104.63 45.2158 104.191 45.6041 103.888C45.9948 103.583 46.4636 103.43 47.0106 103.43C47.5576 103.43 48.0253 103.583 48.4136 103.888C48.8043 104.191 49.1022 104.63 49.3073 105.207C49.5149 105.781 49.6187 106.473 49.6187 107.284C49.6187 108.099 49.5161 108.795 49.311 109.371C49.1058 109.945 48.8092 110.384 48.4209 110.686C48.0326 110.987 47.5625 111.137 47.0106 111.137ZM47.0106 110.331C47.5576 110.331 47.9825 110.067 48.2853 109.54C48.5882 109.012 48.7396 108.26 48.7396 107.284C48.7396 106.634 48.67 106.081 48.5308 105.624C48.394 105.168 48.1962 104.82 47.9374 104.58C47.681 104.341 47.3721 104.221 47.0106 104.221C46.4685 104.221 46.0448 104.489 45.7396 105.024C45.4344 105.556 45.2817 106.309 45.2817 107.284C45.2817 107.933 45.3501 108.485 45.4869 108.939C45.6236 109.393 45.8202 109.739 46.0766 109.976C46.3354 110.213 46.6468 110.331 47.0106 110.331ZM53.4574 111.137C52.9055 111.137 52.4355 110.987 52.0472 110.686C51.6589 110.384 51.3622 109.945 51.1571 109.371C50.952 108.795 50.8494 108.099 50.8494 107.284C50.8494 106.473 50.952 105.781 51.1571 105.207C51.3647 104.63 51.6626 104.191 52.0509 103.888C52.4416 103.583 52.9104 103.43 53.4574 103.43C54.0044 103.43 54.4721 103.583 54.8603 103.888C55.2511 104.191 55.549 104.63 55.7541 105.207C55.9617 105.781 56.0655 106.473 56.0655 107.284C56.0655 108.099 55.9629 108.795 55.7578 109.371C55.5526 109.945 55.2559 110.384 54.8677 110.686C54.4794 110.987 54.0093 111.137 53.4574 111.137ZM53.4574 110.331C54.0044 110.331 54.4293 110.067 54.7321 109.54C55.0349 109.012 55.1863 108.26 55.1863 107.284C55.1863 106.634 55.1168 106.081 54.9776 105.624C54.8408 105.168 54.643 104.82 54.3842 104.58C54.1278 104.341 53.8188 104.221 53.4574 104.221C52.9153 104.221 52.4916 104.489 52.1864 105.024C51.8811 105.556 51.7285 106.309 51.7285 107.284C51.7285 107.933 51.7969 108.485 51.9336 108.939C52.0704 109.393 52.267 109.739 52.5234 109.976C52.7822 110.213 53.0936 110.331 53.4574 110.331ZM57.5892 111.034V103.533H58.4977V107.254H58.5856L61.9555 103.533H63.1423L59.9921 106.917L63.1423 111.034H62.0434L59.4354 107.547L58.4977 108.602V111.034H57.5892Z" fill="#98959E"/>
<path d="M37.9696 149.207H38.8926C38.9195 149.461 39.0062 149.676 39.1527 149.852C39.3017 150.025 39.4946 150.157 39.7314 150.247C39.9683 150.335 40.2308 150.379 40.519 150.379C40.8316 150.379 41.1124 150.327 41.3615 150.222C41.6105 150.117 41.8083 149.96 41.9549 149.753C42.1014 149.543 42.1746 149.283 42.1746 148.973C42.1746 148.702 42.1111 148.45 41.9842 148.218C41.8572 147.984 41.6533 147.794 41.3724 147.65C41.0916 147.506 40.7192 147.434 40.2552 147.434H39.6545V146.702L41.53 144.445V144.387H38.3359V143.581H42.7754V144.24L40.7681 146.672V146.731C41.0904 146.746 41.3908 146.812 41.6691 146.929C41.95 147.046 42.1942 147.205 42.4017 147.405C42.6117 147.605 42.7754 147.838 42.8926 148.105C43.0098 148.371 43.0684 148.66 43.0684 148.973C43.0684 149.4 42.9585 149.781 42.7387 150.116C42.5214 150.448 42.2198 150.709 41.834 150.899C41.4506 151.09 41.0074 151.185 40.5043 151.185C40.0599 151.185 39.6509 151.107 39.2772 150.951C38.9036 150.794 38.5996 150.568 38.3652 150.273C38.1307 149.978 37.9989 149.622 37.9696 149.207ZM47.0106 151.185C46.4588 151.185 45.9887 151.035 45.6004 150.735C45.2121 150.432 44.9154 149.993 44.7103 149.42C44.5052 148.843 44.4026 148.147 44.4026 147.332C44.4026 146.521 44.5052 145.829 44.7103 145.255C44.9179 144.678 45.2158 144.239 45.6041 143.936C45.9948 143.631 46.4636 143.478 47.0106 143.478C47.5576 143.478 48.0253 143.631 48.4136 143.936C48.8043 144.239 49.1022 144.678 49.3073 145.255C49.5149 145.829 49.6187 146.521 49.6187 147.332C49.6187 148.147 49.5161 148.843 49.311 149.42C49.1058 149.993 48.8092 150.432 48.4209 150.735C48.0326 151.035 47.5625 151.185 47.0106 151.185ZM47.0106 150.379C47.5576 150.379 47.9825 150.116 48.2853 149.588C48.5882 149.061 48.7396 148.308 48.7396 147.332C48.7396 146.682 48.67 146.129 48.5308 145.672C48.394 145.216 48.1962 144.868 47.9374 144.628C47.681 144.389 47.3721 144.269 47.0106 144.269C46.4685 144.269 46.0448 144.537 45.7396 145.072C45.4344 145.604 45.2817 146.357 45.2817 147.332C45.2817 147.981 45.3501 148.533 45.4869 148.987C45.6236 149.442 45.8202 149.787 46.0766 150.024C46.3354 150.261 46.6468 150.379 47.0106 150.379ZM53.4574 151.185C52.9055 151.185 52.4355 151.035 52.0472 150.735C51.6589 150.432 51.3622 149.993 51.1571 149.42C50.952 148.843 50.8494 148.147 50.8494 147.332C50.8494 146.521 50.952 145.829 51.1571 145.255C51.3647 144.678 51.6626 144.239 52.0509 143.936C52.4416 143.631 52.9104 143.478 53.4574 143.478C54.0044 143.478 54.4721 143.631 54.8603 143.936C55.2511 144.239 55.549 144.678 55.7541 145.255C55.9617 145.829 56.0655 146.521 56.0655 147.332C56.0655 148.147 55.9629 148.843 55.7578 149.42C55.5526 149.993 55.2559 150.432 54.8677 150.735C54.4794 151.035 54.0093 151.185 53.4574 151.185ZM53.4574 150.379C54.0044 150.379 54.4293 150.116 54.7321 149.588C55.0349 149.061 55.1863 148.308 55.1863 147.332C55.1863 146.682 55.1167 146.129 54.9776 145.672C54.8408 145.216 54.643 144.868 54.3842 144.628C54.1278 144.389 53.8188 144.269 53.4574 144.269C52.9153 144.269 52.4916 144.537 52.1864 145.072C51.8811 145.604 51.7285 146.357 51.7285 147.332C51.7285 147.981 51.7969 148.533 51.9336 148.987C52.0704 149.442 52.267 149.787 52.5234 150.024C52.7822 150.261 53.0936 150.379 53.4574 150.379ZM57.5892 151.083V143.581H58.4977V147.302H58.5856L61.9555 143.581H63.1423L59.9921 146.965L63.1423 151.083H62.0434L59.4354 147.595L58.4977 148.65V151.083H57.5892Z" fill="#98959E"/>
<path d="M60.1863 191.233C59.6344 191.233 59.1643 191.083 58.776 190.783C58.3878 190.48 58.0911 190.041 57.8859 189.468C57.6808 188.891 57.5783 188.195 57.5783 187.38C57.5783 186.569 57.6808 185.877 57.8859 185.303C58.0935 184.727 58.3914 184.287 58.7797 183.984C59.1704 183.679 59.6393 183.526 60.1863 183.526C60.7333 183.526 61.2009 183.679 61.5892 183.984C61.9799 184.287 62.2778 184.727 62.4829 185.303C62.6905 185.877 62.7943 186.569 62.7943 187.38C62.7943 188.195 62.6917 188.891 62.4866 189.468C62.2815 190.041 61.9848 190.48 61.5965 190.783C61.2082 191.083 60.7382 191.233 60.1863 191.233ZM60.1863 190.427C60.7333 190.427 61.1582 190.164 61.461 189.636C61.7638 189.109 61.9152 188.357 61.9152 187.38C61.9152 186.73 61.8456 186.177 61.7064 185.72C61.5696 185.264 61.3718 184.916 61.113 184.676C60.8566 184.437 60.5477 184.318 60.1863 184.318C59.6442 184.318 59.2205 184.585 58.9152 185.12C58.61 185.652 58.4574 186.405 58.4574 187.38C58.4574 188.029 58.5257 188.581 58.6625 189.035C58.7992 189.49 58.9958 189.835 59.2522 190.072C59.5111 190.309 59.8224 190.427 60.1863 190.427Z" fill="#98959E"/>
<line x1="77.5924" y1="73.3097" x2="301.587" y2="73.3097" stroke="#131313" stroke-width="0.859572" stroke-linecap="round"/>
<line x1="77.5924" y1="114.283" x2="301.587" y2="114.283" stroke="#131313" stroke-width="0.859572" stroke-linecap="round"/>
<line x1="77.5924" y1="155.256" x2="301.587" y2="155.256" stroke="#131313" stroke-width="0.859572" stroke-linecap="round"/>
<line x1="77.5924" y1="196.228" x2="301.587" y2="196.228" stroke="#1C1C1C" stroke-opacity="0.2" stroke-width="0.859572" stroke-linecap="round"/>
<path d="M88.1161 212.347C88.0722 211.976 87.8939 211.688 87.5813 211.482C87.2688 211.277 86.8854 211.175 86.4312 211.175C86.0991 211.175 85.8085 211.228 85.5594 211.336C85.3127 211.443 85.1198 211.591 84.9806 211.779C84.8439 211.967 84.7755 212.181 84.7755 212.42C84.7755 212.62 84.8231 212.793 84.9184 212.937C85.016 213.078 85.1406 213.197 85.292 213.292C85.4434 213.385 85.6021 213.462 85.7682 213.523C85.9342 213.581 86.0868 213.629 86.226 213.666L86.9879 213.871C87.1833 213.922 87.4006 213.993 87.6399 214.083C87.8817 214.173 88.1125 214.297 88.3322 214.453C88.5544 214.607 88.7376 214.805 88.8817 215.046C89.0257 215.288 89.0978 215.585 89.0978 215.937C89.0978 216.342 88.9916 216.708 88.7791 217.035C88.5691 217.363 88.2614 217.623 87.856 217.816C87.4531 218.009 86.9635 218.105 86.3872 218.105C85.85 218.105 85.3848 218.018 84.9916 217.845C84.6009 217.672 84.2932 217.43 84.0686 217.12C83.8463 216.81 83.7206 216.449 83.6913 216.039H84.629C84.6534 216.322 84.7486 216.557 84.9147 216.742C85.0832 216.926 85.2956 217.062 85.5521 217.153C85.8109 217.241 86.0893 217.285 86.3872 217.285C86.734 217.285 87.0453 217.228 87.3213 217.116C87.5972 217.001 87.8158 216.843 87.9769 216.64C88.1381 216.435 88.2187 216.195 88.2187 215.922C88.2187 215.673 88.1491 215.47 88.0099 215.314C87.8707 215.158 87.6876 215.031 87.4604 214.933C87.2333 214.835 86.9879 214.75 86.7242 214.676L85.8011 214.413C85.2151 214.244 84.7511 214.004 84.4092 213.691C84.0673 213.379 83.8964 212.97 83.8964 212.464C83.8964 212.044 84.01 211.678 84.2371 211.365C84.4666 211.05 84.7743 210.806 85.1601 210.633C85.5484 210.457 85.9818 210.369 86.4605 210.369C86.944 210.369 87.3738 210.456 87.7498 210.629C88.1259 210.8 88.4238 211.034 88.6436 211.332C88.8658 211.63 88.983 211.968 88.9952 212.347H88.1161ZM96.9209 214.222C96.9209 215.013 96.7781 215.697 96.4924 216.274C96.2067 216.85 95.8147 217.294 95.3166 217.607C94.8184 217.919 94.2494 218.076 93.6096 218.076C92.9698 218.076 92.4009 217.919 91.9027 217.607C91.4045 217.294 91.0126 216.85 90.7269 216.274C90.4412 215.697 90.2983 215.013 90.2983 214.222C90.2983 213.431 90.4412 212.747 90.7269 212.171C91.0126 211.595 91.4045 211.15 91.9027 210.838C92.4009 210.525 92.9698 210.369 93.6096 210.369C94.2494 210.369 94.8184 210.525 95.3166 210.838C95.8147 211.15 96.2067 211.595 96.4924 212.171C96.7781 212.747 96.9209 213.431 96.9209 214.222ZM96.0418 214.222C96.0418 213.573 95.9332 213.024 95.7158 212.578C95.5009 212.131 95.2091 211.793 94.8404 211.563C94.4741 211.333 94.0638 211.219 93.6096 211.219C93.1554 211.219 92.7439 211.333 92.3752 211.563C92.0089 211.793 91.7171 212.131 91.4998 212.578C91.2849 213.024 91.1774 213.573 91.1774 214.222C91.1774 214.872 91.2849 215.42 91.4998 215.867C91.7171 216.314 92.0089 216.652 92.3752 216.882C92.7439 217.111 93.1554 217.226 93.6096 217.226C94.0638 217.226 94.4741 217.111 94.8404 216.882C95.2091 216.652 95.5009 216.314 95.7158 215.867C95.9332 215.42 96.0418 214.872 96.0418 214.222ZM98.4484 217.973V210.471H99.3568V217.167H102.844V217.973H98.4484Z" fill="#98959E"/>
<path d="M111.716 211.277V210.471H117.343V211.277H114.984V217.973H114.075V211.277H111.716ZM123.668 210.471H124.576V215.438C124.576 215.951 124.455 216.409 124.213 216.812C123.974 217.212 123.636 217.529 123.199 217.761C122.762 217.99 122.249 218.105 121.66 218.105C121.072 218.105 120.559 217.99 120.122 217.761C119.685 217.529 119.345 217.212 119.104 216.812C118.864 216.409 118.745 215.951 118.745 215.438V210.471H119.653V215.365C119.653 215.731 119.734 216.057 119.895 216.343C120.056 216.626 120.286 216.85 120.583 217.013C120.884 217.175 121.243 217.255 121.66 217.255C122.078 217.255 122.437 217.175 122.737 217.013C123.038 216.85 123.267 216.626 123.426 216.343C123.587 216.057 123.668 215.731 123.668 215.365V210.471ZM130.493 212.347C130.449 211.976 130.27 211.688 129.958 211.482C129.645 211.277 129.262 211.175 128.808 211.175C128.476 211.175 128.185 211.228 127.936 211.336C127.689 211.443 127.496 211.591 127.357 211.779C127.22 211.967 127.152 212.181 127.152 212.42C127.152 212.62 127.2 212.793 127.295 212.937C127.393 213.078 127.517 213.197 127.668 213.292C127.82 213.385 127.979 213.462 128.145 213.523C128.311 213.581 128.463 213.629 128.603 213.666L129.364 213.871C129.56 213.922 129.777 213.993 130.016 214.083C130.258 214.173 130.489 214.297 130.709 214.453C130.931 214.607 131.114 214.805 131.258 215.046C131.402 215.288 131.474 215.585 131.474 215.937C131.474 216.342 131.368 216.708 131.156 217.035C130.946 217.363 130.638 217.623 130.233 217.816C129.83 218.009 129.34 218.105 128.764 218.105C128.226 218.105 127.761 218.018 127.368 217.845C126.977 217.672 126.67 217.43 126.445 217.12C126.223 216.81 126.097 216.449 126.068 216.039H127.005C127.03 216.322 127.125 216.557 127.291 216.742C127.46 216.926 127.672 217.062 127.929 217.153C128.187 217.241 128.466 217.285 128.764 217.285C129.11 217.285 129.422 217.228 129.698 217.116C129.974 217.001 130.192 216.843 130.353 216.64C130.515 216.435 130.595 216.195 130.595 215.922C130.595 215.673 130.526 215.47 130.386 215.314C130.247 215.158 130.064 215.031 129.837 214.933C129.61 214.835 129.364 214.75 129.101 214.676L128.178 214.413C127.592 214.244 127.128 214.004 126.786 213.691C126.444 213.379 126.273 212.97 126.273 212.464C126.273 212.044 126.386 211.678 126.614 211.365C126.843 211.05 127.151 210.806 127.537 210.633C127.925 210.457 128.358 210.369 128.837 210.369C129.32 210.369 129.75 210.456 130.126 210.629C130.502 210.8 130.8 211.034 131.02 211.332C131.242 211.63 131.36 211.968 131.372 212.347H130.493ZM135.283 217.973H132.968V210.471H135.385C136.113 210.471 136.736 210.622 137.254 210.922C137.771 211.22 138.168 211.648 138.444 212.208C138.72 212.764 138.858 213.431 138.858 214.208C138.858 214.989 138.719 215.662 138.44 216.226C138.162 216.788 137.757 217.22 137.224 217.523C136.692 217.823 136.045 217.973 135.283 217.973ZM133.876 217.167H135.224C135.844 217.167 136.359 217.048 136.766 216.808C137.174 216.569 137.478 216.228 137.678 215.786C137.879 215.344 137.979 214.818 137.979 214.208C137.979 213.602 137.88 213.081 137.682 212.644C137.484 212.204 137.189 211.867 136.796 211.633C136.402 211.396 135.913 211.277 135.327 211.277H133.876V217.167Z" fill="#98959E"/>
<path d="M149.328 210.471H150.236V215.438C150.236 215.951 150.115 216.409 149.874 216.812C149.634 217.212 149.296 217.529 148.859 217.761C148.422 217.99 147.909 218.105 147.32 218.105C146.732 218.105 146.219 217.99 145.782 217.761C145.345 217.529 145.006 217.212 144.764 216.812C144.524 216.409 144.405 215.951 144.405 215.438V210.471H145.313V215.365C145.313 215.731 145.394 216.057 145.555 216.343C145.716 216.626 145.946 216.85 146.244 217.013C146.544 217.175 146.903 217.255 147.32 217.255C147.738 217.255 148.097 217.175 148.397 217.013C148.698 216.85 148.927 216.626 149.086 216.343C149.247 216.057 149.328 215.731 149.328 215.365V210.471ZM156.153 212.347C156.109 211.976 155.931 211.688 155.618 211.482C155.305 211.277 154.922 211.175 154.468 211.175C154.136 211.175 153.845 211.228 153.596 211.336C153.349 211.443 153.156 211.591 153.017 211.779C152.881 211.967 152.812 212.181 152.812 212.42C152.812 212.62 152.86 212.793 152.955 212.937C153.053 213.078 153.177 213.197 153.329 213.292C153.48 213.385 153.639 213.462 153.805 213.523C153.971 213.581 154.124 213.629 154.263 213.666L155.025 213.871C155.22 213.922 155.437 213.993 155.677 214.083C155.918 214.173 156.149 214.297 156.369 214.453C156.591 214.607 156.774 214.805 156.918 215.046C157.062 215.288 157.134 215.585 157.134 215.937C157.134 216.342 157.028 216.708 156.816 217.035C156.606 217.363 156.298 217.623 155.893 217.816C155.49 218.009 155 218.105 154.424 218.105C153.887 218.105 153.421 218.018 153.028 217.845C152.638 217.672 152.33 217.43 152.105 217.12C151.883 216.81 151.757 216.449 151.728 216.039H152.666C152.69 216.322 152.785 216.557 152.951 216.742C153.12 216.926 153.332 217.062 153.589 217.153C153.848 217.241 154.126 217.285 154.424 217.285C154.771 217.285 155.082 217.228 155.358 217.116C155.634 217.001 155.852 216.843 156.014 216.64C156.175 216.435 156.255 216.195 156.255 215.922C156.255 215.673 156.186 215.47 156.047 215.314C155.907 215.158 155.724 215.031 155.497 214.933C155.27 214.835 155.025 214.75 154.761 214.676L153.838 214.413C153.252 214.244 152.788 214.004 152.446 213.691C152.104 213.379 151.933 212.97 151.933 212.464C151.933 212.044 152.047 211.678 152.274 211.365C152.503 211.05 152.811 210.806 153.197 210.633C153.585 210.457 154.019 210.369 154.497 210.369C154.981 210.369 155.41 210.456 155.786 210.629C156.163 210.8 156.46 211.034 156.68 211.332C156.902 211.63 157.02 211.968 157.032 212.347H156.153ZM160.943 217.973H158.628V210.471H161.046C161.773 210.471 162.396 210.622 162.914 210.922C163.431 211.22 163.828 211.648 164.104 212.208C164.38 212.764 164.518 213.431 164.518 214.208C164.518 214.989 164.379 215.662 164.1 216.226C163.822 216.788 163.417 217.22 162.884 217.523C162.352 217.823 161.705 217.973 160.943 217.973ZM159.536 217.167H160.884C161.505 217.167 162.019 217.048 162.427 216.808C162.834 216.569 163.138 216.228 163.339 215.786C163.539 215.344 163.639 214.818 163.639 214.208C163.639 213.602 163.54 213.081 163.342 212.644C163.144 212.204 162.849 211.867 162.456 211.633C162.063 211.396 161.573 211.277 160.987 211.277H159.536V217.167ZM165.319 211.277V210.471H170.946V211.277H168.587V217.973H167.678V211.277H165.319Z" fill="#98959E"/>
<path d="M181.45 210.471H182.358V215.438C182.358 215.951 182.237 216.409 181.996 216.812C181.756 217.212 181.418 217.529 180.981 217.761C180.544 217.99 180.031 218.105 179.443 218.105C178.854 218.105 178.341 217.99 177.904 217.761C177.467 217.529 177.128 217.212 176.886 216.812C176.647 216.409 176.527 215.951 176.527 215.438V210.471H177.435V215.365C177.435 215.731 177.516 216.057 177.677 216.343C177.838 216.626 178.068 216.85 178.366 217.013C178.666 217.175 179.025 217.255 179.443 217.255C179.86 217.255 180.219 217.175 180.519 217.013C180.82 216.85 181.049 216.626 181.208 216.343C181.369 216.057 181.45 215.731 181.45 215.365V210.471ZM188.275 212.347C188.231 211.976 188.053 211.688 187.74 211.482C187.427 211.277 187.044 211.175 186.59 211.175C186.258 211.175 185.967 211.228 185.718 211.336C185.471 211.443 185.279 211.591 185.139 211.779C185.003 211.967 184.934 212.181 184.934 212.42C184.934 212.62 184.982 212.793 185.077 212.937C185.175 213.078 185.299 213.197 185.451 213.292C185.602 213.385 185.761 213.462 185.927 213.523C186.093 213.581 186.246 213.629 186.385 213.666L187.147 213.871C187.342 213.922 187.559 213.993 187.799 214.083C188.04 214.173 188.271 214.297 188.491 214.453C188.713 214.607 188.896 214.805 189.04 215.046C189.184 215.288 189.257 215.585 189.257 215.937C189.257 216.342 189.15 216.708 188.938 217.035C188.728 217.363 188.42 217.623 188.015 217.816C187.612 218.009 187.122 218.105 186.546 218.105C186.009 218.105 185.544 218.018 185.15 217.845C184.76 217.672 184.452 217.43 184.227 217.12C184.005 216.81 183.879 216.449 183.85 216.039H184.788C184.812 216.322 184.907 216.557 185.073 216.742C185.242 216.926 185.454 217.062 185.711 217.153C185.97 217.241 186.248 217.285 186.546 217.285C186.893 217.285 187.204 217.228 187.48 217.116C187.756 217.001 187.974 216.843 188.136 216.64C188.297 216.435 188.377 216.195 188.377 215.922C188.377 215.673 188.308 215.47 188.169 215.314C188.029 215.158 187.846 215.031 187.619 214.933C187.392 214.835 187.147 214.75 186.883 214.676L185.96 214.413C185.374 214.244 184.91 214.004 184.568 213.691C184.226 213.379 184.055 212.97 184.055 212.464C184.055 212.044 184.169 211.678 184.396 211.365C184.625 211.05 184.933 210.806 185.319 210.633C185.707 210.457 186.141 210.369 186.619 210.369C187.103 210.369 187.532 210.456 187.909 210.629C188.285 210.8 188.583 211.034 188.802 211.332C189.025 211.63 189.142 211.968 189.154 212.347H188.275ZM193.065 217.973H190.75V210.471H193.168C193.895 210.471 194.518 210.622 195.036 210.922C195.553 211.22 195.95 211.648 196.226 212.208C196.502 212.764 196.64 213.431 196.64 214.208C196.64 214.989 196.501 215.662 196.223 216.226C195.944 216.788 195.539 217.22 195.006 217.523C194.474 217.823 193.827 217.973 193.065 217.973ZM191.659 217.167H193.006C193.627 217.167 194.141 217.048 194.549 216.808C194.956 216.569 195.26 216.228 195.461 215.786C195.661 215.344 195.761 214.818 195.761 214.208C195.761 213.602 195.662 213.081 195.464 212.644C195.267 212.204 194.971 211.867 194.578 211.633C194.185 211.396 193.695 211.277 193.109 211.277H191.659V217.167ZM197.441 211.277V210.471H203.068V211.277H200.709V217.973H199.8V211.277H197.441Z" fill="#98959E"/>
<path d="M216.554 217.973H214.24V210.471H216.657C217.385 210.471 218.007 210.622 218.525 210.922C219.043 211.22 219.44 211.648 219.716 212.208C219.992 212.764 220.13 213.431 220.13 214.208C220.13 214.989 219.99 215.662 219.712 216.226C219.434 216.788 219.028 217.22 218.496 217.523C217.964 217.823 217.316 217.973 216.554 217.973ZM215.148 217.167H216.496C217.116 217.167 217.63 217.048 218.038 216.808C218.446 216.569 218.75 216.228 218.95 215.786C219.15 215.344 219.25 214.818 219.25 214.208C219.25 213.602 219.152 213.081 218.954 212.644C218.756 212.204 218.46 211.867 218.067 211.633C217.674 211.396 217.185 211.277 216.598 211.277H215.148V217.167ZM221.608 217.973H220.656L223.411 210.471H224.348L227.103 217.973H226.151L223.909 211.658H223.85L221.608 217.973ZM221.96 215.043H225.799V215.849H221.96V215.043ZM229.18 210.471V217.973H228.271V210.471H229.18Z" fill="#98959E"/>
<path d="M85.0742 140.787C85.0742 138.888 86.6136 137.349 88.5125 137.349H97.1082C99.0071 137.349 100.547 138.888 100.547 140.787V195.8H85.0742V140.787Z" fill="#4E826F"/>
<path d="M117.124 129.613C117.124 127.714 118.663 126.174 120.562 126.174H129.158C131.057 126.174 132.596 127.714 132.596 129.613V195.8H117.124V129.613Z" fill="#5C4193"/>
<path d="M149.174 138.208C149.174 136.309 150.713 134.77 152.612 134.77H161.208C163.107 134.77 164.646 136.309 164.646 138.208V195.8H149.174V138.208Z" fill="#1C1C1C"/>
<path d="M181.223 129.613C181.223 127.714 182.763 126.174 184.661 126.174H193.257C195.156 126.174 196.695 127.714 196.695 129.613V195.8H181.223V129.613Z" fill="#5C4193"/>
<path d="M213.273 123.596C213.273 121.697 214.812 120.157 216.711 120.157H225.307C227.206 120.157 228.745 121.697 228.745 123.596V195.8H213.273V123.596Z" fill="#4E826F"/>
<rect x="1.24488" y="0.475835" width="335.939" height="263.305" rx="22.3642" stroke="#1D1D1D" stroke-width="0.95167"/>
</svg>
