<svg width="256" height="264" viewBox="0 0 256 264" fill="none" xmlns="http://www.w3.org/2000/svg">
<rect x="-94.1838" y="0.475835" width="349.263" height="263.305" rx="22.3642" fill="black"/>
<rect x="-79.4329" y="15.2268" width="319.761" height="233.804" rx="13.7532" fill="black"/>
<path d="M-52.0467 34.7379V35.937H-54.4321V43.699H-55.9019V35.937H-58.3001V34.7379H-52.0467ZM-47.4766 43.815C-48.147 43.815 -48.753 43.6646 -49.2946 43.3637C-49.8361 43.0543 -50.2616 42.6245 -50.571 42.0744C-50.8805 41.5157 -51.0352 40.871 -51.0352 40.1403C-51.0352 39.4183 -50.8762 38.7779 -50.5581 38.2192C-50.2401 37.6605 -49.806 37.2307 -49.2559 36.9298C-48.7058 36.629 -48.0912 36.4786 -47.4121 36.4786C-46.733 36.4786 -46.1184 36.629 -45.5683 36.9298C-45.0182 37.2307 -44.5841 37.6605 -44.2661 38.2192C-43.948 38.7779 -43.789 39.4183 -43.789 40.1403C-43.789 40.8624 -43.9523 41.5028 -44.279 42.0615C-44.6056 42.6202 -45.0526 43.0543 -45.6199 43.3637C-46.1786 43.6646 -46.7975 43.815 -47.4766 43.815ZM-47.4766 42.5386C-47.0984 42.5386 -46.7459 42.4483 -46.4193 42.2678C-46.0841 42.0873 -45.8133 41.8165 -45.607 41.4555C-45.4007 41.0945 -45.2976 40.6561 -45.2976 40.1403C-45.2976 39.6246 -45.3964 39.1905 -45.5941 38.8381C-45.7918 38.4771 -46.054 38.2063 -46.3806 38.0258C-46.7073 37.8453 -47.0597 37.755 -47.4379 37.755C-47.8161 37.755 -48.1685 37.8453 -48.4952 38.0258C-48.8132 38.2063 -49.0668 38.4771 -49.2559 38.8381C-49.445 39.1905 -49.5395 39.6246 -49.5395 40.1403C-49.5395 40.9054 -49.3461 41.4985 -48.9593 41.9197C-48.5639 42.3323 -48.0697 42.5386 -47.4766 42.5386ZM-40.6211 37.7937V41.7263C-40.6211 41.9927 -40.5609 42.1861 -40.4406 42.3065C-40.3117 42.4182 -40.0968 42.4741 -39.7959 42.4741H-38.8934V43.699H-40.0538C-40.7157 43.699 -41.2228 43.5443 -41.5752 43.2348C-41.9277 42.9254 -42.1039 42.4225 -42.1039 41.7263V37.7937H-42.942V36.5946H-42.1039V34.8282H-40.6211V36.5946H-38.8934V37.7937H-40.6211ZM-38.0286 40.1146C-38.0286 39.4011 -37.8825 38.7693 -37.5902 38.2192C-37.2894 37.6691 -36.8854 37.2436 -36.3782 36.9427C-35.8625 36.6333 -35.2952 36.4786 -34.6763 36.4786C-34.1175 36.4786 -33.6319 36.5903 -33.2193 36.8138C-32.7981 37.0287 -32.4629 37.2995 -32.2136 37.6261V36.5946H-30.7308V43.699H-32.2136V42.6417C-32.4629 42.9769 -32.8024 43.2563 -33.2322 43.4798C-33.662 43.7033 -34.1519 43.815 -34.7021 43.815C-35.3124 43.815 -35.8711 43.6603 -36.3782 43.3508C-36.8854 43.0328 -37.2894 42.5944 -37.5902 42.0357C-37.8825 41.4684 -38.0286 40.828 -38.0286 40.1146ZM-32.2136 40.1403C-32.2136 39.6504 -32.3167 39.2249 -32.523 38.8639C-32.7207 38.5029 -32.9829 38.2278 -33.3095 38.0387C-33.6362 37.8496 -33.9886 37.755 -34.3668 37.755C-34.745 37.755 -35.0975 37.8496 -35.4241 38.0387C-35.7507 38.2192 -36.0172 38.49 -36.2235 38.851C-36.4212 39.2034 -36.52 39.6246 -36.52 40.1146C-36.52 40.6045 -36.4212 41.0343 -36.2235 41.4039C-36.0172 41.7735 -35.7507 42.0572 -35.4241 42.2549C-35.0889 42.444 -34.7364 42.5386 -34.3668 42.5386C-33.9886 42.5386 -33.6362 42.444 -33.3095 42.2549C-32.9829 42.0658 -32.7207 41.7907 -32.523 41.4297C-32.3167 41.0601 -32.2136 40.6303 -32.2136 40.1403ZM-27.3303 34.1577V43.699H-28.8002V34.1577H-27.3303ZM-20.5814 37.639C-20.3321 37.3124 -19.9926 37.0373 -19.5628 36.8138C-19.133 36.5903 -18.6473 36.4786 -18.1058 36.4786C-17.4869 36.4786 -16.9239 36.6333 -16.4167 36.9427C-15.901 37.2436 -15.497 37.6691 -15.2047 38.2192C-14.9125 38.7693 -14.7664 39.4011 -14.7664 40.1146C-14.7664 40.828 -14.9125 41.4684 -15.2047 42.0357C-15.497 42.5944 -15.901 43.0328 -16.4167 43.3508C-16.9239 43.6603 -17.4869 43.815 -18.1058 43.815C-18.6473 43.815 -19.1287 43.7076 -19.5499 43.4927C-19.9711 43.2692 -20.3149 42.9941 -20.5814 42.6675V47.0771H-22.0512V36.5946H-20.5814V37.639ZM-16.262 40.1146C-16.262 39.6246 -16.3652 39.2034 -16.5715 38.851C-16.7692 38.49 -17.0356 38.2192 -17.3709 38.0387C-17.6975 37.8496 -18.0499 37.755 -18.4281 37.755C-18.7978 37.755 -19.1502 37.8496 -19.4854 38.0387C-19.812 38.2278 -20.0785 38.5029 -20.2848 38.8639C-20.4825 39.2249 -20.5814 39.6504 -20.5814 40.1403C-20.5814 40.6303 -20.4825 41.0601 -20.2848 41.4297C-20.0785 41.7907 -19.812 42.0658 -19.4854 42.2549C-19.1502 42.444 -18.7978 42.5386 -18.4281 42.5386C-18.0499 42.5386 -17.6975 42.444 -17.3709 42.2549C-17.0356 42.0572 -16.7692 41.7735 -16.5715 41.4039C-16.3652 41.0343 -16.262 40.6045 -16.262 40.1146ZM-10.2312 43.815C-10.9017 43.815 -11.5077 43.6646 -12.0492 43.3637C-12.5908 43.0543 -13.0163 42.6245 -13.3257 42.0744C-13.6352 41.5157 -13.7899 40.871 -13.7899 40.1403C-13.7899 39.4183 -13.6309 38.7779 -13.3128 38.2192C-12.9948 37.6605 -12.5607 37.2307 -12.0106 36.9298C-11.4604 36.629 -10.8458 36.4786 -10.1668 36.4786C-9.48772 36.4786 -8.87312 36.629 -8.323 36.9298C-7.77287 37.2307 -7.33879 37.6605 -7.02074 38.2192C-6.7027 38.7779 -6.54368 39.4183 -6.54368 40.1403C-6.54368 40.8624 -6.707 41.5028 -7.03364 42.0615C-7.36028 42.6202 -7.80725 43.0543 -8.37457 43.3637C-8.93329 43.6646 -9.55218 43.815 -10.2312 43.815ZM-10.2312 42.5386C-9.85303 42.5386 -9.50061 42.4483 -9.17397 42.2678C-8.83874 42.0873 -8.56797 41.8165 -8.36168 41.4555C-8.15538 41.0945 -8.05223 40.6561 -8.05223 40.1403C-8.05223 39.6246 -8.15108 39.1905 -8.34878 38.8381C-8.54648 38.4771 -8.80865 38.2063 -9.13529 38.0258C-9.46193 37.8453 -9.81435 37.755 -10.1926 37.755C-10.5708 37.755 -10.9232 37.8453 -11.2498 38.0258C-11.5679 38.2063 -11.8215 38.4771 -12.0106 38.8381C-12.1997 39.1905 -12.2942 39.6246 -12.2942 40.1403C-12.2942 40.9054 -12.1008 41.4985 -11.714 41.9197C-11.3186 42.3323 -10.8244 42.5386 -10.2312 42.5386ZM-3.62076 37.6261C-3.40587 37.2651 -3.12221 36.9857 -2.76979 36.788C-2.40877 36.5817 -1.98328 36.4786 -1.49332 36.4786V38H-1.86724C-2.44315 38 -2.88153 38.1461 -3.18238 38.4384C-3.47464 38.7306 -3.62076 39.2378 -3.62076 39.9598V43.699H-5.09063V36.5946H-3.62076V37.6261ZM1.57263 37.7937V41.7263C1.57263 41.9927 1.6328 42.1861 1.75314 42.3065C1.88207 42.4182 2.09697 42.4741 2.39782 42.4741H3.30037V43.699H2.13994C1.47807 43.699 0.970927 43.5443 0.618502 43.2348C0.266078 42.9254 0.0898654 42.4225 0.0898654 41.7263V37.7937H-0.748217V36.5946H0.0898654V34.8282H1.57263V36.5946H3.30037V37.7937H1.57263ZM7.63352 37.7937H6.31837V43.699H4.83561V37.7937H3.99753V36.5946H4.83561V36.0918C4.83561 35.2752 5.0505 34.6821 5.48029 34.3124C5.91867 33.9342 6.60203 33.7451 7.53037 33.7451V34.97C7.08339 34.97 6.76965 35.056 6.58914 35.2279C6.40863 35.3912 6.31837 35.6792 6.31837 36.0918V36.5946H7.63352V37.7937ZM12.0177 43.815C11.3473 43.815 10.7413 43.6646 10.1997 43.3637C9.65821 43.0543 9.23273 42.6245 8.92328 42.0744C8.61383 41.5157 8.45911 40.871 8.45911 40.1403C8.45911 39.4183 8.61813 38.7779 8.93617 38.2192C9.25421 37.6605 9.6883 37.2307 10.2384 36.9298C10.7886 36.629 11.4031 36.4786 12.0822 36.4786C12.7613 36.4786 13.3759 36.629 13.926 36.9298C14.4761 37.2307 14.9102 37.6605 15.2282 38.2192C15.5463 38.7779 15.7053 39.4183 15.7053 40.1403C15.7053 40.8624 15.542 41.5028 15.2153 42.0615C14.8887 42.6202 14.4417 43.0543 13.8744 43.3637C13.3157 43.6646 12.6968 43.815 12.0177 43.815ZM12.0177 42.5386C12.396 42.5386 12.7484 42.4483 13.075 42.2678C13.4102 42.0873 13.681 41.8165 13.8873 41.4555C14.0936 41.0945 14.1968 40.6561 14.1968 40.1403C14.1968 39.6246 14.0979 39.1905 13.9002 38.8381C13.7025 38.4771 13.4403 38.2063 13.1137 38.0258C12.7871 37.8453 12.4346 37.755 12.0564 37.755C11.6782 37.755 11.3258 37.8453 10.9991 38.0258C10.6811 38.2063 10.4275 38.4771 10.2384 38.8381C10.0493 39.1905 9.95477 39.6246 9.95477 40.1403C9.95477 40.9054 10.1482 41.4985 10.535 41.9197C10.9304 42.3323 11.4246 42.5386 12.0177 42.5386ZM18.6282 34.1577V43.699H17.1583V34.1577H18.6282ZM21.3058 35.6534C21.0394 35.6534 20.8159 35.5631 20.6354 35.3826C20.4549 35.2021 20.3646 34.9786 20.3646 34.7121C20.3646 34.4457 20.4549 34.2222 20.6354 34.0417C20.8159 33.8612 21.0394 33.7709 21.3058 33.7709C21.5637 33.7709 21.7829 33.8612 21.9634 34.0417C22.1439 34.2222 22.2342 34.4457 22.2342 34.7121C22.2342 34.9786 22.1439 35.2021 21.9634 35.3826C21.7829 35.5631 21.5637 35.6534 21.3058 35.6534ZM22.0279 36.5946V43.699H20.558V36.5946H22.0279ZM27.0393 43.815C26.3688 43.815 25.7628 43.6646 25.2213 43.3637C24.6797 43.0543 24.2542 42.6245 23.9448 42.0744C23.6354 41.5157 23.4806 40.871 23.4806 40.1403C23.4806 39.4183 23.6397 38.7779 23.9577 38.2192C24.2757 37.6605 24.7098 37.2307 25.2599 36.9298C25.8101 36.629 26.4247 36.4786 27.1037 36.4786C27.7828 36.4786 28.3974 36.629 28.9475 36.9298C29.4976 37.2307 29.9317 37.6605 30.2498 38.2192C30.5678 38.7779 30.7268 39.4183 30.7268 40.1403C30.7268 40.8624 30.5635 41.5028 30.2369 42.0615C29.9102 42.6202 29.4633 43.0543 28.8959 43.3637C28.3372 43.6646 27.7183 43.815 27.0393 43.815ZM27.0393 42.5386C27.4175 42.5386 27.7699 42.4483 28.0965 42.2678C28.4318 42.0873 28.7025 41.8165 28.9088 41.4555C29.1151 41.0945 29.2183 40.6561 29.2183 40.1403C29.2183 39.6246 29.1194 39.1905 28.9217 38.8381C28.724 38.4771 28.4619 38.2063 28.1352 38.0258C27.8086 37.8453 27.4562 37.755 27.0779 37.755C26.6997 37.755 26.3473 37.8453 26.0207 38.0258C25.7026 38.2063 25.4491 38.4771 25.2599 38.8381C25.0708 39.1905 24.9763 39.6246 24.9763 40.1403C24.9763 40.9054 25.1697 41.4985 25.5565 41.9197C25.9519 42.3323 26.4462 42.5386 27.0393 42.5386ZM38.2755 42.3838L40.2869 36.5946H41.847L39.1394 43.699H37.3859L34.6911 36.5946H36.2641L38.2755 42.3838ZM42.4681 40.1146C42.4681 39.4011 42.6143 38.7693 42.9065 38.2192C43.2074 37.6691 43.6114 37.2436 44.1185 36.9427C44.6343 36.6333 45.2016 36.4786 45.8205 36.4786C46.3792 36.4786 46.8649 36.5903 47.2774 36.8138C47.6986 37.0287 48.0339 37.2995 48.2831 37.6261V36.5946H49.7659V43.699H48.2831V42.6417C48.0339 42.9769 47.6943 43.2563 47.2646 43.4798C46.8348 43.7033 46.3448 43.815 45.7947 43.815C45.1844 43.815 44.6257 43.6603 44.1185 43.3508C43.6114 43.0328 43.2074 42.5944 42.9065 42.0357C42.6143 41.4684 42.4681 40.828 42.4681 40.1146ZM48.2831 40.1403C48.2831 39.6504 48.18 39.2249 47.9737 38.8639C47.776 38.5029 47.5138 38.2278 47.1872 38.0387C46.8606 37.8496 46.5081 37.755 46.1299 37.755C45.7517 37.755 45.3993 37.8496 45.0726 38.0387C44.746 38.2192 44.4795 38.49 44.2732 38.851C44.0755 39.2034 43.9767 39.6246 43.9767 40.1146C43.9767 40.6045 44.0755 41.0343 44.2732 41.4039C44.4795 41.7735 44.746 42.0572 45.0726 42.2549C45.4079 42.444 45.7603 42.5386 46.1299 42.5386C46.5081 42.5386 46.8606 42.444 47.1872 42.2549C47.5138 42.0658 47.776 41.7907 47.9737 41.4297C48.18 41.0601 48.2831 40.6303 48.2831 40.1403ZM53.1664 34.1577V43.699H51.6965V34.1577H53.1664ZM61.5301 36.5946V43.699H60.0602V42.8609C59.8281 43.1531 59.523 43.3852 59.1448 43.5571C58.7752 43.7205 58.3798 43.8021 57.9586 43.8021C57.3999 43.8021 56.897 43.6861 56.45 43.454C56.0116 43.2219 55.6635 42.8781 55.4056 42.4225C55.1564 41.9669 55.0317 41.4168 55.0317 40.7721V36.5946H56.4887V40.5529C56.4887 41.189 56.6477 41.679 56.9658 42.0228C57.2838 42.358 57.7179 42.5257 58.268 42.5257C58.8181 42.5257 59.2522 42.358 59.5703 42.0228C59.8969 41.679 60.0602 41.189 60.0602 40.5529V36.5946H61.5301ZM69.9807 39.9727C69.9807 40.2392 69.9635 40.4799 69.9292 40.6948H64.501C64.5439 41.2621 64.7545 41.7177 65.1327 42.0615C65.511 42.4053 65.9751 42.5772 66.5253 42.5772C67.3161 42.5772 67.8748 42.2463 68.2014 41.5844H69.7873C69.5724 42.2377 69.1813 42.7749 68.614 43.1961C68.0553 43.6087 67.359 43.815 66.5253 43.815C65.8462 43.815 65.2359 43.6646 64.6944 43.3637C64.1614 43.0543 63.7402 42.6245 63.4308 42.0744C63.1299 41.5157 62.9795 40.871 62.9795 40.1403C62.9795 39.4097 63.1256 38.7693 63.4179 38.2192C63.7188 37.6605 64.1356 37.2307 64.6686 36.9298C65.2101 36.629 65.829 36.4786 66.5253 36.4786C67.1957 36.4786 67.7931 36.6247 68.3175 36.917C68.8418 37.2092 69.2501 37.6218 69.5424 38.1547C69.8346 38.6791 69.9807 39.2851 69.9807 39.9727ZM68.4464 39.5086C68.4378 38.967 68.2444 38.5329 67.8662 38.2063C67.488 37.8797 67.0195 37.7164 66.4608 37.7164C65.9536 37.7164 65.5196 37.8797 65.1585 38.2063C64.7975 38.5244 64.5826 38.9584 64.5139 39.5086H68.4464Z" fill="#98959E"/>
<path d="M-47.5804 76.5589C-47.5804 77.2465 -47.7523 77.8929 -48.0961 78.4981C-48.4262 79.1032 -48.9213 79.6121 -49.5815 80.0247C-50.2279 80.4373 -50.9981 80.6848 -51.892 80.7673V82.4383H-53.233V80.7673C-54.5257 80.6436 -55.571 80.2378 -56.3687 79.5502C-57.1664 78.8625 -57.5652 77.9548 -57.5652 76.8271H-55.0484C-55.0071 77.3634 -54.8352 77.8104 -54.5326 78.168C-54.2301 78.5118 -53.7968 78.7319 -53.233 78.8281V74.2896C-54.1544 74.0558 -54.904 73.822 -55.4816 73.5882C-56.0592 73.3406 -56.5543 72.9555 -56.9669 72.4329C-57.3658 71.9103 -57.5652 71.1951 -57.5652 70.2874C-57.5652 69.1459 -57.1664 68.2038 -56.3687 67.4612C-55.571 66.7047 -54.5257 66.2646 -53.233 66.1409V64.4698H-51.892V66.1409C-50.6817 66.2509 -49.7121 66.636 -48.9832 67.2961C-48.2406 67.9425 -47.8211 68.8365 -47.7248 69.978H-50.2416C-50.2829 69.5516 -50.4479 69.1734 -50.7368 68.8433C-51.0256 68.4995 -51.4107 68.2657 -51.892 68.1419V72.598C-50.9706 72.818 -50.221 73.0518 -49.6434 73.2994C-49.0657 73.5332 -48.5775 73.9114 -48.1787 74.434C-47.7798 74.9429 -47.5804 75.6512 -47.5804 76.5589ZM-55.1721 70.1637C-55.1721 70.7275 -55.0071 71.1676 -54.677 71.484C-54.3332 71.8003 -53.8518 72.0547 -53.233 72.2473V68.08C-53.8243 68.1488 -54.2988 68.362 -54.6564 68.7196C-55.0002 69.0772 -55.1721 69.5585 -55.1721 70.1637ZM-51.892 78.8281C-51.2869 78.7319 -50.8124 78.4912 -50.4686 78.1061C-50.1247 77.7073 -49.9528 77.2328 -49.9528 76.6826C-49.9528 76.1325 -50.1247 75.7062 -50.4686 75.4036C-50.7986 75.0873 -51.2731 74.8328 -51.892 74.6403V78.8281ZM-42.8481 77.4459C-41.5278 76.3044 -40.4895 75.3692 -39.733 74.6403C-38.9629 73.8976 -38.3233 73.1275 -37.8145 72.3298C-37.3056 71.5321 -37.0512 70.7344 -37.0512 69.9367C-37.0512 69.1115 -37.2506 68.4651 -37.6494 67.9975C-38.0345 67.5299 -38.6465 67.2961 -39.4855 67.2961C-40.2969 67.2961 -40.9296 67.5574 -41.3834 68.08C-41.8235 68.5889 -42.0573 69.2766 -42.0848 70.143H-44.3541C-44.3128 68.5752 -43.8452 67.3786 -42.9513 66.5534C-42.0436 65.7145 -40.8952 65.295 -39.5061 65.295C-38.007 65.295 -36.838 65.7076 -35.9991 66.5328C-35.1464 67.358 -34.72 68.4583 -34.72 69.8336C-34.72 70.8238 -34.9745 71.7796 -35.4833 72.7011C-35.9784 73.6088 -36.5767 74.4271 -37.2781 75.156C-37.9658 75.8712 -38.846 76.7033 -39.9187 77.6522L-40.8471 78.4774H-34.3074V80.4373H-44.3335V78.725L-42.8481 77.4459ZM-22.5454 67.6262H-29.4564V71.7315C-29.1676 71.3464 -28.7412 71.0232 -28.1773 70.7619C-27.5997 70.5006 -26.9877 70.3699 -26.3413 70.3699C-25.186 70.3699 -24.2508 70.6175 -23.5356 71.1126C-22.8067 71.6077 -22.291 72.2335 -21.9884 72.9899C-21.6721 73.7463 -21.5139 74.544 -21.5139 75.383C-21.5139 76.4007 -21.7134 77.3084 -22.1122 78.1061C-22.4973 78.89 -23.0818 79.5089 -23.8657 79.9628C-24.6359 80.4166 -25.5849 80.6436 -26.7126 80.6436C-28.2117 80.6436 -29.4151 80.2722 -30.3228 79.5295C-31.2305 78.7869 -31.7738 77.8035 -31.9526 76.5795H-29.6627C-29.5114 77.2259 -29.1744 77.7416 -28.6518 78.1267C-28.1292 78.4981 -27.4759 78.6837 -26.692 78.6837C-25.7155 78.6837 -24.9866 78.388 -24.5052 77.7967C-24.0101 77.2053 -23.7626 76.4213 -23.7626 75.4449C-23.7626 74.4546 -24.0101 73.6982 -24.5052 73.1756C-25.0004 72.6392 -25.7293 72.371 -26.692 72.371C-27.3659 72.371 -27.9367 72.5429 -28.4043 72.8868C-28.8581 73.2169 -29.1882 73.6707 -29.3945 74.2483H-31.6225V65.5632H-22.5454V67.6262ZM-16.1776 77.8173L-18.6738 83.5111H-20.2004L-18.7357 77.8173H-16.1776ZM-11.5027 76.5589C-11.3652 77.2465 -11.0695 77.7691 -10.6156 78.1267C-10.1618 78.4843 -9.54976 78.6631 -8.77958 78.6631C-7.80311 78.6631 -7.08795 78.278 -6.63409 77.5078C-6.18024 76.7377 -5.95331 75.4242 -5.95331 73.5676C-6.28339 74.0352 -6.75099 74.3996 -7.35613 74.6609C-7.94752 74.9085 -8.59392 75.0323 -9.29533 75.0323C-10.1893 75.0323 -11.0007 74.8535 -11.7296 74.4959C-12.4586 74.1246 -13.0362 73.5813 -13.4625 72.8661C-13.8751 72.1372 -14.0814 71.257 -14.0814 70.2255C-14.0814 68.7127 -13.6413 67.5093 -12.7611 66.6153C-11.8672 65.7076 -10.6431 65.2538 -9.08903 65.2538C-7.2186 65.2538 -5.89142 65.8795 -5.10749 67.1311C-4.30981 68.3689 -3.91097 70.2737 -3.91097 72.8455C-3.91097 74.6197 -4.06225 76.0706 -4.36482 77.1984C-4.65364 78.3261 -5.1625 79.1788 -5.89142 79.7565C-6.62034 80.3341 -7.63119 80.6229 -8.92399 80.6229C-10.3956 80.6229 -11.5302 80.2378 -12.3279 79.4677C-13.1256 78.6975 -13.5726 77.7279 -13.6688 76.5589H-11.5027ZM-8.88273 73.0518C-8.05754 73.0518 -7.41114 72.7974 -6.94354 72.2885C-6.46218 71.7659 -6.2215 71.0782 -6.2215 70.2255C-6.2215 69.2766 -6.47593 68.5408 -6.9848 68.0182C-7.47991 67.4818 -8.16069 67.2136 -9.02714 67.2136C-9.89359 67.2136 -10.5812 67.4887 -11.0901 68.0388C-11.5852 68.5752 -11.8328 69.2834 -11.8328 70.1637C-11.8328 71.0026 -11.5921 71.6971 -11.1107 72.2473C-10.6156 72.7836 -9.87296 73.0518 -8.88273 73.0518ZM6.74977 69.0909C6.59848 68.4583 6.32342 67.9838 5.92458 67.6675C5.52574 67.3511 4.96873 67.193 4.25357 67.193C3.16707 67.193 2.35564 67.6124 1.81926 68.4514C1.28289 69.2766 1.00095 70.6519 0.973443 72.5773C1.33103 71.9722 1.85365 71.5046 2.5413 71.1745C3.22896 70.8444 3.97163 70.6794 4.76931 70.6794C5.67702 70.6794 6.47471 70.8788 7.16236 71.2777C7.86377 71.6627 8.40702 72.2266 8.79211 72.9693C9.19095 73.712 9.39037 74.599 9.39037 75.6305C9.39037 76.5933 9.19783 77.4528 8.81274 78.2092C8.44141 78.9657 7.8844 79.5639 7.14173 80.004C6.39906 80.4304 5.50511 80.6436 4.45987 80.6436C3.04329 80.6436 1.92929 80.3341 1.11785 79.7152C0.320168 79.0826 -0.243711 78.1955 -0.573787 77.054C-0.89011 75.9125 -1.04827 74.489 -1.04827 72.7836C-1.04827 67.75 0.725886 65.2331 4.2742 65.2331C5.64952 65.2331 6.72914 65.6045 7.51307 66.3471C8.31075 67.0898 8.77836 68.0044 8.91589 69.0909H6.74977ZM4.25357 72.6598C3.41463 72.6598 2.69946 72.9143 2.10808 73.4231C1.53045 73.9183 1.24163 74.6403 1.24163 75.5893C1.24163 76.5382 1.50982 77.2947 2.04619 77.8585C2.59632 78.4087 3.35962 78.6837 4.33609 78.6837C5.20254 78.6837 5.88332 78.4155 6.37843 77.8792C6.8873 77.3428 7.14173 76.6276 7.14173 75.7337C7.14173 74.7985 6.89418 74.0558 6.39906 73.5057C5.9177 72.9418 5.20254 72.6598 4.25357 72.6598ZM11.899 72.928C11.899 70.5487 12.2978 68.6921 13.0955 67.358C13.9069 66.0102 15.296 65.3363 17.2627 65.3363C19.2294 65.3363 20.6116 66.0102 21.4093 67.358C22.2207 68.6921 22.6264 70.5487 22.6264 72.928C22.6264 75.3348 22.2207 77.219 21.4093 78.5806C20.6116 79.9284 19.2294 80.6023 17.2627 80.6023C15.296 80.6023 13.9069 79.9284 13.0955 78.5806C12.2978 77.219 11.899 75.3348 11.899 72.928ZM20.3159 72.928C20.3159 71.814 20.2403 70.8719 20.089 70.1018C19.9515 69.3316 19.6626 68.7058 19.2225 68.2245C18.7824 67.7293 18.1292 67.4818 17.2627 67.4818C16.3963 67.4818 15.743 67.7293 15.3029 68.2245C14.8628 68.7058 14.5671 69.3316 14.4158 70.1018C14.2783 70.8719 14.2095 71.814 14.2095 72.928C14.2095 74.0833 14.2783 75.0529 14.4158 75.8368C14.5533 76.6208 14.8422 77.2534 15.2823 77.7348C15.7361 78.2161 16.3963 78.4568 17.2627 78.4568C18.1292 78.4568 18.7824 78.2161 19.2225 77.7348C19.6764 77.2534 19.9721 76.6208 20.1096 75.8368C20.2472 75.0529 20.3159 74.0833 20.3159 72.928Z" fill="#C8C8C8"/>
<path d="M138.49 67.75V65.6045H142.781V80.6436H140.409V67.75H138.49ZM147.27 80.788C146.844 80.788 146.486 80.6436 146.198 80.3547C145.909 80.0659 145.764 79.7083 145.764 79.282C145.764 78.8556 145.909 78.4981 146.198 78.2092C146.486 77.9204 146.844 77.776 147.27 77.776C147.683 77.776 148.034 77.9204 148.322 78.2092C148.611 78.4981 148.756 78.8556 148.756 79.282C148.756 79.7083 148.611 80.0659 148.322 80.3547C148.034 80.6436 147.683 80.788 147.27 80.788ZM150.988 72.928C150.988 70.5487 151.387 68.6921 152.185 67.358C152.996 66.0102 154.385 65.3363 156.352 65.3363C158.318 65.3363 159.701 66.0102 160.498 67.358C161.31 68.6921 161.716 70.5487 161.716 72.928C161.716 75.3348 161.31 77.219 160.498 78.5806C159.701 79.9284 158.318 80.6023 156.352 80.6023C154.385 80.6023 152.996 79.9284 152.185 78.5806C151.387 77.219 150.988 75.3348 150.988 72.928ZM159.405 72.928C159.405 71.814 159.329 70.8719 159.178 70.1018C159.041 69.3316 158.752 68.7058 158.312 68.2245C157.872 67.7293 157.218 67.4818 156.352 67.4818C155.485 67.4818 154.832 67.7293 154.392 68.2245C153.952 68.7058 153.656 69.3316 153.505 70.1018C153.367 70.8719 153.299 71.814 153.299 72.928C153.299 74.0833 153.367 75.0529 153.505 75.8368C153.642 76.6208 153.931 77.2534 154.371 77.7348C154.825 78.2161 155.485 78.4568 156.352 78.4568C157.218 78.4568 157.872 78.2161 158.312 77.7348C158.765 77.2534 159.061 76.6208 159.199 75.8368C159.336 75.0529 159.405 74.0833 159.405 72.928ZM163.915 77.5078V75.7337L170.847 65.7901H173.694V75.4655H175.612V77.5078H173.694V80.6436H171.383V77.5078H163.915ZM171.486 68.1832L166.618 75.4655H171.486V68.1832ZM190.904 73.2787C191.674 73.4163 192.327 73.822 192.863 74.4959C193.4 75.1698 193.668 75.9331 193.668 76.7858C193.668 77.5147 193.475 78.1749 193.09 78.7662C192.719 79.3439 192.176 79.8046 191.461 80.1484C190.745 80.4785 189.913 80.6436 188.964 80.6436H183.229V66.3059H188.696C189.673 66.3059 190.512 66.4709 191.213 66.801C191.914 67.1311 192.444 67.5781 192.801 68.1419C193.159 68.6921 193.338 69.311 193.338 69.9986C193.338 70.8238 193.118 71.5115 192.678 72.0616C192.238 72.6117 191.646 73.0174 190.904 73.2787ZM185.581 72.3298H188.49C189.26 72.3298 189.858 72.1579 190.285 71.814C190.725 71.4564 190.945 70.9476 190.945 70.2874C190.945 69.641 190.725 69.139 190.285 68.7815C189.858 68.4101 189.26 68.2245 188.49 68.2245H185.581V72.3298ZM188.758 78.725C189.556 78.725 190.181 78.5324 190.635 78.1474C191.089 77.7623 191.316 77.2259 191.316 76.5382C191.316 75.8368 191.075 75.2798 190.594 74.8672C190.113 74.4546 189.473 74.2483 188.676 74.2483H185.581V78.725H188.758ZM205.486 66.3059V68.2245H201.67V80.6436H199.318V68.2245H195.481V66.3059H205.486ZM207.084 73.4438C207.084 72.041 207.407 70.7825 208.054 69.6685C208.714 68.5545 209.601 67.6881 210.715 67.0692C211.843 66.4365 213.074 66.1202 214.408 66.1202C215.934 66.1202 217.289 66.4984 218.472 67.2549C219.668 67.9975 220.535 69.0565 221.071 70.4318H218.245C217.874 69.6754 217.358 69.1115 216.698 68.7402C216.037 68.3689 215.274 68.1832 214.408 68.1832C213.459 68.1832 212.613 68.3964 211.87 68.8227C211.128 69.2491 210.543 69.8611 210.117 70.6588C209.704 71.4564 209.498 72.3848 209.498 73.4438C209.498 74.5028 209.704 75.4311 210.117 76.2288C210.543 77.0265 211.128 77.6454 211.87 78.0855C212.613 78.5118 213.459 78.725 214.408 78.725C215.274 78.725 216.037 78.5393 216.698 78.168C217.358 77.7967 217.874 77.2328 218.245 76.4763H221.071C220.535 77.8517 219.668 78.9107 218.472 79.6533C217.289 80.396 215.934 80.7673 214.408 80.7673C213.06 80.7673 211.829 80.4579 210.715 79.839C209.601 79.2063 208.714 78.333 208.054 77.219C207.407 76.105 207.084 74.8466 207.084 73.4438Z" fill="#7E7B86"/>
<rect x="157.809" y="30.699" width="64.9276" height="19.4383" rx="5.15743" fill="#0F271F"/>
<path d="M165.975 44.2861L165.975 36.5502M165.975 36.5502L162.966 39.4973M165.975 36.5502L168.983 39.4973" stroke="#20A273" stroke-width="1.2034" stroke-linecap="round" stroke-linejoin="round"/>
<path d="M184.25 40.7642H181.87V43.1779H180.92V40.7642H178.551V39.9037H180.92V37.4789H181.87V39.9037H184.25V40.7642ZM191.051 37.2219H187.129V39.7696C187.3 39.5313 187.554 39.3376 187.889 39.1886C188.224 39.0321 188.585 38.9539 188.973 38.9539C189.591 38.9539 190.094 39.0843 190.481 39.345C190.869 39.5983 191.144 39.9298 191.308 40.3395C191.48 40.7418 191.565 41.1702 191.565 41.6246C191.565 42.161 191.465 42.6415 191.264 43.0661C191.062 43.4907 190.753 43.826 190.336 44.0718C189.926 44.3176 189.416 44.4406 188.805 44.4406C188.023 44.4406 187.39 44.2394 186.905 43.8371C186.421 43.4349 186.127 42.8985 186.023 42.228H187.017C187.114 42.6527 187.319 42.9842 187.632 43.2225C187.945 43.4609 188.34 43.5801 188.816 43.5801C189.405 43.5801 189.848 43.4051 190.146 43.0549C190.444 42.6973 190.593 42.228 190.593 41.647C190.593 41.0659 190.444 40.6189 190.146 40.306C189.848 39.9857 189.409 39.8255 188.827 39.8255C188.433 39.8255 188.086 39.9224 187.788 40.1161C187.498 40.3023 187.285 40.5593 187.151 40.8871H186.19V36.3279H191.051V37.2219ZM193.408 44.4853C193.215 44.4853 193.051 44.4182 192.917 44.2841C192.782 44.15 192.715 43.9861 192.715 43.7924C192.715 43.5988 192.782 43.4349 192.917 43.3008C193.051 43.1667 193.215 43.0996 193.408 43.0996C193.594 43.0996 193.751 43.1667 193.878 43.3008C194.012 43.4349 194.079 43.5988 194.079 43.7924C194.079 43.9861 194.012 44.15 193.878 44.2841C193.751 44.4182 193.594 44.4853 193.408 44.4853ZM200.414 37.2219H196.492V39.7696C196.663 39.5313 196.917 39.3376 197.252 39.1886C197.587 39.0321 197.948 38.9539 198.336 38.9539C198.954 38.9539 199.457 39.0843 199.844 39.345C200.232 39.5983 200.507 39.9298 200.671 40.3395C200.843 40.7418 200.928 41.1702 200.928 41.6246C200.928 42.161 200.828 42.6415 200.626 43.0661C200.425 43.4907 200.116 43.826 199.699 44.0718C199.289 44.3176 198.779 44.4406 198.168 44.4406C197.386 44.4406 196.753 44.2394 196.268 43.8371C195.784 43.4349 195.49 42.8985 195.386 42.228H196.38C196.477 42.6527 196.682 42.9842 196.995 43.2225C197.308 43.4609 197.702 43.5801 198.179 43.5801C198.768 43.5801 199.211 43.4051 199.509 43.0549C199.807 42.6973 199.956 42.228 199.956 41.647C199.956 41.0659 199.807 40.6189 199.509 40.306C199.211 39.9857 198.772 39.8255 198.19 39.8255C197.796 39.8255 197.449 39.9224 197.151 40.1161C196.861 40.3023 196.648 40.5593 196.514 40.8871H195.553V36.3279H200.414V37.2219ZM202.034 42.6191V41.8481L205.956 36.4173H207.174V41.7363H208.291V42.6191H207.174V44.4182H206.168V42.6191H202.034ZM206.213 37.4789L203.207 41.7363H206.213V37.4789ZM209.084 38.1605C209.084 37.654 209.236 37.2517 209.542 36.9537C209.847 36.6483 210.238 36.4955 210.715 36.4955C211.192 36.4955 211.583 36.6483 211.888 36.9537C212.194 37.2517 212.347 37.654 212.347 38.1605C212.347 38.6746 212.194 39.0843 211.888 39.3897C211.583 39.6877 211.192 39.8367 210.715 39.8367C210.238 39.8367 209.847 39.6877 209.542 39.3897C209.236 39.0843 209.084 38.6746 209.084 38.1605ZM215.61 36.6185L211.084 44.4182H210.078L214.604 36.6185H215.61ZM210.715 37.1213C210.462 37.1213 210.261 37.2107 210.112 37.3895C209.97 37.5608 209.899 37.8178 209.899 38.1605C209.899 38.5032 209.97 38.7639 210.112 38.9427C210.261 39.1215 210.462 39.2109 210.715 39.2109C210.968 39.2109 211.17 39.1215 211.319 38.9427C211.468 38.7565 211.542 38.4958 211.542 38.1605C211.542 37.8178 211.468 37.5608 211.319 37.3895C211.17 37.2107 210.968 37.1213 210.715 37.1213ZM213.363 42.8761C213.363 42.3621 213.516 41.9561 213.822 41.6581C214.127 41.3527 214.518 41.2 214.995 41.2C215.472 41.2 215.859 41.3527 216.157 41.6581C216.463 41.9561 216.615 42.3621 216.615 42.8761C216.615 43.3827 216.463 43.7887 216.157 44.0942C215.859 44.3996 215.472 44.5523 214.995 44.5523C214.518 44.5523 214.127 44.4033 213.822 44.1053C213.516 43.7999 213.363 43.3902 213.363 42.8761ZM214.984 41.8369C214.73 41.8369 214.529 41.9263 214.38 42.1051C214.231 42.2764 214.157 42.5335 214.157 42.8761C214.157 43.2114 214.231 43.4684 214.38 43.6472C214.529 43.8185 214.73 43.9042 214.984 43.9042C215.237 43.9042 215.438 43.8185 215.587 43.6472C215.736 43.4684 215.811 43.2114 215.811 42.8761C215.811 42.5335 215.736 42.2764 215.587 42.1051C215.438 41.9263 215.237 41.8369 214.984 41.8369Z" fill="#20A273"/>
<rect x="-2.9314" y="149.32" width="64.9276" height="19.4383" rx="5.15743" fill="#0F271F"/>
<path d="M5.23466 162.907L5.23466 155.171M5.23466 155.171L2.22616 158.118M5.23466 155.171L8.24316 158.118" stroke="#20A273" stroke-width="1.2034" stroke-linecap="round" stroke-linejoin="round"/>
<path d="M23.51 159.385H21.1299V161.798H20.18V159.385H17.811V158.524H20.18V156.099H21.1299V158.524H23.51V159.385ZM30.311 155.842H26.3887V158.39C26.5601 158.152 26.8134 157.958 27.1486 157.809C27.4838 157.653 27.8451 157.575 28.2325 157.575C28.8508 157.575 29.3537 157.705 29.7411 157.966C30.1284 158.219 30.4041 158.55 30.568 158.96C30.7393 159.362 30.825 159.791 30.825 160.245C30.825 160.782 30.7244 161.262 30.5233 161.687C30.3221 162.111 30.013 162.447 29.5958 162.692C29.1861 162.938 28.6758 163.061 28.0649 163.061C27.2827 163.061 26.6495 162.86 26.1652 162.458C25.681 162.055 25.3868 161.519 25.2825 160.849H26.277C26.3738 161.273 26.5787 161.605 26.8916 161.843C27.2045 162.082 27.5993 162.201 28.0761 162.201C28.6646 162.201 29.1078 162.026 29.4058 161.676C29.7038 161.318 29.8528 160.849 29.8528 160.268C29.8528 159.686 29.7038 159.24 29.4058 158.927C29.1078 158.606 28.6683 158.446 28.0872 158.446C27.6924 158.446 27.346 158.543 27.048 158.737C26.7575 158.923 26.5452 159.18 26.4111 159.508H25.4501V154.949H30.311V155.842ZM32.668 163.106C32.4743 163.106 32.3104 163.039 32.1763 162.905C32.0422 162.771 31.9752 162.607 31.9752 162.413C31.9752 162.219 32.0422 162.055 32.1763 161.921C32.3104 161.787 32.4743 161.72 32.668 161.72C32.8542 161.72 33.0107 161.787 33.1373 161.921C33.2714 162.055 33.3384 162.219 33.3384 162.413C33.3384 162.607 33.2714 162.771 33.1373 162.905C33.0107 163.039 32.8542 163.106 32.668 163.106ZM39.6739 155.842H35.7517V158.39C35.923 158.152 36.1763 157.958 36.5116 157.809C36.8468 157.653 37.2081 157.575 37.5955 157.575C38.2138 157.575 38.7166 157.705 39.104 157.966C39.4914 158.219 39.767 158.55 39.9309 158.96C40.1023 159.362 40.1879 159.791 40.1879 160.245C40.1879 160.782 40.0874 161.262 39.8862 161.687C39.6851 162.111 39.3759 162.447 38.9588 162.692C38.549 162.938 38.0387 163.061 37.4279 163.061C36.6456 163.061 36.0124 162.86 35.5282 162.458C35.044 162.055 34.7497 161.519 34.6454 160.849H35.6399C35.7368 161.273 35.9417 161.605 36.2545 161.843C36.5674 162.082 36.9623 162.201 37.439 162.201C38.0275 162.201 38.4708 162.026 38.7688 161.676C39.0668 161.318 39.2158 160.849 39.2158 160.268C39.2158 159.686 39.0668 159.24 38.7688 158.927C38.4708 158.606 38.0313 158.446 37.4502 158.446C37.0554 158.446 36.709 158.543 36.411 158.737C36.1204 158.923 35.9081 159.18 35.774 159.508H34.813V154.949H39.6739V155.842ZM41.2934 161.24V160.469L45.2157 155.038H46.4337V160.357H47.5511V161.24H46.4337V163.039H45.428V161.24H41.2934ZM45.4727 156.099L42.4667 160.357H45.4727V156.099ZM48.3434 156.781C48.3434 156.275 48.4962 155.872 48.8016 155.574C49.107 155.269 49.4981 155.116 49.9749 155.116C50.4517 155.116 50.8428 155.269 51.1482 155.574C51.4537 155.872 51.6064 156.275 51.6064 156.781C51.6064 157.295 51.4537 157.705 51.1482 158.01C50.8428 158.308 50.4517 158.457 49.9749 158.457C49.4981 158.457 49.107 158.308 48.8016 158.01C48.4962 157.705 48.3434 157.295 48.3434 156.781ZM54.8693 155.239L50.3437 163.039H49.338L53.8636 155.239H54.8693ZM49.9749 155.742C49.7216 155.742 49.5205 155.831 49.3715 156.01C49.23 156.181 49.1592 156.438 49.1592 156.781C49.1592 157.124 49.23 157.385 49.3715 157.563C49.5205 157.742 49.7216 157.832 49.9749 157.832C50.2282 157.832 50.4293 157.742 50.5783 157.563C50.7273 157.377 50.8018 157.116 50.8018 156.781C50.8018 156.438 50.7273 156.181 50.5783 156.01C50.4293 155.831 50.2282 155.742 49.9749 155.742ZM52.6233 161.497C52.6233 160.983 52.776 160.577 53.0814 160.279C53.3868 159.973 53.7779 159.821 54.2547 159.821C54.7315 159.821 55.1189 159.973 55.4169 160.279C55.7223 160.577 55.875 160.983 55.875 161.497C55.875 162.003 55.7223 162.409 55.4169 162.715C55.1189 163.02 54.7315 163.173 54.2547 163.173C53.7779 163.173 53.3868 163.024 53.0814 162.726C52.776 162.42 52.6233 162.011 52.6233 161.497ZM54.2435 160.458C53.9903 160.458 53.7891 160.547 53.6401 160.726C53.4911 160.897 53.4166 161.154 53.4166 161.497C53.4166 161.832 53.4911 162.089 53.6401 162.268C53.7891 162.439 53.9903 162.525 54.2435 162.525C54.4968 162.525 54.698 162.439 54.847 162.268C54.996 162.089 55.0705 161.832 55.0705 161.497C55.0705 161.154 54.996 160.897 54.847 160.726C54.698 160.547 54.4968 160.458 54.2435 160.458Z" fill="#20A273"/>
<rect x="-2.93115" y="216.367" width="64.9276" height="19.4383" rx="5.15743" fill="#0F271F"/>
<path d="M5.23466 229.954L5.23466 222.218M5.23466 222.218L2.22616 225.165M5.23466 222.218L8.24316 225.165" stroke="#20A273" stroke-width="1.2034" stroke-linecap="round" stroke-linejoin="round"/>
<path d="M23.5102 226.432H21.1301V228.846H20.1803V226.432H17.8113V225.571H20.1803V223.147H21.1301V225.571H23.5102V226.432ZM30.3112 222.89H26.389V225.437C26.5603 225.199 26.8136 225.005 27.1488 224.856C27.4841 224.7 27.8454 224.622 28.2328 224.622C28.8511 224.622 29.3539 224.752 29.7413 225.013C30.1287 225.266 30.4043 225.598 30.5682 226.007C30.7396 226.41 30.8252 226.838 30.8252 227.292C30.8252 227.829 30.7247 228.309 30.5235 228.734C30.3224 229.158 30.0132 229.494 29.596 229.74C29.1863 229.985 28.676 230.108 28.0651 230.108C27.2829 230.108 26.6497 229.907 26.1655 229.505C25.6813 229.103 25.387 228.566 25.2827 227.896H26.2772C26.3741 228.32 26.5789 228.652 26.8918 228.89C27.2047 229.129 27.5995 229.248 28.0763 229.248C28.6648 229.248 29.1081 229.073 29.4061 228.723C29.7041 228.365 29.8531 227.896 29.8531 227.315C29.8531 226.734 29.7041 226.287 29.4061 225.974C29.1081 225.653 28.6686 225.493 28.0875 225.493C27.6927 225.493 27.3463 225.59 27.0483 225.784C26.7577 225.97 26.5454 226.227 26.4113 226.555H25.4503V221.996H30.3112V222.89ZM32.6682 230.153C32.4745 230.153 32.3106 230.086 32.1765 229.952C32.0425 229.818 31.9754 229.654 31.9754 229.46C31.9754 229.266 32.0425 229.103 32.1765 228.968C32.3106 228.834 32.4745 228.767 32.6682 228.767C32.8545 228.767 33.0109 228.834 33.1376 228.968C33.2716 229.103 33.3387 229.266 33.3387 229.46C33.3387 229.654 33.2716 229.818 33.1376 229.952C33.0109 230.086 32.8545 230.153 32.6682 230.153ZM39.6742 222.89H35.7519V225.437C35.9233 225.199 36.1766 225.005 36.5118 224.856C36.847 224.7 37.2083 224.622 37.5957 224.622C38.214 224.622 38.7169 224.752 39.1043 225.013C39.4916 225.266 39.7673 225.598 39.9312 226.007C40.1025 226.41 40.1882 226.838 40.1882 227.292C40.1882 227.829 40.0876 228.309 39.8865 228.734C39.6853 229.158 39.3762 229.494 38.959 229.74C38.5493 229.985 38.039 230.108 37.4281 230.108C36.6459 230.108 36.0127 229.907 35.5284 229.505C35.0442 229.103 34.75 228.566 34.6457 227.896H35.6402C35.737 228.32 35.9419 228.652 36.2548 228.89C36.5677 229.129 36.9625 229.248 37.4393 229.248C38.0278 229.248 38.471 229.073 38.769 228.723C39.067 228.365 39.216 227.896 39.216 227.315C39.216 226.734 39.067 226.287 38.769 225.974C38.471 225.653 38.0315 225.493 37.4504 225.493C37.0556 225.493 36.7092 225.59 36.4112 225.784C36.1207 225.97 35.9084 226.227 35.7743 226.555H34.8133V221.996H39.6742V222.89ZM41.2937 228.287V227.516L45.2159 222.085H46.4339V227.404H47.5514V228.287H46.4339V230.086H45.4282V228.287H41.2937ZM45.4729 223.147L42.467 227.404H45.4729V223.147ZM48.3437 223.828C48.3437 223.322 48.4964 222.919 48.8018 222.621C49.1073 222.316 49.4984 222.163 49.9752 222.163C50.4519 222.163 50.843 222.316 51.1485 222.621C51.4539 222.919 51.6066 223.322 51.6066 223.828C51.6066 224.342 51.4539 224.752 51.1485 225.057C50.843 225.355 50.4519 225.504 49.9752 225.504C49.4984 225.504 49.1073 225.355 48.8018 225.057C48.4964 224.752 48.3437 224.342 48.3437 223.828ZM54.8696 222.286L50.3439 230.086H49.3382L53.8639 222.286H54.8696ZM49.9752 222.789C49.7219 222.789 49.5207 222.878 49.3717 223.057C49.2302 223.229 49.1594 223.486 49.1594 223.828C49.1594 224.171 49.2302 224.432 49.3717 224.61C49.5207 224.789 49.7219 224.879 49.9752 224.879C50.2284 224.879 50.4296 224.789 50.5786 224.61C50.7276 224.424 50.8021 224.163 50.8021 223.828C50.8021 223.486 50.7276 223.229 50.5786 223.057C50.4296 222.878 50.2284 222.789 49.9752 222.789ZM52.6235 228.544C52.6235 228.03 52.7762 227.624 53.0817 227.326C53.3871 227.02 53.7782 226.868 54.255 226.868C54.7317 226.868 55.1191 227.02 55.4171 227.326C55.7225 227.624 55.8753 228.03 55.8753 228.544C55.8753 229.05 55.7225 229.456 55.4171 229.762C55.1191 230.067 54.7317 230.22 54.255 230.22C53.7782 230.22 53.3871 230.071 53.0817 229.773C52.7762 229.468 52.6235 229.058 52.6235 228.544ZM54.2438 227.505C53.9905 227.505 53.7894 227.594 53.6404 227.773C53.4914 227.944 53.4169 228.201 53.4169 228.544C53.4169 228.879 53.4914 229.136 53.6404 229.315C53.7894 229.486 53.9905 229.572 54.2438 229.572C54.4971 229.572 54.6982 229.486 54.8472 229.315C54.9962 229.136 55.0707 228.879 55.0707 228.544C55.0707 228.201 54.9962 227.944 54.8472 227.773C54.6982 227.594 54.4971 227.505 54.2438 227.505Z" fill="#20A273"/>
<rect x="157.809" y="149.32" width="64.9276" height="19.4383" rx="5.15743" fill="#0F271F"/>
<path d="M165.974 162.907L165.974 155.171M165.974 155.171L162.966 158.118M165.974 155.171L168.983 158.118" stroke="#20A273" stroke-width="1.2034" stroke-linecap="round" stroke-linejoin="round"/>
<path d="M184.25 159.385H181.87V161.798H180.92V159.385H178.551V158.524H180.92V156.099H181.87V158.524H184.25V159.385ZM185.899 158.915C185.899 157.634 186.108 156.636 186.525 155.921C186.942 155.198 187.672 154.837 188.715 154.837C189.751 154.837 190.477 155.198 190.894 155.921C191.311 156.636 191.52 157.634 191.52 158.915C191.52 160.219 191.311 161.232 190.894 161.955C190.477 162.678 189.751 163.039 188.715 163.039C187.672 163.039 186.942 162.678 186.525 161.955C186.108 161.232 185.899 160.219 185.899 158.915ZM190.514 158.915C190.514 158.267 190.47 157.72 190.38 157.273C190.298 156.818 190.123 156.453 189.855 156.178C189.594 155.902 189.214 155.764 188.715 155.764C188.209 155.764 187.821 155.902 187.553 156.178C187.292 156.453 187.117 156.818 187.028 157.273C186.946 157.72 186.905 158.267 186.905 158.915C186.905 159.586 186.946 160.148 187.028 160.603C187.117 161.057 187.292 161.422 187.553 161.698C187.821 161.974 188.209 162.111 188.715 162.111C189.214 162.111 189.594 161.974 189.855 161.698C190.123 161.422 190.298 161.057 190.38 160.603C190.47 160.148 190.514 159.586 190.514 158.915ZM193.408 163.106C193.214 163.106 193.05 163.039 192.916 162.905C192.782 162.771 192.715 162.607 192.715 162.413C192.715 162.219 192.782 162.055 192.916 161.921C193.05 161.787 193.214 161.72 193.408 161.72C193.594 161.72 193.75 161.787 193.877 161.921C194.011 162.055 194.078 162.219 194.078 162.413C194.078 162.607 194.011 162.771 193.877 162.905C193.75 163.039 193.594 163.106 193.408 163.106ZM200.414 155.842H196.491V158.39C196.663 158.152 196.916 157.958 197.251 157.809C197.587 157.653 197.948 157.575 198.335 157.575C198.954 157.575 199.456 157.705 199.844 157.966C200.231 158.219 200.507 158.55 200.671 158.96C200.842 159.362 200.928 159.791 200.928 160.245C200.928 160.782 200.827 161.262 200.626 161.687C200.425 162.111 200.116 162.447 199.698 162.692C199.289 162.938 198.778 163.061 198.168 163.061C197.385 163.061 196.752 162.86 196.268 162.458C195.784 162.055 195.489 161.519 195.385 160.849H196.38C196.477 161.273 196.681 161.605 196.994 161.843C197.307 162.082 197.702 162.201 198.179 162.201C198.767 162.201 199.211 162.026 199.509 161.676C199.807 161.318 199.956 160.849 199.956 160.268C199.956 159.686 199.807 159.24 199.509 158.927C199.211 158.606 198.771 158.446 198.19 158.446C197.795 158.446 197.449 158.543 197.151 158.737C196.86 158.923 196.648 159.18 196.514 159.508H195.553V154.949H200.414V155.842ZM202.033 161.24V160.469L205.955 155.038H207.173V160.357H208.291V161.24H207.173V163.039H206.168V161.24H202.033ZM206.212 156.099L203.206 160.357H206.212V156.099ZM209.083 156.781C209.083 156.275 209.236 155.872 209.541 155.574C209.847 155.269 210.238 155.116 210.715 155.116C211.191 155.116 211.583 155.269 211.888 155.574C212.193 155.872 212.346 156.275 212.346 156.781C212.346 157.295 212.193 157.705 211.888 158.01C211.583 158.308 211.191 158.457 210.715 158.457C210.238 158.457 209.847 158.308 209.541 158.01C209.236 157.705 209.083 157.295 209.083 156.781ZM215.609 155.239L211.083 163.039H210.078L214.603 155.239H215.609ZM210.715 155.742C210.461 155.742 210.26 155.831 210.111 156.01C209.97 156.181 209.899 156.438 209.899 156.781C209.899 157.124 209.97 157.385 210.111 157.563C210.26 157.742 210.461 157.832 210.715 157.832C210.968 157.832 211.169 157.742 211.318 157.563C211.467 157.377 211.542 157.116 211.542 156.781C211.542 156.438 211.467 156.181 211.318 156.01C211.169 155.831 210.968 155.742 210.715 155.742ZM213.363 161.497C213.363 160.983 213.516 160.577 213.821 160.279C214.127 159.973 214.518 159.821 214.994 159.821C215.471 159.821 215.859 159.973 216.157 160.279C216.462 160.577 216.615 160.983 216.615 161.497C216.615 162.003 216.462 162.409 216.157 162.715C215.859 163.02 215.471 163.173 214.994 163.173C214.518 163.173 214.127 163.024 213.821 162.726C213.516 162.42 213.363 162.011 213.363 161.497ZM214.983 160.458C214.73 160.458 214.529 160.547 214.38 160.726C214.231 160.897 214.156 161.154 214.156 161.497C214.156 161.832 214.231 162.089 214.38 162.268C214.529 162.439 214.73 162.525 214.983 162.525C215.237 162.525 215.438 162.439 215.587 162.268C215.736 162.089 215.81 161.832 215.81 161.497C215.81 161.154 215.736 160.897 215.587 160.726C215.438 160.547 215.237 160.458 214.983 160.458Z" fill="#20A273"/>
<rect x="157.809" y="216.367" width="64.9276" height="19.4383" rx="5.15743" fill="#290C0C"/>
<path d="M165.975 222.218V229.954M165.975 229.954L168.983 227.007M165.975 229.954L162.966 227.007" stroke="#D34141" stroke-width="1.2034" stroke-linecap="round" stroke-linejoin="round"/>
<path d="M184.25 226.432H181.87V228.846H180.92V226.432H178.551V225.571H180.92V223.147H181.87V225.571H184.25V226.432ZM185.9 225.963C185.9 224.681 186.108 223.683 186.526 222.968C186.943 222.245 187.673 221.884 188.716 221.884C189.751 221.884 190.478 222.245 190.895 222.968C191.312 223.683 191.521 224.681 191.521 225.963C191.521 227.266 191.312 228.279 190.895 229.002C190.478 229.725 189.751 230.086 188.716 230.086C187.673 230.086 186.943 229.725 186.526 229.002C186.108 228.279 185.9 227.266 185.9 225.963ZM190.515 225.963C190.515 225.314 190.47 224.767 190.381 224.32C190.299 223.866 190.124 223.5 189.856 223.225C189.595 222.949 189.215 222.811 188.716 222.811C188.209 222.811 187.822 222.949 187.554 223.225C187.293 223.5 187.118 223.866 187.028 224.32C186.946 224.767 186.905 225.314 186.905 225.963C186.905 226.633 186.946 227.195 187.028 227.65C187.118 228.104 187.293 228.469 187.554 228.745C187.822 229.021 188.209 229.158 188.716 229.158C189.215 229.158 189.595 229.021 189.856 228.745C190.124 228.469 190.299 228.104 190.381 227.65C190.47 227.195 190.515 226.633 190.515 225.963ZM193.408 230.153C193.215 230.153 193.051 230.086 192.917 229.952C192.782 229.818 192.715 229.654 192.715 229.46C192.715 229.266 192.782 229.103 192.917 228.968C193.051 228.834 193.215 228.767 193.408 228.767C193.594 228.767 193.751 228.834 193.878 228.968C194.012 229.103 194.079 229.266 194.079 229.46C194.079 229.654 194.012 229.818 193.878 229.952C193.751 230.086 193.594 230.153 193.408 230.153ZM200.414 222.89H196.492V225.437C196.663 225.199 196.917 225.005 197.252 224.856C197.587 224.7 197.948 224.622 198.336 224.622C198.954 224.622 199.457 224.752 199.844 225.013C200.232 225.266 200.507 225.598 200.671 226.007C200.843 226.41 200.928 226.838 200.928 227.292C200.928 227.829 200.828 228.309 200.626 228.734C200.425 229.158 200.116 229.494 199.699 229.74C199.289 229.985 198.779 230.108 198.168 230.108C197.386 230.108 196.753 229.907 196.268 229.505C195.784 229.103 195.49 228.566 195.386 227.896H196.38C196.477 228.32 196.682 228.652 196.995 228.89C197.308 229.129 197.702 229.248 198.179 229.248C198.768 229.248 199.211 229.073 199.509 228.723C199.807 228.365 199.956 227.896 199.956 227.315C199.956 226.734 199.807 226.287 199.509 225.974C199.211 225.653 198.772 225.493 198.19 225.493C197.796 225.493 197.449 225.59 197.151 225.784C196.861 225.97 196.648 226.227 196.514 226.555H195.553V221.996H200.414V222.89ZM202.034 228.287V227.516L205.956 222.085H207.174V227.404H208.291V228.287H207.174V230.086H206.168V228.287H202.034ZM206.213 223.147L203.207 227.404H206.213V223.147ZM209.084 223.828C209.084 223.322 209.236 222.919 209.542 222.621C209.847 222.316 210.238 222.163 210.715 222.163C211.192 222.163 211.583 222.316 211.888 222.621C212.194 222.919 212.347 223.322 212.347 223.828C212.347 224.342 212.194 224.752 211.888 225.057C211.583 225.355 211.192 225.504 210.715 225.504C210.238 225.504 209.847 225.355 209.542 225.057C209.236 224.752 209.084 224.342 209.084 223.828ZM215.61 222.286L211.084 230.086H210.078L214.604 222.286H215.61ZM210.715 222.789C210.462 222.789 210.261 222.878 210.112 223.057C209.97 223.229 209.899 223.486 209.899 223.828C209.899 224.171 209.97 224.432 210.112 224.61C210.261 224.789 210.462 224.879 210.715 224.879C210.968 224.879 211.17 224.789 211.319 224.61C211.468 224.424 211.542 224.163 211.542 223.828C211.542 223.486 211.468 223.229 211.319 223.057C211.17 222.878 210.968 222.789 210.715 222.789ZM213.363 228.544C213.363 228.03 213.516 227.624 213.822 227.326C214.127 227.02 214.518 226.868 214.995 226.868C215.472 226.868 215.859 227.02 216.157 227.326C216.463 227.624 216.615 228.03 216.615 228.544C216.615 229.05 216.463 229.456 216.157 229.762C215.859 230.067 215.472 230.22 214.995 230.22C214.518 230.22 214.127 230.071 213.822 229.773C213.516 229.468 213.363 229.058 213.363 228.544ZM214.984 227.505C214.73 227.505 214.529 227.594 214.38 227.773C214.231 227.944 214.157 228.201 214.157 228.544C214.157 228.879 214.231 229.136 214.38 229.315C214.529 229.486 214.73 229.572 214.984 229.572C215.237 229.572 215.438 229.486 215.587 229.315C215.736 229.136 215.811 228.879 215.811 228.544C215.811 228.201 215.736 227.944 215.587 227.773C215.438 227.594 215.237 227.505 214.984 227.505Z" fill="#D34141"/>
<line x1="-58.803" y1="100.754" x2="222.277" y2="100.754" stroke="#464646" stroke-width="0.859572"/>
<path d="M-53.0395 129.351C-52.5582 129.437 -52.1499 129.691 -51.8147 130.112C-51.4794 130.533 -51.3118 131.01 -51.3118 131.543C-51.3118 131.999 -51.4321 132.411 -51.6728 132.781C-51.9049 133.142 -52.2444 133.43 -52.6914 133.645C-53.1384 133.851 -53.6584 133.954 -54.2515 133.954H-57.836V124.993H-54.4192C-53.8089 124.993 -53.2845 125.096 -52.8461 125.303C-52.4078 125.509 -52.0768 125.788 -51.8533 126.141C-51.6298 126.485 -51.5181 126.871 -51.5181 127.301C-51.5181 127.817 -51.6556 128.247 -51.9307 128.591C-52.2058 128.934 -52.5754 129.188 -53.0395 129.351ZM-56.3661 128.758H-54.5481C-54.0667 128.758 -53.6928 128.651 -53.4264 128.436C-53.1513 128.212 -53.0138 127.894 -53.0138 127.482C-53.0138 127.078 -53.1513 126.764 -53.4264 126.541C-53.6928 126.308 -54.0667 126.192 -54.5481 126.192H-56.3661V128.758ZM-54.3805 132.755C-53.8819 132.755 -53.4908 132.635 -53.2072 132.394C-52.9235 132.154 -52.7817 131.818 -52.7817 131.389C-52.7817 130.95 -52.9321 130.602 -53.233 130.344C-53.5338 130.086 -53.9335 129.957 -54.4321 129.957H-56.3661V132.755H-54.3805ZM-43.2033 130.228C-43.2033 130.495 -43.2204 130.735 -43.2548 130.95H-48.683C-48.64 131.517 -48.4295 131.973 -48.0512 132.317C-47.673 132.661 -47.2089 132.833 -46.6587 132.833C-45.8679 132.833 -45.3092 132.502 -44.9826 131.84H-43.3967C-43.6116 132.493 -44.0027 133.03 -44.57 133.451C-45.1287 133.864 -45.825 134.07 -46.6587 134.07C-47.3378 134.07 -47.9481 133.92 -48.4896 133.619C-49.0226 133.31 -49.4437 132.88 -49.7532 132.33C-50.054 131.771 -50.2045 131.126 -50.2045 130.396C-50.2045 129.665 -50.0583 129.025 -49.7661 128.475C-49.4652 127.916 -49.0483 127.486 -48.5154 127.185C-47.9739 126.884 -47.355 126.734 -46.6587 126.734C-45.9883 126.734 -45.3909 126.88 -44.8665 127.172C-44.3422 127.465 -43.9339 127.877 -43.6416 128.41C-43.3494 128.934 -43.2033 129.54 -43.2033 130.228ZM-44.7376 129.764C-44.7462 129.222 -44.9396 128.788 -45.3178 128.462C-45.696 128.135 -46.1645 127.972 -46.7232 127.972C-47.2304 127.972 -47.6644 128.135 -48.0255 128.462C-48.3865 128.78 -48.6014 129.214 -48.6701 129.764H-44.7376ZM-39.178 134.07C-39.7368 134.07 -40.2396 133.972 -40.6866 133.774C-41.125 133.568 -41.4731 133.292 -41.731 132.949C-41.9888 132.596 -42.1264 132.205 -42.1436 131.775H-40.6221C-40.5963 132.076 -40.4545 132.33 -40.1966 132.536C-39.9302 132.734 -39.5992 132.833 -39.2038 132.833C-38.7912 132.833 -38.4732 132.755 -38.2497 132.601C-38.0176 132.437 -37.9016 132.231 -37.9016 131.982C-37.9016 131.715 -38.0305 131.517 -38.2884 131.389C-38.5377 131.26 -38.9374 131.118 -39.4875 130.963C-40.0204 130.817 -40.4545 130.675 -40.7897 130.538C-41.125 130.4 -41.4172 130.189 -41.6665 129.906C-41.9072 129.622 -42.0275 129.248 -42.0275 128.784C-42.0275 128.406 -41.9158 128.062 -41.6923 127.753C-41.4688 127.434 -41.1508 127.185 -40.7382 127.005C-40.317 126.824 -39.8356 126.734 -39.2941 126.734C-38.4861 126.734 -37.8371 126.94 -37.3472 127.353C-36.8486 127.757 -36.5821 128.311 -36.5477 129.016H-38.0176C-38.0434 128.698 -38.1723 128.444 -38.4044 128.255C-38.6365 128.066 -38.9503 127.972 -39.3457 127.972C-39.7325 127.972 -40.029 128.045 -40.2353 128.191C-40.4416 128.337 -40.5448 128.53 -40.5448 128.771C-40.5448 128.96 -40.476 129.119 -40.3385 129.248C-40.2009 129.377 -40.0333 129.48 -39.8356 129.558C-39.6379 129.626 -39.3457 129.717 -38.9588 129.828C-38.4431 129.966 -38.0219 130.108 -37.6953 130.254C-37.36 130.391 -37.0721 130.598 -36.8314 130.873C-36.5907 131.148 -36.4661 131.513 -36.4575 131.969C-36.4575 132.373 -36.5692 132.734 -36.7927 133.052C-37.0162 133.37 -37.3343 133.619 -37.7469 133.8C-38.1509 133.98 -38.6279 134.07 -39.178 134.07ZM-33.1544 128.049V131.982C-33.1544 132.248 -33.0943 132.441 -32.9739 132.562C-32.845 132.674 -32.6301 132.729 -32.3292 132.729H-31.4267V133.954H-32.5871C-33.249 133.954 -33.7561 133.8 -34.1085 133.49C-34.461 133.181 -34.6372 132.678 -34.6372 131.982V128.049H-35.4753V126.85H-34.6372V125.084H-33.1544V126.85H-31.4267V128.049H-33.1544ZM-25.2528 127.894C-25.0035 127.568 -24.664 127.293 -24.2342 127.069C-23.8044 126.846 -23.3187 126.734 -22.7772 126.734C-22.1583 126.734 -21.5953 126.889 -21.0881 127.198C-20.5724 127.499 -20.1684 127.924 -19.8761 128.475C-19.5839 129.025 -19.4378 129.656 -19.4378 130.37C-19.4378 131.083 -19.5839 131.724 -19.8761 132.291C-20.1684 132.85 -20.5724 133.288 -21.0881 133.606C-21.5953 133.916 -22.1583 134.07 -22.7772 134.07C-23.3187 134.07 -23.8001 133.963 -24.2213 133.748C-24.6425 133.525 -24.9863 133.249 -25.2528 132.923V137.332H-26.7226V126.85H-25.2528V127.894ZM-20.9334 130.37C-20.9334 129.88 -21.0366 129.459 -21.2429 129.106C-21.4406 128.745 -21.707 128.475 -22.0423 128.294C-22.3689 128.105 -22.7213 128.01 -23.0995 128.01C-23.4692 128.01 -23.8216 128.105 -24.1568 128.294C-24.4835 128.483 -24.7499 128.758 -24.9562 129.119C-25.1539 129.48 -25.2528 129.906 -25.2528 130.396C-25.2528 130.886 -25.1539 131.315 -24.9562 131.685C-24.7499 132.046 -24.4835 132.321 -24.1568 132.51C-23.8216 132.699 -23.4692 132.794 -23.0995 132.794C-22.7213 132.794 -22.3689 132.699 -22.0423 132.51C-21.707 132.313 -21.4406 132.029 -21.2429 131.659C-21.0366 131.29 -20.9334 130.86 -20.9334 130.37ZM-11.473 130.228C-11.473 130.495 -11.4901 130.735 -11.5245 130.95H-16.9527C-16.9097 131.517 -16.6992 131.973 -16.3209 132.317C-15.9427 132.661 -15.4786 132.833 -14.9284 132.833C-14.1376 132.833 -13.5789 132.502 -13.2523 131.84H-11.6664C-11.8813 132.493 -12.2724 133.03 -12.8397 133.451C-13.3984 133.864 -14.0947 134.07 -14.9284 134.07C-15.6075 134.07 -16.2178 133.92 -16.7593 133.619C-17.2923 133.31 -17.7134 132.88 -18.0229 132.33C-18.3237 131.771 -18.4742 131.126 -18.4742 130.396C-18.4742 129.665 -18.328 129.025 -18.0358 128.475C-17.7349 127.916 -17.318 127.486 -16.7851 127.185C-16.2436 126.884 -15.6247 126.734 -14.9284 126.734C-14.258 126.734 -13.6606 126.88 -13.1362 127.172C-12.6119 127.465 -12.2036 127.877 -11.9113 128.41C-11.6191 128.934 -11.473 129.54 -11.473 130.228ZM-13.0073 129.764C-13.0159 129.222 -13.2093 128.788 -13.5875 128.462C-13.9657 128.135 -14.4342 127.972 -14.9929 127.972C-15.5001 127.972 -15.9341 128.135 -16.2952 128.462C-16.6562 128.78 -16.8711 129.214 -16.9398 129.764H-13.0073ZM-8.55659 127.881C-8.3417 127.52 -8.05804 127.241 -7.70561 127.043C-7.34459 126.837 -6.9191 126.734 -6.42915 126.734V128.255H-6.80306C-7.37898 128.255 -7.81736 128.402 -8.11821 128.694C-8.41046 128.986 -8.55659 129.493 -8.55659 130.215V133.954H-10.0265V126.85H-8.55659V127.881ZM-2.09963 128.049H-3.41477V133.954H-4.89753V128.049H-5.73562V126.85H-4.89753V126.347C-4.89753 125.531 -4.68264 124.937 -4.25286 124.568C-3.81447 124.19 -3.13111 124.001 -2.20278 124.001V125.225C-2.64975 125.225 -2.9635 125.311 -3.14401 125.483C-3.32452 125.647 -3.41477 125.935 -3.41477 126.347V126.85H-2.09963V128.049ZM2.2846 134.07C1.61413 134.07 1.00813 133.92 0.466601 133.619C-0.0749292 133.31 -0.500417 132.88 -0.809863 132.33C-1.11931 131.771 -1.27403 131.126 -1.27403 130.396C-1.27403 129.674 -1.11501 129.033 -0.79697 128.475C-0.478928 127.916 -0.0448442 127.486 0.505282 127.185C1.05541 126.884 1.67 126.734 2.34906 126.734C3.02813 126.734 3.64272 126.884 4.19285 127.185C4.74297 127.486 5.17706 127.916 5.4951 128.475C5.81314 129.033 5.97216 129.674 5.97216 130.396C5.97216 131.118 5.80884 131.758 5.4822 132.317C5.15557 132.876 4.70859 133.31 4.14127 133.619C3.58255 133.92 2.96366 134.07 2.2846 134.07ZM2.2846 132.794C2.66281 132.794 3.01523 132.704 3.34187 132.523C3.6771 132.343 3.94787 132.072 4.15417 131.711C4.36046 131.35 4.46361 130.911 4.46361 130.396C4.46361 129.88 4.36476 129.446 4.16706 129.093C3.96936 128.732 3.70719 128.462 3.38055 128.281C3.05391 128.101 2.70149 128.01 2.32328 128.01C1.94507 128.01 1.59264 128.101 1.266 128.281C0.947962 128.462 0.694388 128.732 0.505282 129.093C0.316176 129.446 0.221623 129.88 0.221623 130.396C0.221623 131.161 0.415027 131.754 0.801834 132.175C1.19724 132.588 1.69149 132.794 2.2846 132.794ZM8.89507 127.881C9.10996 127.52 9.39362 127.241 9.74605 127.043C10.1071 126.837 10.5326 126.734 11.0225 126.734V128.255H10.6486C10.0727 128.255 9.6343 128.402 9.33345 128.694C9.0412 128.986 8.89507 129.493 8.89507 130.215V133.954H7.4252V126.85H8.89507V127.881ZM20.9736 126.734C21.5324 126.734 22.0309 126.85 22.4693 127.082C22.9163 127.314 23.2644 127.658 23.5137 128.114C23.7715 128.569 23.9005 129.119 23.9005 129.764V133.954H22.4435V129.983C22.4435 129.347 22.2845 128.861 21.9664 128.526C21.6484 128.182 21.2143 128.01 20.6642 128.01C20.1141 128.01 19.6757 128.182 19.349 128.526C19.031 128.861 18.872 129.347 18.872 129.983V133.954H17.415V129.983C17.415 129.347 17.256 128.861 16.9379 128.526C16.6199 128.182 16.1858 128.01 15.6357 128.01C15.0856 128.01 14.6472 128.182 14.3206 128.526C14.0025 128.861 13.8435 129.347 13.8435 129.983V133.954H12.3736V126.85H13.8435V127.662C14.0842 127.37 14.3893 127.142 14.7589 126.979C15.1285 126.816 15.524 126.734 15.9451 126.734C16.5125 126.734 17.0196 126.854 17.4666 127.095C17.9136 127.336 18.2574 127.684 18.4981 128.139C18.713 127.71 19.0482 127.37 19.5038 127.121C19.9593 126.863 20.4493 126.734 20.9736 126.734ZM32.2821 130.228C32.2821 130.495 32.2649 130.735 32.2305 130.95H26.8023C26.8453 131.517 27.0559 131.973 27.4341 132.317C27.8123 132.661 28.2765 132.833 28.8266 132.833C29.6174 132.833 30.1762 132.502 30.5028 131.84H32.0887C31.8738 132.493 31.4827 133.03 30.9154 133.451C30.3567 133.864 29.6604 134.07 28.8266 134.07C28.1476 134.07 27.5373 133.92 26.9957 133.619C26.4628 133.31 26.0416 132.88 25.7322 132.33C25.4313 131.771 25.2809 131.126 25.2809 130.396C25.2809 129.665 25.427 129.025 25.7193 128.475C26.0201 127.916 26.437 127.486 26.97 127.185C27.5115 126.884 28.1304 126.734 28.8266 126.734C29.4971 126.734 30.0945 126.88 30.6188 127.172C31.1432 127.465 31.5515 127.877 31.8437 128.41C32.136 128.934 32.2821 129.54 32.2821 130.228ZM30.7478 129.764C30.7392 129.222 30.5458 128.788 30.1676 128.462C29.7894 128.135 29.3209 127.972 28.7622 127.972C28.255 127.972 27.8209 128.135 27.4599 128.462C27.0989 128.78 26.884 129.214 26.8152 129.764H30.7478ZM35.1985 127.881C35.4134 127.52 35.697 127.241 36.0495 127.043C36.4105 126.837 36.836 126.734 37.3259 126.734V128.255H36.952C36.3761 128.255 35.9377 128.402 35.6369 128.694C35.3446 128.986 35.1985 129.493 35.1985 130.215V133.954H33.7286V126.85H35.1985V127.881Z" fill="#98959E"/>
<path d="M114.572 124.993L111.916 133.954H110.253L108.37 127.172L106.372 133.954L104.722 133.967L102.182 124.993H103.742L105.598 132.291L107.61 124.993H109.26L111.13 132.252L112.999 124.993H114.572ZM118.866 134.07C118.196 134.07 117.59 133.92 117.048 133.619C116.507 133.31 116.081 132.88 115.772 132.33C115.462 131.771 115.307 131.126 115.307 130.396C115.307 129.674 115.466 129.033 115.785 128.475C116.103 127.916 116.537 127.486 117.087 127.185C117.637 126.884 118.252 126.734 118.931 126.734C119.61 126.734 120.224 126.884 120.774 127.185C121.324 127.486 121.759 127.916 122.077 128.475C122.395 129.033 122.554 129.674 122.554 130.396C122.554 131.118 122.39 131.758 122.064 132.317C121.737 132.876 121.29 133.31 120.723 133.619C120.164 133.92 119.545 134.07 118.866 134.07ZM118.866 132.794C119.244 132.794 119.597 132.704 119.923 132.523C120.259 132.343 120.529 132.072 120.736 131.711C120.942 131.35 121.045 130.911 121.045 130.396C121.045 129.88 120.946 129.446 120.749 129.093C120.551 128.732 120.289 128.462 119.962 128.281C119.635 128.101 119.283 128.01 118.905 128.01C118.527 128.01 118.174 128.101 117.848 128.281C117.529 128.462 117.276 128.732 117.087 129.093C116.898 129.446 116.803 129.88 116.803 130.396C116.803 131.161 116.997 131.754 117.383 132.175C117.779 132.588 118.273 132.794 118.866 132.794ZM125.477 127.881C125.691 127.52 125.975 127.241 126.328 127.043C126.689 126.837 127.114 126.734 127.604 126.734V128.255H127.23C126.654 128.255 126.216 128.402 125.915 128.694C125.623 128.986 125.477 129.493 125.477 130.215V133.954H124.007V126.85H125.477V127.881ZM131.534 134.07C130.975 134.07 130.472 133.972 130.025 133.774C129.587 133.568 129.239 133.292 128.981 132.949C128.723 132.596 128.586 132.205 128.568 131.775H130.09C130.116 132.076 130.257 132.33 130.515 132.536C130.782 132.734 131.113 132.833 131.508 132.833C131.921 132.833 132.239 132.755 132.462 132.601C132.694 132.437 132.81 132.231 132.81 131.982C132.81 131.715 132.681 131.517 132.423 131.389C132.174 131.26 131.775 131.118 131.224 130.963C130.691 130.817 130.257 130.675 129.922 130.538C129.587 130.4 129.295 130.189 129.045 129.906C128.805 129.622 128.684 129.248 128.684 128.784C128.684 128.406 128.796 128.062 129.02 127.753C129.243 127.434 129.561 127.185 129.974 127.005C130.395 126.824 130.876 126.734 131.418 126.734C132.226 126.734 132.875 126.94 133.365 127.353C133.863 127.757 134.13 128.311 134.164 129.016H132.694C132.668 128.698 132.54 128.444 132.307 128.255C132.075 128.066 131.762 127.972 131.366 127.972C130.979 127.972 130.683 128.045 130.477 128.191C130.27 128.337 130.167 128.53 130.167 128.771C130.167 128.96 130.236 129.119 130.373 129.248C130.511 129.377 130.679 129.48 130.876 129.558C131.074 129.626 131.366 129.717 131.753 129.828C132.269 129.966 132.69 130.108 133.017 130.254C133.352 130.391 133.64 130.598 133.88 130.873C134.121 131.148 134.246 131.513 134.254 131.969C134.254 132.373 134.143 132.734 133.919 133.052C133.696 133.37 133.378 133.619 132.965 133.8C132.561 133.98 132.084 134.07 131.534 134.07ZM137.557 128.049V131.982C137.557 132.248 137.618 132.441 137.738 132.562C137.867 132.674 138.082 132.729 138.383 132.729H139.285V133.954H138.125C137.463 133.954 136.956 133.8 136.603 133.49C136.251 133.181 136.075 132.678 136.075 131.982V128.049H135.237V126.85H136.075V125.084H137.557V126.85H139.285V128.049H137.557ZM145.459 127.894C145.708 127.568 146.048 127.293 146.478 127.069C146.907 126.846 147.393 126.734 147.935 126.734C148.554 126.734 149.117 126.889 149.624 127.198C150.139 127.499 150.543 127.924 150.836 128.475C151.128 129.025 151.274 129.656 151.274 130.37C151.274 131.083 151.128 131.724 150.836 132.291C150.543 132.85 150.139 133.288 149.624 133.606C149.117 133.916 148.554 134.07 147.935 134.07C147.393 134.07 146.912 133.963 146.491 133.748C146.069 133.525 145.726 133.249 145.459 132.923V137.332H143.989V126.85H145.459V127.894ZM149.778 130.37C149.778 129.88 149.675 129.459 149.469 129.106C149.271 128.745 149.005 128.475 148.67 128.294C148.343 128.105 147.991 128.01 147.612 128.01C147.243 128.01 146.89 128.105 146.555 128.294C146.228 128.483 145.962 128.758 145.756 129.119C145.558 129.48 145.459 129.906 145.459 130.396C145.459 130.886 145.558 131.315 145.756 131.685C145.962 132.046 146.228 132.321 146.555 132.51C146.89 132.699 147.243 132.794 147.612 132.794C147.991 132.794 148.343 132.699 148.67 132.51C149.005 132.313 149.271 132.029 149.469 131.659C149.675 131.29 149.778 130.86 149.778 130.37ZM159.239 130.228C159.239 130.495 159.222 130.735 159.187 130.95H153.759C153.802 131.517 154.013 131.973 154.391 132.317C154.769 132.661 155.233 132.833 155.783 132.833C156.574 132.833 157.133 132.502 157.46 131.84H159.046C158.831 132.493 158.44 133.03 157.872 133.451C157.313 133.864 156.617 134.07 155.783 134.07C155.104 134.07 154.494 133.92 153.953 133.619C153.42 133.31 152.998 132.88 152.689 132.33C152.388 131.771 152.238 131.126 152.238 130.396C152.238 129.665 152.384 129.025 152.676 128.475C152.977 127.916 153.394 127.486 153.927 127.185C154.468 126.884 155.087 126.734 155.783 126.734C156.454 126.734 157.051 126.88 157.576 127.172C158.1 127.465 158.508 127.877 158.801 128.41C159.093 128.934 159.239 129.54 159.239 130.228ZM157.705 129.764C157.696 129.222 157.503 128.788 157.124 128.462C156.746 128.135 156.278 127.972 155.719 127.972C155.212 127.972 154.778 128.135 154.417 128.462C154.056 128.78 153.841 129.214 153.772 129.764H157.705ZM162.155 127.881C162.37 127.52 162.654 127.241 163.006 127.043C163.367 126.837 163.793 126.734 164.283 126.734V128.255H163.909C163.333 128.255 162.895 128.402 162.594 128.694C162.301 128.986 162.155 129.493 162.155 130.215V133.954H160.685V126.85H162.155V127.881ZM168.612 128.049H167.297V133.954H165.814V128.049H164.976V126.85H165.814V126.347C165.814 125.531 166.029 124.937 166.459 124.568C166.897 124.19 167.581 124.001 168.509 124.001V125.225C168.062 125.225 167.748 125.311 167.568 125.483C167.387 125.647 167.297 125.935 167.297 126.347V126.85H168.612V128.049ZM172.996 134.07C172.326 134.07 171.72 133.92 171.178 133.619C170.637 133.31 170.211 132.88 169.902 132.33C169.593 131.771 169.438 131.126 169.438 130.396C169.438 129.674 169.597 129.033 169.915 128.475C170.233 127.916 170.667 127.486 171.217 127.185C171.767 126.884 172.382 126.734 173.061 126.734C173.74 126.734 174.355 126.884 174.905 127.185C175.455 127.486 175.889 127.916 176.207 128.475C176.525 129.033 176.684 129.674 176.684 130.396C176.684 131.118 176.521 131.758 176.194 132.317C175.867 132.876 175.42 133.31 174.853 133.619C174.294 133.92 173.676 134.07 172.996 134.07ZM172.996 132.794C173.375 132.794 173.727 132.704 174.054 132.523C174.389 132.343 174.66 132.072 174.866 131.711C175.072 131.35 175.175 130.911 175.175 130.396C175.175 129.88 175.077 129.446 174.879 129.093C174.681 128.732 174.419 128.462 174.092 128.281C173.766 128.101 173.413 128.01 173.035 128.01C172.657 128.01 172.305 128.101 171.978 128.281C171.66 128.462 171.406 128.732 171.217 129.093C171.028 129.446 170.934 129.88 170.934 130.396C170.934 131.161 171.127 131.754 171.514 132.175C171.909 132.588 172.403 132.794 172.996 132.794ZM179.607 127.881C179.822 127.52 180.106 127.241 180.458 127.043C180.819 126.837 181.244 126.734 181.734 126.734V128.255H181.36C180.785 128.255 180.346 128.402 180.045 128.694C179.753 128.986 179.607 129.493 179.607 130.215V133.954H178.137V126.85H179.607V127.881ZM191.686 126.734C192.244 126.734 192.743 126.85 193.181 127.082C193.628 127.314 193.976 127.658 194.226 128.114C194.483 128.569 194.612 129.119 194.612 129.764V133.954H193.155V129.983C193.155 129.347 192.996 128.861 192.678 128.526C192.36 128.182 191.926 128.01 191.376 128.01C190.826 128.01 190.388 128.182 190.061 128.526C189.743 128.861 189.584 129.347 189.584 129.983V133.954H188.127V129.983C188.127 129.347 187.968 128.861 187.65 128.526C187.332 128.182 186.898 128.01 186.348 128.01C185.797 128.01 185.359 128.182 185.032 128.526C184.714 128.861 184.555 129.347 184.555 129.983V133.954H183.086V126.85H184.555V127.662C184.796 127.37 185.101 127.142 185.471 126.979C185.84 126.816 186.236 126.734 186.657 126.734C187.224 126.734 187.731 126.854 188.178 127.095C188.625 127.336 188.969 127.684 189.21 128.139C189.425 127.71 189.76 127.37 190.216 127.121C190.671 126.863 191.161 126.734 191.686 126.734ZM202.994 130.228C202.994 130.495 202.977 130.735 202.942 130.95H197.514C197.557 131.517 197.768 131.973 198.146 132.317C198.524 132.661 198.988 132.833 199.539 132.833C200.329 132.833 200.888 132.502 201.215 131.84H202.801C202.586 132.493 202.195 133.03 201.627 133.451C201.069 133.864 200.372 134.07 199.539 134.07C198.859 134.07 198.249 133.92 197.708 133.619C197.175 133.31 196.754 132.88 196.444 132.33C196.143 131.771 195.993 131.126 195.993 130.396C195.993 129.665 196.139 129.025 196.431 128.475C196.732 127.916 197.149 127.486 197.682 127.185C198.223 126.884 198.842 126.734 199.539 126.734C200.209 126.734 200.806 126.88 201.331 127.172C201.855 127.465 202.263 127.877 202.556 128.41C202.848 128.934 202.994 129.54 202.994 130.228ZM201.46 129.764C201.451 129.222 201.258 128.788 200.879 128.462C200.501 128.135 200.033 127.972 199.474 127.972C198.967 127.972 198.533 128.135 198.172 128.462C197.811 128.78 197.596 129.214 197.527 129.764H201.46ZM205.91 127.881C206.125 127.52 206.409 127.241 206.761 127.043C207.122 126.837 207.548 126.734 208.038 126.734V128.255H207.664C207.088 128.255 206.65 128.402 206.349 128.694C206.056 128.986 205.91 129.493 205.91 130.215V133.954H204.44V126.85H205.91V127.881Z" fill="#98959E"/>
<path d="M110.059 192.039V201H108.59V197.081H104.373V201H102.904V192.039H104.373V195.882H108.59V192.039H110.059ZM112.742 192.955C112.476 192.955 112.252 192.865 112.072 192.684C111.891 192.504 111.801 192.28 111.801 192.014C111.801 191.747 111.891 191.524 112.072 191.343C112.252 191.163 112.476 191.072 112.742 191.072C113 191.072 113.219 191.163 113.4 191.343C113.58 191.524 113.671 191.747 113.671 192.014C113.671 192.28 113.58 192.504 113.4 192.684C113.219 192.865 113 192.955 112.742 192.955ZM113.464 193.896V201H111.995V193.896H113.464ZM118.257 193.78C118.807 193.78 119.292 193.892 119.714 194.115C120.143 194.33 120.479 194.601 120.719 194.928V193.896H122.202V201.117C122.202 201.77 122.064 202.35 121.789 202.857C121.514 203.373 121.115 203.777 120.59 204.069C120.075 204.361 119.456 204.508 118.734 204.508C117.771 204.508 116.972 204.28 116.335 203.824C115.699 203.377 115.338 202.767 115.252 201.993H116.709C116.821 202.363 117.057 202.659 117.418 202.883C117.788 203.115 118.226 203.231 118.734 203.231C119.327 203.231 119.804 203.051 120.165 202.69C120.534 202.329 120.719 201.804 120.719 201.117V199.93C120.47 200.266 120.13 200.549 119.701 200.781C119.279 201.005 118.798 201.117 118.257 201.117C117.638 201.117 117.07 200.962 116.555 200.652C116.047 200.334 115.643 199.896 115.343 199.337C115.05 198.77 114.904 198.13 114.904 197.416C114.904 196.703 115.05 196.071 115.343 195.521C115.643 194.971 116.047 194.545 116.555 194.244C117.07 193.935 117.638 193.78 118.257 193.78ZM120.719 197.442C120.719 196.952 120.616 196.526 120.41 196.165C120.212 195.804 119.95 195.529 119.623 195.34C119.297 195.151 118.944 195.057 118.566 195.057C118.188 195.057 117.835 195.151 117.509 195.34C117.182 195.521 116.916 195.791 116.709 196.153C116.512 196.505 116.413 196.926 116.413 197.416C116.413 197.906 116.512 198.336 116.709 198.705C116.916 199.075 117.182 199.359 117.509 199.556C117.844 199.746 118.196 199.84 118.566 199.84C118.944 199.84 119.297 199.746 119.623 199.556C119.95 199.367 120.212 199.092 120.41 198.731C120.616 198.362 120.719 197.932 120.719 197.442ZM127.807 193.78C128.349 193.78 128.83 193.896 129.251 194.128C129.681 194.36 130.016 194.704 130.257 195.16C130.506 195.615 130.631 196.165 130.631 196.81V201H129.174V197.029C129.174 196.393 129.015 195.908 128.697 195.572C128.379 195.228 127.945 195.057 127.395 195.057C126.845 195.057 126.406 195.228 126.08 195.572C125.762 195.908 125.602 196.393 125.602 197.029V201H124.133V191.459H125.602V194.721C125.852 194.42 126.166 194.188 126.544 194.025C126.931 193.862 127.352 193.78 127.807 193.78ZM133.976 191.459V201H132.506V191.459H133.976ZM136.653 192.955C136.387 192.955 136.163 192.865 135.983 192.684C135.802 192.504 135.712 192.28 135.712 192.014C135.712 191.747 135.802 191.524 135.983 191.343C136.163 191.163 136.387 191.072 136.653 191.072C136.911 191.072 137.13 191.163 137.311 191.343C137.491 191.524 137.582 191.747 137.582 192.014C137.582 192.28 137.491 192.504 137.311 192.684C137.13 192.865 136.911 192.955 136.653 192.955ZM137.375 193.896V201H135.906V193.896H137.375ZM142.168 193.78C142.718 193.78 143.203 193.892 143.625 194.115C144.054 194.33 144.39 194.601 144.63 194.928V193.896H146.113V201.117C146.113 201.77 145.976 202.35 145.7 202.857C145.425 203.373 145.026 203.777 144.501 204.069C143.986 204.361 143.367 204.508 142.645 204.508C141.682 204.508 140.883 204.28 140.246 203.824C139.61 203.377 139.249 202.767 139.163 201.993H140.62C140.732 202.363 140.969 202.659 141.33 202.883C141.699 203.115 142.138 203.231 142.645 203.231C143.238 203.231 143.715 203.051 144.076 202.69C144.445 202.329 144.63 201.804 144.63 201.117V199.93C144.381 200.266 144.041 200.549 143.612 200.781C143.191 201.005 142.709 201.117 142.168 201.117C141.549 201.117 140.981 200.962 140.466 200.652C139.959 200.334 139.555 199.896 139.254 199.337C138.961 198.77 138.815 198.13 138.815 197.416C138.815 196.703 138.961 196.071 139.254 195.521C139.555 194.971 139.959 194.545 140.466 194.244C140.981 193.935 141.549 193.78 142.168 193.78ZM144.63 197.442C144.63 196.952 144.527 196.526 144.321 196.165C144.123 195.804 143.861 195.529 143.534 195.34C143.208 195.151 142.855 195.057 142.477 195.057C142.099 195.057 141.746 195.151 141.42 195.34C141.093 195.521 140.827 195.791 140.62 196.153C140.423 196.505 140.324 196.926 140.324 197.416C140.324 197.906 140.423 198.336 140.62 198.705C140.827 199.075 141.093 199.359 141.42 199.556C141.755 199.746 142.107 199.84 142.477 199.84C142.855 199.84 143.208 199.746 143.534 199.556C143.861 199.367 144.123 199.092 144.321 198.731C144.527 198.362 144.63 197.932 144.63 197.442ZM151.718 193.78C152.26 193.78 152.741 193.896 153.162 194.128C153.592 194.36 153.927 194.704 154.168 195.16C154.417 195.615 154.542 196.165 154.542 196.81V201H153.085V197.029C153.085 196.393 152.926 195.908 152.608 195.572C152.29 195.228 151.856 195.057 151.306 195.057C150.756 195.057 150.317 195.228 149.991 195.572C149.673 195.908 149.514 196.393 149.514 197.029V201H148.044V191.459H149.514V194.721C149.763 194.42 150.077 194.188 150.455 194.025C150.842 193.862 151.263 193.78 151.718 193.78ZM158.132 195.095V199.028C158.132 199.294 158.192 199.488 158.312 199.608C158.441 199.72 158.656 199.776 158.957 199.776H159.86V201H158.699C158.037 201 157.53 200.846 157.178 200.536C156.825 200.227 156.649 199.724 156.649 199.028V195.095H155.811V193.896H156.649V192.13H158.132V193.896H159.86V195.095H158.132Z" fill="#98959E"/>
<path d="M108.208 166.745C107.245 166.745 106.379 166.58 105.609 166.25C104.838 165.907 104.233 165.425 103.793 164.806C103.353 164.187 103.133 163.465 103.133 162.64H105.65C105.705 163.259 105.946 163.768 106.372 164.167C106.812 164.566 107.424 164.765 108.208 164.765C109.019 164.765 109.652 164.572 110.106 164.187C110.56 163.789 110.787 163.28 110.787 162.661C110.787 162.179 110.642 161.787 110.353 161.485C110.078 161.182 109.728 160.949 109.301 160.783C108.889 160.618 108.311 160.44 107.568 160.247C106.633 160 105.87 159.752 105.279 159.504C104.701 159.243 104.206 158.844 103.793 158.308C103.381 157.772 103.174 157.056 103.174 156.162C103.174 155.337 103.381 154.615 103.793 153.996C104.206 153.377 104.783 152.903 105.526 152.573C106.269 152.243 107.128 152.078 108.105 152.078C109.494 152.078 110.629 152.428 111.509 153.13C112.403 153.818 112.898 154.766 112.994 155.977H110.395C110.353 155.454 110.106 155.007 109.652 154.636C109.198 154.264 108.6 154.079 107.857 154.079C107.183 154.079 106.633 154.251 106.207 154.595C105.781 154.938 105.567 155.434 105.567 156.08C105.567 156.52 105.698 156.884 105.959 157.173C106.234 157.448 106.578 157.668 106.991 157.833C107.403 157.998 107.967 158.177 108.682 158.37C109.631 158.631 110.402 158.892 110.993 159.154C111.598 159.415 112.107 159.821 112.52 160.371C112.946 160.907 113.159 161.629 113.159 162.537C113.159 163.266 112.96 163.954 112.561 164.6C112.176 165.246 111.605 165.769 110.849 166.168C110.106 166.553 109.226 166.745 108.208 166.745ZM122.474 166.745C121.14 166.745 119.909 166.436 118.781 165.817C117.667 165.184 116.78 164.311 116.12 163.197C115.473 162.069 115.15 160.804 115.15 159.401C115.15 157.998 115.473 156.74 116.12 155.626C116.78 154.512 117.667 153.646 118.781 153.027C119.909 152.394 121.14 152.078 122.474 152.078C123.822 152.078 125.052 152.394 126.166 153.027C127.294 153.646 128.181 154.512 128.828 155.626C129.474 156.74 129.797 157.998 129.797 159.401C129.797 160.804 129.474 162.069 128.828 163.197C128.181 164.311 127.294 165.184 126.166 165.817C125.052 166.436 123.822 166.745 122.474 166.745ZM122.474 164.703C123.423 164.703 124.269 164.49 125.011 164.064C125.754 163.624 126.332 163.005 126.744 162.207C127.17 161.396 127.384 160.46 127.384 159.401C127.384 158.342 127.17 157.414 126.744 156.616C126.332 155.819 125.754 155.207 125.011 154.78C124.269 154.354 123.423 154.141 122.474 154.141C121.525 154.141 120.679 154.354 119.936 154.78C119.194 155.207 118.609 155.819 118.183 156.616C117.77 157.414 117.564 158.342 117.564 159.401C117.564 160.46 117.77 161.396 118.183 162.207C118.609 163.005 119.194 163.624 119.936 164.064C120.679 164.49 121.525 164.703 122.474 164.703ZM134.463 164.703H139.311V166.601H132.112V152.263H134.463V164.703Z" fill="#C8C8C8"/>
<path d="M108.208 233.792C107.245 233.792 106.379 233.627 105.609 233.297C104.838 232.953 104.233 232.471 103.793 231.852C103.353 231.234 103.133 230.511 103.133 229.686H105.65C105.705 230.305 105.946 230.814 106.372 231.213C106.812 231.612 107.424 231.811 108.208 231.811C109.019 231.811 109.652 231.619 110.106 231.234C110.56 230.835 110.787 230.326 110.787 229.707C110.787 229.226 110.642 228.834 110.353 228.531C110.078 228.228 109.728 227.995 109.301 227.83C108.889 227.665 108.311 227.486 107.568 227.293C106.633 227.046 105.87 226.798 105.279 226.551C104.701 226.289 104.206 225.89 103.793 225.354C103.381 224.818 103.174 224.103 103.174 223.209C103.174 222.383 103.381 221.661 103.793 221.042C104.206 220.424 104.783 219.949 105.526 219.619C106.269 219.289 107.128 219.124 108.105 219.124C109.494 219.124 110.629 219.475 111.509 220.176C112.403 220.864 112.898 221.813 112.994 223.023H110.395C110.353 222.5 110.106 222.053 109.652 221.682C109.198 221.311 108.6 221.125 107.857 221.125C107.183 221.125 106.633 221.297 106.207 221.641C105.781 221.985 105.567 222.48 105.567 223.126C105.567 223.566 105.698 223.931 105.959 224.219C106.234 224.494 106.578 224.715 106.991 224.88C107.403 225.045 107.967 225.223 108.682 225.416C109.631 225.677 110.402 225.939 110.993 226.2C111.598 226.461 112.107 226.867 112.52 227.417C112.946 227.953 113.159 228.675 113.159 229.583C113.159 230.312 112.96 231 112.561 231.646C112.176 232.293 111.605 232.815 110.849 233.214C110.106 233.599 109.226 233.792 108.208 233.792ZM122.474 233.792C121.14 233.792 119.909 233.482 118.781 232.863C117.667 232.231 116.78 231.357 116.12 230.243C115.473 229.116 115.15 227.85 115.15 226.447C115.15 225.045 115.473 223.786 116.12 222.672C116.78 221.558 117.667 220.692 118.781 220.073C119.909 219.44 121.14 219.124 122.474 219.124C123.822 219.124 125.052 219.44 126.166 220.073C127.294 220.692 128.181 221.558 128.828 222.672C129.474 223.786 129.797 225.045 129.797 226.447C129.797 227.85 129.474 229.116 128.828 230.243C128.181 231.357 127.294 232.231 126.166 232.863C125.052 233.482 123.822 233.792 122.474 233.792ZM122.474 231.749C123.423 231.749 124.269 231.536 125.011 231.11C125.754 230.67 126.332 230.051 126.744 229.253C127.17 228.442 127.384 227.506 127.384 226.447C127.384 225.388 127.17 224.46 126.744 223.662C126.332 222.865 125.754 222.253 125.011 221.826C124.269 221.4 123.423 221.187 122.474 221.187C121.525 221.187 120.679 221.4 119.936 221.826C119.194 222.253 118.609 222.865 118.183 223.662C117.77 224.46 117.564 225.388 117.564 226.447C117.564 227.506 117.77 228.442 118.183 229.253C118.609 230.051 119.194 230.67 119.936 231.11C120.679 231.536 121.525 231.749 122.474 231.749ZM134.463 231.749H139.311V233.647H132.112V219.31H134.463V231.749Z" fill="#C8C8C8"/>
<rect x="-94.1838" y="0.475835" width="349.263" height="263.305" rx="22.3642" stroke="#1D1D1D" stroke-width="0.95167"/>
</svg>
