<svg width="337" height="265" viewBox="0 0 337 265" fill="none" xmlns="http://www.w3.org/2000/svg">
<rect x="0.475835" y="0.475835" width="335.939" height="263.305" rx="22.3642" fill="black"/>
<rect x="15.2268" y="20.7834" width="306.438" height="222.691" rx="13.7532" fill="black"/>
<path d="M42.3969 33.0812V34.2803H40.0115V42.0422H38.5417V34.2803H36.1435V33.0812H42.3969ZM46.967 42.1583C46.2966 42.1583 45.6906 42.0079 45.149 41.707C44.6075 41.3976 44.182 40.9678 43.8726 40.4176C43.5631 39.8589 43.4084 39.2142 43.4084 38.4836C43.4084 37.7616 43.5674 37.1212 43.8855 36.5625C44.2035 36.0037 44.6376 35.574 45.1877 35.2731C45.7378 34.9723 46.3524 34.8218 47.0315 34.8218C47.7106 34.8218 48.3252 34.9723 48.8753 35.2731C49.4254 35.574 49.8595 36.0037 50.1775 36.5625C50.4956 37.1212 50.6546 37.7616 50.6546 38.4836C50.6546 39.2056 50.4913 39.846 50.1646 40.4048C49.838 40.9635 49.391 41.3976 48.8237 41.707C48.265 42.0079 47.6461 42.1583 46.967 42.1583ZM46.967 40.8818C47.3452 40.8818 47.6977 40.7916 48.0243 40.611C48.3595 40.4305 48.6303 40.1598 48.8366 39.7988C49.0429 39.4377 49.146 38.9994 49.146 38.4836C49.146 37.9679 49.0472 37.5338 48.8495 37.1814C48.6518 36.8203 48.3896 36.5496 48.063 36.3691C47.7363 36.1886 47.3839 36.0983 47.0057 36.0983C46.6275 36.0983 46.2751 36.1886 45.9484 36.3691C45.6304 36.5496 45.3768 36.8203 45.1877 37.1814C44.9986 37.5338 44.9041 37.9679 44.9041 38.4836C44.9041 39.2486 45.0975 39.8417 45.4843 40.2629C45.8797 40.6755 46.3739 40.8818 46.967 40.8818ZM53.5775 35.9823C53.8268 35.6556 54.1663 35.3806 54.5961 35.1571C55.0259 34.9336 55.5115 34.8218 56.0531 34.8218C56.672 34.8218 57.235 34.9766 57.7421 35.286C58.2579 35.5868 58.6619 36.0123 58.9541 36.5625C59.2464 37.1126 59.3925 37.7444 59.3925 38.4578C59.3925 39.1713 59.2464 39.8116 58.9541 40.379C58.6619 40.9377 58.2579 41.3761 57.7421 41.6941C57.235 42.0036 56.672 42.1583 56.0531 42.1583C55.5115 42.1583 55.0302 42.0508 54.609 41.8359C54.1878 41.6125 53.844 41.3374 53.5775 41.0107V45.4204H52.1076V34.9379H53.5775V35.9823ZM57.8969 38.4578C57.8969 37.9679 57.7937 37.5467 57.5874 37.1942C57.3897 36.8332 57.1232 36.5625 56.788 36.382C56.4614 36.1928 56.109 36.0983 55.7307 36.0983C55.3611 36.0983 55.0087 36.1928 54.6735 36.382C54.3468 36.5711 54.0804 36.8461 53.8741 37.2071C53.6764 37.5682 53.5775 37.9937 53.5775 38.4836C53.5775 38.9736 53.6764 39.4033 53.8741 39.773C54.0804 40.134 54.3468 40.409 54.6735 40.5982C55.0087 40.7873 55.3611 40.8818 55.7307 40.8818C56.109 40.8818 56.4614 40.7873 56.788 40.5982C57.1232 40.4005 57.3897 40.1168 57.5874 39.7472C57.7937 39.3776 57.8969 38.9478 57.8969 38.4578ZM65.9102 36.137V40.0695C65.9102 40.336 65.9704 40.5294 66.0907 40.6497C66.2197 40.7615 66.4346 40.8173 66.7354 40.8173H67.638V42.0422H66.4775C65.8157 42.0422 65.3085 41.8875 64.9561 41.5781C64.6037 41.2686 64.4275 40.7658 64.4275 40.0695V36.137H63.5894V34.9379H64.4275V33.1715H65.9102V34.9379H67.638V36.137H65.9102ZM72.0743 42.1583C71.4038 42.1583 70.7978 42.0079 70.2563 41.707C69.7147 41.3976 69.2892 40.9678 68.9798 40.4176C68.6704 39.8589 68.5156 39.2142 68.5156 38.4836C68.5156 37.7616 68.6747 37.1212 68.9927 36.5625C69.3107 36.0037 69.7448 35.574 70.2949 35.2731C70.8451 34.9723 71.4597 34.8218 72.1387 34.8218C72.8178 34.8218 73.4324 34.9723 73.9825 35.2731C74.5326 35.574 74.9667 36.0037 75.2848 36.5625C75.6028 37.1212 75.7618 37.7616 75.7618 38.4836C75.7618 39.2056 75.5985 39.846 75.2719 40.4048C74.9452 40.9635 74.4983 41.3976 73.9309 41.707C73.3722 42.0079 72.7533 42.1583 72.0743 42.1583ZM72.0743 40.8818C72.4525 40.8818 72.8049 40.7916 73.1315 40.611C73.4668 40.4305 73.7375 40.1598 73.9438 39.7988C74.1501 39.4377 74.2533 38.9994 74.2533 38.4836C74.2533 37.9679 74.1544 37.5338 73.9567 37.1814C73.759 36.8203 73.4969 36.5496 73.1702 36.3691C72.8436 36.1886 72.4912 36.0983 72.1129 36.0983C71.7347 36.0983 71.3823 36.1886 71.0557 36.3691C70.7376 36.5496 70.4841 36.8203 70.2949 37.1814C70.1058 37.5338 70.0113 37.9679 70.0113 38.4836C70.0113 39.2486 70.2047 39.8417 70.5915 40.2629C70.9869 40.6755 71.4812 40.8818 72.0743 40.8818ZM80.0257 38.4965L83.3006 42.0422H81.315L78.6847 38.9865V42.0422H77.2149V32.501H78.6847V38.0452L81.2635 34.9379H83.3006L80.0257 38.4965ZM90.8654 38.316C90.8654 38.5825 90.8483 38.8231 90.8139 39.038H85.3857C85.4287 39.6053 85.6392 40.0609 86.0175 40.4048C86.3957 40.7486 86.8598 40.9205 87.41 40.9205C88.2008 40.9205 88.7595 40.5896 89.0861 39.9277H90.672C90.4571 40.581 90.066 41.1182 89.4987 41.5394C88.94 41.952 88.2438 42.1583 87.41 42.1583C86.7309 42.1583 86.1206 42.0079 85.5791 41.707C85.0461 41.3976 84.625 40.9678 84.3155 40.4176C84.0147 39.8589 83.8642 39.2142 83.8642 38.4836C83.8642 37.753 84.0104 37.1126 84.3026 36.5625C84.6035 36.0037 85.0204 35.574 85.5533 35.2731C86.0948 34.9723 86.7137 34.8218 87.41 34.8218C88.0804 34.8218 88.6778 34.968 89.2022 35.2602C89.7265 35.5525 90.1348 35.9651 90.4271 36.498C90.7193 37.0223 90.8654 37.6283 90.8654 38.316ZM89.3311 37.8518C89.3225 37.3103 89.1291 36.8762 88.7509 36.5496C88.3727 36.2229 87.9042 36.0596 87.3455 36.0596C86.8384 36.0596 86.4043 36.2229 86.0432 36.5496C85.6822 36.8676 85.4673 37.3017 85.3986 37.8518H89.3311ZM95.8964 34.8218C96.4551 34.8218 96.9536 34.9379 97.392 35.17C97.839 35.402 98.1871 35.7459 98.4364 36.2014C98.6857 36.657 98.8103 37.2071 98.8103 37.8518V42.0422H97.3533V38.071C97.3533 37.4349 97.1943 36.9493 96.8763 36.614C96.5582 36.2702 96.1241 36.0983 95.574 36.0983C95.0239 36.0983 94.5855 36.2702 94.2589 36.614C93.9408 36.9493 93.7818 37.4349 93.7818 38.071V42.0422H92.3119V34.9379H93.7818V35.7502C94.0225 35.4579 94.3276 35.2301 94.6973 35.0668C95.0755 34.9035 95.4752 34.8218 95.8964 34.8218ZM103.264 42.1583C102.705 42.1583 102.202 42.0594 101.755 41.8617C101.317 41.6554 100.969 41.3804 100.711 41.0365C100.453 40.6841 100.316 40.293 100.298 39.8632H101.82C101.846 40.1641 101.987 40.4176 102.245 40.6239C102.512 40.8216 102.843 40.9205 103.238 40.9205C103.651 40.9205 103.969 40.8431 104.192 40.6884C104.424 40.5251 104.54 40.3188 104.54 40.0695C104.54 39.8031 104.411 39.6053 104.154 39.4764C103.904 39.3475 103.505 39.2056 102.954 39.0509C102.422 38.9048 101.987 38.763 101.652 38.6254C101.317 38.4879 101.025 38.2773 100.775 37.9937C100.535 37.71 100.414 37.3361 100.414 36.8719C100.414 36.4937 100.526 36.1499 100.75 35.8404C100.973 35.5224 101.291 35.2731 101.704 35.0926C102.125 34.9121 102.606 34.8218 103.148 34.8218C103.956 34.8218 104.605 35.0281 105.095 35.4407C105.593 35.8447 105.86 36.3991 105.894 37.104H104.424C104.399 36.786 104.27 36.5324 104.038 36.3433C103.805 36.1542 103.492 36.0596 103.096 36.0596C102.71 36.0596 102.413 36.1327 102.207 36.2788C102 36.4249 101.897 36.6183 101.897 36.859C101.897 37.0481 101.966 37.2071 102.104 37.3361C102.241 37.465 102.409 37.5682 102.606 37.6455C102.804 37.7143 103.096 37.8045 103.483 37.9163C103.999 38.0538 104.42 38.1957 104.747 38.3418C105.082 38.4793 105.37 38.6856 105.611 38.9607C105.851 39.2357 105.976 39.6011 105.984 40.0566C105.984 40.4606 105.873 40.8216 105.649 41.1397C105.426 41.4577 105.108 41.707 104.695 41.8875C104.291 42.068 103.814 42.1583 103.264 42.1583Z" fill="#98959E"/>
<path d="M37.6959 65.7849C37.6959 65.321 37.7973 64.9083 38 64.5469C38.2051 64.1855 38.4847 63.901 38.8388 63.6934C39.1953 63.4858 39.6007 63.382 40.0549 63.382C40.514 63.382 40.9218 63.4895 41.2783 63.7044C41.6348 63.9168 41.9144 64.2099 42.1171 64.5835C42.3198 64.9547 42.4187 65.3796 42.4138 65.8582C42.4089 66.0926 42.3735 66.3356 42.3076 66.5871C42.2417 66.8386 42.1305 67.1183 41.9743 67.4259C41.818 67.7336 41.6031 68.0902 41.3296 68.4955L39.6446 70.9863H38.6483L40.6263 68.0999C40.5384 68.1292 40.4468 68.1536 40.3516 68.1732C40.2588 68.1927 40.1648 68.2025 40.0695 68.2025C39.6153 68.2025 39.2087 68.0975 38.8498 67.8875C38.4932 67.6775 38.2112 67.3905 38.0036 67.0267C37.7985 66.6628 37.6959 66.2489 37.6959 65.7849ZM38.5604 65.7849C38.5604 66.1024 38.6239 66.382 38.7509 66.6238C38.8779 66.8655 39.0537 67.0548 39.2783 67.1915C39.503 67.3283 39.7618 67.3966 40.0549 67.3966C40.3479 67.3966 40.6068 67.3295 40.8314 67.1952C41.0561 67.0584 41.2319 66.8704 41.3589 66.6311C41.4859 66.3893 41.5494 66.1122 41.5494 65.7996C41.5494 65.4821 41.4859 65.2013 41.3589 64.9571C41.2319 64.7129 41.0561 64.5212 40.8314 64.382C40.6068 64.2428 40.3479 64.1732 40.0549 64.1732C39.7618 64.1732 39.503 64.2428 39.2783 64.382C39.0537 64.5188 38.8779 64.7093 38.7509 64.9534C38.6239 65.1952 38.5604 65.4724 38.5604 65.7849ZM46.2416 71.0889C45.6897 71.0889 45.2196 70.9387 44.8314 70.6383C44.4431 70.3355 44.1464 69.8972 43.9413 69.3233C43.7361 68.747 43.6336 68.0511 43.6336 67.2355C43.6336 66.4247 43.7361 65.7324 43.9413 65.1586C44.1488 64.5823 44.4468 64.1427 44.835 63.8399C45.2257 63.5347 45.6946 63.382 46.2416 63.382C46.7886 63.382 47.2562 63.5347 47.6445 63.8399C48.0352 64.1427 48.3331 64.5823 48.5383 65.1586C48.7458 65.7324 48.8496 66.4247 48.8496 67.2355C48.8496 68.0511 48.7471 68.747 48.5419 69.3233C48.3368 69.8972 48.0401 70.3355 47.6518 70.6383C47.2636 70.9387 46.7935 71.0889 46.2416 71.0889ZM46.2416 70.283C46.7886 70.283 47.2135 70.0193 47.5163 69.4918C47.8191 68.9644 47.9705 68.2123 47.9705 67.2355C47.9705 66.5859 47.9009 66.0328 47.7617 65.5762C47.625 65.1195 47.4272 64.7715 47.1683 64.5322C46.9119 64.2929 46.603 64.1732 46.2416 64.1732C45.6995 64.1732 45.2758 64.4406 44.9706 64.9754C44.6653 65.5078 44.5127 66.2611 44.5127 67.2355C44.5127 67.885 44.5811 68.4369 44.7178 68.8911C44.8546 69.3453 45.0511 69.6909 45.3075 69.9277C45.5664 70.1646 45.8777 70.283 46.2416 70.283ZM52.6884 71.0889C52.1365 71.0889 51.6664 70.9387 51.2782 70.6383C50.8899 70.3355 50.5932 69.8972 50.3881 69.3233C50.1829 68.747 50.0804 68.0511 50.0804 67.2355C50.0804 66.4247 50.1829 65.7324 50.3881 65.1586C50.5956 64.5823 50.8935 64.1427 51.2818 63.8399C51.6725 63.5347 52.1414 63.382 52.6884 63.382C53.2354 63.382 53.703 63.5347 54.0913 63.8399C54.482 64.1427 54.7799 64.5823 54.9851 65.1586C55.1926 65.7324 55.2964 66.4247 55.2964 67.2355C55.2964 68.0511 55.1938 68.747 54.9887 69.3233C54.7836 69.8972 54.4869 70.3355 54.0986 70.6383C53.7104 70.9387 53.2403 71.0889 52.6884 71.0889ZM52.6884 70.283C53.2354 70.283 53.6603 70.0193 53.9631 69.4918C54.2659 68.9644 54.4173 68.2123 54.4173 67.2355C54.4173 66.5859 54.3477 66.0328 54.2085 65.5762C54.0718 65.1195 53.874 64.7715 53.6151 64.5322C53.3587 64.2929 53.0498 64.1732 52.6884 64.1732C52.1463 64.1732 51.7226 64.4406 51.4173 64.9754C51.1121 65.5078 50.9595 66.2611 50.9595 67.2355C50.9595 67.885 51.0279 68.4369 51.1646 68.8911C51.3014 69.3453 51.4979 69.6909 51.7543 69.9277C52.0132 70.1646 52.3245 70.283 52.6884 70.283ZM56.8202 70.9863V63.4846H57.7286V67.2062H57.8165L61.1864 63.4846H62.3732L59.2231 66.8692L62.3732 70.9863H61.2743L58.6663 67.4992L57.7286 68.5541V70.9863H56.8202Z" fill="#98959E"/>
<path d="M37.6959 108.661C37.7008 108.426 37.7362 108.183 37.8022 107.932C37.8681 107.68 37.9792 107.401 38.1355 107.093C38.2918 106.785 38.5067 106.429 38.7802 106.024L40.4651 103.533H41.4615L39.4835 106.419C39.5714 106.39 39.6617 106.365 39.7545 106.346C39.8498 106.326 39.945 106.317 40.0402 106.317C40.4944 106.317 40.8998 106.422 41.2563 106.632C41.6153 106.842 41.8973 107.128 42.1025 107.492C42.31 107.856 42.4138 108.27 42.4138 108.734C42.4138 109.198 42.3113 109.611 42.1061 109.972C41.9034 110.334 41.6238 110.618 41.2673 110.826C40.9132 111.033 40.5091 111.137 40.0549 111.137C39.5958 111.137 39.188 111.031 38.8315 110.818C38.4749 110.603 38.1953 110.31 37.9926 109.939C37.79 109.566 37.6911 109.139 37.6959 108.661ZM38.5604 108.719C38.5604 109.037 38.6239 109.318 38.7509 109.562C38.8779 109.806 39.0537 109.998 39.2783 110.137C39.503 110.276 39.7618 110.346 40.0549 110.346C40.3479 110.346 40.6068 110.277 40.8314 110.141C41.0561 110.001 41.2319 109.811 41.3589 109.569C41.4859 109.325 41.5494 109.047 41.5494 108.734C41.5494 108.417 41.4859 108.137 41.3589 107.895C41.2319 107.654 41.0561 107.464 40.8314 107.328C40.6068 107.191 40.3479 107.122 40.0549 107.122C39.7618 107.122 39.503 107.191 39.2783 107.328C39.0537 107.462 38.8779 107.65 38.7509 107.892C38.6239 108.131 38.5604 108.407 38.5604 108.719ZM46.2416 111.137C45.6897 111.137 45.2196 110.987 44.8314 110.686C44.4431 110.384 44.1464 109.945 43.9413 109.371C43.7361 108.795 43.6336 108.099 43.6336 107.284C43.6336 106.473 43.7361 105.781 43.9413 105.207C44.1488 104.63 44.4468 104.191 44.835 103.888C45.2257 103.583 45.6946 103.43 46.2416 103.43C46.7886 103.43 47.2562 103.583 47.6445 103.888C48.0352 104.191 48.3331 104.63 48.5383 105.207C48.7458 105.781 48.8496 106.473 48.8496 107.284C48.8496 108.099 48.7471 108.795 48.5419 109.371C48.3368 109.945 48.0401 110.384 47.6518 110.686C47.2636 110.987 46.7935 111.137 46.2416 111.137ZM46.2416 110.331C46.7886 110.331 47.2135 110.067 47.5163 109.54C47.8191 109.012 47.9705 108.26 47.9705 107.284C47.9705 106.634 47.9009 106.081 47.7617 105.624C47.625 105.168 47.4272 104.82 47.1683 104.58C46.9119 104.341 46.603 104.221 46.2416 104.221C45.6995 104.221 45.2758 104.489 44.9706 105.024C44.6653 105.556 44.5127 106.309 44.5127 107.284C44.5127 107.933 44.5811 108.485 44.7178 108.939C44.8546 109.393 45.0511 109.739 45.3075 109.976C45.5664 110.213 45.8777 110.331 46.2416 110.331ZM52.6884 111.137C52.1365 111.137 51.6664 110.987 51.2782 110.686C50.8899 110.384 50.5932 109.945 50.3881 109.371C50.1829 108.795 50.0804 108.099 50.0804 107.284C50.0804 106.473 50.1829 105.781 50.3881 105.207C50.5956 104.63 50.8935 104.191 51.2818 103.888C51.6725 103.583 52.1414 103.43 52.6884 103.43C53.2354 103.43 53.703 103.583 54.0913 103.888C54.482 104.191 54.7799 104.63 54.9851 105.207C55.1926 105.781 55.2964 106.473 55.2964 107.284C55.2964 108.099 55.1938 108.795 54.9887 109.371C54.7836 109.945 54.4869 110.384 54.0986 110.686C53.7104 110.987 53.2403 111.137 52.6884 111.137ZM52.6884 110.331C53.2354 110.331 53.6603 110.067 53.9631 109.54C54.2659 109.012 54.4173 108.26 54.4173 107.284C54.4173 106.634 54.3477 106.081 54.2085 105.624C54.0718 105.168 53.874 104.82 53.6151 104.58C53.3587 104.341 53.0498 104.221 52.6884 104.221C52.1463 104.221 51.7226 104.489 51.4173 105.024C51.1121 105.556 50.9595 106.309 50.9595 107.284C50.9595 107.933 51.0279 108.485 51.1646 108.939C51.3014 109.393 51.4979 109.739 51.7543 109.976C52.0132 110.213 52.3245 110.331 52.6884 110.331ZM56.8202 111.034V103.533H57.7286V107.254H57.8165L61.1864 103.533H62.3732L59.2231 106.917L62.3732 111.034H61.2743L58.6663 107.547L57.7286 108.602V111.034H56.8202Z" fill="#98959E"/>
<path d="M37.2005 149.207H38.1236C38.1504 149.461 38.2371 149.676 38.3837 149.852C38.5326 150.025 38.7255 150.157 38.9624 150.247C39.1993 150.335 39.4618 150.379 39.7499 150.379C40.0625 150.379 40.3433 150.327 40.5924 150.222C40.8415 150.117 41.0393 149.96 41.1858 149.753C41.3323 149.543 41.4056 149.283 41.4056 148.973C41.4056 148.702 41.3421 148.45 41.2151 148.218C41.0881 147.984 40.8842 147.794 40.6034 147.65C40.3226 147.506 39.9502 147.434 39.4862 147.434H38.8855V146.702L40.7609 144.445V144.387H37.5668V143.581H42.0063V144.24L39.999 146.672V146.731C40.3214 146.746 40.6217 146.812 40.9001 146.929C41.1809 147.046 41.4251 147.205 41.6327 147.405C41.8427 147.605 42.0063 147.838 42.1235 148.105C42.2407 148.371 42.2993 148.66 42.2993 148.973C42.2993 149.4 42.1895 149.781 41.9697 150.116C41.7523 150.448 41.4508 150.709 41.0649 150.899C40.6815 151.09 40.2383 151.185 39.7353 151.185C39.2908 151.185 38.8818 151.107 38.5082 150.951C38.1346 150.794 37.8306 150.568 37.5961 150.273C37.3617 149.978 37.2298 149.622 37.2005 149.207ZM46.2416 151.185C45.6897 151.185 45.2196 151.035 44.8314 150.735C44.4431 150.432 44.1464 149.993 43.9413 149.42C43.7361 148.843 43.6336 148.147 43.6336 147.332C43.6336 146.521 43.7361 145.829 43.9413 145.255C44.1488 144.678 44.4468 144.239 44.835 143.936C45.2257 143.631 45.6946 143.478 46.2416 143.478C46.7886 143.478 47.2562 143.631 47.6445 143.936C48.0352 144.239 48.3331 144.678 48.5383 145.255C48.7458 145.829 48.8496 146.521 48.8496 147.332C48.8496 148.147 48.7471 148.843 48.5419 149.42C48.3368 149.993 48.0401 150.432 47.6518 150.735C47.2636 151.035 46.7935 151.185 46.2416 151.185ZM46.2416 150.379C46.7886 150.379 47.2135 150.116 47.5163 149.588C47.8191 149.061 47.9705 148.308 47.9705 147.332C47.9705 146.682 47.9009 146.129 47.7617 145.672C47.625 145.216 47.4272 144.868 47.1683 144.628C46.9119 144.389 46.603 144.269 46.2416 144.269C45.6995 144.269 45.2758 144.537 44.9706 145.072C44.6653 145.604 44.5127 146.357 44.5127 147.332C44.5127 147.981 44.5811 148.533 44.7178 148.987C44.8546 149.442 45.0511 149.787 45.3075 150.024C45.5664 150.261 45.8777 150.379 46.2416 150.379ZM52.6884 151.185C52.1365 151.185 51.6664 151.035 51.2782 150.735C50.8899 150.432 50.5932 149.993 50.3881 149.42C50.1829 148.843 50.0804 148.147 50.0804 147.332C50.0804 146.521 50.1829 145.829 50.3881 145.255C50.5956 144.678 50.8935 144.239 51.2818 143.936C51.6725 143.631 52.1414 143.478 52.6884 143.478C53.2354 143.478 53.703 143.631 54.0913 143.936C54.482 144.239 54.7799 144.678 54.9851 145.255C55.1926 145.829 55.2964 146.521 55.2964 147.332C55.2964 148.147 55.1938 148.843 54.9887 149.42C54.7836 149.993 54.4869 150.432 54.0986 150.735C53.7104 151.035 53.2403 151.185 52.6884 151.185ZM52.6884 150.379C53.2354 150.379 53.6603 150.116 53.9631 149.588C54.2659 149.061 54.4173 148.308 54.4173 147.332C54.4173 146.682 54.3477 146.129 54.2085 145.672C54.0718 145.216 53.874 144.868 53.6151 144.628C53.3587 144.389 53.0498 144.269 52.6884 144.269C52.1463 144.269 51.7226 144.537 51.4173 145.072C51.1121 145.604 50.9595 146.357 50.9595 147.332C50.9595 147.981 51.0279 148.533 51.1646 148.987C51.3014 149.442 51.4979 149.787 51.7543 150.024C52.0132 150.261 52.3245 150.379 52.6884 150.379ZM56.8202 151.083V143.581H57.7286V147.302H57.8165L61.1864 143.581H62.3732L59.2231 146.965L62.3732 151.083H61.2743L58.6663 147.595L57.7286 148.65V151.083H56.8202Z" fill="#98959E"/>
<path d="M59.4172 191.233C58.8653 191.233 58.3953 191.083 58.007 190.783C57.6187 190.48 57.322 190.041 57.1169 189.468C56.9118 188.891 56.8092 188.195 56.8092 187.38C56.8092 186.569 56.9118 185.877 57.1169 185.303C57.3245 184.727 57.6224 184.287 58.0107 183.984C58.4014 183.679 58.8702 183.526 59.4172 183.526C59.9642 183.526 60.4319 183.679 60.8201 183.984C61.2109 184.287 61.5088 184.727 61.7139 185.303C61.9215 185.877 62.0252 186.569 62.0252 187.38C62.0252 188.195 61.9227 188.891 61.7176 189.468C61.5124 190.041 61.2157 190.48 60.8275 190.783C60.4392 191.083 59.9691 191.233 59.4172 191.233ZM59.4172 190.427C59.9642 190.427 60.3891 190.164 60.6919 189.636C60.9947 189.109 61.1461 188.357 61.1461 187.38C61.1461 186.73 61.0765 186.177 60.9374 185.72C60.8006 185.264 60.6028 184.916 60.344 184.676C60.0875 184.437 59.7786 184.318 59.4172 184.318C58.8751 184.318 58.4514 184.585 58.1462 185.12C57.8409 185.652 57.6883 186.405 57.6883 187.38C57.6883 188.029 57.7567 188.581 57.8934 189.035C58.0302 189.49 58.2268 189.835 58.4832 190.072C58.742 190.309 59.0534 190.427 59.4172 190.427Z" fill="#98959E"/>
<line x1="76.8236" y1="73.3097" x2="300.819" y2="73.3097" stroke="#131313" stroke-width="0.859572" stroke-linecap="round"/>
<line x1="76.8236" y1="114.283" x2="300.819" y2="114.283" stroke="#131313" stroke-width="0.859572" stroke-linecap="round"/>
<line x1="76.8236" y1="155.256" x2="300.819" y2="155.256" stroke="#131313" stroke-width="0.859572" stroke-linecap="round"/>
<line x1="76.8236" y1="196.228" x2="300.819" y2="196.228" stroke="#1C1C1C" stroke-opacity="0.2" stroke-width="0.859572" stroke-linecap="round"/>
<path d="M87.3473 212.347C87.3034 211.976 87.1251 211.688 86.8125 211.482C86.5 211.277 86.1166 211.175 85.6624 211.175C85.3303 211.175 85.0397 211.228 84.7906 211.336C84.5439 211.443 84.351 211.591 84.2118 211.779C84.0751 211.967 84.0067 212.181 84.0067 212.42C84.0067 212.62 84.0543 212.793 84.1496 212.937C84.2472 213.078 84.3718 213.197 84.5232 213.292C84.6746 213.385 84.8333 213.462 84.9994 213.523C85.1654 213.581 85.318 213.629 85.4572 213.666L86.2191 213.871C86.4145 213.922 86.6318 213.993 86.8711 214.083C87.1129 214.173 87.3437 214.297 87.5634 214.453C87.7857 214.607 87.9688 214.805 88.1129 215.046C88.257 215.288 88.329 215.585 88.329 215.937C88.329 216.342 88.2228 216.708 88.0103 217.035C87.8003 217.363 87.4926 217.623 87.0872 217.816C86.6843 218.009 86.1947 218.105 85.6184 218.105C85.0812 218.105 84.616 218.018 84.2228 217.845C83.8321 217.672 83.5244 217.43 83.2998 217.12C83.0775 216.81 82.9518 216.449 82.9225 216.039H83.8602C83.8846 216.322 83.9798 216.557 84.1459 216.742C84.3144 216.926 84.5268 217.062 84.7833 217.153C85.0421 217.241 85.3205 217.285 85.6184 217.285C85.9652 217.285 86.2765 217.228 86.5525 217.116C86.8284 217.001 87.047 216.843 87.2081 216.64C87.3693 216.435 87.4499 216.195 87.4499 215.922C87.4499 215.673 87.3803 215.47 87.2411 215.314C87.1019 215.158 86.9188 215.031 86.6917 214.933C86.4645 214.835 86.2191 214.75 85.9554 214.676L85.0323 214.413C84.4463 214.244 83.9823 214.004 83.6404 213.691C83.2985 213.379 83.1276 212.97 83.1276 212.464C83.1276 212.044 83.2412 211.678 83.4683 211.365C83.6978 211.05 84.0055 210.806 84.3913 210.633C84.7796 210.457 85.213 210.369 85.6917 210.369C86.1752 210.369 86.605 210.456 86.981 210.629C87.3571 210.8 87.655 211.034 87.8748 211.332C88.097 211.63 88.2142 211.968 88.2264 212.347H87.3473ZM96.1521 214.222C96.1521 215.013 96.0093 215.697 95.7236 216.274C95.4379 216.85 95.0459 217.294 94.5478 217.607C94.0496 217.919 93.4806 218.076 92.8408 218.076C92.201 218.076 91.6321 217.919 91.1339 217.607C90.6357 217.294 90.2438 216.85 89.9581 216.274C89.6724 215.697 89.5295 215.013 89.5295 214.222C89.5295 213.431 89.6724 212.747 89.9581 212.171C90.2438 211.595 90.6357 211.15 91.1339 210.838C91.6321 210.525 92.201 210.369 92.8408 210.369C93.4806 210.369 94.0496 210.525 94.5478 210.838C95.0459 211.15 95.4379 211.595 95.7236 212.171C96.0093 212.747 96.1521 213.431 96.1521 214.222ZM95.273 214.222C95.273 213.573 95.1644 213.024 94.947 212.578C94.7321 212.131 94.4403 211.793 94.0716 211.563C93.7053 211.333 93.295 211.219 92.8408 211.219C92.3866 211.219 91.9751 211.333 91.6064 211.563C91.2401 211.793 90.9483 212.131 90.731 212.578C90.5161 213.024 90.4086 213.573 90.4086 214.222C90.4086 214.872 90.5161 215.42 90.731 215.867C90.9483 216.314 91.2401 216.652 91.6064 216.882C91.9751 217.111 92.3866 217.226 92.8408 217.226C93.295 217.226 93.7053 217.111 94.0716 216.882C94.4403 216.652 94.7321 216.314 94.947 215.867C95.1644 215.42 95.273 214.872 95.273 214.222ZM97.6796 217.973V210.471H98.588V217.167H102.075V217.973H97.6796Z" fill="#98959E"/>
<path d="M110.948 211.277V210.471H116.574V211.277H114.215V217.973H113.306V211.277H110.948ZM122.899 210.471H123.807V215.438C123.807 215.951 123.686 216.409 123.445 216.812C123.205 217.212 122.867 217.529 122.43 217.761C121.993 217.99 121.48 218.105 120.892 218.105C120.303 218.105 119.79 217.99 119.353 217.761C118.916 217.529 118.577 217.212 118.335 216.812C118.095 216.409 117.976 215.951 117.976 215.438V210.471H118.884V215.365C118.884 215.731 118.965 216.057 119.126 216.343C119.287 216.626 119.517 216.85 119.815 217.013C120.115 217.175 120.474 217.255 120.892 217.255C121.309 217.255 121.668 217.175 121.968 217.013C122.269 216.85 122.498 216.626 122.657 216.343C122.818 216.057 122.899 215.731 122.899 215.365V210.471ZM129.724 212.347C129.68 211.976 129.502 211.688 129.189 211.482C128.876 211.277 128.493 211.175 128.039 211.175C127.707 211.175 127.416 211.228 127.167 211.336C126.92 211.443 126.728 211.591 126.588 211.779C126.452 211.967 126.383 212.181 126.383 212.42C126.383 212.62 126.431 212.793 126.526 212.937C126.624 213.078 126.748 213.197 126.9 213.292C127.051 213.385 127.21 213.462 127.376 213.523C127.542 213.581 127.695 213.629 127.834 213.666L128.596 213.871C128.791 213.922 129.008 213.993 129.248 214.083C129.489 214.173 129.72 214.297 129.94 214.453C130.162 214.607 130.345 214.805 130.489 215.046C130.633 215.288 130.705 215.585 130.705 215.937C130.705 216.342 130.599 216.708 130.387 217.035C130.177 217.363 129.869 217.623 129.464 217.816C129.061 218.009 128.571 218.105 127.995 218.105C127.458 218.105 126.992 218.018 126.599 217.845C126.209 217.672 125.901 217.43 125.676 217.12C125.454 216.81 125.328 216.449 125.299 216.039H126.237C126.261 216.322 126.356 216.557 126.522 216.742C126.691 216.926 126.903 217.062 127.16 217.153C127.419 217.241 127.697 217.285 127.995 217.285C128.342 217.285 128.653 217.228 128.929 217.116C129.205 217.001 129.423 216.843 129.585 216.64C129.746 216.435 129.826 216.195 129.826 215.922C129.826 215.673 129.757 215.47 129.618 215.314C129.478 215.158 129.295 215.031 129.068 214.933C128.841 214.835 128.596 214.75 128.332 214.676L127.409 214.413C126.823 214.244 126.359 214.004 126.017 213.691C125.675 213.379 125.504 212.97 125.504 212.464C125.504 212.044 125.618 211.678 125.845 211.365C126.074 211.05 126.382 210.806 126.768 210.633C127.156 210.457 127.59 210.369 128.068 210.369C128.552 210.369 128.981 210.456 129.358 210.629C129.734 210.8 130.032 211.034 130.251 211.332C130.474 211.63 130.591 211.968 130.603 212.347H129.724ZM134.514 217.973H132.199V210.471H134.617C135.344 210.471 135.967 210.622 136.485 210.922C137.002 211.22 137.399 211.648 137.675 212.208C137.951 212.764 138.089 213.431 138.089 214.208C138.089 214.989 137.95 215.662 137.672 216.226C137.393 216.788 136.988 217.22 136.455 217.523C135.923 217.823 135.276 217.973 134.514 217.973ZM133.107 217.167H134.455C135.076 217.167 135.59 217.048 135.998 216.808C136.405 216.569 136.709 216.228 136.91 215.786C137.11 215.344 137.21 214.818 137.21 214.208C137.21 213.602 137.111 213.081 136.913 212.644C136.715 212.204 136.42 211.867 136.027 211.633C135.634 211.396 135.144 211.277 134.558 211.277H133.107V217.167Z" fill="#98959E"/>
<path d="M148.559 210.471H149.467V215.438C149.467 215.951 149.347 216.409 149.105 216.812C148.865 217.212 148.527 217.529 148.09 217.761C147.653 217.99 147.14 218.105 146.552 218.105C145.963 218.105 145.45 217.99 145.013 217.761C144.576 217.529 144.237 217.212 143.995 216.812C143.756 216.409 143.636 215.951 143.636 215.438V210.471H144.544V215.365C144.544 215.731 144.625 216.057 144.786 216.343C144.947 216.626 145.177 216.85 145.475 217.013C145.775 217.175 146.134 217.255 146.552 217.255C146.969 217.255 147.328 217.175 147.629 217.013C147.929 216.85 148.159 216.626 148.317 216.343C148.478 216.057 148.559 215.731 148.559 215.365V210.471ZM155.384 212.347C155.34 211.976 155.162 211.688 154.849 211.482C154.537 211.277 154.153 211.175 153.699 211.175C153.367 211.175 153.076 211.228 152.827 211.336C152.581 211.443 152.388 211.591 152.249 211.779C152.112 211.967 152.043 212.181 152.043 212.42C152.043 212.62 152.091 212.793 152.186 212.937C152.284 213.078 152.408 213.197 152.56 213.292C152.711 213.385 152.87 213.462 153.036 213.523C153.202 213.581 153.355 213.629 153.494 213.666L154.256 213.871C154.451 213.922 154.668 213.993 154.908 214.083C155.15 214.173 155.38 214.297 155.6 214.453C155.822 214.607 156.005 214.805 156.15 215.046C156.294 215.288 156.366 215.585 156.366 215.937C156.366 216.342 156.259 216.708 156.047 217.035C155.837 217.363 155.529 217.623 155.124 217.816C154.721 218.009 154.231 218.105 153.655 218.105C153.118 218.105 152.653 218.018 152.259 217.845C151.869 217.672 151.561 217.43 151.336 217.12C151.114 216.81 150.988 216.449 150.959 216.039H151.897C151.921 216.322 152.017 216.557 152.183 216.742C152.351 216.926 152.564 217.062 152.82 217.153C153.079 217.241 153.357 217.285 153.655 217.285C154.002 217.285 154.313 217.228 154.589 217.116C154.865 217.001 155.084 216.843 155.245 216.64C155.406 216.435 155.487 216.195 155.487 215.922C155.487 215.673 155.417 215.47 155.278 215.314C155.139 215.158 154.955 215.031 154.728 214.933C154.501 214.835 154.256 214.75 153.992 214.676L153.069 214.413C152.483 214.244 152.019 214.004 151.677 213.691C151.335 213.379 151.164 212.97 151.164 212.464C151.164 212.044 151.278 211.678 151.505 211.365C151.734 211.05 152.042 210.806 152.428 210.633C152.816 210.457 153.25 210.369 153.728 210.369C154.212 210.369 154.642 210.456 155.018 210.629C155.394 210.8 155.692 211.034 155.911 211.332C156.134 211.63 156.251 211.968 156.263 212.347H155.384ZM160.174 217.973H157.859V210.471H160.277C161.004 210.471 161.627 210.622 162.145 210.922C162.663 211.22 163.059 211.648 163.335 212.208C163.611 212.764 163.749 213.431 163.749 214.208C163.749 214.989 163.61 215.662 163.332 216.226C163.053 216.788 162.648 217.22 162.116 217.523C161.583 217.823 160.936 217.973 160.174 217.973ZM158.768 217.167H160.116C160.736 217.167 161.25 217.048 161.658 216.808C162.066 216.569 162.37 216.228 162.57 215.786C162.77 215.344 162.87 214.818 162.87 214.208C162.87 213.602 162.771 213.081 162.573 212.644C162.376 212.204 162.08 211.867 161.687 211.633C161.294 211.396 160.804 211.277 160.218 211.277H158.768V217.167ZM164.551 211.277V210.471H170.177V211.277H167.818V217.973H166.909V211.277H164.551Z" fill="#98959E"/>
<path d="M180.681 210.471H181.589V215.438C181.589 215.951 181.469 216.409 181.227 216.812C180.988 217.212 180.649 217.529 180.212 217.761C179.775 217.99 179.262 218.105 178.674 218.105C178.085 218.105 177.572 217.99 177.135 217.761C176.698 217.529 176.359 217.212 176.117 216.812C175.878 216.409 175.758 215.951 175.758 215.438V210.471H176.666V215.365C176.666 215.731 176.747 216.057 176.908 216.343C177.069 216.626 177.299 216.85 177.597 217.013C177.897 217.175 178.256 217.255 178.674 217.255C179.091 217.255 179.45 217.175 179.751 217.013C180.051 216.85 180.281 216.626 180.439 216.343C180.6 216.057 180.681 215.731 180.681 215.365V210.471ZM187.506 212.347C187.462 211.976 187.284 211.688 186.971 211.482C186.659 211.277 186.275 211.175 185.821 211.175C185.489 211.175 185.198 211.228 184.949 211.336C184.703 211.443 184.51 211.591 184.371 211.779C184.234 211.967 184.165 212.181 184.165 212.42C184.165 212.62 184.213 212.793 184.308 212.937C184.406 213.078 184.531 213.197 184.682 213.292C184.833 213.385 184.992 213.462 185.158 213.523C185.324 213.581 185.477 213.629 185.616 213.666L186.378 213.871C186.573 213.922 186.791 213.993 187.03 214.083C187.272 214.173 187.502 214.297 187.722 214.453C187.944 214.607 188.128 214.805 188.272 215.046C188.416 215.288 188.488 215.585 188.488 215.937C188.488 216.342 188.382 216.708 188.169 217.035C187.959 217.363 187.651 217.623 187.246 217.816C186.843 218.009 186.353 218.105 185.777 218.105C185.24 218.105 184.775 218.018 184.382 217.845C183.991 217.672 183.683 217.43 183.458 217.12C183.236 216.81 183.111 216.449 183.081 216.039H184.019C184.043 216.322 184.139 216.557 184.305 216.742C184.473 216.926 184.686 217.062 184.942 217.153C185.201 217.241 185.479 217.285 185.777 217.285C186.124 217.285 186.435 217.228 186.711 217.116C186.987 217.001 187.206 216.843 187.367 216.64C187.528 216.435 187.609 216.195 187.609 215.922C187.609 215.673 187.539 215.47 187.4 215.314C187.261 215.158 187.077 215.031 186.85 214.933C186.623 214.835 186.378 214.75 186.114 214.676L185.191 214.413C184.605 214.244 184.141 214.004 183.799 213.691C183.457 213.379 183.286 212.97 183.286 212.464C183.286 212.044 183.4 211.678 183.627 211.365C183.857 211.05 184.164 210.806 184.55 210.633C184.938 210.457 185.372 210.369 185.85 210.369C186.334 210.369 186.764 210.456 187.14 210.629C187.516 210.8 187.814 211.034 188.034 211.332C188.256 211.63 188.373 211.968 188.385 212.347H187.506ZM192.296 217.973H189.981V210.471H192.399C193.127 210.471 193.749 210.622 194.267 210.922C194.785 211.22 195.181 211.648 195.457 212.208C195.733 212.764 195.871 213.431 195.871 214.208C195.871 214.989 195.732 215.662 195.454 216.226C195.175 216.788 194.77 217.22 194.238 217.523C193.705 217.823 193.058 217.973 192.296 217.973ZM190.89 217.167H192.238C192.858 217.167 193.372 217.048 193.78 216.808C194.188 216.569 194.492 216.228 194.692 215.786C194.892 215.344 194.992 214.818 194.992 214.208C194.992 213.602 194.893 213.081 194.696 212.644C194.498 212.204 194.202 211.867 193.809 211.633C193.416 211.396 192.926 211.277 192.34 211.277H190.89V217.167ZM196.673 211.277V210.471H202.299V211.277H199.94V217.973H199.032V211.277H196.673Z" fill="#98959E"/>
<path d="M215.786 217.973H213.471V210.471H215.888C216.616 210.471 217.239 210.622 217.756 210.922C218.274 211.22 218.671 211.648 218.947 212.208C219.223 212.764 219.361 213.431 219.361 214.208C219.361 214.989 219.222 215.662 218.943 216.226C218.665 216.788 218.259 217.22 217.727 217.523C217.195 217.823 216.548 217.973 215.786 217.973ZM214.379 217.167H215.727C216.347 217.167 216.861 217.048 217.269 216.808C217.677 216.569 217.981 216.228 218.181 215.786C218.382 215.344 218.482 214.818 218.482 214.208C218.482 213.602 218.383 213.081 218.185 212.644C217.987 212.204 217.692 211.867 217.298 211.633C216.905 211.396 216.416 211.277 215.83 211.277H214.379V217.167ZM220.84 217.973H219.887L222.642 210.471H223.58L226.334 217.973H225.382L223.14 211.658H223.081L220.84 217.973ZM221.191 215.043H225.03V215.849H221.191V215.043ZM228.411 210.471V217.973H227.503V210.471H228.411Z" fill="#98959E"/>
<path d="M242.599 211.277V210.471H248.225V211.277H245.866V217.973H244.958V211.277H242.599ZM255.645 214.222C255.645 215.013 255.502 215.697 255.216 216.274C254.93 216.85 254.538 217.294 254.04 217.607C253.542 217.919 252.973 218.076 252.333 218.076C251.694 218.076 251.125 217.919 250.626 217.607C250.128 217.294 249.736 216.85 249.451 216.274C249.165 215.697 249.022 215.013 249.022 214.222C249.022 213.431 249.165 212.747 249.451 212.171C249.736 211.595 250.128 211.15 250.626 210.838C251.125 210.525 251.694 210.369 252.333 210.369C252.973 210.369 253.542 210.525 254.04 210.838C254.538 211.15 254.93 211.595 255.216 212.171C255.502 212.747 255.645 213.431 255.645 214.222ZM254.766 214.222C254.766 213.573 254.657 213.024 254.44 212.578C254.225 212.131 253.933 211.793 253.564 211.563C253.198 211.333 252.788 211.219 252.333 211.219C251.879 211.219 251.468 211.333 251.099 211.563C250.733 211.793 250.441 212.131 250.223 212.578C250.009 213.024 249.901 213.573 249.901 214.222C249.901 214.872 250.009 215.42 250.223 215.867C250.441 216.314 250.733 216.652 251.099 216.882C251.468 217.111 251.879 217.226 252.333 217.226C252.788 217.226 253.198 217.111 253.564 216.882C253.933 216.652 254.225 216.314 254.44 215.867C254.657 215.42 254.766 214.872 254.766 214.222ZM263.121 210.471V217.973H262.242L258.154 212.083H258.08V217.973H257.172V210.471H258.051L262.154 216.376H262.227V210.471H263.121Z" fill="#98959E"/>
<path d="M278.595 214.222C278.595 215.013 278.452 215.697 278.167 216.274C277.881 216.85 277.489 217.294 276.991 217.607C276.493 217.919 275.924 218.076 275.284 218.076C274.644 218.076 274.075 217.919 273.577 217.607C273.079 217.294 272.687 216.85 272.401 216.274C272.115 215.697 271.973 215.013 271.973 214.222C271.973 213.431 272.115 212.747 272.401 212.171C272.687 211.595 273.079 211.15 273.577 210.838C274.075 210.525 274.644 210.369 275.284 210.369C275.924 210.369 276.493 210.525 276.991 210.838C277.489 211.15 277.881 211.595 278.167 212.171C278.452 212.747 278.595 213.431 278.595 214.222ZM277.716 214.222C277.716 213.573 277.607 213.024 277.39 212.578C277.175 212.131 276.883 211.793 276.515 211.563C276.148 211.333 275.738 211.219 275.284 211.219C274.83 211.219 274.418 211.333 274.049 211.563C273.683 211.793 273.391 212.131 273.174 212.578C272.959 213.024 272.852 213.573 272.852 214.222C272.852 214.872 272.959 215.42 273.174 215.867C273.391 216.314 273.683 216.652 274.049 216.882C274.418 217.111 274.83 217.226 275.284 217.226C275.738 217.226 276.148 217.111 276.515 216.882C276.883 216.652 277.175 216.314 277.39 215.867C277.607 215.42 277.716 214.872 277.716 214.222ZM282.452 212.347V213.079H279.536V212.347H282.452ZM280.386 210.999H281.251V216.361C281.251 216.606 281.286 216.789 281.357 216.911C281.43 217.031 281.523 217.111 281.635 217.153C281.75 217.192 281.871 217.211 281.998 217.211C282.093 217.211 282.171 217.206 282.232 217.197C282.293 217.184 282.342 217.175 282.379 217.167L282.555 217.944C282.496 217.966 282.414 217.988 282.309 218.01C282.204 218.034 282.071 218.046 281.91 218.046C281.666 218.046 281.427 217.994 281.192 217.889C280.96 217.784 280.767 217.624 280.613 217.409C280.462 217.194 280.386 216.923 280.386 216.596V210.999ZM284.738 214.589V217.973H283.873V210.471H284.738V213.226H284.811C284.943 212.935 285.141 212.705 285.405 212.534C285.671 212.36 286.025 212.274 286.467 212.274C286.85 212.274 287.186 212.351 287.474 212.504C287.762 212.656 287.986 212.889 288.144 213.204C288.306 213.517 288.386 213.915 288.386 214.398V217.973H287.522V214.457C287.522 214.01 287.406 213.664 287.174 213.42C286.944 213.173 286.626 213.05 286.218 213.05C285.934 213.05 285.68 213.11 285.456 213.23C285.234 213.349 285.058 213.524 284.928 213.753C284.801 213.983 284.738 214.261 284.738 214.589ZM292.327 218.09C291.784 218.09 291.317 217.971 290.924 217.731C290.533 217.49 290.231 217.153 290.019 216.72C289.809 216.286 289.704 215.78 289.704 215.204C289.704 214.628 289.809 214.12 290.019 213.68C290.231 213.238 290.527 212.894 290.905 212.647C291.286 212.398 291.731 212.274 292.239 212.274C292.532 212.274 292.821 212.322 293.107 212.42C293.393 212.518 293.653 212.677 293.887 212.896C294.121 213.114 294.308 213.402 294.447 213.761C294.587 214.12 294.656 214.562 294.656 215.087V215.453H290.319V214.706H293.777C293.777 214.388 293.714 214.105 293.587 213.856C293.462 213.607 293.284 213.41 293.052 213.266C292.822 213.122 292.551 213.05 292.239 213.05C291.894 213.05 291.596 213.136 291.345 213.307C291.096 213.475 290.904 213.695 290.77 213.966C290.636 214.237 290.568 214.528 290.568 214.838V215.336C290.568 215.761 290.642 216.121 290.788 216.416C290.937 216.709 291.143 216.933 291.407 217.087C291.671 217.238 291.977 217.314 292.327 217.314C292.554 217.314 292.759 217.282 292.942 217.219C293.128 217.153 293.288 217.055 293.422 216.926C293.556 216.794 293.66 216.63 293.733 216.435L294.568 216.669C294.48 216.952 294.333 217.201 294.125 217.416C293.918 217.629 293.661 217.795 293.356 217.915C293.051 218.032 292.708 218.09 292.327 218.09ZM295.971 217.973V212.347H296.806V213.197H296.865C296.968 212.918 297.153 212.692 297.422 212.519C297.69 212.346 297.993 212.259 298.33 212.259C298.394 212.259 298.473 212.26 298.568 212.263C298.664 212.265 298.736 212.269 298.784 212.274V213.153C298.755 213.145 298.688 213.134 298.583 213.12C298.48 213.103 298.372 213.094 298.257 213.094C297.983 213.094 297.739 213.151 297.524 213.266C297.312 213.379 297.143 213.535 297.019 213.735C296.897 213.933 296.836 214.159 296.836 214.413V217.973H295.971Z" fill="#98959E"/>
<path d="M84.3044 140.787C84.3044 138.888 85.8438 137.349 87.7427 137.349H96.3385C98.2374 137.349 99.7767 138.888 99.7767 140.787V195.8H84.3044V140.787Z" fill="#4E826F"/>
<path d="M116.354 129.612C116.354 127.713 117.894 126.174 119.793 126.174H128.388C130.287 126.174 131.827 127.713 131.827 129.612V195.799H116.354V129.612Z" fill="#5C4193"/>
<path d="M148.404 138.208C148.404 136.309 149.943 134.77 151.842 134.77H160.438C162.337 134.77 163.876 136.309 163.876 138.208V195.799H148.404V138.208Z" fill="#1C1C1C"/>
<path d="M180.454 129.612C180.454 127.713 181.993 126.174 183.892 126.174H192.488C194.387 126.174 195.926 127.713 195.926 129.612V195.799H180.454V129.612Z" fill="#5C4193"/>
<path d="M212.503 123.595C212.503 121.696 214.043 120.157 215.942 120.157H224.537C226.436 120.157 227.976 121.696 227.976 123.595V195.799H212.503V123.595Z" fill="#4E826F"/>
<path d="M244.553 96.089C244.553 94.1901 246.093 92.6508 247.992 92.6508H256.587C258.486 92.6508 260.026 94.1901 260.026 96.089V195.799H244.553V96.089Z" fill="#2A6D93"/>
<path d="M276.603 169.153C276.603 167.254 278.142 165.714 280.041 165.714H288.637C290.536 165.714 292.075 167.254 292.075 169.153V195.799H276.603V169.153Z" fill="#5A66A8"/>
<rect x="0.475835" y="0.475835" width="335.939" height="263.305" rx="22.3642" stroke="#1D1D1D" stroke-width="0.95167"/>
</svg>
