<svg width="55" height="55" viewBox="0 0 55 55" fill="none" xmlns="http://www.w3.org/2000/svg">
<path d="M27.5001 1.625C34.2156 7.5664 42.9805 10.6599 51.9376 10.25C53.2417 14.6862 53.6407 19.3392 53.111 23.9326C52.5812 28.5261 51.1335 32.9661 48.8539 36.989C46.5743 41.0119 43.5093 44.5355 39.8409 47.3504C36.1726 50.1653 31.9759 52.2141 27.5001 53.375M27.5001 1.625C20.7846 7.5664 12.0198 10.6599 3.06263 10.25C1.75856 14.6862 1.35953 19.3392 1.88928 23.9326C2.41902 28.5261 3.86672 32.9661 6.14635 36.989C8.42597 41.0119 11.491 44.5355 15.1593 47.3504C18.8276 50.1653 23.0244 52.2141 27.5001 53.375M27.5001 1.625V53.375M27.5003 24.625H53.0878M27.5003 16H53.0878M27.5003 7.375H36.4128M27.5003 41.875H45.3253M27.5003 33.25H50.5003" stroke="#AB86FA" stroke-width="3" stroke-linecap="round" stroke-linejoin="round"/>
<path d="M27.5001 1.625C34.2156 7.5664 42.9805 10.6599 51.9376 10.25C53.2417 14.6862 53.6407 19.3392 53.111 23.9326C52.5812 28.5261 51.1335 32.9661 48.8539 36.989C46.5743 41.0119 43.5093 44.5355 39.8409 47.3504C36.1726 50.1653 31.9759 52.2141 27.5001 53.375M27.5001 1.625C20.7846 7.5664 12.0198 10.6599 3.06263 10.25C1.75856 14.6862 1.35953 19.3392 1.88928 23.9326C2.41902 28.5261 3.86672 32.9661 6.14635 36.989C8.42597 41.0119 11.491 44.5355 15.1593 47.3504C18.8276 50.1653 23.0244 52.2141 27.5001 53.375M27.5001 1.625V53.375M27.5003 24.625H53.0878M27.5003 16H53.0878M27.5003 7.375H36.4128M27.5003 41.875H45.3253M27.5003 33.25H50.5003" stroke="url(#paint0_linear_39477_8265)" stroke-width="3" stroke-linecap="round" stroke-linejoin="round"/>
<defs>
<linearGradient id="paint0_linear_39477_8265" x1="-10.8792" y1="53.5263" x2="61.7113" y2="5.80588" gradientUnits="userSpaceOnUse">
<stop stop-color="#AA83FF"/>
<stop offset="1" stop-color="#D7C4FF"/>
</linearGradient>
</defs>
</svg>
