<svg width="46" height="63" viewBox="0 0 46 63" fill="none" xmlns="http://www.w3.org/2000/svg">
<path d="M4.807 29.7699C2.96638 32.9363 1.9983 36.5273 2 40.1822C2.00171 43.8371 2.97313 47.4272 4.8167 50.5918C6.66027 53.7565 9.31106 56.3843 12.5028 58.2113C15.6945 60.0382 19.3148 61 23 61C26.6852 61 30.3055 60.0382 33.4972 58.2113C36.6889 56.3843 39.3397 53.7565 41.1833 50.5918C43.0269 47.4272 43.9983 43.8371 44 40.1822C44.0017 36.5273 43.0336 32.9363 41.193 29.7699L23.0035 2L4.8035 29.7699H4.807Z" stroke="#AB86FA" stroke-width="4" stroke-linecap="round" stroke-linejoin="round"/>
<path d="M4.807 29.7699C2.96638 32.9363 1.9983 36.5273 2 40.1822C2.00171 43.8371 2.97313 47.4272 4.8167 50.5918C6.66027 53.7565 9.31106 56.3843 12.5028 58.2113C15.6945 60.0382 19.3148 61 23 61C26.6852 61 30.3055 60.0382 33.4972 58.2113C36.6889 56.3843 39.3397 53.7565 41.1833 50.5918C43.0269 47.4272 43.9983 43.8371 44 40.1822C44.0017 36.5273 43.0336 32.9363 41.193 29.7699L23.0035 2L4.8035 29.7699H4.807Z" stroke="url(#paint0_linear_39466_96065)" stroke-width="4" stroke-linecap="round" stroke-linejoin="round"/>
<defs>
<linearGradient id="paint0_linear_39466_96065" x1="-8.19298" y1="61.1725" x2="61.0866" y2="28.705" gradientUnits="userSpaceOnUse">
<stop stop-color="#AA83FF"/>
<stop offset="1" stop-color="#D7C4FF"/>
</linearGradient>
</defs>
</svg>
