<svg width="89" height="89" viewBox="0 0 89 89" fill="none" xmlns="http://www.w3.org/2000/svg">
<path d="M34.2504 54.7495C35.9205 56.4541 37.914 57.8082 40.1141 58.7327C42.3141 59.6572 44.6765 60.1334 47.0629 60.1334C49.4493 60.1334 51.8117 59.6572 54.0118 58.7327C56.2118 57.8082 58.2053 56.4541 59.8754 54.7495L80.3754 34.2495C83.7735 30.8514 85.6825 26.2426 85.6825 21.437C85.6825 16.6314 83.7735 12.0226 80.3754 8.62449C76.9773 5.22641 72.3685 3.31738 67.5629 3.31738C62.7573 3.31738 58.1485 5.22641 54.7504 8.62449L52.1879 11.187M54.7505 34.2499C53.0803 32.5454 51.0869 31.1912 48.8868 30.2667C46.6868 29.3422 44.3244 28.8661 41.938 28.8661C39.5516 28.8661 37.1892 29.3422 34.9891 30.2667C32.7891 31.1912 30.7956 32.5454 29.1255 34.2499L8.62547 54.7499C5.22738 58.148 3.31836 62.7568 3.31836 67.5624C3.31836 72.368 5.22738 76.9768 8.62547 80.3749C12.0236 83.773 16.6324 85.682 21.438 85.682C26.2436 85.682 30.8524 83.773 34.2505 80.3749L36.813 77.8124" stroke="#AB86FA" stroke-width="5" stroke-linecap="round" stroke-linejoin="round"/>
<path d="M34.2504 54.7495C35.9205 56.4541 37.914 57.8082 40.1141 58.7327C42.3141 59.6572 44.6765 60.1334 47.0629 60.1334C49.4493 60.1334 51.8117 59.6572 54.0118 58.7327C56.2118 57.8082 58.2053 56.4541 59.8754 54.7495L80.3754 34.2495C83.7735 30.8514 85.6825 26.2426 85.6825 21.437C85.6825 16.6314 83.7735 12.0226 80.3754 8.62449C76.9773 5.22641 72.3685 3.31738 67.5629 3.31738C62.7573 3.31738 58.1485 5.22641 54.7504 8.62449L52.1879 11.187M54.7505 34.2499C53.0803 32.5454 51.0869 31.1912 48.8868 30.2667C46.6868 29.3422 44.3244 28.8661 41.938 28.8661C39.5516 28.8661 37.1892 29.3422 34.9891 30.2667C32.7891 31.1912 30.7956 32.5454 29.1255 34.2499L8.62547 54.7499C5.22738 58.148 3.31836 62.7568 3.31836 67.5624C3.31836 72.368 5.22738 76.9768 8.62547 80.3749C12.0236 83.773 16.6324 85.682 21.438 85.682C26.2436 85.682 30.8524 83.773 34.2505 80.3749L36.813 77.8124" stroke="url(#paint0_linear_39477_13015)" stroke-width="5" stroke-linecap="round" stroke-linejoin="round"/>
<defs>
<linearGradient id="paint0_linear_39477_13015" x1="-16.6706" y1="85.9229" x2="98.9286" y2="9.82049" gradientUnits="userSpaceOnUse">
<stop stop-color="#AA83FF"/>
<stop offset="1" stop-color="#D7C4FF"/>
</linearGradient>
</defs>
</svg>
