<svg width="74" height="85" viewBox="0 0 74 85" fill="none" xmlns="http://www.w3.org/2000/svg">
<path d="M35.0001 42.5V12.875C35.0001 11.3036 34.368 9.79655 33.2428 8.68539C32.1175 7.57424 30.5914 6.95 29.0001 6.95C27.4088 6.95 25.8827 7.57424 24.7574 8.68539C23.6322 9.79655 23.0001 11.3036 23.0001 12.875V46.45L17.1198 40.6435C15.942 39.4817 14.4048 38.7419 12.7524 38.5415C11.1001 38.3411 9.42729 38.6917 7.99978 39.5375C6.65956 40.331 5.68569 41.6094 5.28529 43.101C4.8849 44.5926 5.08956 46.1795 5.85577 47.5244C13.3718 60.7174 17.7518 68.2579 18.9998 70.15L19.7838 71.335C21.9699 74.613 24.9462 77.3035 28.4454 79.165C31.9446 81.0265 35.8572 82.0007 39.8319 82H38.9999H46.9999C53.3651 82 59.4697 79.503 63.9705 75.0584C68.4714 70.6138 71 64.5856 71 58.3V40.525C71 38.9536 70.3679 37.4465 69.2426 36.3354C68.1174 35.2242 66.5913 34.6 65 34.6C63.4087 34.6 61.8826 35.2242 60.7573 36.3354C59.6321 37.4465 59 38.9536 59 40.525M35.0001 40.525V32.625C35.0001 31.0536 35.6323 29.5465 36.7575 28.4354C37.8827 27.3242 39.4088 26.7 41.0001 26.7C42.5914 26.7 44.1176 27.3242 45.2428 28.4354C46.368 29.5465 47.0002 31.0536 47.0002 32.625V42.5M47.0002 36.575C47.0002 35.0036 47.6323 33.4965 48.7575 32.3854C49.8827 31.2742 51.4089 30.65 53.0002 30.65C54.5915 30.65 56.1176 31.2742 57.2428 32.3854C58.3681 33.4965 59.0002 35.0036 59.0002 36.575V42.5M11 6.95L7.00001 3M7.00001 22.75H3M47.0002 6.95L51.0002 3M51.0002 18.8H55.0002" stroke="#AB86FA" stroke-width="6" stroke-linecap="round" stroke-linejoin="round"/>
<path d="M35.0001 42.5V12.875C35.0001 11.3036 34.368 9.79655 33.2428 8.68539C32.1175 7.57424 30.5914 6.95 29.0001 6.95C27.4088 6.95 25.8827 7.57424 24.7574 8.68539C23.6322 9.79655 23.0001 11.3036 23.0001 12.875V46.45L17.1198 40.6435C15.942 39.4817 14.4048 38.7419 12.7524 38.5415C11.1001 38.3411 9.42729 38.6917 7.99978 39.5375C6.65956 40.331 5.68569 41.6094 5.28529 43.101C4.8849 44.5926 5.08956 46.1795 5.85577 47.5244C13.3718 60.7174 17.7518 68.2579 18.9998 70.15L19.7838 71.335C21.9699 74.613 24.9462 77.3035 28.4454 79.165C31.9446 81.0265 35.8572 82.0007 39.8319 82H38.9999H46.9999C53.3651 82 59.4697 79.503 63.9705 75.0584C68.4714 70.6138 71 64.5856 71 58.3V40.525C71 38.9536 70.3679 37.4465 69.2426 36.3354C68.1174 35.2242 66.5913 34.6 65 34.6C63.4087 34.6 61.8826 35.2242 60.7573 36.3354C59.6321 37.4465 59 38.9536 59 40.525M35.0001 40.525V32.625C35.0001 31.0536 35.6323 29.5465 36.7575 28.4354C37.8827 27.3242 39.4088 26.7 41.0001 26.7C42.5914 26.7 44.1176 27.3242 45.2428 28.4354C46.368 29.5465 47.0002 31.0536 47.0002 32.625V42.5M47.0002 36.575C47.0002 35.0036 47.6323 33.4965 48.7575 32.3854C49.8827 31.2742 51.4089 30.65 53.0002 30.65C54.5915 30.65 56.1176 31.2742 57.2428 32.3854C58.3681 33.4965 59.0002 35.0036 59.0002 36.575V42.5M11 6.95L7.00001 3M7.00001 22.75H3M47.0002 6.95L51.0002 3M51.0002 18.8H55.0002" stroke="url(#paint0_linear_39473_96388)" stroke-width="6" stroke-linecap="round" stroke-linejoin="round"/>
<defs>
<linearGradient id="paint0_linear_39473_96388" x1="-13.5029" y1="82.231" x2="90.0478" y2="23.5523" gradientUnits="userSpaceOnUse">
<stop stop-color="#AA83FF"/>
<stop offset="1" stop-color="#D7C4FF"/>
</linearGradient>
</defs>
</svg>
