<svg width="104" height="104" viewBox="0 0 104 104" fill="none" xmlns="http://www.w3.org/2000/svg">
<path d="M69.333 69.333V77.9997C69.333 80.2982 68.4199 82.5026 66.7946 84.1279C65.1693 85.7532 62.9649 86.6663 60.6663 86.6663H25.9997C23.7011 86.6663 21.4967 85.7532 19.8714 84.1279C18.2461 82.5026 17.333 80.2982 17.333 77.9997V43.333C17.333 41.0345 18.2461 38.8301 19.8714 37.2047C21.4967 35.5794 23.7011 34.6663 25.9997 34.6663H34.6663M43.333 17.333H77.9997C82.7861 17.333 86.6663 21.2132 86.6663 25.9997V60.6663C86.6663 65.4528 82.7861 69.333 77.9997 69.333H43.333C38.5465 69.333 34.6663 65.4528 34.6663 60.6663V25.9997C34.6663 21.2132 38.5465 17.333 43.333 17.333Z" stroke="#7335F7" stroke-width="7" stroke-linecap="round" stroke-linejoin="round"/>
<path d="M69.333 69.333V77.9997C69.333 80.2982 68.4199 82.5026 66.7946 84.1279C65.1693 85.7532 62.9649 86.6663 60.6663 86.6663H25.9997C23.7011 86.6663 21.4967 85.7532 19.8714 84.1279C18.2461 82.5026 17.333 80.2982 17.333 77.9997V43.333C17.333 41.0345 18.2461 38.8301 19.8714 37.2047C21.4967 35.5794 23.7011 34.6663 25.9997 34.6663H34.6663M43.333 17.333H77.9997C82.7861 17.333 86.6663 21.2132 86.6663 25.9997V60.6663C86.6663 65.4528 82.7861 69.333 77.9997 69.333H43.333C38.5465 69.333 34.6663 65.4528 34.6663 60.6663V25.9997C34.6663 21.2132 38.5465 17.333 43.333 17.333Z" stroke="url(#paint0_linear_39664_20148)" stroke-width="7" stroke-linecap="round" stroke-linejoin="round"/>
<defs>
<linearGradient id="paint0_linear_39664_20148" x1="0.506498" y1="86.8691" x2="97.8164" y2="22.8067" gradientUnits="userSpaceOnUse">
<stop stop-color="#AA83FF"/>
<stop offset="1" stop-color="#D7C4FF"/>
</linearGradient>
</defs>
</svg>
