<svg width="42" height="40" viewBox="0 0 42 40" fill="none" xmlns="http://www.w3.org/2000/svg">
<path d="M39.666 13.25V29C39.666 29.8951 39.3128 30.7535 38.684 31.3865C38.0552 32.0194 37.2023 32.375 36.3131 32.375C35.4238 32.375 34.571 32.0194 33.9422 31.3865C33.3134 30.7535 32.9601 29.8951 32.9601 29V22.25C32.9601 21.0565 32.4891 19.9119 31.6507 19.068C30.8123 18.2241 29.6752 17.75 28.4895 17.75H3.90131M39.666 13.25L32.9601 6.5M39.666 13.25H37.4307C36.8379 13.25 36.2693 13.0129 35.8501 12.591C35.4309 12.169 35.1954 11.5967 35.1954 11V8.75M3.90131 38V6.5C3.90131 5.30653 4.37232 4.16193 5.21071 3.31802C6.04911 2.47411 7.18622 2 8.3719 2H21.7837C22.9693 2 24.1064 2.47411 24.9448 3.31802C25.7832 4.16193 26.2543 5.30653 26.2543 6.5V38M1.66602 38H28.4895" stroke="#AB86FA" stroke-width="3" stroke-linecap="round" stroke-linejoin="round"/>
<path d="M39.666 13.25V29C39.666 29.8951 39.3128 30.7535 38.684 31.3865C38.0552 32.0194 37.2023 32.375 36.3131 32.375C35.4238 32.375 34.571 32.0194 33.9422 31.3865C33.3134 30.7535 32.9601 29.8951 32.9601 29V22.25C32.9601 21.0565 32.4891 19.9119 31.6507 19.068C30.8123 18.2241 29.6752 17.75 28.4895 17.75H3.90131M39.666 13.25L32.9601 6.5M39.666 13.25H37.4307C36.8379 13.25 36.2693 13.0129 35.8501 12.591C35.4309 12.169 35.1954 11.5967 35.1954 11V8.75M3.90131 38V6.5C3.90131 5.30653 4.37232 4.16193 5.21071 3.31802C6.04911 2.47411 7.18622 2 8.3719 2H21.7837C22.9693 2 24.1064 2.47411 24.9448 3.31802C25.7832 4.16193 26.2543 5.30653 26.2543 6.5V38M1.66602 38H28.4895" stroke="url(#paint0_linear_39466_96068)" stroke-width="3" stroke-linecap="round" stroke-linejoin="round"/>
<defs>
<linearGradient id="paint0_linear_39466_96068" x1="-7.55621" y1="38.1053" x2="43.9971" y2="2.28052" gradientUnits="userSpaceOnUse">
<stop stop-color="#AA83FF"/>
<stop offset="1" stop-color="#D7C4FF"/>
</linearGradient>
</defs>
</svg>
