<svg width="168" height="24" viewBox="0 0 168 24" fill="none" xmlns="http://www.w3.org/2000/svg">
<path d="M17.7113 3.77668H4.40527L5.9949 0.918346C6.08716 0.745225 6.26812 0.64209 6.45618 0.64209H18.4919C18.6729 0.64209 18.8361 0.741539 18.9284 0.903609L20.7664 4.20027C20.8267 4.31077 20.8267 4.45073 20.7664 4.56123L18.6055 8.44355L20.5783 11.9944L18.8503 15.1068L15.2594 8.65351C15.1814 8.50986 15.1814 8.33674 15.2594 8.19308L17.7149 3.77299L17.7113 3.77668ZM4.27754 19.9984L5.99844 23.0962C6.08715 23.2582 6.25748 23.3577 6.43844 23.3577H18.4706C18.6622 23.3577 18.8397 23.2546 18.9355 23.0814L20.5251 20.2231H7.4426L9.78446 16.0166C9.86252 15.873 9.86252 15.6999 9.78446 15.5562L6.07651 8.89662L4.35205 12.0017L6.44198 15.7551L4.28108 19.6411C4.22076 19.7516 4.22076 19.8916 4.28108 19.9984H4.27754Z" fill="#5E43FF"/>
<path d="M9.08594 19.2951H20.632C20.8875 19.2951 21.1217 19.1514 21.253 18.9194L24.7764 12.5839C24.9787 12.2229 24.9787 11.7736 24.7764 11.4089L21.3772 5.29443L19.635 8.42902L21.6149 11.9982L20.3766 14.2304L19.3688 16.0389L19.305 16.1531H10.8352L9.09303 19.2914L9.08594 19.2951Z" fill="#5E43FF"/>
<path d="M0.158781 12.5856L3.65383 18.8695L5.39604 15.7349L3.31674 12L5.55926 7.97031L5.63023 7.84139H14.327L16.0692 4.70312H4.29607C4.0406 4.70312 3.80286 4.84677 3.67512 5.07883L0.151689 11.4143C-0.0505629 11.7753 -0.0505629 12.2247 0.151689 12.5893L0.158781 12.5856Z" fill="#5E43FF"/>
<path d="M37.4901 5.05403C39.1755 3.35966 41.5209 2.50879 44.5299 2.50879C46.1124 2.50879 47.5069 2.72979 48.7133 3.17549C49.9197 3.62118 50.8068 4.15895 51.378 4.7925C51.9493 5.42604 52.4141 6.06328 52.7796 6.71156C53.1415 7.35616 53.3509 7.89761 53.4005 8.32489L53.5176 9.01001H48.4223C48.3975 8.95476 48.3691 8.87004 48.3443 8.74849C48.3194 8.62694 48.2094 8.43171 48.0143 8.16282C47.8191 7.89393 47.5991 7.65082 47.3543 7.43718C47.1059 7.22355 46.7333 7.02833 46.2259 6.85152C45.7185 6.6784 45.1544 6.59 44.5334 6.59C43.0538 6.59 41.9325 7.04675 41.1696 7.96392C40.4032 8.88109 40.0235 10.1703 40.0235 11.8389C40.0235 13.5075 40.4139 14.8887 41.1909 15.898C41.968 16.9072 43.0822 17.4119 44.537 17.4119C45.5234 17.4119 46.3395 17.1503 46.9888 16.6236C47.6381 16.0969 48.0391 15.5665 48.1952 15.0287L48.4294 14.2626H53.4857C53.4609 14.4504 53.4218 14.7082 53.3686 15.0287C53.3154 15.3528 53.1025 15.9311 52.7264 16.7636C52.3503 17.5997 51.8783 18.3327 51.3071 18.9626C50.7358 19.5961 49.8558 20.1744 48.6601 20.6975C47.4678 21.2242 46.0947 21.4857 44.537 21.4857C41.5032 21.4857 39.1436 20.6238 37.4581 18.9C35.7727 17.1761 34.9282 14.8224 34.9282 11.8352C34.9282 9.03579 35.7834 6.77418 37.4972 5.05034L37.4901 5.05403Z" fill="black"/>
<path d="M57.2484 5.21729C59.0119 3.41242 61.4354 2.51367 64.5224 2.51367C67.6094 2.51367 70.0399 3.41611 71.8141 5.21729C73.5918 7.02217 74.4788 9.28379 74.4788 12.0021C74.4788 14.7205 73.5989 17.0079 71.8354 18.787C70.047 20.5919 67.6094 21.4906 64.5224 21.4906C61.4354 21.4906 59.0048 20.5808 57.2307 18.7649C55.453 16.949 54.5659 14.6947 54.5659 12.0021C54.5659 9.30957 55.4601 7.02217 57.2484 5.21729ZM59.6612 12.0021C59.6612 13.5639 60.0764 14.8568 60.9067 15.8771C61.737 16.9011 62.9434 17.4131 64.5259 17.4131C66.1084 17.4131 67.2794 16.8937 68.1239 15.8587C68.9648 14.8236 69.387 13.5381 69.387 12.0021C69.387 10.3851 68.9719 9.0812 68.1416 8.08668C67.3113 7.09215 66.1049 6.59121 64.5224 6.59121C62.9398 6.59121 61.7334 7.08847 60.9031 8.08668C60.0728 9.0812 59.6577 10.3888 59.6577 12.0021H59.6612Z" fill="black"/>
<path d="M81.2104 2.91516V5.4604C82.4026 3.52293 84.1661 2.53946 86.5009 2.51367H86.7741C89.6269 2.51367 91.6352 3.29456 92.8026 4.85633C93.97 6.41809 94.5519 8.65024 94.5519 11.5601V21.0891H89.5347V11.5601C89.5347 8.30399 88.3673 6.66119 86.0325 6.63541H85.9154C84.3577 6.63541 83.2187 7.16583 82.4913 8.23033C81.7639 9.29484 81.402 10.8087 81.402 12.772V21.0891H76.3848V2.91885H81.2069L81.2104 2.91516Z" fill="black"/>
<path d="M98.8324 5.05403C100.518 3.35966 102.863 2.50879 105.872 2.50879C107.455 2.50879 108.849 2.72979 110.056 3.17549C111.262 3.62118 112.149 4.15895 112.72 4.7925C113.292 5.42604 113.756 6.06328 114.122 6.71156C114.484 7.35616 114.693 7.89761 114.743 8.32489L114.86 9.01001H109.765C109.74 8.95476 109.711 8.87004 109.687 8.74849C109.662 8.62694 109.552 8.43171 109.357 8.16282C109.161 7.89393 108.941 7.65082 108.697 7.43718C108.448 7.22355 108.076 7.02833 107.568 6.85152C107.061 6.6784 106.497 6.59 105.876 6.59C104.396 6.59 103.275 7.04675 102.512 7.96392C101.746 8.88109 101.366 10.1703 101.366 11.8389C101.366 13.5075 101.756 14.8887 102.533 15.898C103.31 16.9072 104.424 17.4119 105.879 17.4119C106.866 17.4119 107.682 17.1503 108.331 16.6236C108.98 16.0969 109.381 15.5665 109.538 15.0287L109.772 14.2626H114.828C114.803 14.4504 114.764 14.7082 114.711 15.0287C114.658 15.3528 114.445 15.9311 114.069 16.7636C113.693 17.5997 113.221 18.3327 112.649 18.9626C112.078 19.5961 111.198 20.1744 110.002 20.6975C108.81 21.2242 107.437 21.4857 105.879 21.4857C102.845 21.4857 100.486 20.6238 98.8004 18.9C97.115 17.1761 96.2705 14.8224 96.2705 11.8352C96.2705 9.03579 97.1256 6.77418 98.8395 5.05034L98.8324 5.05403Z" fill="black"/>
<path d="M118.398 5.13505C120.059 3.38543 122.34 2.50879 125.243 2.50879C128.145 2.50879 130.32 3.37807 131.913 5.11295C133.507 6.84784 134.305 9.15735 134.305 12.0378C134.305 12.524 134.28 13.0212 134.227 13.5332H120.807C120.91 14.7193 121.386 15.6586 122.227 16.3584C123.068 17.0583 124.1 17.4082 125.321 17.4082C125.892 17.4082 126.403 17.3419 126.857 17.2056C127.311 17.073 127.659 16.9183 127.907 16.7415C128.152 16.5684 128.362 16.3842 128.528 16.1963C128.695 16.0085 128.805 15.8464 128.858 15.7101L128.936 15.5075H133.954C133.929 15.6696 133.869 15.8832 133.78 16.1521C133.688 16.421 133.443 16.8999 133.042 17.585C132.641 18.2701 132.155 18.8779 131.584 19.4009C131.012 19.9276 130.171 20.4028 129.054 20.8338C127.939 21.2647 126.68 21.4784 125.282 21.4784C122.482 21.4784 120.218 20.6238 118.494 18.9147C116.769 17.2056 115.907 14.9108 115.907 12.0304C115.907 9.14997 116.738 6.90309 118.398 5.124V5.13505ZM129.444 10.0598V9.93822C129.444 8.91424 129.054 8.1002 128.277 7.49612C127.499 6.89204 126.499 6.58632 125.282 6.58632C124.065 6.58632 123.018 6.91046 122.227 7.55506C121.435 8.19965 120.964 9.03579 120.807 10.0598H129.444Z" fill="black"/>
<path d="M136.213 2.91553H141.113V5.62284C142.149 3.81797 143.717 2.91553 145.818 2.91553H147.88V7.2767H145.935C143.888 7.2767 142.589 7.79606 142.046 8.8311C141.5 9.86614 141.23 12.1093 141.23 15.5533V21.0858H136.213V2.91553Z" fill="black"/>
<path d="M150.722 5.21729C152.486 3.41242 154.909 2.51367 157.996 2.51367C161.083 2.51367 163.514 3.41611 165.288 5.21729C167.065 7.02217 167.952 9.28379 167.952 12.0021C167.952 14.7205 167.069 17.0079 165.309 18.787C163.521 20.5919 161.079 21.4906 157.996 21.4906C154.913 21.4906 152.478 20.5808 150.704 18.7649C148.927 16.949 148.04 14.6947 148.04 12.0021C148.04 9.30957 148.934 7.02217 150.722 5.21729ZM153.135 12.0021C153.135 13.5639 153.55 14.8568 154.38 15.8771C155.211 16.9011 156.417 17.4131 158 17.4131C159.582 17.4131 160.753 16.8937 161.597 15.8587C162.442 14.8236 162.861 13.5381 162.861 12.0021C162.861 10.3851 162.446 9.0812 161.615 8.08668C160.785 7.09215 159.579 6.59121 157.996 6.59121C156.413 6.59121 155.207 7.08847 154.377 8.08668C153.546 9.0812 153.131 10.3888 153.131 12.0021H153.135Z" fill="black"/>
</svg>
