<svg width="32" height="32" viewBox="0 0 32 32" fill="none" xmlns="http://www.w3.org/2000/svg">
<path d="M32 15.7704C32 20.0095 31.2896 23.4481 30.4129 23.4481C29.5363 23.4481 28.8262 20.0105 28.8262 15.7704C28.8262 11.5304 29.5366 8.09277 30.4129 8.09277C31.2893 8.09277 32 11.5301 32 15.7704Z" fill="#BCBCBC"/>
<path d="M27.9509 15.77C27.9509 20.5025 25.9306 24.3404 23.4383 24.3404C20.9461 24.3404 18.9258 20.5025 18.9258 15.77C18.9258 11.0376 20.9458 7.19971 23.438 7.19971C25.9303 7.19971 27.9506 11.0364 27.9506 15.77" fill="#BCBCBC"/>
<path d="M18.0499 15.7701C18.0499 20.7977 14.0093 24.8734 9.02511 24.8734C4.04097 24.8734 0 20.7968 0 15.7701C0 10.7434 4.04067 6.6665 9.02511 6.6665C14.0096 6.6665 18.0499 10.7425 18.0499 15.7701Z" fill="#BCBCBC"/>
</svg>
