<svg width="39" height="40" viewBox="0 0 39 40" fill="none" xmlns="http://www.w3.org/2000/svg">
<path d="M9.7487 5.58333C9.7487 7.70042 8.03246 9.41667 5.91536 9.41667C3.79827 9.41667 2.08203 7.70042 2.08203 5.58333C2.08203 3.46624 3.79827 1.75 5.91536 1.75C8.03246 1.75 9.7487 3.46624 9.7487 5.58333ZM9.7487 5.58333H27.957C29.7362 5.58333 31.4425 6.2901 32.7005 7.54816C33.9586 8.80622 34.6654 10.5125 34.6654 12.2917C34.6654 14.0708 33.9586 15.7771 32.7005 17.0352C31.4425 18.2932 29.7362 19 27.957 19H10.707C8.92787 19 7.22158 19.7068 5.96352 20.9648C4.70547 22.2229 3.9987 23.9292 3.9987 25.7083C3.9987 27.4875 4.70547 29.1938 5.96352 30.4518C7.22158 31.7099 8.92787 32.4167 10.707 32.4167H36.582M36.582 32.4167L30.832 26.6667M36.582 32.4167L30.832 38.1667" stroke="#AB86FA" stroke-width="3" stroke-linecap="round" stroke-linejoin="round"/>
<path d="M9.7487 5.58333C9.7487 7.70042 8.03246 9.41667 5.91536 9.41667C3.79827 9.41667 2.08203 7.70042 2.08203 5.58333C2.08203 3.46624 3.79827 1.75 5.91536 1.75C8.03246 1.75 9.7487 3.46624 9.7487 5.58333ZM9.7487 5.58333H27.957C29.7362 5.58333 31.4425 6.2901 32.7005 7.54816C33.9586 8.80622 34.6654 10.5125 34.6654 12.2917C34.6654 14.0708 33.9586 15.7771 32.7005 17.0352C31.4425 18.2932 29.7362 19 27.957 19H10.707C8.92787 19 7.22158 19.7068 5.96352 20.9648C4.70547 22.2229 3.9987 23.9292 3.9987 25.7083C3.9987 27.4875 4.70547 29.1938 5.96352 30.4518C7.22158 31.7099 8.92787 32.4167 10.707 32.4167H36.582M36.582 32.4167L30.832 26.6667M36.582 32.4167L30.832 38.1667" stroke="url(#paint0_linear_39477_7512)" stroke-width="3" stroke-linecap="round" stroke-linejoin="round"/>
<defs>
<linearGradient id="paint0_linear_39477_7512" x1="-6.29078" y1="38.2731" x2="43.6788" y2="7.1079" gradientUnits="userSpaceOnUse">
<stop stop-color="#AA83FF"/>
<stop offset="1" stop-color="#D7C4FF"/>
</linearGradient>
</defs>
</svg>
