<svg width="84" height="91" viewBox="0 0 84 91" fill="none" xmlns="http://www.w3.org/2000/svg">
<path d="M29.3151 45.5L37.7717 54.7222L54.6847 36.2778M42 4C51.8765 13.5292 64.767 18.4907 77.9402 17.8333C79.8582 24.9483 80.445 32.4112 79.6659 39.7784C78.8868 47.1457 76.7577 54.267 73.405 60.7191C70.0524 67.1713 65.5446 72.8226 60.1496 77.3373C54.7546 81.8521 48.5825 85.138 42 87C35.4175 85.138 29.2454 81.8521 23.8504 77.3373C18.4554 72.8226 13.9476 67.1713 10.595 60.7191C7.24232 54.267 5.11319 47.1457 4.33409 39.7784C3.555 32.4112 4.14184 24.9483 6.05975 17.8333C19.233 18.4907 32.1235 13.5292 42 4Z" stroke="#AB86FA" stroke-width="7" stroke-linecap="round" stroke-linejoin="round"/>
<path d="M29.3151 45.5L37.7717 54.7222L54.6847 36.2778M42 4C51.8765 13.5292 64.767 18.4907 77.9402 17.8333C79.8582 24.9483 80.445 32.4112 79.6659 39.7784C78.8868 47.1457 76.7577 54.267 73.405 60.7191C70.0524 67.1713 65.5446 72.8226 60.1496 77.3373C54.7546 81.8521 48.5825 85.138 42 87C35.4175 85.138 29.2454 81.8521 23.8504 77.3373C18.4554 72.8226 13.9476 67.1713 10.595 60.7191C7.24232 54.267 5.11319 47.1457 4.33409 39.7784C3.555 32.4112 4.14184 24.9483 6.05975 17.8333C19.233 18.4907 32.1235 13.5292 42 4Z" stroke="url(#paint0_linear_39473_96379)" stroke-width="7" stroke-linecap="round" stroke-linejoin="round"/>
<defs>
<linearGradient id="paint0_linear_39473_96379" x1="-14.4444" y1="87.2427" x2="97.7005" y2="19.6405" gradientUnits="userSpaceOnUse">
<stop stop-color="#AA83FF"/>
<stop offset="1" stop-color="#D7C4FF"/>
</linearGradient>
</defs>
</svg>
