<svg width="92" height="92" viewBox="0 0 92 92" fill="none" xmlns="http://www.w3.org/2000/svg">
<path d="M23.6439 72.2545C24.5927 69.0967 26.5341 66.3289 29.1802 64.3616C31.8262 62.3943 35.036 61.3324 38.3332 61.3333H53.6665C56.968 61.3322 60.1817 62.3967 62.8297 64.3685C65.4777 66.3403 67.4185 69.1142 68.3635 72.2775M80.5 46C80.5 65.0538 65.0538 80.5 46 80.5C26.9462 80.5 11.5 65.0538 11.5 46C11.5 26.9462 26.9462 11.5 46 11.5C65.0538 11.5 80.5 26.9462 80.5 46ZM57.5 38.3333C57.5 44.6846 52.3513 49.8333 46 49.8333C39.6487 49.8333 34.5 44.6846 34.5 38.3333C34.5 31.9821 39.6487 26.8333 46 26.8333C52.3513 26.8333 57.5 31.9821 57.5 38.3333Z" stroke="#7335F7" stroke-width="7" stroke-linecap="round" stroke-linejoin="round"/>
<path d="M23.6439 72.2545C24.5927 69.0967 26.5341 66.3289 29.1802 64.3616C31.8262 62.3943 35.036 61.3324 38.3332 61.3333H53.6665C56.968 61.3322 60.1817 62.3967 62.8297 64.3685C65.4777 66.3403 67.4185 69.1142 68.3635 72.2775M80.5 46C80.5 65.0538 65.0538 80.5 46 80.5C26.9462 80.5 11.5 65.0538 11.5 46C11.5 26.9462 26.9462 11.5 46 11.5C65.0538 11.5 80.5 26.9462 80.5 46ZM57.5 38.3333C57.5 44.6846 52.3513 49.8333 46 49.8333C39.6487 49.8333 34.5 44.6846 34.5 38.3333C34.5 31.9821 39.6487 26.8333 46 26.8333C52.3513 26.8333 57.5 31.9821 57.5 38.3333Z" stroke="url(#paint0_linear_39664_20153)" stroke-width="7" stroke-linecap="round" stroke-linejoin="round"/>
<defs>
<linearGradient id="paint0_linear_39664_20153" x1="-5.24561" y1="80.7018" x2="91.5965" y2="16.9474" gradientUnits="userSpaceOnUse">
<stop stop-color="#AA83FF"/>
<stop offset="1" stop-color="#D7C4FF"/>
</linearGradient>
</defs>
</svg>
