<svg width="77" height="66" viewBox="0 0 77 66" fill="none" xmlns="http://www.w3.org/2000/svg">
<path id="Vector" d="M6.435 8.58C5.77225 7.61475 5.4395 6.4185 5.50825 5.17C5.676 2.20275 8.37925 0 11.352 0H46.7473C49.7723 0 52.2473 2.475 52.2473 5.5V11H11C9.295 11 7.7825 10.23 6.765 8.9925C6.655 8.855 6.545 8.7175 6.435 8.58ZM77 38.5V44C77 48.5375 73.2875 52.25 68.75 52.25H57.75C53.2125 52.25 49.5 48.5375 49.5 44V38.5C49.5 33.9625 53.2125 30.25 57.75 30.25H68.75C73.2875 30.25 77 33.9625 77 38.5ZM63.25 41.25C63.25 39.7375 62.0125 38.5 60.5 38.5C58.9875 38.5 57.75 39.7375 57.75 41.25C57.75 42.7625 58.9875 44 60.5 44C62.0125 44 63.25 42.7625 63.25 41.25ZM44 44V38.5C44 30.9183 50.1683 24.75 57.75 24.75H68.75C68.75 20.2125 65.0375 16.5 60.5 16.5H11C5.555 16.5 1.045 12.54 0.165 7.3425C0.0549998 7.6175 0 7.92 0 8.25V57.75C0 62.2875 3.7125 66 8.25 66H60.5C65.0375 66 68.75 62.2875 68.75 57.75H57.75C50.1683 57.75 44 51.5817 44 44Z" fill="#7335F7"/>
</svg>
