<?xml version="1.0" standalone="no"?>
<!DOCTYPE svg PUBLIC "-//W3C//DTD SVG 20010904//EN"
 "http://www.w3.org/TR/2001/REC-SVG-20010904/DTD/svg10.dtd">
<svg version="1.0" xmlns="http://www.w3.org/2000/svg"
 width="2000.000000pt" height="2000.000000pt" viewBox="0 0 2000.000000 2000.000000"
 preserveAspectRatio="xMidYMid meet">
<metadata>
Created by potrace 1.14, written by Peter Selinger 2001-2017
</metadata>
<g transform="translate(0.000000,2000.000000) scale(0.100000,-0.100000)"
fill="#000000" stroke="none">
<path d="M7085 15176 c-27 -13 -62 -36 -76 -52 -23 -25 -759 -1306 -775 -1349
-5 -13 342 -15 3120 -17 l3125 -3 -584 -1025 c-435 -763 -586 -1036 -591
-1068 -4 -26 -1 -61 6 -85 10 -34 1687 -2987 1709 -3009 4 -4 190 314 414 707
l408 715 -452 793 c-248 435 -457 802 -465 814 -12 20 23 85 503 925 507 885
517 904 517 958 1 55 -3 62 -439 828 -242 425 -455 792 -474 814 -19 22 -53
49 -75 59 -40 18 -145 19 -2931 19 l-2890 0 -50 -24z"/>
<path d="M6059 13317 c-69 -29 -119 -67 -152 -115 -53 -78 -1692 -2960 -1716
-3017 -19 -48 -25 -83 -29 -170 -4 -98 -2 -118 21 -185 18 -54 263 -492 854
-1527 455 -799 833 -1453 838 -1453 6 -1 193 320 417 713 l408 715 -489 856
-489 857 541 949 542 949 2046 1 2046 0 409 717 c225 394 410 720 412 725 2 4
-1258 8 -2800 8 l-2803 0 -56 -23z"/>
<path d="M13800 12359 c-223 -391 -406 -716 -408 -724 -2 -8 204 -378 457
-823 254 -445 461 -814 461 -820 0 -9 -617 -1098 -1007 -1777 l-69 -120 -1994
-3 -1995 -3 -402 -708 c-221 -389 -405 -715 -409 -724 -6 -16 172 -17 2729
-17 2724 0 2735 0 2801 20 135 42 76 -50 1023 1610 465 817 855 1510 867 1540
30 80 30 280 0 360 -18 48 -1623 2873 -1642 2892 -4 3 -189 -313 -412 -703z"/>
<path d="M6606 10706 l-407 -715 491 -860 491 -861 -514 -903 c-283 -496 -517
-916 -520 -933 -3 -18 -2 -48 4 -68 6 -20 197 -364 424 -764 437 -766 450
-785 533 -810 53 -16 5758 -17 5814 -2 95 27 94 26 505 746 210 368 383 672
383 677 0 4 -1381 7 -3070 7 -1688 0 -3070 3 -3070 6 0 3 250 445 557 981 599
1050 583 1017 553 1108 -9 28 -1671 2952 -1749 3078 l-18 28 -407 -715z"/>
</g>
</svg>
