<svg width="64" height="64" viewBox="0 0 64 64" fill="none" xmlns="http://www.w3.org/2000/svg">
<g clip-path="url(#clip0_23896_5643)">
<rect width="64" height="64" rx="20" fill="url(#paint0_linear_23896_5643)"/>
<path d="M45.344 44.328L34.848 18.952C34.256 17.64 33.376 17 32.216 17H31.288C30.128 17 29.248 17.64 28.656 18.952L24.088 30.008H20.632C19.6 30.016 18.76 30.848 18.752 31.888V31.912C18.76 32.944 19.6 33.784 20.632 33.792H22.488L18.128 44.328C18.048 44.56 18 44.8 18 45.048C18 45.64 18.184 46.104 18.512 46.464C18.84 46.824 19.312 47 19.904 47C20.296 46.992 20.672 46.872 20.984 46.64C21.32 46.408 21.552 46.072 21.736 45.688L26.536 33.784H29.864C30.896 33.776 31.736 32.944 31.744 31.904V31.856C31.736 30.824 30.896 29.984 29.864 29.976H28.088L31.752 20.848L41.736 45.68C41.92 46.064 42.152 46.4 42.488 46.632C42.8 46.864 43.184 46.984 43.568 46.992C44.16 46.992 44.624 46.816 44.96 46.456C45.296 46.096 45.472 45.632 45.472 45.04C45.48 44.8 45.44 44.552 45.344 44.328Z" fill="white"/>
</g>
<defs>
<linearGradient id="paint0_linear_23896_5643" x1="55.8587" y1="11.9247" x2="8.24274" y2="51.9887" gradientUnits="userSpaceOnUse">
<stop stop-color="#B6509E"/>
<stop offset="1" stop-color="#2EBAC6"/>
</linearGradient>
<clipPath id="clip0_23896_5643">
<rect width="64" height="64" rx="20" fill="white"/>
</clipPath>
</defs>
</svg>
