<svg width="64" height="64" viewBox="0 0 64 64" fill="none" xmlns="http://www.w3.org/2000/svg">
<g clip-path="url(#clip0_177_8466)">
<rect width="64" height="64" rx="20" fill="#131313"/>
<g opacity="0.3">
<path opacity="0.4" d="M32.0002 48.6663C41.2049 48.6663 48.6668 41.2044 48.6668 31.9997C48.6668 22.7949 41.2049 15.333 32.0002 15.333C22.7954 15.333 15.3335 22.7949 15.3335 31.9997C15.3335 41.2044 22.7954 48.6663 32.0002 48.6663Z" fill="#888698"/>
<path d="M38.1832 38.5499C37.9666 38.5499 37.7499 38.4999 37.5499 38.3666L32.3832 35.2833C31.0999 34.5166 30.1499 32.8333 30.1499 31.3499V24.5166C30.1499 23.8333 30.7166 23.2666 31.3999 23.2666C32.0832 23.2666 32.6499 23.8333 32.6499 24.5166V31.3499C32.6499 31.9499 33.1499 32.8333 33.6666 33.1333L38.8332 36.2166C39.4332 36.5666 39.6166 37.3333 39.2666 37.9333C39.0166 38.3333 38.5999 38.5499 38.1832 38.5499Z" fill="#888698"/>
</g>
</g>
<defs>
<clipPath id="clip0_177_8466">
<rect width="64" height="64" rx="20" fill="white"/>
</clipPath>
</defs>
</svg>
