<svg width="64" height="64" viewBox="0 0 64 64" fill="none" xmlns="http://www.w3.org/2000/svg">
<g clip-path="url(#clip0_23896_5649)">
<rect width="64" height="64" rx="20" fill="white"/>
<path d="M42.614 31.807C42.614 33.6956 41.0825 35.2281 39.193 35.2281C37.1105 35.2281 35.4211 36.9167 35.4211 39C35.4211 40.8886 33.8895 42.4211 32 42.4211C29.9175 42.4211 28.2281 44.1096 28.2281 46.193C28.2281 48.0816 26.6965 49.614 24.807 49.614C22.9175 49.614 21.386 48.0816 21.386 46.193C21.386 44.1096 19.6974 42.4211 17.614 42.4211C15.7254 42.4211 14.193 40.8886 14.193 39C14.193 36.9167 12.5044 35.2281 10.4211 35.2281C8.53246 35.2281 7 33.6956 7 31.807C7 29.9184 8.53246 28.386 10.4211 28.386C12.5044 28.386 14.193 26.6965 14.193 24.614C14.193 22.7246 15.7254 21.193 17.614 21.193C19.6974 21.193 21.386 19.5035 21.386 17.4211C21.386 15.5316 22.9184 14 24.807 14C26.6956 14 28.2281 15.5316 28.2281 17.4211C28.2281 19.5035 29.9175 21.193 32 21.193C30.1114 21.193 28.5789 22.7246 28.5789 24.614C28.5789 22.5307 26.8903 20.8421 24.807 20.8421C22.7237 20.8421 21.0351 22.5307 21.0351 24.614C21.0351 26.5026 19.5035 28.0351 17.614 28.0351C15.5316 28.0351 13.8421 29.7237 13.8421 31.807C13.8421 33.8903 15.5316 35.5789 17.614 35.5789C19.5035 35.5789 21.0351 37.1105 21.0351 39C21.0351 41.0825 22.7246 42.7719 24.807 42.7719C26.8895 42.7719 28.5789 41.0825 28.5789 39C28.5789 37.1105 30.1114 35.5789 32 35.5789C34.0833 35.5789 35.7719 33.8895 35.7719 31.807C35.7719 29.7246 34.0833 28.0351 32 28.0351C33.8895 28.0351 35.4211 26.5026 35.4211 24.614C35.4211 26.6965 37.1105 28.386 39.193 28.386C41.0825 28.386 42.614 29.9175 42.614 31.807Z" fill="#39DDA0"/>
<path d="M57 31.807C57 33.6956 55.4684 35.2281 53.579 35.2281C51.4965 35.2281 49.807 36.9167 49.807 39C49.807 40.8886 48.2755 42.4211 46.386 42.4211C44.3035 42.4211 42.6141 44.1096 42.6141 46.193C42.6141 48.0816 41.0825 49.614 39.193 49.614C37.3035 49.614 35.7719 48.0816 35.7719 46.193C35.7719 44.1096 34.0834 42.4211 32 42.4211C33.8895 42.4211 35.4211 40.8886 35.4211 39C35.4211 41.0825 37.1105 42.7719 39.193 42.7719C41.2755 42.7719 42.9649 41.0825 42.9649 39C42.9649 37.1105 44.4974 35.5789 46.386 35.5789C48.4693 35.5789 50.1579 33.8895 50.1579 31.807C50.1579 29.7246 48.4693 28.0351 46.386 28.0351C44.4974 28.0351 42.9649 26.5026 42.9649 24.614C42.9649 22.5307 41.2763 20.8421 39.193 20.8421C37.1097 20.8421 35.4211 22.5307 35.4211 24.614C35.4211 26.5026 33.8895 28.0351 32 28.0351C29.9176 28.0351 28.2281 29.7237 28.2281 31.807C28.2281 33.8903 29.9176 35.5789 32 35.5789C30.1114 35.5789 28.579 37.1105 28.579 39C28.579 36.9167 26.8904 35.2281 24.807 35.2281C22.9184 35.2281 21.386 33.6956 21.386 31.807C21.386 29.9184 22.9184 28.386 24.807 28.386C26.8904 28.386 28.579 26.6965 28.579 24.614C28.579 22.7246 30.1114 21.193 32 21.193C34.0834 21.193 35.7719 19.5035 35.7719 17.4211C35.7719 15.5316 37.3044 14 39.193 14C41.0816 14 42.6141 15.5316 42.6141 17.4211C42.6141 19.5035 44.3035 21.193 46.386 21.193C48.2755 21.193 49.807 22.7246 49.807 24.614C49.807 26.6965 51.4965 28.386 53.579 28.386C55.4684 28.386 57 29.9175 57 31.807Z" fill="#1C4331"/>
</g>
<defs>
<clipPath id="clip0_23896_5649">
<rect width="64" height="64" rx="20" fill="white"/>
</clipPath>
</defs>
</svg>
