<svg width="64" height="64" viewBox="0 0 64 64" fill="none" xmlns="http://www.w3.org/2000/svg">
<g clip-path="url(#clip0_23896_5636)">
<rect width="64" height="64" rx="20" fill="white"/>
<path d="M30.4253 38.8591L18.7455 41.5476C18.3195 41.6537 18 42.0782 18 42.5027V50.4974C18 51.1695 18.5325 51.5941 19.207 51.4527L35.5019 47.7027C36.1764 47.5613 36.4604 46.9244 36.1764 46.3231L33.2298 40.2741C32.7683 39.3189 33.2298 38.3284 34.2594 38.1162L44.9096 35.5692C45.6551 35.3923 46.2942 34.6141 46.2942 33.8358V26.4424C46.2942 25.7703 45.7616 25.3104 45.0871 25.4873L29.7153 29.1309C28.7568 29.3432 28.3307 30.2629 28.7568 31.1473L31.4548 36.7012C31.9163 37.6563 31.4548 38.6114 30.4253 38.8591Z" fill="black"/>
<path d="M22.7631 19.6218L25.82 25.8851C26.211 26.7036 25.82 27.5577 24.9313 27.7356L19.2796 29.0523C18.5687 29.2302 18 29.942 18 30.6537V37.3796C18 38.5184 18.9242 39.2301 20.0261 38.981L25.2868 37.771C25.9977 37.6287 26.5664 36.8814 26.5664 36.1696L26.602 29.2658C26.602 28.305 27.384 27.3441 28.3082 27.1306L45.5477 23.0026C45.9742 22.8958 46.2942 22.4688 46.2942 22.0417V13.9991C46.2942 13.323 45.761 12.8604 45.0856 13.0383L23.4384 18.2339C22.7631 18.3763 22.4787 19.0169 22.7631 19.6218Z" fill="black"/>
</g>
<defs>
<clipPath id="clip0_23896_5636">
<rect width="64" height="64" rx="20" fill="white"/>
</clipPath>
</defs>
</svg>
