<svg width="64" height="64" viewBox="0 0 64 64" fill="none" xmlns="http://www.w3.org/2000/svg">
<g clip-path="url(#clip0_23896_5656)">
<rect width="64" height="64" rx="20" fill="white"/>
<path d="M51 36.5345C51 31.0884 48.8324 25.8654 44.9741 22.0144C41.1157 18.1634 35.8827 16 30.4261 16H28.2778V24.4359L19.8454 16.0197H13.773L24.0846 26.3197H13V28.4655C13.0004 33.9115 15.1682 39.1343 19.0264 42.9851C22.8847 46.836 28.1175 48.9995 33.5739 49H35.7239V40.5707L44.0496 48.8821H50.122L39.9155 38.6803H51V36.5345ZM32.5958 34.3886H27.0863C26.5161 34.3886 25.9692 34.6147 25.566 35.0172C25.1628 35.4196 24.9363 35.9653 24.9363 36.5345C24.9363 37.1036 25.1628 37.6494 25.566 38.0519C25.9692 38.4542 26.5161 38.6803 27.0863 38.6803H31.4239V44.5674C27.8832 44.0909 24.5972 42.467 22.071 39.9453C19.5448 37.4236 17.9181 34.1437 17.4411 30.6097H36.9137C37.2009 30.6176 37.4869 30.568 37.7546 30.4638C38.0222 30.3596 38.2663 30.2027 38.4722 30.0028C38.6782 29.8029 38.8419 29.5637 38.9537 29.2996C39.0655 29.0353 39.1231 28.7514 39.1231 28.4647C39.1231 28.1779 39.0655 27.894 38.9537 27.6299C38.8419 27.3656 38.6782 27.1265 38.4722 26.9265C38.2663 26.7266 38.0222 26.5698 37.7546 26.4656C37.4869 26.3614 37.2009 26.3117 36.9137 26.3197H32.5761V20.4325C36.1168 20.909 39.4028 22.5326 41.9293 25.0539C44.4558 27.5753 46.0829 30.8548 46.5606 34.3886H32.5958ZM34.9919 28.3918C34.9906 28.055 35.0894 27.7254 35.276 27.4446C35.4625 27.1639 35.7283 26.9448 36.0396 26.8149C36.351 26.685 36.6939 26.6503 37.0252 26.7151C37.3563 26.7799 37.6607 26.9413 37.8999 27.1789C38.1392 27.4165 38.3023 27.7196 38.3689 28.0498C38.4353 28.38 38.4021 28.7225 38.2735 29.0339C38.1449 29.3453 37.9266 29.6116 37.6463 29.7991C37.366 29.9865 37.0362 30.0868 36.6987 30.0871C36.2473 30.0876 35.8142 29.9094 35.4942 29.5916C35.1743 29.2737 34.9936 28.8423 34.9919 28.3918Z" fill="black"/>
</g>
<defs>
<clipPath id="clip0_23896_5656">
<rect width="64" height="64" rx="20" fill="white"/>
</clipPath>
</defs>
</svg>
