<svg width="64" height="64" viewBox="0 0 64 64" fill="none" xmlns="http://www.w3.org/2000/svg">
<g clip-path="url(#clip0_39432_67840)">
<rect width="64" height="64" rx="20" fill="#0F0318"/>
<g clip-path="url(#clip1_39432_67840)">
<path d="M48.2445 32.3719L24.101 46.3159C23.9797 46.3852 23.8324 46.3852 23.7123 46.3159L22.0326 45.3442C21.9645 45.3046 21.9236 45.234 21.9236 45.1548C21.9236 45.0756 21.9645 45.005 22.0326 44.9654L33.9985 38.0535C34.0443 38.0287 34.0988 38.0225 34.1458 38.046C34.1941 38.0695 34.2275 38.1104 34.2387 38.1624C34.3117 38.5189 34.3761 38.8791 34.4293 39.2418C34.433 39.2715 34.454 39.2987 34.4813 39.3136C34.5085 39.3272 34.5419 39.3259 34.5692 39.3098L48.0341 31.5339C48.1393 31.4732 48.2681 31.4732 48.372 31.5339C48.476 31.5945 48.5416 31.7072 48.5416 31.8285V31.857C48.5416 32.0686 48.4277 32.2667 48.2445 32.3719ZM48.3745 36.1955C48.2693 36.1348 48.1406 36.1348 48.0366 36.1955L34.7239 43.8848C34.6942 43.9021 34.6558 43.9021 34.6261 43.8836C34.5952 43.8638 34.5803 43.8316 34.5828 43.7957C34.615 43.3847 34.636 42.9676 34.6447 42.5467H34.641C34.641 42.5034 34.6199 42.4663 34.584 42.4452C34.5481 42.4242 34.5036 42.4242 34.4677 42.4452L26.0629 47.2987C25.9948 47.3383 25.954 47.4089 25.954 47.4881C25.954 47.5673 25.9948 47.6379 26.0629 47.6775L27.7426 48.6492C27.8614 48.7185 28.01 48.7185 28.1313 48.6492L48.2445 37.0323C48.4277 36.927 48.5416 36.729 48.5416 36.5173V36.4889C48.5416 36.3676 48.4773 36.2549 48.372 36.1943L48.3745 36.1955ZM48.3634 40.872C48.2532 40.8076 48.1171 40.8076 48.0069 40.872L33.5418 49.226C33.5059 49.2458 33.465 49.2421 33.4328 49.2173C33.4007 49.1926 33.392 49.1492 33.4056 49.1121C33.5975 48.5959 33.7671 48.0674 33.9168 47.5302C33.9218 47.5091 33.9156 47.4881 33.897 47.4732C33.8797 47.4609 33.8562 47.4584 33.8376 47.4695L30.092 49.6345C30.0239 49.6741 29.9831 49.7446 29.9831 49.8226C29.9831 49.9006 30.0239 49.9724 30.092 50.012L31.7717 50.9837C31.8905 51.053 32.0391 51.053 32.1604 50.9837L48.2408 41.6963C48.424 41.5911 48.5379 41.3931 48.5379 41.1814C48.5379 41.0552 48.4698 40.9376 48.3597 40.8732H48.3609L48.3634 40.872ZM15.6182 23.2752L32.2544 13.666C32.3634 13.6041 32.4277 13.4878 32.424 13.3628C32.4203 13.2377 32.3498 13.1263 32.2384 13.0682C32.0589 12.9778 31.8447 12.9827 31.6714 13.083L15.6207 22.3555C15.5229 22.4124 15.4598 22.5176 15.4598 22.6315V23.1823C15.4598 23.2195 15.4796 23.2554 15.513 23.2752C15.5464 23.295 15.586 23.295 15.6182 23.2752ZM21.5337 23.4745C21.0101 23.2838 20.4742 23.1167 19.9308 22.9707C19.8788 22.9558 19.8218 22.9633 19.776 22.9905L15.6219 25.3894C15.5241 25.4463 15.461 25.5515 15.461 25.6654V27.8415C15.461 27.8786 15.4808 27.9145 15.5142 27.9343C15.5477 27.9541 15.5873 27.9541 15.6194 27.9343L36.3194 15.9795C36.4246 15.9188 36.489 15.805 36.489 15.6849C36.489 15.5648 36.4246 15.451 36.3194 15.3903L36.2947 15.3754C36.1115 15.2702 35.885 15.2702 35.6993 15.3754L21.707 23.4596C21.655 23.4893 21.5907 23.4955 21.5362 23.4745H21.535H21.5337ZM25.7856 25.6283C25.4217 25.3857 25.0504 25.1567 24.6704 24.9363C24.606 24.9004 24.5292 24.9004 24.4649 24.9363L15.6207 30.0448C15.5229 30.1017 15.4598 30.2069 15.4598 30.3208V32.4969C15.4598 32.534 15.4796 32.5699 15.513 32.5897C15.5464 32.6095 15.586 32.6095 15.6182 32.5897L40.3015 18.3338C40.4067 18.2732 40.4711 18.1605 40.4711 18.0392C40.4711 17.9179 40.4067 17.8053 40.3015 17.7446L40.2767 17.7298C40.0935 17.6246 39.867 17.6246 39.6813 17.7298L26.0022 25.6332C25.9342 25.6728 25.8512 25.6691 25.7869 25.6258L25.7856 25.6283ZM45.6266 18.3487C43.1596 18.3487 40.6815 19.8204 39.6752 22.3901L29.2985 28.3824C29.2168 28.4282 29.1153 28.4146 29.0497 28.3465C28.791 28.0791 28.5261 27.8192 28.2514 27.5654C28.1857 27.5048 28.088 27.4937 28.0112 27.5382L15.6207 34.6977C15.5229 34.7547 15.4598 34.8599 15.4598 34.9738V37.1499C15.4598 37.187 15.4796 37.2229 15.513 37.2427C15.5464 37.2625 15.586 37.2625 15.6182 37.2427L44.6784 20.4604C44.7799 20.401 44.9049 20.401 45.0039 20.4604L46.4646 21.3033C46.5067 21.3281 46.5339 21.3727 46.5339 21.4222C46.5339 21.4717 46.5067 21.5162 46.4646 21.541L39.3706 25.6382C39.331 25.6592 39.3112 25.7038 39.3174 25.7483C39.3855 26.1692 39.4944 26.5752 39.638 26.9639C39.6553 27.0134 39.638 27.0691 39.5897 27.0963L31.7185 31.6416C31.6776 31.6651 31.6281 31.6527 31.6021 31.6131C31.4065 31.3012 31.2011 30.993 30.9869 30.6934C30.9263 30.608 30.8099 30.5832 30.7183 30.634L15.617 39.3556C15.5192 39.4126 15.4561 39.5178 15.4561 39.6317V41.2941C15.4561 41.4525 15.5415 41.5986 15.6789 41.679C15.7766 41.736 15.8992 41.736 15.9982 41.679L48.3312 23.0066C48.3733 22.9818 48.4253 22.9818 48.4686 23.0066C48.5107 23.0313 48.5379 23.0759 48.5379 23.1254V24.7989C48.5391 24.9178 48.4773 25.0267 48.3745 25.0861L41.2051 29.2365C41.1878 29.2452 41.1766 29.2637 41.1754 29.2848C41.1741 29.3046 41.1791 29.3244 41.1952 29.338C41.4873 29.6202 41.8079 29.874 42.1483 30.0968C42.1805 30.1166 42.1978 30.1537 42.1966 30.1896C42.1966 30.2267 42.1755 30.2614 42.1434 30.28L33.522 35.2609C33.4972 35.2746 33.4687 35.2783 33.4415 35.2684C33.4143 35.2572 33.3957 35.2387 33.3846 35.2114C33.2596 34.8797 33.1283 34.5517 32.986 34.2298C32.965 34.1803 32.9216 34.142 32.8696 34.1246C32.8177 34.1073 32.7607 34.1135 32.7149 34.1407L18.0109 42.6297C17.9391 42.6705 17.897 42.746 17.897 42.8277C17.897 42.9094 17.9404 42.9861 18.0109 43.0258L19.6745 43.9863C19.7934 44.0556 19.9419 44.0556 20.0632 43.9863L48.3386 27.657C48.3807 27.6323 48.4327 27.6323 48.476 27.657C48.5193 27.6818 48.5453 27.7264 48.5453 27.7759V29.4222C48.5466 29.541 48.4847 29.6499 48.3819 29.7093L46.1155 31.019C46.1068 31.0239 46.1006 31.0363 46.1044 31.0474C46.1081 31.0586 46.1192 31.0648 46.1291 31.0648C46.9968 31.0004 47.8138 30.764 48.5503 30.3877C50.5989 29.3256 51.9976 27.1867 51.9976 24.7209H51.9988C51.9988 21.1994 49.1457 18.3462 45.6253 18.3462H45.6266V18.3487Z" fill="url(#paint0_radial_39432_67840)"/>
</g>
</g>
<defs>
<radialGradient id="paint0_radial_39432_67840" cx="0" cy="0" r="1" gradientUnits="userSpaceOnUse" gradientTransform="translate(15.2428 41.322) rotate(-31) scale(46.022 47.8629)">
<stop stop-color="#5000BF"/>
<stop offset="0.04" stop-color="#6900C2"/>
<stop offset="0.12" stop-color="#9700C7"/>
<stop offset="0.2" stop-color="#BC00CC"/>
<stop offset="0.27" stop-color="#D900D0"/>
<stop offset="0.35" stop-color="#EE00D2"/>
<stop offset="0.43" stop-color="#FA00D4"/>
<stop offset="0.5" stop-color="#FF00D5"/>
<stop offset="0.56" stop-color="#FB26E2"/>
<stop offset="0.65" stop-color="#F55DF7"/>
<stop offset="0.7" stop-color="#F373FF"/>
<stop offset="0.8" stop-color="#EABFFF"/>
<stop offset="0.9" stop-color="#99CCFF"/>
</radialGradient>
<clipPath id="clip0_39432_67840">
<rect width="64" height="64" rx="20" fill="white"/>
</clipPath>
<clipPath id="clip1_39432_67840">
<rect width="40" height="40" fill="white" transform="translate(12 12)"/>
</clipPath>
</defs>
</svg>
