<svg width="56" height="56" viewBox="0 0 56 56" fill="none" xmlns="http://www.w3.org/2000/svg">
<path d="M27.9998 55.16C42.9999 55.16 55.1598 43 55.1598 28C55.1598 12.9999 42.9999 0.839966 27.9998 0.839966C12.9998 0.839966 0.839844 12.9999 0.839844 28C0.839844 43 12.9998 55.16 27.9998 55.16Z" fill="url(#paint0_linear_23898_5126)"/>
<path d="M39.886 38.822L30.702 16.618C30.184 15.47 29.414 14.91 28.399 14.91H27.587C26.572 14.91 25.802 15.47 25.284 16.618L21.287 26.292H18.263C17.36 26.299 16.625 27.027 16.618 27.937V27.958C16.625 28.861 17.36 29.596 18.263 29.603H19.887L16.072 38.822C16.002 39.025 15.96 39.235 15.96 39.452C15.96 39.97 16.121 40.376 16.408 40.691C16.695 41.006 17.108 41.16 17.626 41.16C17.969 41.153 18.298 41.048 18.571 40.845C18.865 40.642 19.068 40.348 19.229 40.012L23.429 29.596H26.341C27.244 29.589 27.979 28.861 27.986 27.951V27.909C27.979 27.006 27.244 26.271 26.341 26.264H24.787L27.993 18.277L36.729 40.005C36.89 40.341 37.093 40.635 37.387 40.838C37.66 41.041 37.996 41.146 38.332 41.153C38.85 41.153 39.256 40.999 39.55 40.684C39.844 40.369 39.998 39.963 39.998 39.445C40.005 39.235 39.97 39.018 39.886 38.822Z" fill="white"/>
<defs>
<linearGradient id="paint0_linear_23898_5126" x1="48.2499" y1="10.961" x2="7.83587" y2="44.9653" gradientUnits="userSpaceOnUse">
<stop stop-color="#B6509E"/>
<stop offset="1" stop-color="#2EBAC6"/>
</linearGradient>
</defs>
</svg>
