<svg width="25" height="28" viewBox="0 0 25 28" fill="none" xmlns="http://www.w3.org/2000/svg">
<path d="M24.386 24.8222L15.202 2.61816C14.684 1.47016 13.914 0.910156 12.899 0.910156H12.087C11.072 0.910156 10.302 1.47016 9.78396 2.61816L5.78696 12.2922H2.76296C1.85996 12.2992 1.12496 13.0272 1.11796 13.9372V13.9582C1.12496 14.8612 1.85996 15.5962 2.76296 15.6032H4.38696L0.571961 24.8222C0.501961 25.0252 0.459961 25.2352 0.459961 25.4522C0.459961 25.9702 0.620961 26.3762 0.907961 26.6912C1.19496 27.0062 1.60796 27.1602 2.12596 27.1602C2.46896 27.1532 2.79796 27.0482 3.07096 26.8452C3.36496 26.6422 3.56796 26.3482 3.72896 26.0122L7.92896 15.5962H10.841C11.744 15.5892 12.479 14.8612 12.486 13.9512V13.9092C12.479 13.0062 11.744 12.2712 10.841 12.2642H9.28696L12.493 4.27716L21.229 26.0052C21.39 26.3412 21.593 26.6352 21.887 26.8382C22.16 27.0412 22.496 27.1462 22.832 27.1532C23.35 27.1532 23.756 26.9992 24.05 26.6842C24.344 26.3692 24.498 25.9632 24.498 25.4452C24.505 25.2352 24.47 25.0182 24.386 24.8222Z" fill="white"/>
<path d="M24.386 24.8222L15.202 2.61816C14.684 1.47016 13.914 0.910156 12.899 0.910156H12.087C11.072 0.910156 10.302 1.47016 9.78396 2.61816L5.78696 12.2922H2.76296C1.85996 12.2992 1.12496 13.0272 1.11796 13.9372V13.9582C1.12496 14.8612 1.85996 15.5962 2.76296 15.6032H4.38696L0.571961 24.8222C0.501961 25.0252 0.459961 25.2352 0.459961 25.4522C0.459961 25.9702 0.620961 26.3762 0.907961 26.6912C1.19496 27.0062 1.60796 27.1602 2.12596 27.1602C2.46896 27.1532 2.79796 27.0482 3.07096 26.8452C3.36496 26.6422 3.56796 26.3482 3.72896 26.0122L7.92896 15.5962H10.841C11.744 15.5892 12.479 14.8612 12.486 13.9512V13.9092C12.479 13.0062 11.744 12.2712 10.841 12.2642H9.28696L12.493 4.27716L21.229 26.0052C21.39 26.3412 21.593 26.6352 21.887 26.8382C22.16 27.0412 22.496 27.1462 22.832 27.1532C23.35 27.1532 23.756 26.9992 24.05 26.6842C24.344 26.3692 24.498 25.9632 24.498 25.4452C24.505 25.2352 24.47 25.0182 24.386 24.8222Z" fill="#2EBAC6"/>
</svg>
