<svg width="55" height="56" viewBox="0 0 55 56" fill="none" xmlns="http://www.w3.org/2000/svg">
<g filter="url(#filter0_i_39139_12969)">
<path d="M27.4998 55.1598C42.4999 55.1598 54.6598 42.9999 54.6598 27.9998C54.6598 12.9998 42.4999 0.839844 27.4998 0.839844C12.4998 0.839844 0.339844 12.9998 0.339844 27.9998C0.339844 42.9999 12.4998 55.1598 27.4998 55.1598Z" fill="#F9F9F9"/>
</g>
<path d="M39.386 38.8222L30.202 16.6182C29.684 15.4702 28.914 14.9102 27.899 14.9102H27.087C26.072 14.9102 25.302 15.4702 24.784 16.6182L20.787 26.2922H17.763C16.86 26.2992 16.125 27.0272 16.118 27.9372V27.9582C16.125 28.8612 16.86 29.5962 17.763 29.6032H19.387L15.572 38.8222C15.502 39.0252 15.46 39.2352 15.46 39.4522C15.46 39.9702 15.621 40.3762 15.908 40.6912C16.195 41.0062 16.608 41.1602 17.126 41.1602C17.469 41.1532 17.798 41.0482 18.071 40.8452C18.365 40.6422 18.568 40.3482 18.729 40.0122L22.929 29.5962H25.841C26.744 29.5892 27.479 28.8612 27.486 27.9512V27.9092C27.479 27.0062 26.744 26.2712 25.841 26.2642H24.287L27.493 18.2772L36.229 40.0052C36.39 40.3412 36.593 40.6352 36.887 40.8382C37.16 41.0412 37.496 41.1462 37.832 41.1532C38.35 41.1532 38.756 40.9992 39.05 40.6842C39.344 40.3692 39.498 39.9632 39.498 39.4452C39.505 39.2352 39.47 39.0182 39.386 38.8222Z" fill="white"/>
<path d="M39.386 38.8222L30.202 16.6182C29.684 15.4702 28.914 14.9102 27.899 14.9102H27.087C26.072 14.9102 25.302 15.4702 24.784 16.6182L20.787 26.2922H17.763C16.86 26.2992 16.125 27.0272 16.118 27.9372V27.9582C16.125 28.8612 16.86 29.5962 17.763 29.6032H19.387L15.572 38.8222C15.502 39.0252 15.46 39.2352 15.46 39.4522C15.46 39.9702 15.621 40.3762 15.908 40.6912C16.195 41.0062 16.608 41.1602 17.126 41.1602C17.469 41.1532 17.798 41.0482 18.071 40.8452C18.365 40.6422 18.568 40.3482 18.729 40.0122L22.929 29.5962H25.841C26.744 29.5892 27.479 28.8612 27.486 27.9512V27.9092C27.479 27.0062 26.744 26.2712 25.841 26.2642H24.287L27.493 18.2772L36.229 40.0052C36.39 40.3412 36.593 40.6352 36.887 40.8382C37.16 41.0412 37.496 41.1462 37.832 41.1532C38.35 41.1532 38.756 40.9992 39.05 40.6842C39.344 40.3692 39.498 39.9632 39.498 39.4452C39.505 39.2352 39.47 39.0182 39.386 38.8222Z" fill="#2EBAC6"/>
<defs>
<filter id="filter0_i_39139_12969" x="0.339844" y="0.839844" width="54.3198" height="55.3203" filterUnits="userSpaceOnUse" color-interpolation-filters="sRGB">
<feFlood flood-opacity="0" result="BackgroundImageFix"/>
<feBlend mode="normal" in="SourceGraphic" in2="BackgroundImageFix" result="shape"/>
<feColorMatrix in="SourceAlpha" type="matrix" values="0 0 0 0 0 0 0 0 0 0 0 0 0 0 0 0 0 0 127 0" result="hardAlpha"/>
<feOffset dy="1"/>
<feGaussianBlur stdDeviation="1.5"/>
<feComposite in2="hardAlpha" operator="arithmetic" k2="-1" k3="1"/>
<feColorMatrix type="matrix" values="0 0 0 0 0 0 0 0 0 0 0 0 0 0 0 0 0 0 0.08 0"/>
<feBlend mode="normal" in2="shape" result="effect1_innerShadow_39139_12969"/>
</filter>
</defs>
</svg>
