<svg width="56" height="56" viewBox="0 0 56 56" fill="none" xmlns="http://www.w3.org/2000/svg">
<g filter="url(#filter0_i_39050_69897)">
<rect width="56" height="56" rx="28" fill="#7335F7"/>
<rect width="56" height="56" rx="28" fill="#F9F9F9"/>
<path d="M37.9618 30.6937L37.9427 30.424C37.6382 26.2632 35.8891 23.6434 34.3473 21.3315C32.8927 19.1522 31.6364 17.2688 31.6364 14.4669C31.6364 14.3807 31.6132 14.2962 31.5693 14.2227C31.5254 14.1493 31.4626 14.0897 31.3877 14.0506C31.3129 14.0116 31.229 13.9946 31.1453 14.0015C31.0616 14.0084 30.9814 14.039 30.9136 14.0899C28.2191 16.1105 25.9682 19.2913 25.3127 22.0045C24.7609 24.293 24.4327 26.3827 24.3736 27.9656C21.9473 27.5661 21.6473 23.929 21.6355 23.7656C21.6298 23.688 21.6052 23.613 21.5641 23.5475C21.5229 23.4821 21.4665 23.4283 21.3998 23.391C21.3332 23.3537 21.2586 23.3341 21.1827 23.334C21.1068 23.3339 21.0321 23.3533 20.9655 23.3905C20.8518 23.4539 18.1745 25.0098 18.0118 30.9382C18 31.1352 18 31.3321 18 31.53C18 37.3035 22.4864 42 28 42H28.0227C33.5273 41.9869 38 37.296 38 31.53C38 31.2378 37.9809 30.9653 37.9618 30.6937ZM24.3636 37.0496C24.3636 36.9741 24.3636 36.8994 24.3682 36.8089C24.3964 35.7355 24.6136 35.043 24.8327 34.6118C25.1 35.3771 25.6473 36.1425 26.6364 36.1425C26.7569 36.1425 26.8725 36.0933 26.9578 36.0058C27.043 35.9183 27.0909 35.7996 27.0909 35.6758C27.0909 35.0066 27.2327 34.0079 27.48 32.9365C27.6718 32.1049 28.2618 31.1221 29.0045 30.3484C29.2073 31.3284 29.7 32.0993 30.1791 32.8516C30.8264 33.8651 31.4955 34.9142 31.6136 36.5989L31.6209 36.7155C31.6282 36.8238 31.6364 36.9321 31.6364 37.0496C31.6364 39.2644 30.0055 41.0667 28 41.0667C25.9945 41.0667 24.3636 39.2654 24.3636 37.0496Z" fill="#FFA38E"/>
</g>
<defs>
<filter id="filter0_i_39050_69897" x="0" y="0" width="56" height="57" filterUnits="userSpaceOnUse" color-interpolation-filters="sRGB">
<feFlood flood-opacity="0" result="BackgroundImageFix"/>
<feBlend mode="normal" in="SourceGraphic" in2="BackgroundImageFix" result="shape"/>
<feColorMatrix in="SourceAlpha" type="matrix" values="0 0 0 0 0 0 0 0 0 0 0 0 0 0 0 0 0 0 127 0" result="hardAlpha"/>
<feOffset dy="1"/>
<feGaussianBlur stdDeviation="1.5"/>
<feComposite in2="hardAlpha" operator="arithmetic" k2="-1" k3="1"/>
<feColorMatrix type="matrix" values="0 0 0 0 0 0 0 0 0 0 0 0 0 0 0 0 0 0 0.08 0"/>
<feBlend mode="normal" in2="shape" result="effect1_innerShadow_39050_69897"/>
</filter>
</defs>
</svg>
