<svg width="20" height="28" viewBox="0 0 20 28" fill="none" xmlns="http://www.w3.org/2000/svg">
<path d="M19.9618 16.6937L19.9427 16.424C19.6382 12.2632 17.8891 9.64338 16.3473 7.33154C14.8927 5.15223 13.6364 3.26878 13.6364 0.466941C13.6364 0.380746 13.6132 0.29622 13.5693 0.222737C13.5254 0.149255 13.4626 0.0896859 13.3877 0.0506365C13.3129 0.011587 13.229 -0.00541718 13.1453 0.0015094C13.0616 0.00843598 12.9814 0.0390227 12.9136 0.0898779C10.2191 2.11052 7.96818 5.29129 7.31273 8.00447C6.76091 10.293 6.43273 12.3827 6.37364 13.9656C3.94727 13.5661 3.64727 9.92898 3.63545 9.76565C3.62976 9.68797 3.60522 9.61299 3.56407 9.54754C3.52292 9.4821 3.46646 9.42827 3.39985 9.39097C3.33324 9.35367 3.25859 9.33408 3.18272 9.33399C3.10684 9.3339 3.03215 9.35331 2.96545 9.39045C2.85182 9.45392 0.174545 11.0098 0.0118182 16.9382C1.01599e-08 17.1352 0 17.3321 0 17.53C0 23.3035 4.48636 28 10 28H10.0227C15.5273 27.9869 20 23.296 20 17.53C20 17.2378 19.9809 16.9653 19.9618 16.6937ZM6.36364 23.0496C6.36364 22.9741 6.36364 22.8994 6.36818 22.8089C6.39636 21.7355 6.61364 21.043 6.83273 20.6118C7.1 21.3771 7.64727 22.1425 8.63636 22.1425C8.75692 22.1425 8.87253 22.0933 8.95778 22.0058C9.04302 21.9183 9.09091 21.7996 9.09091 21.6758C9.09091 21.0066 9.23273 20.0079 9.48 18.9365C9.67182 18.1049 10.2618 17.1221 11.0045 16.3484C11.2073 17.3284 11.7 18.0993 12.1791 18.8516C12.8264 19.8651 13.4955 20.9142 13.6136 22.5989L13.6209 22.7155C13.6282 22.8238 13.6364 22.9321 13.6364 23.0496C13.6364 25.2644 12.0055 27.0667 10 27.0667C7.99455 27.0667 6.36364 25.2654 6.36364 23.0496Z" fill="#FFA38E"/>
</svg>
