<svg width="56" height="56" viewBox="0 0 56 56" fill="none" xmlns="http://www.w3.org/2000/svg">
<rect width="56" height="56" rx="28" fill="#7335F7"/>
<path d="M39.2512 31.0785L39.2296 30.7703C38.8856 26.0151 36.9102 23.021 35.1689 20.3789C33.5261 17.8883 32.1071 15.7357 32.1071 12.5336C32.1072 12.4351 32.081 12.3385 32.0314 12.2546C31.9818 12.1706 31.9109 12.1025 31.8263 12.0579C31.7418 12.0132 31.647 11.9938 31.5525 12.0017C31.458 12.0096 31.3674 12.0446 31.2909 12.1027C28.2476 14.412 25.7054 18.0472 24.9651 21.148C24.3419 23.7634 23.9713 26.1516 23.9045 27.9607C21.1642 27.5042 20.8253 23.3474 20.812 23.1607C20.8056 23.072 20.7778 22.9863 20.7314 22.9115C20.6849 22.8367 20.6211 22.7752 20.5459 22.7325C20.4707 22.6899 20.3863 22.6675 20.3007 22.6674C20.215 22.6673 20.1306 22.6895 20.0553 22.7319C19.9269 22.8045 16.9032 24.5826 16.7194 31.358C16.7061 31.5831 16.7061 31.8081 16.7061 32.0343C16.7061 38.6326 21.773 44 28.0002 44H28.0258C34.2427 43.9851 39.2943 38.6241 39.2943 32.0343C39.2943 31.7004 39.2727 31.3889 39.2512 31.0785ZM23.8932 38.3425C23.8932 38.2561 23.8932 38.1707 23.8984 38.0673C23.9302 36.8406 24.1756 36.0491 24.423 35.5564C24.7249 36.431 25.343 37.3057 26.4601 37.3057C26.5962 37.3057 26.7268 37.2495 26.8231 37.1495C26.9193 37.0494 26.9734 36.9138 26.9734 36.7723C26.9734 36.0075 27.1336 34.8662 27.4129 33.6417C27.6295 32.6913 28.2959 31.5681 29.1347 30.6839C29.3637 31.8039 29.9202 32.6849 30.4613 33.5446C31.1923 34.703 31.948 35.9019 32.0815 37.8273L32.0897 37.9606C32.0979 38.0843 32.1071 38.2081 32.1071 38.3425C32.1071 40.8736 30.2652 42.9333 28.0002 42.9333C25.7352 42.9333 23.8932 40.8747 23.8932 38.3425Z" fill="white"/>
</svg>
