<svg width="56" height="56" viewBox="0 0 56 56" fill="none" xmlns="http://www.w3.org/2000/svg">
<g clip-path="url(#clip0_39050_69909)">
<g filter="url(#filter0_i_39050_69909)">
<path d="M56 28C56 12.536 43.464 0 28 0C12.536 0 0 12.536 0 28C0 43.464 12.536 56 28 56C43.464 56 56 43.464 56 28Z" fill="#00A3FF"/>
<path d="M56 28C56 12.536 43.464 0 28 0C12.536 0 0 12.536 0 28C0 43.464 12.536 56 28 56C43.464 56 56 43.464 56 28Z" fill="#F9F9F9"/>
</g>
<path fill-rule="evenodd" clip-rule="evenodd" d="M28.0072 14L34.9354 24.8469L28.0068 28.8854L21.0791 24.8467L28.0072 14ZM23.2 24.3337L28.0072 16.8075L32.8145 24.3337L28.0069 27.1361L23.2 24.3337Z" fill="#00A3FF"/>
<path d="M27.9969 31.2693L19.96 26.5841L19.7405 26.9277C17.2652 30.8031 17.8181 35.8785 21.0697 39.1301C24.896 42.9564 31.0998 42.9564 34.9261 39.1301C38.1777 35.8785 38.7306 30.8031 36.2553 26.9277L36.0357 26.584L27.9969 31.2693Z" fill="#00A3FF"/>
</g>
<defs>
<filter id="filter0_i_39050_69909" x="0" y="0" width="56" height="57" filterUnits="userSpaceOnUse" color-interpolation-filters="sRGB">
<feFlood flood-opacity="0" result="BackgroundImageFix"/>
<feBlend mode="normal" in="SourceGraphic" in2="BackgroundImageFix" result="shape"/>
<feColorMatrix in="SourceAlpha" type="matrix" values="0 0 0 0 0 0 0 0 0 0 0 0 0 0 0 0 0 0 127 0" result="hardAlpha"/>
<feOffset dy="1"/>
<feGaussianBlur stdDeviation="1.5"/>
<feComposite in2="hardAlpha" operator="arithmetic" k2="-1" k3="1"/>
<feColorMatrix type="matrix" values="0 0 0 0 0 0 0 0 0 0 0 0 0 0 0 0 0 0 0.08 0"/>
<feBlend mode="normal" in2="shape" result="effect1_innerShadow_39050_69909"/>
</filter>
<clipPath id="clip0_39050_69909">
<rect width="56" height="56" fill="white"/>
</clipPath>
</defs>
</svg>
