<svg width="56" height="56" viewBox="0 0 56 56" fill="none" xmlns="http://www.w3.org/2000/svg">
<g clip-path="url(#clip0_23896_5212)">
<path d="M56 28C56 12.536 43.464 0 28 0C12.536 0 0 12.536 0 28C0 43.464 12.536 56 28 56C43.464 56 56 43.464 56 28Z" fill="#00A3FF"/>
<path fill-rule="evenodd" clip-rule="evenodd" d="M28.0072 14L34.9354 24.8469L28.0068 28.8854L21.0791 24.8467L28.0072 14ZM23.2 24.3337L28.0072 16.8075L32.8145 24.3337L28.0069 27.1361L23.2 24.3337Z" fill="white"/>
<path d="M27.9969 31.2694L19.96 26.5842L19.7405 26.9278C17.2652 30.8032 17.8181 35.8786 21.0697 39.1302C24.896 42.9565 31.0998 42.9565 34.9261 39.1302C38.1777 35.8786 38.7306 30.8032 36.2553 26.9278L36.0357 26.5841L27.9969 31.2694Z" fill="white"/>
</g>
<defs>
<clipPath id="clip0_23896_5212">
<rect width="56" height="56" fill="white"/>
</clipPath>
</defs>
</svg>
