<svg width="57" height="56" viewBox="0 0 57 56" fill="none" xmlns="http://www.w3.org/2000/svg">
<g clip-path="url(#clip0_39050_69917)">
<g filter="url(#filter0_i_39050_69917)">
<path d="M28.4543 56C43.8934 56 56.4092 43.464 56.4092 28C56.4092 12.536 43.8934 0 28.4543 0C13.0153 0 0.499512 12.536 0.499512 28C0.499512 43.464 13.0153 56 28.4543 56Z" fill="#FF007A"/>
<path d="M28.4543 56C43.8934 56 56.4092 43.464 56.4092 28C56.4092 12.536 43.8934 0 28.4543 0C13.0153 0 0.499512 12.536 0.499512 28C0.499512 43.464 13.0153 56 28.4543 56Z" fill="#F9F9F9"/>
</g>
<g clip-path="url(#clip1_39050_69917)">
<mask id="mask0_39050_69917" style="mask-type:luminance" maskUnits="userSpaceOnUse" x="9" y="5" width="34" height="39">
<path d="M42.4279 5.61719H9.19678V43.8833H42.4279V5.61719Z" fill="white"/>
</mask>
<g mask="url(#mask0_39050_69917)">
<path d="M22.2284 14.3247C21.8138 14.2654 21.7941 14.2457 21.9914 14.226C22.3666 14.1667 23.2354 14.2457 23.8475 14.3839C25.2692 14.7196 26.5526 15.5884 27.915 17.1088L28.2704 17.5234L28.7838 17.4444C30.9755 17.089 33.2265 17.3654 35.1023 18.2342C35.6156 18.4712 36.4251 18.945 36.5239 19.0635C36.5634 19.103 36.6226 19.3597 36.6621 19.6164C36.8003 20.5444 36.7411 21.2355 36.4449 21.7686C36.287 22.0648 36.287 22.1438 36.3857 22.4004C36.4647 22.5979 36.7016 22.7361 36.9188 22.7361C37.3927 22.7361 37.8863 21.9858 38.1233 20.9393L38.222 20.5246L38.3997 20.7221C39.4067 21.8476 40.1965 23.4074 40.315 24.5132L40.3544 24.8094L40.1767 24.5527C39.8806 24.0985 39.6041 23.8024 39.229 23.5456C38.5577 23.0915 37.8468 22.9533 35.971 22.8546C34.273 22.7559 33.3054 22.6176 32.3577 22.3017C30.7386 21.7686 29.9093 21.0775 27.994 18.5304C27.145 17.4049 26.6118 16.7928 26.0787 16.2795C24.9138 15.154 23.7488 14.5616 22.2284 14.3247Z" fill="#FF70B5"/>
<path d="M36.9387 16.8326C36.9782 16.0823 37.0769 15.5887 37.2942 15.1346C37.3731 14.9568 37.4521 14.7988 37.4718 14.7988C37.4916 14.7988 37.4521 14.9371 37.3928 15.095C37.2349 15.5294 37.2152 16.1415 37.3139 16.8326C37.4521 17.7211 37.5114 17.8396 38.4591 18.8071C38.8935 19.2612 39.4069 19.8339 39.6044 20.0708L39.94 20.5052L39.6044 20.1893C39.1897 19.7943 38.2419 19.044 38.0248 18.9453C37.8865 18.8663 37.8668 18.8663 37.768 18.965C37.689 19.044 37.6693 19.1625 37.6693 19.7352C37.6496 20.6236 37.5311 21.1766 37.2349 21.7491C37.0769 22.0453 37.0572 21.986 37.1955 21.6504C37.2942 21.3937 37.3139 21.2753 37.3139 20.4262C37.3139 18.7084 37.1165 18.2937 35.912 17.6026C35.6158 17.425 35.1024 17.1683 34.8063 17.0301C34.4904 16.8918 34.2534 16.7733 34.2731 16.7733C34.3126 16.7339 35.4776 17.0695 35.9317 17.267C36.6228 17.5434 36.7413 17.5632 36.8203 17.5434C36.8795 17.4842 36.919 17.3263 36.9387 16.8326ZM23.0382 19.7746C22.2089 18.6294 21.6758 16.8523 21.7943 15.5294L21.8337 15.1147L22.0312 15.1543C22.3866 15.2135 22.9987 15.4505 23.2949 15.6281C24.0847 16.102 24.4402 16.7536 24.7758 18.3727C24.8745 18.8466 25.0127 19.3995 25.072 19.5772C25.1707 19.8733 25.5458 20.5644 25.8618 20.9988C26.0789 21.3147 25.9408 21.4727 25.4471 21.4332C24.6968 21.3542 23.6898 20.6632 23.0382 19.7746ZM35.9317 28.3638C32.0222 26.7842 30.64 25.4217 30.64 23.1115C30.64 22.7759 30.6598 22.4994 30.6598 22.4994C30.6795 22.4994 30.8177 22.618 30.9955 22.7562C31.7852 23.388 32.6738 23.6645 35.1419 24.0198C36.5834 24.237 37.4126 24.395 38.1629 24.6517C40.5521 25.4415 42.033 27.0606 42.3884 29.2523C42.4871 29.8841 42.4279 31.0886 42.2699 31.7204C42.1317 32.2141 41.7368 33.1223 41.6381 33.1421C41.6183 33.1421 41.5789 33.0434 41.5789 32.8854C41.5393 32.0561 41.1247 31.2663 40.4337 30.6542C39.6044 29.9434 38.5381 29.4103 35.9317 28.3638ZM33.1674 29.0153C33.128 28.7192 33.0292 28.344 32.97 28.1861L32.8712 27.8899L33.049 28.1071C33.3056 28.4032 33.5031 28.7587 33.6808 29.2523C33.819 29.6275 33.819 29.7459 33.819 30.358C33.819 30.9504 33.7993 31.0886 33.6808 31.4242C33.4834 31.9574 33.2464 32.3325 32.8515 32.7472C32.1407 33.4778 31.2126 33.8727 29.8898 34.0503C29.6528 34.0701 28.9815 34.1293 28.3891 34.1689C26.9082 34.2478 25.9209 34.4058 25.0325 34.7217C24.914 34.7612 24.7955 34.8007 24.7757 34.7809C24.7363 34.7414 25.3484 34.3861 25.842 34.1491C26.5331 33.8134 27.2439 33.6357 28.8038 33.3593C29.5739 33.2408 30.3636 33.0828 30.5611 33.0038C32.5159 32.3917 33.4834 30.8714 33.1674 29.0153Z" fill="#FF70B5"/>
<path d="M34.9641 32.194C34.4507 31.0686 34.3323 30.0023 34.6086 28.9953C34.6482 28.8966 34.6876 28.7979 34.7271 28.7979C34.7666 28.7979 34.8851 28.857 35.0036 28.936C35.2405 29.094 35.7341 29.3704 36.9978 30.0615C38.5972 30.9303 39.5054 31.6017 40.1373 32.3717C40.6902 33.0431 41.0258 33.8131 41.1838 34.7609C41.2825 35.294 41.2233 36.5774 41.0851 37.1106C40.6506 38.7889 39.6634 40.1316 38.222 40.9016C38.0048 41.02 37.8271 41.099 37.8074 41.099C37.7876 41.099 37.8666 40.9016 37.9851 40.6647C38.4589 39.6576 38.5182 38.6902 38.1628 37.6042C37.9456 36.9328 37.4914 36.1233 36.5832 34.7609C35.4972 33.1813 35.2405 32.7666 34.9641 32.194ZM20.254 38.236C21.7151 37.0118 23.5119 36.1431 25.1705 35.8666C25.8814 35.7482 27.066 35.7876 27.7176 35.9653C28.7641 36.2417 29.7119 36.8341 30.2055 37.5647C30.6794 38.2755 30.8966 38.8876 31.1138 40.25C31.1928 40.7831 31.2915 41.336 31.3113 41.4545C31.4692 42.1653 31.7852 42.7182 32.18 43.0144C32.7921 43.4685 33.8583 43.4882 34.9049 43.0933C35.0826 43.0341 35.2406 42.9748 35.2406 42.9946C35.28 43.0341 34.7469 43.3895 34.3915 43.5672C33.8979 43.8239 33.503 43.9029 32.9699 43.9029C32.0221 43.9029 31.2125 43.4092 30.561 42.422C30.4227 42.2245 30.1463 41.652 29.9093 41.1188C29.2183 39.5195 28.8628 39.0455 28.0533 38.5124C27.3425 38.0583 26.4342 37.9596 25.7431 38.2952C24.8349 38.7296 24.5979 39.8946 25.2297 40.6054C25.4864 40.9016 25.9604 41.1386 26.3552 41.1978C27.0858 41.2965 27.7176 40.7239 27.7176 39.9934C27.7176 39.5195 27.54 39.243 27.066 39.0258C26.4342 38.7494 25.7431 39.0653 25.7629 39.6774C25.7629 39.9341 25.8814 40.092 26.138 40.2106C26.296 40.2895 26.296 40.2895 26.1775 40.2698C25.6049 40.1513 25.4667 39.4405 25.9208 38.9863C26.4737 38.4335 27.6387 38.6704 28.0335 39.4405C28.1915 39.7564 28.2113 40.3882 28.0731 40.7831C27.7374 41.652 26.7896 42.1061 25.8221 41.8493C25.1705 41.6717 24.8941 41.494 24.1043 40.6844C22.7221 39.2628 22.189 38.9863 20.2145 38.6902L19.8394 38.6309L20.254 38.236Z" fill="#FF70B5"/>
<path fill-rule="evenodd" clip-rule="evenodd" d="M14.3702 10.968C18.9708 16.5559 21.5572 20.7418 21.9127 21.2157C22.2088 21.6106 22.0903 21.9857 21.5967 22.2622C21.3203 22.4202 20.7477 22.5781 20.4713 22.5781C20.1554 22.5781 19.7802 22.4202 19.5235 22.1635C19.3458 21.9857 18.5757 20.8603 16.8382 18.1552C15.5152 16.082 14.3897 14.3641 14.37 14.3444C14.291 14.305 14.291 14.3049 16.6999 18.6094C18.2203 21.3144 18.7139 22.2819 18.7139 22.4004C18.7139 22.6571 18.6349 22.7953 18.319 23.1508C17.7859 23.7431 17.549 24.4144 17.3713 25.8163C17.1738 27.3762 16.6407 28.4819 15.1203 30.3577C14.2318 31.4635 14.0936 31.6609 13.8764 32.115C13.5999 32.6679 13.521 32.9838 13.4815 33.6946C13.442 34.4449 13.521 34.9189 13.7381 35.6297C13.9356 36.2615 14.1528 36.6762 14.6859 37.4857C15.1401 38.1965 15.4165 38.7296 15.4165 38.9271C15.4165 39.0851 15.456 39.0851 16.1668 38.9271C17.8649 38.5322 19.2668 37.8609 20.0368 37.0316C20.5107 36.5182 20.6292 36.2418 20.6292 35.531C20.6292 35.0768 20.6095 34.9781 20.491 34.7017C20.2935 34.2673 19.9184 33.9118 19.1089 33.359C18.0426 32.6284 17.5885 32.036 17.47 31.2462C17.3713 30.5749 17.4897 30.1208 18.0821 28.8769C18.6942 27.5934 18.8521 27.0603 18.9509 25.7571C19.0101 24.9278 19.1089 24.5921 19.3458 24.3354C19.6024 24.059 19.8196 23.9603 20.4317 23.8813C21.4388 23.7431 22.0903 23.4864 22.6037 22.9928C23.0579 22.5781 23.2553 22.1635 23.2751 21.5514L23.2948 21.0973L23.0381 20.8208C22.11 19.7546 13.7581 10.119 13.6988 10.119C13.6791 10.119 13.995 10.4941 14.3702 10.968ZM15.9299 34.5437C16.1471 34.1686 16.0286 33.6946 15.6732 33.4577C15.3375 33.2405 14.8241 33.3393 14.8241 33.6354C14.8241 33.7144 14.8636 33.7934 14.9821 33.8328C15.1598 33.9316 15.1795 34.0303 15.0413 34.2475C14.9031 34.4647 14.9031 34.6621 15.0808 34.8004C15.3573 35.0176 15.7324 34.8991 15.9299 34.5437ZM23.9266 24.1577C23.4528 24.296 22.9986 24.8094 22.8604 25.3227C22.7814 25.6387 22.821 26.2112 22.9592 26.389C23.1763 26.6653 23.3738 26.7443 23.9266 26.7443C25.0127 26.7443 25.9407 26.2705 26.0394 25.6979C26.1382 25.224 25.7235 24.5724 25.1509 24.2762C24.8547 24.1183 24.2426 24.059 23.9266 24.1577ZM25.1903 25.145C25.3483 24.9081 25.289 24.6514 24.9929 24.4736C24.4598 24.138 23.6503 24.4144 23.6503 24.9278C23.6503 25.1845 24.0649 25.4609 24.4598 25.4609C24.7165 25.4609 25.0719 25.3029 25.1903 25.145Z" fill="#FF70B5"/>
</g>
</g>
</g>
<defs>
<filter id="filter0_i_39050_69917" x="0.499512" y="0" width="55.9097" height="57" filterUnits="userSpaceOnUse" color-interpolation-filters="sRGB">
<feFlood flood-opacity="0" result="BackgroundImageFix"/>
<feBlend mode="normal" in="SourceGraphic" in2="BackgroundImageFix" result="shape"/>
<feColorMatrix in="SourceAlpha" type="matrix" values="0 0 0 0 0 0 0 0 0 0 0 0 0 0 0 0 0 0 127 0" result="hardAlpha"/>
<feOffset dy="1"/>
<feGaussianBlur stdDeviation="1.5"/>
<feComposite in2="hardAlpha" operator="arithmetic" k2="-1" k3="1"/>
<feColorMatrix type="matrix" values="0 0 0 0 0 0 0 0 0 0 0 0 0 0 0 0 0 0 0.08 0"/>
<feBlend mode="normal" in2="shape" result="effect1_innerShadow_39050_69917"/>
</filter>
<clipPath id="clip0_39050_69917">
<rect x="0.5" width="56" height="56" rx="28" fill="white"/>
</clipPath>
<clipPath id="clip1_39050_69917">
<rect width="33.3333" height="38.2661" fill="white" transform="translate(9.1665 5.61719)"/>
</clipPath>
</defs>
</svg>
