<svg width="30" height="36" viewBox="0 0 30 36" fill="none" xmlns="http://www.w3.org/2000/svg">
<g clip-path="url(#clip0_39050_69919)">
<mask id="mask0_39050_69919" style="mask-type:luminance" maskUnits="userSpaceOnUse" x="-4" y="-4" width="34" height="39">
<path d="M29.4279 -3.38281H-3.80322V34.8833H29.4279V-3.38281Z" fill="white"/>
</mask>
<g mask="url(#mask0_39050_69919)">
<path d="M9.22844 5.3247C8.81379 5.26543 8.79406 5.2457 8.99144 5.22597C9.36663 5.1667 10.2354 5.2457 10.8475 5.38389C12.2692 5.71962 13.5526 6.58838 14.915 8.10878L15.2704 8.52335L15.7838 8.44443C17.9755 8.08897 20.2265 8.36543 22.1023 9.23419C22.6156 9.47119 23.4251 9.94503 23.5239 10.0635C23.5634 10.103 23.6226 10.3597 23.6621 10.6164C23.8003 11.5444 23.7411 12.2355 23.4449 12.7686C23.287 13.0648 23.287 13.1438 23.3857 13.4004C23.4647 13.5979 23.7016 13.7361 23.9188 13.7361C24.3927 13.7361 24.8863 12.9858 25.1233 11.9393L25.222 11.5246L25.3997 11.7221C26.4067 12.8476 27.1965 14.4074 27.315 15.5132L27.3544 15.8094L27.1767 15.5527C26.8806 15.0985 26.6041 14.8024 26.229 14.5456C25.5577 14.0915 24.8468 13.9533 22.971 13.8546C21.273 13.7559 20.3054 13.6176 19.3577 13.3017C17.7386 12.7686 16.9093 12.0775 14.994 9.53038C14.145 8.40489 13.6118 7.79279 13.0787 7.27948C11.9138 6.154 10.7488 5.56162 9.22844 5.3247Z" fill="#FF70B5"/>
<path d="M23.9387 7.83261C23.9782 7.08231 24.0769 6.58866 24.2942 6.13455C24.3731 5.95682 24.4521 5.79883 24.4718 5.79883C24.4916 5.79883 24.4521 5.93709 24.3928 6.09502C24.2349 6.5294 24.2152 7.1415 24.3139 7.83261C24.4521 8.7211 24.5114 8.83964 25.4591 9.80713C25.8935 10.2612 26.4069 10.8339 26.6044 11.0708L26.94 11.5052L26.6044 11.1893C26.1897 10.7943 25.2419 10.044 25.0248 9.94532C24.8865 9.86632 24.8668 9.86632 24.768 9.96505C24.689 10.044 24.6693 10.1625 24.6693 10.7352C24.6496 11.6236 24.5311 12.1766 24.2349 12.7491C24.0769 13.0453 24.0572 12.986 24.1955 12.6504C24.2942 12.3937 24.3139 12.2753 24.3139 11.4262C24.3139 9.7084 24.1165 9.29375 22.912 8.60264C22.6158 8.42499 22.1024 8.16826 21.8063 8.03007C21.4904 7.8918 21.2534 7.77334 21.2731 7.77334C21.3126 7.73388 22.4776 8.06953 22.9317 8.26699C23.6228 8.54345 23.7413 8.56318 23.8203 8.54345C23.8795 8.48418 23.919 8.32626 23.9387 7.83261ZM10.0382 10.7746C9.20891 9.6294 8.6758 7.85234 8.79426 6.5294L8.83372 6.11475L9.03118 6.15428C9.38664 6.21348 9.99875 6.45047 10.2949 6.62813C11.0847 7.10204 11.4402 7.75361 11.7758 9.37275C11.8745 9.84659 12.0127 10.3995 12.072 10.5772C12.1707 10.8733 12.5458 11.5644 12.8618 11.9988C13.0789 12.3147 12.9408 12.4727 12.4471 12.4332C11.6968 12.3542 10.6898 11.6632 10.0382 10.7746ZM22.9317 19.3638C19.0222 17.7842 17.64 16.4217 17.64 14.1115C17.64 13.7759 17.6598 13.4994 17.6598 13.4994C17.6795 13.4994 17.8177 13.618 17.9955 13.7562C18.7852 14.388 19.6738 14.6645 22.1419 15.0198C23.5834 15.237 24.4126 15.395 25.1629 15.6517C27.5521 16.4415 29.033 18.0606 29.3884 20.2523C29.4871 20.8841 29.4279 22.0886 29.2699 22.7204C29.1317 23.2141 28.7368 24.1223 28.6381 24.1421C28.6183 24.1421 28.5789 24.0434 28.5789 23.8854C28.5393 23.0561 28.1247 22.2663 27.4337 21.6542C26.6044 20.9434 25.5381 20.4103 22.9317 19.3638ZM20.1674 20.0153C20.128 19.7192 20.0292 19.344 19.97 19.1861L19.8712 18.8899L20.049 19.1071C20.3056 19.4032 20.5031 19.7587 20.6808 20.2523C20.819 20.6275 20.819 20.7459 20.819 21.358C20.819 21.9504 20.7993 22.0886 20.6808 22.4242C20.4834 22.9574 20.2464 23.3325 19.8515 23.7472C19.1407 24.4778 18.2126 24.8727 16.8898 25.0503C16.6528 25.0701 15.9815 25.1293 15.3891 25.1689C13.9082 25.2478 12.9209 25.4058 12.0325 25.7217C11.914 25.7612 11.7955 25.8007 11.7757 25.7809C11.7363 25.7414 12.3484 25.3861 12.842 25.1491C13.5331 24.8134 14.2439 24.6357 15.8038 24.3593C16.5739 24.2408 17.3636 24.0828 17.5611 24.0038C19.5159 23.3917 20.4834 21.8714 20.1674 20.0153Z" fill="#FF70B5"/>
<path d="M21.9641 23.194C21.4507 22.0686 21.3323 21.0023 21.6086 19.9953C21.6482 19.8966 21.6876 19.7979 21.7271 19.7979C21.7666 19.7979 21.8851 19.857 22.0036 19.936C22.2405 20.094 22.7341 20.3704 23.9978 21.0615C25.5972 21.9303 26.5054 22.6017 27.1373 23.3717C27.6902 24.0431 28.0258 24.8131 28.1838 25.7609C28.2825 26.294 28.2233 27.5774 28.0851 28.1106C27.6506 29.7889 26.6634 31.1316 25.222 31.9016C25.0048 32.02 24.8271 32.099 24.8074 32.099C24.7876 32.099 24.8666 31.9016 24.9851 31.6647C25.4589 30.6576 25.5182 29.6902 25.1628 28.6042C24.9456 27.9328 24.4914 27.1233 23.5832 25.7609C22.4972 24.1813 22.2405 23.7666 21.9641 23.194ZM7.254 29.236C8.71514 28.0118 10.5119 27.1431 12.1705 26.8666C12.8814 26.7482 14.066 26.7876 14.7176 26.9653C15.7641 27.2417 16.7119 27.8341 17.2055 28.5647C17.6794 29.2755 17.8966 29.8876 18.1138 31.25C18.1928 31.7831 18.2915 32.336 18.3113 32.4545C18.4692 33.1653 18.7852 33.7182 19.18 34.0144C19.7921 34.4685 20.8583 34.4882 21.9049 34.0933C22.0826 34.0341 22.2406 33.9748 22.2406 33.9946C22.28 34.0341 21.7469 34.3895 21.3915 34.5672C20.8979 34.8239 20.503 34.9029 19.9699 34.9029C19.0221 34.9029 18.2125 34.4092 17.561 33.422C17.4227 33.2245 17.1463 32.652 16.9093 32.1188C16.2183 30.5195 15.8628 30.0455 15.0533 29.5124C14.3425 29.0583 13.4342 28.9596 12.7431 29.2952C11.8349 29.7296 11.5979 30.8946 12.2297 31.6054C12.4864 31.9016 12.9604 32.1386 13.3552 32.1978C14.0858 32.2965 14.7176 31.7239 14.7176 30.9934C14.7176 30.5194 14.54 30.243 14.066 30.0258C13.4342 29.7494 12.7431 30.0653 12.7629 30.6774C12.7629 30.9341 12.8814 31.092 13.138 31.2106C13.296 31.2895 13.296 31.2895 13.1775 31.2698C12.6049 31.1513 12.4667 30.4405 12.9208 29.9863C13.4737 29.4335 14.6387 29.6704 15.0335 30.4405C15.1915 30.7564 15.2113 31.3882 15.0731 31.7831C14.7374 32.652 13.7896 33.1061 12.8221 32.8493C12.1705 32.6717 11.8941 32.494 11.1043 31.6844C9.72209 30.2628 9.18898 29.9863 7.21447 29.6902L6.83936 29.6309L7.254 29.236Z" fill="#FF70B5"/>
<path fill-rule="evenodd" clip-rule="evenodd" d="M1.37017 1.96802C5.97079 7.5559 8.55722 11.7418 8.91267 12.2157C9.20878 12.6106 9.09032 12.9857 8.59668 13.2622C8.32029 13.4202 7.74765 13.5781 7.47127 13.5781C7.15535 13.5781 6.78017 13.4202 6.52351 13.1635C6.34579 12.9857 5.57568 11.8603 3.83816 9.15525C2.51521 7.082 1.38974 5.36414 1.37 5.34441C1.29101 5.30495 1.29101 5.30495 3.69989 9.60936C5.2203 12.3144 5.71395 13.2819 5.71395 13.4004C5.71395 13.6571 5.63495 13.7953 5.31903 14.1508C4.78592 14.7431 4.549 15.4144 4.37127 16.8163C4.17381 18.3762 3.6407 19.4819 2.12031 21.3577C1.23178 22.4635 1.09356 22.6609 0.876364 23.115C0.599936 23.6679 0.520952 23.9838 0.481461 24.6946C0.441976 25.4449 0.520953 25.9189 0.73815 26.6297C0.935601 27.2615 1.1528 27.6762 1.68592 28.4857C2.14006 29.1965 2.41649 29.7296 2.41649 29.9271C2.41649 30.0851 2.45597 30.0851 3.1668 29.9271C4.86491 29.5322 6.26679 28.8609 7.03682 28.0316C7.51073 27.5182 7.62919 27.2418 7.62919 26.531C7.62919 26.0768 7.60946 25.9781 7.491 25.7017C7.29354 25.2673 6.91836 24.9118 6.10886 24.359C5.04257 23.6284 4.58846 23.036 4.47 22.2462C4.37127 21.5749 4.48973 21.1208 5.08211 19.8769C5.69422 18.5934 5.85214 18.0603 5.95087 16.7571C6.01014 15.9278 6.10886 15.5921 6.34579 15.3354C6.60244 15.059 6.81963 14.9603 7.43173 14.8813C8.43876 14.7431 9.09032 14.4864 9.6037 13.9928C10.0579 13.5781 10.2553 13.1635 10.2751 12.5514L10.2948 12.0973L10.0381 11.8208C9.11005 10.7546 0.758075 1.11898 0.698839 1.11898C0.679094 1.11898 0.995016 1.49414 1.37017 1.96802ZM2.92986 25.5437C3.14706 25.1686 3.02858 24.6946 2.67317 24.4577C2.33751 24.2405 1.82414 24.3393 1.82414 24.6354C1.82414 24.7144 1.86362 24.7934 1.9821 24.8328C2.1598 24.9316 2.17955 25.0303 2.04133 25.2475C1.90311 25.4647 1.90311 25.6621 2.08082 25.8004C2.35725 26.0176 2.73241 25.8991 2.92986 25.5437ZM10.9266 15.1577C10.4528 15.296 9.99861 15.8094 9.86042 16.3227C9.78142 16.6387 9.82096 17.2112 9.95915 17.389C10.1763 17.6653 10.3738 17.7443 10.9266 17.7443C12.0127 17.7443 12.9407 17.2705 13.0394 16.6979C13.1382 16.224 12.7235 15.5724 12.1509 15.2762C11.8547 15.1183 11.2426 15.059 10.9266 15.1577ZM12.1903 16.145C12.3483 15.9081 12.289 15.6514 11.9929 15.4736C11.4597 15.138 10.6503 15.4144 10.6503 15.9278C10.6503 16.1845 11.0649 16.4609 11.4598 16.4609C11.7165 16.4609 12.0719 16.3029 12.1903 16.145Z" fill="#FF70B5"/>
</g>
</g>
<defs>
<clipPath id="clip0_39050_69919">
<rect width="30" height="36" fill="white"/>
</clipPath>
</defs>
</svg>
