<svg width="56" height="56" viewBox="0 0 56 56" fill="none" xmlns="http://www.w3.org/2000/svg">
<g clip-path="url(#clip0_23896_5220)">
<path d="M27.9543 56C43.3934 56 55.9092 43.464 55.9092 28C55.9092 12.536 43.3934 0 27.9543 0C12.5153 0 -0.000488281 12.536 -0.000488281 28C-0.000488281 43.464 12.5153 56 27.9543 56Z" fill="#FF007A"/>
<g clip-path="url(#clip1_23896_5220)">
<mask id="mask0_23896_5220" style="mask-type:luminance" maskUnits="userSpaceOnUse" x="11" y="9" width="34" height="38">
<path d="M44.2628 9.24963H11.6963V46.7504H44.2628V9.24963Z" fill="white"/>
</mask>
<g mask="url(#mask0_23896_5220)">
<path d="M24.4674 17.7831C24.061 17.7251 24.0417 17.7057 24.2351 17.6864C24.6028 17.6283 25.4542 17.7057 26.054 17.8412C27.4473 18.1702 28.705 19.0215 30.0402 20.5115L30.3885 20.9178L30.8916 20.8405C33.0395 20.4921 35.2455 20.7631 37.0837 21.6144C37.5868 21.8467 38.3801 22.3111 38.4769 22.4272C38.5156 22.4659 38.5736 22.7174 38.6124 22.969C38.7478 23.8785 38.6897 24.5557 38.3995 25.0781C38.2447 25.3684 38.2447 25.4458 38.3415 25.6973C38.4189 25.8908 38.6511 26.0263 38.8639 26.0263C39.3284 26.0263 39.8121 25.291 40.0443 24.2654L40.1411 23.8591L40.3152 24.0526C41.302 25.1556 42.0761 26.6842 42.1922 27.7679L42.2309 28.0581L42.0567 27.8065C41.7665 27.3615 41.4956 27.0712 41.1279 26.8196C40.47 26.3746 39.7734 26.2392 37.9351 26.1424C36.271 26.0457 35.3228 25.9102 34.394 25.6006C32.8073 25.0781 31.9946 24.4009 30.1176 21.9047C29.2856 20.8017 28.7631 20.2019 28.2407 19.6988C27.099 18.5959 25.9573 18.0153 24.4674 17.7831Z" fill="white"/>
<path d="M38.8836 20.2405C38.9222 19.5052 39.019 19.0215 39.2319 18.5764C39.3093 18.4023 39.3867 18.2474 39.406 18.2474C39.4253 18.2474 39.3867 18.3829 39.3286 18.5377C39.1738 18.9634 39.1545 19.5633 39.2512 20.2405C39.3867 21.1113 39.4448 21.2274 40.3736 22.1756C40.7992 22.6206 41.3024 23.1818 41.4959 23.414L41.8248 23.8397L41.4959 23.5301C41.0895 23.143 40.1607 22.4077 39.9479 22.311C39.8124 22.2336 39.793 22.2336 39.6963 22.3303C39.6189 22.4077 39.5995 22.5238 39.5995 23.085C39.5802 23.9558 39.4641 24.4976 39.1738 25.0587C39.019 25.349 38.9997 25.2909 39.1352 24.962C39.2319 24.7105 39.2512 24.5944 39.2512 23.7622C39.2512 22.0788 39.0577 21.6725 37.8773 20.9952C37.5871 20.8211 37.084 20.5695 36.7938 20.4341C36.4842 20.2986 36.2519 20.1825 36.2713 20.1825C36.31 20.1438 37.4516 20.4727 37.8967 20.6662C38.574 20.9372 38.6901 20.9565 38.7675 20.9372C38.8255 20.8791 38.8642 20.7243 38.8836 20.2405ZM25.261 23.1237C24.4483 22.0014 23.9259 20.2599 24.042 18.9634L24.0807 18.557L24.2742 18.5958C24.6225 18.6538 25.2224 18.886 25.5126 19.0601C26.2866 19.5246 26.635 20.1631 26.9639 21.7499C27.0606 22.2142 27.1961 22.7561 27.2542 22.9302C27.3509 23.2205 27.7185 23.8977 28.0281 24.3234C28.241 24.633 28.1055 24.7878 27.6218 24.7491C26.8865 24.6717 25.8996 23.9945 25.261 23.1237ZM37.8967 31.5411C34.0654 29.9931 32.7108 28.6578 32.7108 26.3939C32.7108 26.065 32.7302 25.794 32.7302 25.794C32.7496 25.794 32.885 25.9102 33.0592 26.0456C33.8331 26.6648 34.7039 26.9357 37.1227 27.284C38.5353 27.4969 39.3479 27.6517 40.0833 27.9032C42.4247 28.6773 43.8759 30.2639 44.2242 32.4118C44.3209 33.031 44.2629 34.2114 44.1081 34.8306C43.9727 35.3144 43.5857 36.2044 43.4889 36.2238C43.4696 36.2238 43.4309 36.1271 43.4309 35.9723C43.3921 35.1595 42.9858 34.3856 42.3086 33.7857C41.4959 33.0891 40.4509 32.5666 37.8967 31.5411ZM35.1877 32.1796C35.149 31.8894 35.0523 31.5217 34.9942 31.3669L34.8974 31.0766L35.0716 31.2895C35.3231 31.5798 35.5166 31.9281 35.6908 32.4118C35.8262 32.7795 35.8262 32.8956 35.8262 33.4954C35.8262 34.076 35.8069 34.2114 35.6908 34.5403C35.4973 35.0628 35.2651 35.4305 34.8781 35.8368C34.1815 36.5528 33.272 36.9398 31.9756 37.1139C31.7433 37.1333 31.0855 37.1913 30.5049 37.2301C29.0537 37.3074 28.0861 37.4622 27.2154 37.7718C27.0993 37.8105 26.9832 37.8493 26.9638 37.8299C26.9251 37.7912 27.525 37.4429 28.0088 37.2107C28.686 36.8817 29.3826 36.7075 30.9113 36.4367C31.666 36.3206 32.4399 36.1658 32.6335 36.0883C34.5491 35.4885 35.4973 33.9986 35.1877 32.1796Z" fill="white"/>
<path d="M36.9482 35.2951C36.4451 34.1921 36.329 33.1472 36.5999 32.1603C36.6386 32.0636 36.6773 31.9668 36.716 31.9668C36.7547 31.9668 36.8708 32.0248 36.9869 32.1022C37.2191 32.2571 37.7028 32.5279 38.9412 33.2052C40.5087 34.0566 41.3987 34.7145 42.0179 35.4692C42.5598 36.1271 42.8887 36.8817 43.0436 37.8105C43.1402 38.333 43.0822 39.5908 42.9468 40.1132C42.521 41.758 41.5536 43.0738 40.141 43.8285C39.9281 43.9445 39.754 44.022 39.7346 44.022C39.7153 44.022 39.7927 43.8285 39.9088 43.5963C40.3732 42.6094 40.4312 41.6613 40.0829 40.597C39.8701 39.9391 39.425 39.1457 38.5349 37.8105C37.4707 36.2625 37.2191 35.8562 36.9482 35.2951ZM22.5323 41.2162C23.9642 40.0165 25.7251 39.1651 27.3505 38.8942C28.0471 38.7781 29.2081 38.8168 29.8467 38.9909C30.8722 39.2618 31.8011 39.8423 32.2848 40.5583C32.7492 41.2549 32.9621 41.8548 33.1749 43.1899C33.2523 43.7124 33.3491 44.2542 33.3684 44.3703C33.5232 45.0669 33.8329 45.6087 34.2198 45.899C34.8197 46.344 35.8646 46.3633 36.8902 45.9763C37.0643 45.9183 37.2191 45.8602 37.2191 45.8796C37.2578 45.9183 36.7354 46.2666 36.3871 46.4408C35.9033 46.6923 35.5163 46.7697 34.9939 46.7697C34.0651 46.7697 33.2717 46.2859 32.6331 45.3185C32.4976 45.1249 32.2268 44.5638 31.9945 44.0413C31.3173 42.474 30.969 42.0095 30.1757 41.4871C29.4791 41.0421 28.5889 40.9453 27.9116 41.2742C27.0216 41.6999 26.7893 42.8416 27.4085 43.5382C27.6601 43.8285 28.1246 44.0607 28.5115 44.1187C29.2275 44.2155 29.8467 43.6544 29.8467 42.9384C29.8467 42.474 29.6726 42.203 29.2081 41.9902C28.5889 41.7193 27.9116 42.0289 27.931 42.6288C27.931 42.8803 28.0471 43.0351 28.2987 43.1512C28.4535 43.2286 28.4535 43.2286 28.3374 43.2093C27.7762 43.0932 27.6408 42.3965 28.0858 41.9515C28.6276 41.4097 29.7693 41.6419 30.1563 42.3965C30.3111 42.7061 30.3304 43.3253 30.195 43.7124C29.8661 44.5638 28.9372 45.0089 27.9891 44.7573C27.3505 44.5832 27.0796 44.409 26.3056 43.6156C24.9511 42.2224 24.4286 41.9515 22.4936 41.6613L22.126 41.6032L22.5323 41.2162Z" fill="white"/>
<path fill-rule="evenodd" clip-rule="evenodd" d="M12.3541 10.0817C16.8627 15.5578 23.8094 24.0719 24.1578 24.5363C24.4479 24.9233 24.3319 25.2909 23.8481 25.5619C23.5772 25.7167 23.016 25.8715 22.7452 25.8715C22.4356 25.8715 22.0679 25.7167 21.8164 25.4651C21.6422 25.2909 20.8875 24.188 19.1847 21.5371C17.8882 19.5053 16.7853 17.8218 16.7659 17.8024C16.6885 17.7638 16.6885 17.7638 19.0492 21.9821C20.5392 24.6331 21.023 25.5812 21.023 25.6973C21.023 25.9489 20.9456 26.0843 20.636 26.4327C20.1135 27.0131 19.8814 27.6711 19.7072 29.0449C19.5137 30.5736 18.9912 31.6572 17.5012 33.4955C16.6305 34.5791 16.495 34.7726 16.2822 35.2177C16.0113 35.7594 15.9339 36.069 15.8952 36.7657C15.8565 37.501 15.9339 37.9654 16.1467 38.662C16.3402 39.2812 16.5531 39.6876 17.0755 40.4809C17.5206 41.1775 17.7915 41.6999 17.7915 41.8935C17.7915 42.0483 17.8302 42.0483 18.5268 41.8935C20.191 41.5065 21.5648 40.8486 22.3194 40.0358C22.7839 39.5327 22.8999 39.2619 22.8999 38.5653C22.8999 38.1202 22.8806 38.0234 22.7645 37.7526C22.571 37.3269 22.2033 36.9785 21.41 36.4367C20.3651 35.7208 19.92 35.1402 19.8039 34.3662C19.7072 33.7083 19.8233 33.2633 20.4038 32.0442C21.0037 30.7864 21.1584 30.264 21.2552 28.9869C21.3133 28.1742 21.41 27.8452 21.6422 27.5937C21.8937 27.3227 22.1066 27.226 22.7064 27.1486C23.6933 27.0131 24.3319 26.7616 24.835 26.2778C25.2801 25.8715 25.4735 25.4651 25.4929 24.8653L25.5123 24.4202L25.2607 24.1493C24.3512 23.1044 11.7542 9.24963 11.6962 9.24963C11.6768 9.24963 11.9864 9.61729 12.3541 10.0817ZM18.2946 37.5977C18.5075 37.2301 18.3914 36.7657 18.043 36.5335C17.7141 36.3206 17.211 36.4174 17.211 36.7076C17.211 36.785 17.2497 36.8624 17.3658 36.9011C17.5399 36.9978 17.5593 37.0946 17.4238 37.3074C17.2884 37.5203 17.2884 37.7138 17.4625 37.8493C17.7334 38.0621 18.1011 37.9461 18.2946 37.5977ZM26.1315 27.4195C25.6671 27.555 25.222 28.0581 25.0866 28.5612C25.0091 28.8708 25.0479 29.4319 25.1833 29.6061C25.3962 29.877 25.5897 29.9544 26.1315 29.9544C27.1958 29.9544 28.1052 29.49 28.202 28.9288C28.2987 28.4644 27.8924 27.8258 27.3312 27.5356C27.0409 27.3808 26.4411 27.3227 26.1315 27.4195ZM27.3699 28.387C27.5247 28.1548 27.4666 27.9033 27.1764 27.7291C26.6539 27.4001 25.8606 27.6711 25.8606 28.1742C25.8606 28.4257 26.267 28.6966 26.6539 28.6966C26.9055 28.6966 27.2538 28.5418 27.3699 28.387Z" fill="white"/>
</g>
</g>
</g>
<defs>
<clipPath id="clip0_23896_5220">
<rect width="56" height="56" rx="28" fill="white"/>
</clipPath>
<clipPath id="clip1_23896_5220">
<rect width="32.6667" height="37.5007" fill="white" transform="translate(11.6665 9.24963)"/>
</clipPath>
</defs>
</svg>
