<svg width="280" height="120" viewBox="0 0 280 120" fill="none" xmlns="http://www.w3.org/2000/svg">
<g clip-path="url(#clip0_23971_5605)">
<path d="M280 120H196C205.94 120 214.94 115.97 221.46 109.46C227.97 102.94 232 93.94 232 84C232 64.12 215.88 48 196 48H36C26.06 48 17.06 52.03 10.54 58.54C4.03 65.06 0 74.06 0 84C0 103.88 16.12 120 36 120H0V0C0 17.67 13.33 32 31 32H199C226.06 32 248 53.94 248 81V88C248 105.67 262.33 120 280 120Z" fill="white"/>
<path d="M0 45H222L245 120H0V45Z" fill="white"/>
</g>
<defs>
<clipPath id="clip0_23971_5605">
<rect width="280" height="120" fill="white"/>
</clipPath>
</defs>
</svg>
