<svg width="553" height="228" viewBox="0 0 552 227" fill="none" xmlns="http://www.w3.org/2000/svg">
    <g clip-path="url(#clip0_23972_5618)">
        <path d="M437.67 208.67C449.61 196.73 457 180.23 457 162C457 125.55 427.45 96 391 96H66C47.77 96 31.27 103.39 19.33 115.33C7.39 127.27 0 143.77 0 162V0C0 35.35 28.65 64 64 64H389C444.23 64 489 108.78 489 164C489 181.67 496.16 197.67 507.74 209.26C519.33 220.84 535.33 228 553 228H391C409.23 228 425.73 220.61 437.67 208.67Z"
              fill="white"/>
        <rect y="94" width="458" height="134" fill="white"/>
    </g>
    <defs>
        <clipPath id="clip0_23972_5618">
            <rect width="553" height="228" fill="white"/>
        </clipPath>
    </defs>
</svg>
