<svg width="32" height="32" viewBox="0 0 32 32" fill="none" xmlns="http://www.w3.org/2000/svg">
<path fill-rule="evenodd" clip-rule="evenodd" d="M16 0C7.16344 0 0 7.16344 0 16C0 24.8366 7.16344 32 16 32C24.8366 32 32 24.8366 32 16C32 7.16344 24.8366 0 16 0ZM9.93676 6.93333H22.5966C23.6642 6.93333 24.5333 7.792 24.5333 8.856V25.6L22.5021 23.8267L21.3589 22.7813L20.1496 21.6707L20.6504 23.3973H9.93676C8.86918 23.3973 8 22.5387 8 21.4747V8.856C8 7.792 8.86918 6.93333 9.93676 6.93333Z" fill="white"/>
<path fill-rule="evenodd" clip-rule="evenodd" d="M18.9498 19.1228C18.9498 19.1228 18.6096 18.7215 18.3262 18.3668C19.5639 18.0215 20.0362 17.2561 20.0362 17.2561C19.6489 17.5081 19.2804 17.6855 18.9498 17.8068C18.4774 18.0028 18.0239 18.1335 17.5799 18.2081C16.6729 18.3761 15.8415 18.3295 15.1329 18.1988C14.5944 18.0961 14.1315 17.9468 13.7441 17.7975C13.5268 17.7135 13.2906 17.6108 13.0544 17.4801C13.0403 17.4708 13.0261 17.4638 13.0119 17.4568C12.9978 17.4498 12.9836 17.4428 12.9694 17.4335C12.9505 17.4241 12.9411 17.4148 12.9316 17.4055C12.7616 17.3121 12.6671 17.2468 12.6671 17.2468C12.6671 17.2468 13.1206 17.9935 14.3204 18.3481C14.037 18.7028 13.6874 19.1228 13.6874 19.1228C11.5995 19.0575 10.8059 17.7041 10.8059 17.7041C10.8059 14.6988 12.1664 12.2628 12.1664 12.2628C13.5268 11.2548 14.8211 11.2828 14.8211 11.2828L14.9156 11.3948C13.2151 11.8801 12.4309 12.6175 12.4309 12.6175C12.4309 12.6175 12.6387 12.5055 12.9883 12.3468C13.9992 11.9081 14.8023 11.7868 15.1329 11.7588L15.1541 11.7553C15.2018 11.7472 15.244 11.7401 15.2935 11.7401C15.8698 11.6655 16.5217 11.6468 17.2019 11.7215C18.0995 11.8241 19.0631 12.0855 20.0457 12.6175C20.0457 12.6175 19.2993 11.9175 17.6932 11.4321L17.8255 11.2828C17.8255 11.2828 19.1198 11.2548 20.4803 12.2628C20.4803 12.2628 21.8407 14.6988 21.8407 17.7041C21.8407 17.7041 21.0377 19.0575 18.9498 19.1228ZM14.8232 14.9338C14.2889 14.9338 13.8671 15.4142 13.8671 16.0004C13.8671 16.5866 14.2983 17.0671 14.8232 17.0671C15.3574 17.0671 15.7792 16.5866 15.7792 16.0004C15.7886 15.4142 15.3574 14.9338 14.8232 14.9338ZM17.2878 16.0001C17.2878 15.4139 17.7096 14.9335 18.2439 14.9335C18.7782 14.9335 19.2 15.4139 19.2 16.0001C19.2 16.5863 18.7782 17.0668 18.2439 17.0668C17.719 17.0668 17.2878 16.5863 17.2878 16.0001Z" fill="white"/>
</svg>
