<svg width="32" height="32" viewBox="0 0 32 32" fill="none" xmlns="http://www.w3.org/2000/svg">
<path fill-rule="evenodd" clip-rule="evenodd" d="M16 32C24.8366 32 32 24.8366 32 16C32 7.16344 24.8366 0 16 0C7.16344 0 0 7.16344 0 16C0 24.8366 7.16344 32 16 32ZM10.5601 23.1202C14.4924 23.1202 17.6801 19.9325 17.6801 16.0002C17.6801 12.0679 14.4924 8.88021 10.5601 8.88021C6.62784 8.88021 3.4401 12.0679 3.4401 16.0002C3.4401 19.9325 6.62784 23.1202 10.5601 23.1202ZM25.3601 16.0002C25.3601 19.7116 23.7841 22.7202 21.8401 22.7202C19.8961 22.7202 18.3201 19.7116 18.3201 16.0002C18.3201 12.2889 19.8961 9.28021 21.8401 9.28021C23.7841 9.28021 25.3601 12.2889 25.3601 16.0002ZM27.2406 22C27.9696 22 28.5606 19.3137 28.5606 16C28.5606 12.6863 27.9696 10 27.2406 10C26.5116 10 25.9206 12.6863 25.9206 16C25.9206 19.3137 26.5116 22 27.2406 22Z" fill="white"/>
</svg>
