<svg width="157" height="28" viewBox="0 0 157 28" fill="none" xmlns="http://www.w3.org/2000/svg">
<path d="M20.9816 3.86322H5.21268L7.09465 0.341379C7.20641 0.128736 7.41931 0 7.64178 0H21.9045C22.1185 0 22.3143 0.124138 22.4208 0.322989L24.5976 4.38851C24.67 4.52644 24.67 4.6977 24.5976 4.83563L22.0365 9.62069L24.3762 14L22.3271 17.8356L18.0714 9.87931C17.9777 9.7046 17.9777 9.48736 18.0714 9.31264L20.9827 3.86437L20.9816 3.86322ZM5.06259 23.8598L7.10316 27.677C7.20961 27.8747 7.41079 28 7.62368 28H21.8822C22.1089 28 22.3175 27.8713 22.4325 27.6586L24.3155 24.1368H8.81056L11.5856 18.9506C11.6793 18.7759 11.6793 18.5586 11.5856 18.3839L7.19258 10.1747L5.14775 14.0011L7.62368 18.6287L5.06259 23.4184C4.9902 23.5563 4.9902 23.7276 5.06259 23.8609V23.8598Z" fill="#7335F7"/>
<path d="M10.7571 22.9923H24.4386C24.742 22.9923 25.0187 22.8176 25.1731 22.5314L29.3479 14.7222C29.5874 14.2751 29.5874 13.7222 29.3479 13.2751L25.3179 5.73828L23.2517 9.6015L25.5999 13.9992L24.131 16.7509L22.9356 18.982L22.8589 19.1245H12.8232L10.7571 22.9923Z" fill="#7335F7"/>
<path d="M0.179384 14.7231L4.32014 22.4668L6.38626 18.6036L3.9231 13.999L6.58212 9.03L6.66728 8.87368H16.9723L19.0385 5.00586H5.08868C4.78531 5.00586 4.50429 5.18057 4.3542 5.46678L0.179384 13.276C-0.0601201 13.7231 -0.0601201 14.276 0.179384 14.7231Z" fill="#7335F7"/>
<path d="M33.5278 13.8897C33.5278 12.1076 33.8905 10.5535 34.6157 9.22728C35.341 7.88035 36.346 6.84425 37.6308 6.11899C38.9155 5.373 40.3868 5 42.0445 5C44.1789 5 45.9402 5.53877 47.3286 6.61631C48.7377 7.67313 49.6806 9.16511 50.1572 11.0923H45.4636C45.215 10.3463 44.7902 9.76605 44.1892 9.35161C43.609 8.91645 42.8838 8.69887 42.0134 8.69887C40.7701 8.69887 39.7858 9.15475 39.0606 10.0665C38.3353 10.9576 37.9727 12.232 37.9727 13.8897C37.9727 15.5267 38.3353 16.8011 39.0606 17.7129C39.7858 18.604 40.7701 19.0495 42.0134 19.0495C43.7748 19.0495 44.9249 18.262 45.4636 16.6872H50.1572C49.6806 18.5522 48.7377 20.0338 47.3286 21.132C45.9195 22.2303 44.1582 22.7794 42.0445 22.7794C40.3868 22.7794 38.9155 22.4168 37.6308 21.6915C36.346 20.9455 35.341 19.9094 34.6157 18.5832C33.8905 17.2363 33.5278 15.6718 33.5278 13.8897Z" fill="white"/>
<path d="M60.2144 22.7794C58.5566 22.7794 57.0647 22.4168 55.7385 21.6915C54.4123 20.9455 53.3658 19.8991 52.5991 18.5522C51.8531 17.2052 51.4801 15.6511 51.4801 13.8897C51.4801 12.1283 51.8635 10.5742 52.6302 9.22728C53.4176 7.88035 54.4848 6.84425 55.8317 6.11899C57.1786 5.373 58.681 5 60.3387 5C61.9965 5 63.4988 5.373 64.8457 6.11899C66.1927 6.84425 67.2495 7.88035 68.0162 9.22728C68.8036 10.5742 69.1973 12.1283 69.1973 13.8897C69.1973 15.6511 68.7933 17.2052 67.9851 18.5522C67.1977 19.8991 66.1201 20.9455 64.7525 21.6915C63.4056 22.4168 61.8929 22.7794 60.2144 22.7794ZM60.2144 18.9873C61.0018 18.9873 61.7375 18.8008 62.4213 18.4278C63.1258 18.0341 63.6853 17.4539 64.0998 16.6872C64.5142 15.9205 64.7214 14.988 64.7214 13.8897C64.7214 12.2527 64.2863 10.999 63.4159 10.1287C62.5663 9.23764 61.5199 8.79212 60.2766 8.79212C59.0332 8.79212 57.9868 9.23764 57.1372 10.1287C56.3083 10.999 55.8939 12.2527 55.8939 13.8897C55.8939 15.5267 56.298 16.7908 57.1061 17.6818C57.935 18.5522 58.9711 18.9873 60.2144 18.9873Z" fill="white"/>
<path d="M81.1548 5.03108C83.2062 5.03108 84.864 5.68382 86.128 6.98931C87.3921 8.27407 88.0241 10.0769 88.0241 12.3977V22.4997H83.6725V12.9883C83.6725 11.6207 83.3306 10.5742 82.6467 9.84894C81.9629 9.10295 81.0304 8.72995 79.8493 8.72995C78.6474 8.72995 77.6942 9.10295 76.9897 9.84894C76.3058 10.5742 75.9639 11.6207 75.9639 12.9883V22.4997H71.6123V5.27975H75.9639V7.42447C76.5441 6.67848 77.2798 6.09826 78.1708 5.68382C79.0826 5.24866 80.0772 5.03108 81.1548 5.03108Z" fill="white"/>
<path d="M90.2662 13.8897C90.2662 12.1076 90.6288 10.5535 91.3541 9.22728C92.0793 7.88035 93.0843 6.84425 94.3691 6.11899C95.6539 5.373 97.1251 5 98.7829 5C100.917 5 102.679 5.53877 104.067 6.61631C105.476 7.67313 106.419 9.16511 106.895 11.0923H102.202C101.953 10.3463 101.529 9.76605 100.928 9.35161C100.347 8.91645 99.6221 8.69887 98.7518 8.69887C97.5085 8.69887 96.5242 9.15475 95.7989 10.0665C95.0736 10.9576 94.711 12.232 94.711 13.8897C94.711 15.5267 95.0736 16.8011 95.7989 17.7129C96.5242 18.604 97.5085 19.0495 98.7518 19.0495C100.513 19.0495 101.663 18.262 102.202 16.6872H106.895C106.419 18.5522 105.476 20.0338 104.067 21.132C102.658 22.2303 100.896 22.7794 98.7829 22.7794C97.1251 22.7794 95.6539 22.4168 94.3691 21.6915C93.0843 20.9455 92.0793 19.9094 91.3541 18.5832C90.6288 17.2363 90.2662 15.6718 90.2662 13.8897Z" fill="white"/>
<path d="M125.314 13.5167C125.314 14.1384 125.273 14.6979 125.19 15.1952H112.601C112.705 16.4385 113.14 17.4124 113.907 18.117C114.673 18.8215 115.616 19.1738 116.735 19.1738C118.351 19.1738 119.502 18.4796 120.185 17.0913H124.879C124.382 18.749 123.428 20.1167 122.019 21.1942C120.61 22.251 118.88 22.7794 116.828 22.7794C115.171 22.7794 113.679 22.4168 112.352 21.6915C111.047 20.9455 110.021 19.8991 109.275 18.5522C108.55 17.2052 108.187 15.6511 108.187 13.8897C108.187 12.1076 108.55 10.5431 109.275 9.19619C110.001 7.84927 111.016 6.81317 112.321 6.0879C113.627 5.36263 115.129 5 116.828 5C118.465 5 119.926 5.35227 121.211 6.05682C122.517 6.76136 123.522 7.76638 124.226 9.07186C124.951 10.3566 125.314 11.8382 125.314 13.5167ZM120.807 12.2734C120.786 11.1544 120.382 10.2634 119.595 9.60027C118.807 8.91645 117.844 8.57454 116.704 8.57454C115.627 8.57454 114.715 8.90609 113.969 9.56919C113.244 10.2116 112.798 11.113 112.632 12.2734H120.807Z" fill="white"/>
<path d="M132.065 7.95288C132.624 7.04111 133.35 6.3262 134.241 5.80816C135.152 5.29011 136.188 5.03108 137.349 5.03108V9.60027H136.199C134.831 9.60027 133.795 9.92146 133.091 10.5638C132.407 11.2062 132.065 12.3252 132.065 13.9208V22.4997H127.713V5.27975H132.065V7.95288Z" fill="white"/>
<path d="M147.149 22.7794C145.491 22.7794 144 22.4168 142.673 21.6915C141.347 20.9455 140.301 19.8991 139.534 18.5522C138.788 17.2052 138.415 15.6511 138.415 13.8897C138.415 12.1283 138.798 10.5742 139.565 9.22728C140.352 7.88035 141.42 6.84425 142.767 6.11899C144.113 5.373 145.616 5 147.274 5C148.931 5 150.434 5.373 151.781 6.11899C153.128 6.84425 154.184 7.88035 154.951 9.22728C155.738 10.5742 156.132 12.1283 156.132 13.8897C156.132 15.6511 155.728 17.2052 154.92 18.5522C154.133 19.8991 153.055 20.9455 151.687 21.6915C150.34 22.4168 148.828 22.7794 147.149 22.7794ZM147.149 18.9873C147.937 18.9873 148.672 18.8008 149.356 18.4278C150.061 18.0341 150.62 17.4539 151.035 16.6872C151.449 15.9205 151.656 14.988 151.656 13.8897C151.656 12.2527 151.221 10.999 150.351 10.1287C149.501 9.23764 148.455 8.79212 147.211 8.79212C145.968 8.79212 144.922 9.23764 144.072 10.1287C143.243 10.999 142.829 12.2527 142.829 13.8897C142.829 15.5267 143.233 16.7908 144.041 17.6818C144.87 18.5522 145.906 18.9873 147.149 18.9873Z" fill="white"/>
</svg>
