<svg width="483" height="66" viewBox="0 0 483 66" fill="none" xmlns="http://www.w3.org/2000/svg">
<g filter="url(#filter0_i_39075_71247)">
<path d="M50.9346 9.01449H12.6689L17.2404 0.794461C17.5057 0.296599 18.0261 0 18.5669 0H53.1795C53.6999 0 54.1693 0.285997 54.4346 0.75208L59.7204 10.2327C59.8938 10.5504 59.8938 10.9529 59.7204 11.2707L53.506 22.4356L59.1795 32.647L54.2101 41.5979L43.8835 23.0394C43.659 22.6262 43.659 22.1284 43.8835 21.7153L50.9448 9.00389L50.9346 9.01449ZM12.3016 55.6652L17.2506 64.5737C17.5057 65.0398 17.9955 65.3258 18.5159 65.3258H53.1183C53.6693 65.3258 54.1795 65.0292 54.455 64.5314L59.0265 56.3114H21.4037L28.1384 44.2144C28.3629 43.8013 28.3629 43.3034 28.1384 42.8903L17.4751 23.7385L12.5158 32.6682L18.5261 43.4623L12.3117 54.6377C12.1383 54.9555 12.1383 55.358 12.3117 55.6652H12.3016Z" fill="#EAEAEA"/>
</g>
<g filter="url(#filter1_i_39075_71247)">
<path d="M26.1289 53.6471H59.3333C60.068 53.6471 60.7415 53.2339 61.119 52.5666L71.2518 34.347C71.8334 33.3089 71.8334 32.0165 71.2518 30.9679L61.4762 13.3838L56.4659 22.3983L62.1599 32.6627L58.5986 39.0819L55.7006 44.283L55.5169 44.6114H31.1596L26.1493 53.6364L26.1289 53.6471Z" fill="#EAEAEA"/>
</g>
<g filter="url(#filter2_i_39075_71247)">
<path d="M0.456626 34.3493L10.5077 52.4206L15.518 43.4061L9.53834 32.665L15.9874 21.0765L16.1915 20.7057H41.2019L46.2122 11.6807H12.3547C11.62 11.6807 10.9363 12.0938 10.569 12.7611L0.436229 30.9808C-0.14541 32.0189 -0.14541 33.3112 0.436229 34.3599L0.456626 34.3493Z" fill="#EAEAEA"/>
</g>
<g filter="url(#filter3_i_39075_71247)">
<path d="M107.814 12.6888C112.661 7.81608 119.406 5.36914 128.059 5.36914C132.61 5.36914 136.62 6.00471 140.09 7.28644C143.559 8.56817 146.11 10.1147 147.753 11.9367C149.396 13.7586 150.732 15.5912 151.784 17.4555C152.824 19.3093 153.426 20.8664 153.569 22.0952L153.906 24.0654H139.253C139.181 23.9065 139.1 23.6629 139.028 23.3134C138.957 22.9638 138.641 22.4023 138.079 21.6291C137.518 20.8558 136.885 20.1567 136.181 19.5423C135.467 18.9279 134.396 18.3665 132.936 17.858C131.477 17.3602 129.855 17.106 128.069 17.106C123.814 17.106 120.589 18.4195 118.395 21.0571C116.191 23.6947 115.099 27.4022 115.099 32.2007C115.099 36.9993 116.222 40.9715 118.457 43.874C120.691 46.7764 123.896 48.2276 128.079 48.2276C130.916 48.2276 133.263 47.4755 135.13 45.9608C136.998 44.446 138.151 42.9206 138.6 41.3741L139.273 39.1708H153.814C153.743 39.711 153.631 40.4525 153.477 41.3741C153.324 42.3063 152.712 43.9693 151.63 46.3633C150.549 48.7679 149.192 50.8758 147.549 52.6872C145.906 54.5092 143.375 56.1722 139.936 57.6764C136.508 59.1912 132.559 59.9433 128.079 59.9433C119.355 59.9433 112.569 57.4646 107.722 52.5071C102.875 47.5497 100.446 40.7809 100.446 32.1901C100.446 24.1396 102.906 17.6356 107.834 12.6782L107.814 12.6888Z" fill="#EAEAEA"/>
</g>
<g filter="url(#filter4_i_39075_71247)">
<path d="M164.636 13.157C169.708 7.96648 176.677 5.38184 185.555 5.38184C194.432 5.38184 201.422 7.97707 206.524 13.157C211.637 18.3474 214.188 24.8514 214.188 32.6689C214.188 40.4864 211.657 47.0646 206.586 52.1809C201.443 57.3714 194.432 59.956 185.555 59.956C176.677 59.956 169.687 57.3395 164.585 52.1173C159.473 46.895 156.922 40.4123 156.922 32.6689C156.922 24.9256 159.493 18.3474 164.636 13.157ZM171.575 32.6689C171.575 37.1603 172.769 40.8783 175.157 43.8125C177.545 46.7573 181.014 48.2298 185.565 48.2298C190.116 48.2298 193.483 46.7362 195.912 43.7596C198.33 40.783 199.545 37.0861 199.545 32.6689C199.545 28.0187 198.351 24.2688 195.963 21.4088C193.575 18.5487 190.106 17.1081 185.555 17.1081C181.004 17.1081 177.534 18.5381 175.147 21.4088C172.759 24.2688 171.565 28.0293 171.565 32.6689H171.575Z" fill="#EAEAEA"/>
</g>
<g filter="url(#filter5_i_39075_71247)">
<path d="M233.546 6.53645V13.8561C236.975 8.28427 242.046 5.45599 248.761 5.38184H249.546C257.75 5.38184 263.526 7.62753 266.883 12.1189C270.24 16.6102 271.914 23.0295 271.914 31.3978V58.8014H257.485V31.3978C257.485 22.0337 254.128 17.3093 247.414 17.2352H247.077C242.597 17.2352 239.322 18.7606 237.23 21.8219C235.138 24.8832 234.097 29.2368 234.097 34.8828V58.8014H219.668V6.54705H233.536L233.546 6.53645Z" fill="#EAEAEA"/>
</g>
<g filter="url(#filter6_i_39075_71247)">
<path d="M284.223 12.6888C289.07 7.81608 295.815 5.36914 304.468 5.36914C309.02 5.36914 313.03 6.00471 316.499 7.28644C319.969 8.56817 322.52 10.1147 324.163 11.9367C325.805 13.7586 327.142 15.5912 328.193 17.4555C329.234 19.3093 329.836 20.8664 329.979 22.0952L330.316 24.0654H315.662C315.591 23.9065 315.509 23.6629 315.438 23.3134C315.367 22.9638 315.05 22.4023 314.489 21.6291C313.928 20.8558 313.295 20.1567 312.591 19.5423C311.877 18.9279 310.805 18.3665 309.346 17.858C307.887 17.3602 306.264 17.106 304.479 17.106C300.224 17.106 296.999 18.4195 294.805 21.0571C292.601 23.6947 291.509 27.4022 291.509 32.2007C291.509 36.9993 292.632 40.9715 294.866 43.874C297.101 46.7764 300.305 48.2276 304.489 48.2276C307.326 48.2276 309.673 47.4755 311.54 45.9608C313.407 44.446 314.56 42.9206 315.009 41.3741L315.683 39.1708H330.224C330.152 39.711 330.04 40.4525 329.887 41.3741C329.734 42.3063 329.122 43.9693 328.04 46.3633C326.959 48.7679 325.601 50.8758 323.958 52.6872C322.316 54.5092 319.785 56.1722 316.346 57.6764C312.918 59.1912 308.969 59.9433 304.489 59.9433C295.764 59.9433 288.979 57.4646 284.132 52.5071C279.285 47.5497 276.856 40.7809 276.856 32.1901C276.856 24.1396 279.315 17.6356 284.244 12.6782L284.223 12.6888Z" fill="#EAEAEA"/>
</g>
<g filter="url(#filter7_i_39075_71247)">
<path d="M340.49 12.9218C345.266 7.8902 351.827 5.36914 360.174 5.36914C368.521 5.36914 374.776 7.86902 379.358 12.8582C383.939 17.8474 386.235 24.4892 386.235 32.7727C386.235 34.171 386.164 35.601 386.011 37.0734H347.419C347.715 40.4843 349.082 43.1854 351.5 45.1981C353.919 47.2107 356.888 48.217 360.398 48.217C362.041 48.217 363.511 48.0264 364.817 47.6344C366.123 47.2531 367.123 46.8082 367.837 46.2997C368.541 45.8019 369.143 45.2722 369.623 44.732C370.103 44.1918 370.419 43.7257 370.572 43.3338L370.796 42.7511H385.225C385.154 43.2172 384.98 43.8316 384.725 44.6049C384.46 45.3781 383.756 46.7552 382.603 48.7255C381.45 50.6958 380.052 52.4436 378.409 53.9477C376.766 55.4625 374.347 56.829 371.133 58.0684C367.929 59.3077 364.307 59.9221 360.286 59.9221C352.235 59.9221 345.725 57.4645 340.765 52.5495C335.806 47.6344 333.327 41.0351 333.327 32.7515C333.327 24.4679 335.714 18.0063 340.49 12.89V12.9218ZM372.256 27.0844V26.7348C372.256 23.79 371.133 21.449 368.898 19.7118C366.664 17.9746 363.786 17.0954 360.286 17.0954C356.786 17.0954 353.776 18.0275 351.5 19.8813C349.225 21.735 347.868 24.1396 347.419 27.0844H372.256Z" fill="#EAEAEA"/>
</g>
<g filter="url(#filter8_i_39075_71247)">
<path d="M391.723 6.53809H405.815V14.3238C408.795 9.13333 413.305 6.53809 419.346 6.53809H425.274V19.08H419.683C413.795 19.08 410.06 20.5736 408.499 23.5502C406.927 26.5267 406.152 32.9778 406.152 42.882V58.7924H391.723V6.53809Z" fill="#EAEAEA"/>
</g>
<g filter="url(#filter9_i_39075_71247)">
<path d="M433.448 13.157C438.519 7.96648 445.489 5.38184 454.366 5.38184C463.244 5.38184 470.234 7.97707 475.336 13.157C480.448 18.3474 482.999 24.8514 482.999 32.6689C482.999 40.4864 480.458 47.0646 475.397 52.1809C470.254 57.3714 463.234 59.956 454.366 59.956C445.499 59.956 438.499 57.3395 433.397 52.1173C428.284 46.895 425.733 40.4123 425.733 32.6689C425.733 24.9256 428.305 18.3474 433.448 13.157ZM440.387 32.6689C440.387 37.1603 441.58 40.8783 443.968 43.8125C446.356 46.7573 449.825 48.2298 454.377 48.2298C458.928 48.2298 462.295 46.7362 464.724 43.7596C467.152 40.783 468.356 37.0861 468.356 32.6689C468.356 28.0187 467.162 24.2688 464.775 21.4088C462.387 18.5487 458.917 17.1081 454.366 17.1081C449.815 17.1081 446.346 18.5381 443.958 21.4088C441.57 24.2688 440.376 28.0293 440.376 32.6689H440.387Z" fill="#EAEAEA"/>
</g>
<defs>
<filter id="filter0_i_39075_71247" x="12.1816" y="0" width="47.6689" height="66.3262" filterUnits="userSpaceOnUse" color-interpolation-filters="sRGB">
<feFlood flood-opacity="0" result="BackgroundImageFix"/>
<feBlend mode="normal" in="SourceGraphic" in2="BackgroundImageFix" result="shape"/>
<feColorMatrix in="SourceAlpha" type="matrix" values="0 0 0 0 0 0 0 0 0 0 0 0 0 0 0 0 0 0 127 0" result="hardAlpha"/>
<feOffset dy="1"/>
<feGaussianBlur stdDeviation="0.95"/>
<feComposite in2="hardAlpha" operator="arithmetic" k2="-1" k3="1"/>
<feColorMatrix type="matrix" values="0 0 0 0 0 0 0 0 0 0 0 0 0 0 0 0 0 0 0.08 0"/>
<feBlend mode="normal" in2="shape" result="effect1_innerShadow_39075_71247"/>
</filter>
<filter id="filter1_i_39075_71247" x="26.1289" y="13.3838" width="45.5591" height="41.2637" filterUnits="userSpaceOnUse" color-interpolation-filters="sRGB">
<feFlood flood-opacity="0" result="BackgroundImageFix"/>
<feBlend mode="normal" in="SourceGraphic" in2="BackgroundImageFix" result="shape"/>
<feColorMatrix in="SourceAlpha" type="matrix" values="0 0 0 0 0 0 0 0 0 0 0 0 0 0 0 0 0 0 127 0" result="hardAlpha"/>
<feOffset dy="1"/>
<feGaussianBlur stdDeviation="0.95"/>
<feComposite in2="hardAlpha" operator="arithmetic" k2="-1" k3="1"/>
<feColorMatrix type="matrix" values="0 0 0 0 0 0 0 0 0 0 0 0 0 0 0 0 0 0 0.08 0"/>
<feBlend mode="normal" in2="shape" result="effect1_innerShadow_39075_71247"/>
</filter>
<filter id="filter2_i_39075_71247" x="0" y="11.6807" width="46.2124" height="41.7402" filterUnits="userSpaceOnUse" color-interpolation-filters="sRGB">
<feFlood flood-opacity="0" result="BackgroundImageFix"/>
<feBlend mode="normal" in="SourceGraphic" in2="BackgroundImageFix" result="shape"/>
<feColorMatrix in="SourceAlpha" type="matrix" values="0 0 0 0 0 0 0 0 0 0 0 0 0 0 0 0 0 0 127 0" result="hardAlpha"/>
<feOffset dy="1"/>
<feGaussianBlur stdDeviation="0.95"/>
<feComposite in2="hardAlpha" operator="arithmetic" k2="-1" k3="1"/>
<feColorMatrix type="matrix" values="0 0 0 0 0 0 0 0 0 0 0 0 0 0 0 0 0 0 0.08 0"/>
<feBlend mode="normal" in2="shape" result="effect1_innerShadow_39075_71247"/>
</filter>
<filter id="filter3_i_39075_71247" x="100.446" y="5.36914" width="53.46" height="55.5742" filterUnits="userSpaceOnUse" color-interpolation-filters="sRGB">
<feFlood flood-opacity="0" result="BackgroundImageFix"/>
<feBlend mode="normal" in="SourceGraphic" in2="BackgroundImageFix" result="shape"/>
<feColorMatrix in="SourceAlpha" type="matrix" values="0 0 0 0 0 0 0 0 0 0 0 0 0 0 0 0 0 0 127 0" result="hardAlpha"/>
<feOffset dy="1"/>
<feGaussianBlur stdDeviation="0.95"/>
<feComposite in2="hardAlpha" operator="arithmetic" k2="-1" k3="1"/>
<feColorMatrix type="matrix" values="0 0 0 0 0 0 0 0 0 0 0 0 0 0 0 0 0 0 0.08 0"/>
<feBlend mode="normal" in2="shape" result="effect1_innerShadow_39075_71247"/>
</filter>
<filter id="filter4_i_39075_71247" x="156.922" y="5.38184" width="57.2656" height="55.5742" filterUnits="userSpaceOnUse" color-interpolation-filters="sRGB">
<feFlood flood-opacity="0" result="BackgroundImageFix"/>
<feBlend mode="normal" in="SourceGraphic" in2="BackgroundImageFix" result="shape"/>
<feColorMatrix in="SourceAlpha" type="matrix" values="0 0 0 0 0 0 0 0 0 0 0 0 0 0 0 0 0 0 127 0" result="hardAlpha"/>
<feOffset dy="1"/>
<feGaussianBlur stdDeviation="0.95"/>
<feComposite in2="hardAlpha" operator="arithmetic" k2="-1" k3="1"/>
<feColorMatrix type="matrix" values="0 0 0 0 0 0 0 0 0 0 0 0 0 0 0 0 0 0 0.08 0"/>
<feBlend mode="normal" in2="shape" result="effect1_innerShadow_39075_71247"/>
</filter>
<filter id="filter5_i_39075_71247" x="219.668" y="5.38184" width="52.2456" height="54.4199" filterUnits="userSpaceOnUse" color-interpolation-filters="sRGB">
<feFlood flood-opacity="0" result="BackgroundImageFix"/>
<feBlend mode="normal" in="SourceGraphic" in2="BackgroundImageFix" result="shape"/>
<feColorMatrix in="SourceAlpha" type="matrix" values="0 0 0 0 0 0 0 0 0 0 0 0 0 0 0 0 0 0 127 0" result="hardAlpha"/>
<feOffset dy="1"/>
<feGaussianBlur stdDeviation="0.95"/>
<feComposite in2="hardAlpha" operator="arithmetic" k2="-1" k3="1"/>
<feColorMatrix type="matrix" values="0 0 0 0 0 0 0 0 0 0 0 0 0 0 0 0 0 0 0.08 0"/>
<feBlend mode="normal" in2="shape" result="effect1_innerShadow_39075_71247"/>
</filter>
<filter id="filter6_i_39075_71247" x="276.856" y="5.36914" width="53.4595" height="55.5742" filterUnits="userSpaceOnUse" color-interpolation-filters="sRGB">
<feFlood flood-opacity="0" result="BackgroundImageFix"/>
<feBlend mode="normal" in="SourceGraphic" in2="BackgroundImageFix" result="shape"/>
<feColorMatrix in="SourceAlpha" type="matrix" values="0 0 0 0 0 0 0 0 0 0 0 0 0 0 0 0 0 0 127 0" result="hardAlpha"/>
<feOffset dy="1"/>
<feGaussianBlur stdDeviation="0.95"/>
<feComposite in2="hardAlpha" operator="arithmetic" k2="-1" k3="1"/>
<feColorMatrix type="matrix" values="0 0 0 0 0 0 0 0 0 0 0 0 0 0 0 0 0 0 0.08 0"/>
<feBlend mode="normal" in2="shape" result="effect1_innerShadow_39075_71247"/>
</filter>
<filter id="filter7_i_39075_71247" x="333.327" y="5.36914" width="52.9087" height="55.5527" filterUnits="userSpaceOnUse" color-interpolation-filters="sRGB">
<feFlood flood-opacity="0" result="BackgroundImageFix"/>
<feBlend mode="normal" in="SourceGraphic" in2="BackgroundImageFix" result="shape"/>
<feColorMatrix in="SourceAlpha" type="matrix" values="0 0 0 0 0 0 0 0 0 0 0 0 0 0 0 0 0 0 127 0" result="hardAlpha"/>
<feOffset dy="1"/>
<feGaussianBlur stdDeviation="0.95"/>
<feComposite in2="hardAlpha" operator="arithmetic" k2="-1" k3="1"/>
<feColorMatrix type="matrix" values="0 0 0 0 0 0 0 0 0 0 0 0 0 0 0 0 0 0 0.08 0"/>
<feBlend mode="normal" in2="shape" result="effect1_innerShadow_39075_71247"/>
</filter>
<filter id="filter8_i_39075_71247" x="391.723" y="6.53809" width="33.5513" height="53.2539" filterUnits="userSpaceOnUse" color-interpolation-filters="sRGB">
<feFlood flood-opacity="0" result="BackgroundImageFix"/>
<feBlend mode="normal" in="SourceGraphic" in2="BackgroundImageFix" result="shape"/>
<feColorMatrix in="SourceAlpha" type="matrix" values="0 0 0 0 0 0 0 0 0 0 0 0 0 0 0 0 0 0 127 0" result="hardAlpha"/>
<feOffset dy="1"/>
<feGaussianBlur stdDeviation="0.95"/>
<feComposite in2="hardAlpha" operator="arithmetic" k2="-1" k3="1"/>
<feColorMatrix type="matrix" values="0 0 0 0 0 0 0 0 0 0 0 0 0 0 0 0 0 0 0.08 0"/>
<feBlend mode="normal" in2="shape" result="effect1_innerShadow_39075_71247"/>
</filter>
<filter id="filter9_i_39075_71247" x="425.733" y="5.38184" width="57.2656" height="55.5742" filterUnits="userSpaceOnUse" color-interpolation-filters="sRGB">
<feFlood flood-opacity="0" result="BackgroundImageFix"/>
<feBlend mode="normal" in="SourceGraphic" in2="BackgroundImageFix" result="shape"/>
<feColorMatrix in="SourceAlpha" type="matrix" values="0 0 0 0 0 0 0 0 0 0 0 0 0 0 0 0 0 0 127 0" result="hardAlpha"/>
<feOffset dy="1"/>
<feGaussianBlur stdDeviation="0.95"/>
<feComposite in2="hardAlpha" operator="arithmetic" k2="-1" k3="1"/>
<feColorMatrix type="matrix" values="0 0 0 0 0 0 0 0 0 0 0 0 0 0 0 0 0 0 0.08 0"/>
<feBlend mode="normal" in2="shape" result="effect1_innerShadow_39075_71247"/>
</filter>
</defs>
</svg>
