<svg width="32" height="32" viewBox="0 0 32 32" fill="none" xmlns="http://www.w3.org/2000/svg">
<path fill-rule="evenodd" clip-rule="evenodd" d="M16 32C24.8366 32 32 24.8366 32 16C32 7.16344 24.8366 0 16 0C7.16344 0 0 7.16344 0 16C0 24.8366 7.16344 32 16 32ZM15.5544 13.5589L15.5208 13.0053C15.4201 11.5703 16.3042 10.2597 17.7032 9.75124C18.218 9.57046 19.0909 9.54786 19.6617 9.70604C19.8856 9.77383 20.3108 9.99981 20.613 10.2032L21.1614 10.576L21.7658 10.384C22.1015 10.2823 22.5492 10.1128 22.7506 9.99981C22.9409 9.89812 23.1088 9.84163 23.1088 9.87552C23.1088 10.0676 22.6947 10.7229 22.3477 11.0845C21.8777 11.5929 22.012 11.6381 22.9633 11.2992C23.534 11.1071 23.5452 11.1071 23.4333 11.3218C23.3662 11.4347 23.0192 11.8302 22.6499 12.1918C22.0232 12.8132 21.9896 12.881 21.9896 13.4007C21.9896 14.2029 21.6091 15.8751 21.2286 16.7903C20.5235 18.5077 19.0126 20.2816 17.5017 21.1742C15.3753 22.4284 12.5438 22.7447 10.16 22.0103C9.36538 21.7617 8 21.129 8 21.016C8 20.9821 8.41409 20.9369 8.91772 20.9256C9.96973 20.903 11.0218 20.6093 11.9171 20.0895L12.5214 19.728L11.8276 19.4907C10.8427 19.1518 9.95854 18.3721 9.73471 17.6377C9.66756 17.4005 9.68994 17.3892 10.3167 17.3892L10.9658 17.3779L10.4174 17.118C9.76828 16.7903 9.17513 16.2367 8.88414 15.6718C8.6715 15.265 8.4029 14.2368 8.48124 14.1577C8.50362 14.1238 8.73865 14.1916 9.00725 14.282C9.77948 14.5645 9.8802 14.4967 9.43253 14.0221C8.59316 13.1634 8.33575 11.8867 8.73865 10.6777L8.92891 10.1354L9.66756 10.8698C11.1784 12.3499 12.9579 13.2312 14.9948 13.4911L15.5544 13.5589Z" fill="white"/>
</svg>
