<svg width="45" height="50" viewBox="0 0 45 50" fill="none" xmlns="http://www.w3.org/2000/svg">
<path d="M28.4006 22.9144L32.0651 16.6964L41.9424 32.0803L41.947 35.0328L41.9147 14.7166C41.8914 14.2198 41.6276 13.7654 41.207 13.4974L23.4242 3.26884C23.0085 3.06436 22.4807 3.06681 22.0656 3.27529C22.0094 3.30354 21.9569 3.33393 21.9065 3.3674L21.8445 3.40639L4.58338 13.409L4.51645 13.4397C4.43017 13.479 4.34328 13.5296 4.2613 13.588C3.934 13.8225 3.71662 14.1698 3.64631 14.5588C3.63587 14.6177 3.62789 14.6779 3.62451 14.7387L3.65153 31.2943L12.8518 17.0347C14.0099 15.144 16.5338 14.5345 18.8767 14.568L21.6262 14.6405L5.42496 40.6226L7.33471 41.7221L23.73 14.6669L30.9769 14.6405L14.624 42.3786L21.4386 46.2985L22.2529 46.7664C22.5974 46.9064 23.0033 46.9134 23.3505 46.7879L41.3832 36.3377L37.9356 38.3355L28.4006 22.9144ZM29.7985 43.0513L22.9158 32.2483L27.1175 25.1183L36.1569 39.3662L29.7985 43.0513Z" fill="#2D374B"/>
<path d="M22.9121 32.2481L29.7952 43.0509L36.1533 39.3662L27.1139 25.1182L22.9121 32.2481Z" fill="#28A0F0"/>
<path d="M41.9453 35.0336L41.9406 32.0812L32.0634 16.6973L28.3989 22.9153L37.9342 38.3364L41.3818 36.3385C41.7199 36.064 41.9247 35.6609 41.9462 35.2261L41.9453 35.0336Z" fill="#28A0F0"/>
<path d="M0.555664 37.8169L5.4243 40.6223L21.6256 14.6401L18.8761 14.5677C16.5334 14.5345 14.0096 15.1437 12.8511 17.0344L3.65087 31.294L0.555664 36.0496V37.8169Z" fill="white"/>
<path d="M30.9767 14.6406L23.7298 14.667L7.33447 41.7222L13.0653 45.0216L14.6235 42.3787L30.9767 14.6406Z" fill="white"/>
<path d="M45 14.6024C44.9395 13.0868 44.1188 11.6997 42.8336 10.8918L24.8178 0.531289C23.5464 -0.108876 21.9581 -0.109797 20.6842 0.530983C20.5337 0.60682 3.16422 10.6806 3.16422 10.6806C2.92382 10.7957 2.69231 10.933 2.47463 11.089C1.32724 11.9115 0.627817 13.1894 0.555664 14.5931V36.0496L3.65087 31.2939L3.62385 14.7381C3.62754 14.6776 3.63521 14.6177 3.64565 14.5591C3.71566 14.1694 3.93334 13.8222 4.26064 13.5873C4.34262 13.529 22.0084 3.30289 22.0646 3.27464C22.48 3.06616 23.0075 3.06371 23.4232 3.26819L41.206 13.4967C41.6267 13.7648 41.8904 14.2192 41.9137 14.716V35.2243C41.8922 35.659 41.7203 36.0622 41.3823 36.3367L37.9346 38.3345L36.1556 39.3656L29.7976 43.0503L23.3495 46.7869C23.0023 46.9125 22.5961 46.9054 22.2519 46.7654L14.623 42.3776L13.0645 45.0205L19.9206 48.9677C20.1472 49.0967 20.3492 49.2109 20.515 49.3043C20.7717 49.4483 20.9467 49.5444 21.0084 49.5744C21.4957 49.8112 22.1966 49.9487 22.8285 49.9487C23.4076 49.9487 23.9725 49.8425 24.5071 49.6331L43.2358 38.7871C44.3107 37.9541 44.9432 36.6981 45 35.3376V14.6024Z" fill="#96BEDC"/>
</svg>
