<svg width="42" height="42" viewBox="0 0 42 42" fill="none" xmlns="http://www.w3.org/2000/svg">
<path d="M21.0007 3.2088C21.8676 3.20606 22.7179 3.44602 23.4555 3.90152C24.193 4.35702 24.7883 5.00987 25.1741 5.7862L38.299 32.0362C38.6552 32.7477 38.8235 33.5384 38.788 34.3333C38.7525 35.1281 38.5143 35.9007 38.0961 36.5776C37.6779 37.2544 37.0936 37.8131 36.3987 38.2006C35.7038 38.588 34.9213 38.7913 34.1256 38.7912H7.87575C7.08023 38.7911 6.29794 38.5876 5.60319 38.2001C4.90845 37.8125 4.32432 37.2538 3.90629 36.577C3.48826 35.9001 3.25022 35.1276 3.21477 34.3329C3.17933 33.5382 3.34766 32.7476 3.70377 32.0362L16.8273 5.7862C17.2131 5.00987 17.8084 4.35702 18.5459 3.90152C19.2835 3.44602 20.1338 3.20606 21.0007 3.2088ZM21.0007 3.89077e-08C19.5385 -0.000145288 18.1051 0.406828 16.8611 1.17533C15.6171 1.94384 14.6116 3.04352 13.9573 4.3512L0.832381 30.6012C0.231614 31.8019 -0.0522019 33.1362 0.00789406 34.4775C0.06799 35.8187 0.470002 37.1224 1.17574 38.2645C1.88148 39.4067 2.86751 40.3494 4.04017 41.0032C5.21282 41.657 6.53316 42.0001 7.87575 42H34.1256C35.4681 41.9999 36.7883 41.6566 37.9607 41.0027C39.1332 40.3488 40.119 39.406 40.8246 38.2639C41.5302 37.1218 41.9321 35.8183 41.9921 34.4771C42.0522 33.136 41.7683 31.8018 41.1676 30.6012L28.0441 4.3512C27.3898 3.04352 26.3843 1.94384 25.1403 1.17533C23.8963 0.406828 22.4629 -0.000145288 21.0007 3.89077e-08Z" fill="#6ED34A"/>
</svg>
