<svg width="51" height="50" viewBox="0 0 51 50" fill="none" xmlns="http://www.w3.org/2000/svg">
<g clip-path="url(#clip0_39050_70256)">
<path d="M40.8364 8.57715H9.98535V36.6357H40.8364V8.57715Z" fill="white"/>
<path fill-rule="evenodd" clip-rule="evenodd" d="M50.3945 25C50.3945 38.7888 39.2166 49.9667 25.4277 49.9667C11.6389 49.9667 0.460938 38.7888 0.460938 25C0.460938 11.2112 11.6389 0.0332031 25.4277 0.0332031C39.2166 0.0332031 50.3945 11.2112 50.3945 25ZM18.3528 34.9355H13.5075C12.4893 34.9355 11.9864 34.9355 11.6798 34.7393C11.3485 34.5246 11.1461 34.1688 11.1216 33.7762C11.1032 33.4145 11.3547 32.9728 11.8576 32.0896L23.8214 11.0018C24.3305 10.1063 24.588 9.65857 24.9131 9.49298C25.2627 9.31512 25.6798 9.31512 26.0294 9.49298C26.3545 9.65857 26.6121 10.1063 27.1211 11.0018L29.5806 15.2951L29.5932 15.317C30.143 16.2777 30.4218 16.7649 30.5436 17.2762C30.6785 17.8343 30.6785 18.4231 30.5436 18.9813C30.4209 19.4965 30.1449 19.9872 29.5867 20.9624L23.3025 32.0712L23.2862 32.0996C22.7327 33.0682 22.4523 33.5591 22.0635 33.9295C21.6403 34.3344 21.1313 34.6286 20.5731 34.7945C20.064 34.9355 19.4937 34.9355 18.3528 34.9355ZM30.5889 34.9355H37.5317C38.556 34.9355 39.0713 34.9355 39.3782 34.7333C39.7093 34.5186 39.9177 34.1565 39.9363 33.7642C39.954 33.4142 39.708 32.9897 39.2259 32.1578C39.2093 32.1294 39.1927 32.1006 39.1757 32.0713L35.698 26.122L35.6584 26.055C35.1697 25.2286 34.923 24.8113 34.6062 24.65C34.2568 24.4721 33.8456 24.4721 33.4961 24.65C33.1772 24.8155 32.9196 25.251 32.4105 26.1281L28.9452 32.0774L28.9333 32.0979C28.426 32.9736 28.1725 33.4112 28.1908 33.7702C28.2153 34.1629 28.4177 34.5246 28.7489 34.7393C29.0495 34.9355 29.5647 34.9355 30.5889 34.9355Z" fill="#E84142"/>
</g>
<defs>
<clipPath id="clip0_39050_70256">
<rect width="49.9668" height="50" fill="white" transform="translate(0.444336)"/>
</clipPath>
</defs>
</svg>
