<svg width="43" height="42" viewBox="0 0 43 42" fill="none" xmlns="http://www.w3.org/2000/svg">
<g clip-path="url(#clip0_23898_4974)">
<path d="M34.4852 7.20483H8.57031V30.774H34.4852V7.20483Z" fill="white"/>
<path fill-rule="evenodd" clip-rule="evenodd" d="M42.514 20.9999C42.514 32.5826 33.1246 41.972 21.5419 41.972C9.95934 41.972 0.569824 32.5826 0.569824 20.9999C0.569824 9.41734 9.95934 0.027832 21.5419 0.027832C33.1246 0.027832 42.514 9.41734 42.514 20.9999ZM15.599 29.3457H11.5289C10.6737 29.3457 10.2512 29.3457 9.99363 29.181C9.71541 29.0006 9.5454 28.7018 9.52479 28.372C9.50932 28.0681 9.72057 27.6971 10.143 26.9552L20.1926 9.24144C20.6202 8.48924 20.8366 8.11314 21.1096 7.97404C21.4033 7.82464 21.7537 7.82464 22.0473 7.97404C22.3204 8.11314 22.5368 8.48924 22.9644 9.24144L25.0304 12.8479L25.0409 12.8663C25.5027 13.6732 25.737 14.0824 25.8392 14.5119C25.9525 14.9808 25.9525 15.4754 25.8392 15.9442C25.7362 16.377 25.5043 16.7892 25.0355 17.6083L19.7567 26.9397L19.743 26.9636C19.2781 27.7772 19.0425 28.1896 18.716 28.5007C18.3605 28.8408 17.9329 29.088 17.464 29.2273C17.0364 29.3457 16.5573 29.3457 15.599 29.3457ZM25.8773 29.3457H31.7093C32.5697 29.3457 33.0025 29.3457 33.2603 29.1759C33.5384 28.9955 33.7135 28.6914 33.7292 28.3619C33.744 28.0679 33.5373 27.7112 33.1324 27.0125C33.1184 26.9887 33.1045 26.9645 33.0902 26.9398L30.1689 21.9424L30.1357 21.8861C29.7252 21.1919 29.518 20.8414 29.2519 20.7059C28.9584 20.5565 28.6129 20.5565 28.3194 20.7059C28.0515 20.845 27.8351 21.2108 27.4075 21.9475L24.4966 26.945L24.4866 26.9622C24.0605 27.6978 23.8475 28.0653 23.8629 28.3669C23.8835 28.6967 24.0535 29.0006 24.3317 29.181C24.5842 29.3457 25.017 29.3457 25.8773 29.3457Z" fill="#E84142"/>
</g>
<defs>
<clipPath id="clip0_23898_4974">
<rect width="41.9721" height="42" fill="white" transform="translate(0.555664)"/>
</clipPath>
</defs>
</svg>
