<svg width="27" height="35" viewBox="0 0 27 35" fill="none" xmlns="http://www.w3.org/2000/svg">
<path d="M26.5719 14.1534C27.1095 10.5607 24.3737 8.62939 20.633 7.34099L21.8464 2.47429L18.8837 1.73601L17.7024 6.47446C16.9235 6.2804 16.1235 6.09732 15.3286 5.91592L16.5184 1.14623L13.5574 0.407959L12.3431 5.27297C11.6984 5.12615 11.0655 4.98105 10.4512 4.82833L10.4546 4.81314L6.36875 3.79304L5.58061 6.95708C5.58061 6.95708 7.7788 7.46079 7.73239 7.49201C8.93233 7.79154 9.14919 8.58549 9.1129 9.21492L7.73069 14.7592C7.81339 14.7803 7.92058 14.8106 8.03871 14.8579C7.93998 14.8334 7.8345 14.8064 7.72565 14.7803L5.78817 22.5469C5.64135 22.9114 5.26923 23.4581 4.43045 23.2506C4.45999 23.2936 2.27697 22.7131 2.27697 22.7131L0.806152 26.1041L4.66166 27.0651C5.37892 27.2448 6.08183 27.433 6.77378 27.6102L5.5477 32.5326L8.50704 33.2709L9.72132 28.4008C10.5297 28.6201 11.3145 28.8227 12.0824 29.0133L10.8723 33.8606L13.835 34.5989L15.0611 29.6858C20.1132 30.6418 23.9122 30.2562 25.5112 25.6873C26.7998 22.0086 25.4471 19.8866 22.789 18.5029C24.7248 18.0565 26.1829 16.7833 26.5719 14.1534V14.1534ZM19.8027 23.6446C18.8871 27.3233 12.6925 25.3346 10.6841 24.836L12.3111 18.3147C14.3194 18.8159 20.7596 19.8081 19.8027 23.6446ZM20.7191 14.1002C19.8837 17.4465 14.7278 15.7463 13.0553 15.3295L14.5304 9.41492C16.2029 9.83172 21.5891 10.6096 20.7191 14.1002Z" fill="#F7931A"/>
</svg>
