<svg width="28" height="46" viewBox="0 0 28 46" fill="none" xmlns="http://www.w3.org/2000/svg">
<path d="M14.5329 45.2206C10.8873 45.2206 7.58885 43.7326 5.18325 41.3518C2.80245 38.971 1.31445 35.6478 1.31445 32.0022C1.31445 29.175 2.20725 26.571 3.72005 24.4134L4.58805 29.5966C4.41445 30.3654 4.31525 31.1838 4.31525 32.0022C4.31525 34.8294 5.45605 37.3838 7.31605 39.219C9.17605 41.079 11.7305 42.2198 14.5329 42.2198C17.3601 42.2198 19.9145 41.079 21.7497 39.219C23.6097 37.359 24.7505 34.8046 24.7505 32.0022C24.7505 29.175 23.6097 26.6206 21.7497 24.7854C19.8897 22.9254 17.3353 21.7846 14.5329 21.7846C11.8297 21.7846 9.37445 22.8262 7.56405 24.5374L6.99365 21.1646C9.12645 19.6766 11.7305 18.8086 14.5329 18.8086C18.1785 18.8086 21.4769 20.2966 23.8825 22.6774C26.2633 25.0582 27.7513 28.3814 27.7513 32.027C27.7513 35.6726 26.2633 38.971 23.8825 41.3766C21.5017 43.7574 18.1785 45.2454 14.5329 45.2454V45.2206Z" fill="#CCFF00"/>
<path d="M10.5152 29.8693C11.4877 29.8693 12.276 29.0809 12.276 28.1085C12.276 27.136 11.4877 26.3477 10.5152 26.3477C9.54273 26.3477 8.75439 27.136 8.75439 28.1085C8.75439 29.0809 9.54273 29.8693 10.5152 29.8693Z" fill="#1CD7D2"/>
<path d="M15.0289 33.7882C16.0013 33.7882 16.7897 32.9999 16.7897 32.0274C16.7897 31.0549 16.0013 30.2666 15.0289 30.2666C14.0564 30.2666 13.2681 31.0549 13.2681 32.0274C13.2681 32.9999 14.0564 33.7882 15.0289 33.7882Z" fill="#1CD7D2"/>
<path d="M16.2442 27.8361C17.2167 27.8361 18.005 27.0477 18.005 26.0753C18.005 25.1028 17.2167 24.3145 16.2442 24.3145C15.2717 24.3145 14.4834 25.1028 14.4834 26.0753C14.4834 27.0477 15.2717 27.8361 16.2442 27.8361Z" fill="#1CD7D2"/>
<path d="M20.5098 31.878C21.4823 31.878 22.2706 31.0897 22.2706 30.1172C22.2706 29.1448 21.4823 28.3564 20.5098 28.3564C19.5374 28.3564 18.749 29.1448 18.749 30.1172C18.749 31.0897 19.5374 31.878 20.5098 31.878Z" fill="#1CD7D2"/>
<path d="M9.34967 35.673C10.3221 35.673 11.1105 34.8846 11.1105 33.9122C11.1105 32.9397 10.3221 32.1514 9.34967 32.1514C8.3772 32.1514 7.58887 32.9397 7.58887 33.9122C7.58887 34.8846 8.3772 35.673 9.34967 35.673Z" fill="#1CD7D2"/>
<path d="M19.3687 37.632C20.3412 37.632 21.1295 36.8436 21.1295 35.8712C21.1295 34.8987 20.3412 34.1104 19.3687 34.1104C18.3962 34.1104 17.6079 34.8987 17.6079 35.8712C17.6079 36.8436 18.3962 37.632 19.3687 37.632Z" fill="#1CD7D2"/>
<path d="M13.7642 39.7892C14.7367 39.7892 15.525 39.0008 15.525 38.0284C15.525 37.0559 14.7367 36.2676 13.7642 36.2676C12.7918 36.2676 12.0034 37.0559 12.0034 38.0284C12.0034 39.0008 12.7918 39.7892 13.7642 39.7892Z" fill="#1CD7D2"/>
<path d="M7.73771 30.8365C7.96091 30.5389 8.06011 30.1669 7.98571 29.7701L3.29851 1.96932C3.22411 1.57252 3.02571 1.25012 2.72811 1.05172C2.43051 0.828523 2.05851 0.729323 1.66171 0.803723C1.26491 0.878123 0.942506 1.07652 0.744106 1.37412C0.520906 1.67172 0.421706 2.04372 0.496106 2.44052L5.18331 30.2413C5.25771 30.6381 5.45611 30.9605 5.75371 31.1589C6.05131 31.3821 6.42331 31.4813 6.82011 31.4069C7.21691 31.3325 7.53931 31.1341 7.73771 30.8365Z" fill="#CCFF00"/>
</svg>
