<svg width="51" height="50" viewBox="0 0 51 50" fill="none" xmlns="http://www.w3.org/2000/svg">
<path d="M29.0973 38.769V43.4385L25.0265 45.8332L21.0753 43.4385V38.769L25.0265 41.1636L29.0973 38.769ZM7.30615 22.6052L11.2573 24.9998V33.0219L18.082 37.0928V41.7623L7.30615 35.4165V22.6052ZM42.7468 22.6052V35.4165L31.8512 41.7623V37.0928L38.6759 33.0219V24.9998L42.7468 22.6052ZM31.8512 16.2594L35.9221 18.6541V23.3236L29.0973 27.3945V35.5362L25.1462 37.9309L21.195 35.5362V27.3945L14.1309 23.3236V18.6541L18.2017 16.2594L25.0265 20.3303L31.8512 16.2594ZM14.1309 26.6761L18.082 29.0707V33.7403L14.1309 31.3456V26.6761ZM35.9221 26.6761V31.3456L31.9709 33.7403V29.0707L35.9221 26.6761ZM11.2573 12.1885L15.3282 14.5832L11.2573 16.9778V21.6473L7.30615 19.2527V14.5832L11.2573 12.1885ZM38.7956 12.1885L42.8665 14.5832V19.2527L38.7956 21.6473V16.9778L34.8445 14.5832L38.7956 12.1885ZM25.0265 12.1885L29.0973 14.5832L25.0265 16.9778L21.0753 14.5832L25.0265 12.1885ZM25.0265 4.1665L35.9221 10.5123L31.9709 12.9069L25.1462 8.83604L18.2017 12.9069L14.2506 10.5123L25.0265 4.1665Z" fill="#F3BA2F"/>
</svg>
