<svg width="37" height="42" viewBox="0 0 37 42" fill="none" xmlns="http://www.w3.org/2000/svg">
<path d="M22.4308 34.7685V39.438L18.36 41.8327L14.4088 39.438V34.7685L18.36 37.1631L22.4308 34.7685ZM0.639648 18.6047L4.5908 20.9993V29.0214L11.4155 33.0923V37.7618L0.639648 31.416V18.6047ZM36.0803 18.6047V31.416L25.1847 37.7618V33.0923L32.0094 29.0214V20.9993L36.0803 18.6047ZM25.1847 12.2589L29.2555 14.6536V19.3231L22.4308 23.394V31.5357L18.4797 33.9304L14.5285 31.5357V23.394L7.46436 19.3231V14.6536L11.5352 12.2589L18.36 16.3298L25.1847 12.2589ZM7.46436 22.6756L11.4155 25.0702V29.7398L7.46436 27.3451V22.6756ZM29.2555 22.6756V27.3451L25.3044 29.7398V25.0702L29.2555 22.6756ZM4.5908 8.18805L8.66168 10.5827L4.5908 12.9773V17.6469L0.639648 15.2522V10.5827L4.5908 8.18805ZM32.1291 8.18805L36.2 10.5827V15.2522L32.1291 17.6469V12.9773L28.178 10.5827L32.1291 8.18805ZM18.36 8.18805L22.4308 10.5827L18.36 12.9773L14.4088 10.5827L18.36 8.18805ZM18.36 0.166016L29.2555 6.5118L25.3044 8.90644L18.4797 4.83556L11.5352 8.90644L7.58409 6.5118L18.36 0.166016Z" fill="#F3BA2F"/>
</svg>
