<svg width="28" height="46" viewBox="0 0 28 46" fill="none" xmlns="http://www.w3.org/2000/svg">
<path fill-rule="evenodd" clip-rule="evenodd" d="M16.4445 16.1879L24.4446 11.4977V20.8781L16.4445 16.1879ZM24.4446 36.2887L13.7778 42.5422L3.11103 36.2887V25.3449L13.7778 31.5985L24.4446 25.3449V36.2887ZM3.11103 11.4977L11.1111 16.1879L3.11103 20.8781V11.4977ZM15.1112 18.4213L23.1113 23.1115L15.1112 27.8017V18.4213ZM12.4445 27.8017L4.44439 23.1115L12.4445 18.4213V27.8017ZM23.1113 9.26433L13.7778 14.6245L4.44439 9.26433L13.7778 3.68079L23.1113 9.26433ZM0.444336 8.37096V37.6287L13.7778 45.2223L27.1113 37.6287V8.37096L13.7778 0.777344L0.444336 8.37096Z" fill="#13B5EC"/>
</svg>
