<svg width="57" height="56" viewBox="0 0 57 56" fill="none" xmlns="http://www.w3.org/2000/svg">
<g clip-path="url(#clip0_39058_70876)">
<path d="M24.3665 41.8551L24.3664 41.8551L10.7119 35.1106L10.2365 34.8758L9.77535 35.1376L5.68379 37.4603C5.68378 37.4603 5.68377 37.4603 5.68376 37.4603C4.55605 38.1004 3.717 39.0777 3.74121 40.2846C3.76556 41.4981 4.65114 42.431 5.81034 43.0036L24.6957 52.3321L24.6959 52.3322C25.7856 52.8702 27.1191 53.1111 28.4171 53.1111C29.9289 53.1111 31.518 52.7844 32.7539 52.0831L32.7541 52.083L51.2423 41.5871L51.2424 41.5871C52.3701 40.9467 53.209 39.9692 53.1847 38.7624C53.1602 37.5487 52.2745 36.6159 51.1151 36.0436L47.1897 34.1035L46.7142 33.8685L46.2529 34.1304L33.1172 41.5879C33.1172 41.588 33.1171 41.588 33.1171 41.588C31.8707 42.2952 30.2027 42.7089 28.4171 42.7089C26.8707 42.7089 25.4738 42.4022 24.3665 41.8551Z" fill="url(#paint0_linear_39058_70876)" stroke="#071927" stroke-width="2"/>
<path d="M51.1226 24.0866L51.1226 24.0866L47.8527 22.4399L47.3699 22.1967L46.902 22.4675L39.288 26.8737L39.2879 26.8737L37.9805 27.6301L37.9804 27.6302L36.674 28.3864L36.674 28.3864L33.1097 30.4493L33.1094 30.4495C31.8652 31.1701 30.1994 31.5906 28.4169 31.5906C26.8739 31.5906 25.4791 31.2784 24.3731 30.7222C24.373 30.7222 24.373 30.7222 24.3729 30.7221L20.2898 28.6656L20.2894 28.6653L18.938 27.9856L18.9378 27.9854L17.5866 27.3053L17.5864 27.3052L10.0619 23.5156L9.57909 23.2724L9.1112 23.5432L5.67686 25.5309C5.67685 25.5309 5.67684 25.5309 5.67683 25.5309C4.54432 26.1864 3.71765 27.178 3.74119 28.3878C3.76487 29.6049 4.63793 30.553 5.80301 31.1399L5.80324 31.14L9.73018 33.1168L9.73019 33.1168L11.0814 33.797L11.0818 33.7972L12.4323 34.4779L12.4327 34.4781L24.6892 40.6492L24.6893 40.6493C25.7802 41.1983 27.1169 41.4441 28.4169 41.4441C29.9307 41.4441 31.5237 41.1108 32.7604 40.3947C32.7605 40.3947 32.7606 40.3947 32.7607 40.3946L44.5439 33.5757L44.544 33.5756L45.8511 32.8195L45.3526 31.9578L45.8511 32.8195L47.1578 32.0635L47.158 32.0634L51.2494 29.6954C51.2494 29.6953 51.2495 29.6953 51.2496 29.6953C52.3822 29.04 53.2085 28.0482 53.1847 26.8383C53.1607 25.6214 52.2877 24.6734 51.1226 24.0866Z" fill="url(#paint1_linear_39058_70876)" stroke="#071927" stroke-width="2"/>
<path d="M51.1117 14.436L51.1116 14.4359L32.2258 5.2139C32.2256 5.21381 32.2254 5.21373 32.2252 5.21364C31.1371 4.68165 29.8049 4.44434 28.5084 4.44434C26.999 4.44434 25.4107 4.76733 24.1764 5.46L24.1763 5.46004L5.68848 15.8369C5.68842 15.837 5.68836 15.837 5.68829 15.837C4.56385 16.4679 3.71703 17.4363 3.7412 18.6413C3.76552 19.8531 4.65854 20.777 5.81405 21.3414L6.24229 20.4645L5.81406 21.3414L9.08379 22.9382L9.50776 22.0701L9.0838 22.9382L10.4354 23.5983L10.8743 22.6997L10.4354 23.5983L11.7871 24.2584L11.7871 24.2584L19.3116 27.9332L19.3121 27.9335L20.6633 28.5925L20.6639 28.5928L22.0148 29.2528L22.0149 29.2528L24.6998 30.5648L24.7004 30.5651C25.7884 31.0959 27.121 31.3332 28.4169 31.3332C29.9264 31.3332 31.5151 31.0106 32.7492 30.3175L34.9613 29.0763L34.9614 29.0762L36.2684 28.3427L37.5753 27.6091L45.1891 23.3356L45.1891 23.3356L46.4963 22.6021L46.4965 22.6019L47.8027 21.8685L47.8029 21.8684L51.238 19.9409L51.238 19.9408C52.3626 19.3097 53.2092 18.341 53.1847 17.1359C53.16 15.9243 52.2671 15.0003 51.1117 14.436Z" fill="url(#paint2_linear_39058_70876)" stroke="#071927" stroke-width="2"/>
</g>
<defs>
<linearGradient id="paint0_linear_39058_70876" x1="28.463" y1="7.19607" x2="28.463" y2="52.1111" gradientUnits="userSpaceOnUse">
<stop stop-color="#B3F9BA"/>
<stop offset="1" stop-color="#F6FB8C"/>
</linearGradient>
<linearGradient id="paint1_linear_39058_70876" x1="28.4629" y1="6.40156" x2="28.4629" y2="50.3362" gradientUnits="userSpaceOnUse">
<stop stop-color="#B1FFBF"/>
<stop offset="1" stop-color="#FFF16D"/>
</linearGradient>
<linearGradient id="paint2_linear_39058_70876" x1="28.4629" y1="5.44434" x2="28.4629" y2="50.4446" gradientUnits="userSpaceOnUse">
<stop stop-color="#B3F9BA"/>
<stop offset="1" stop-color="#F6FB8C"/>
</linearGradient>
<clipPath id="clip0_39058_70876">
<rect x="0.333496" width="56" height="56" fill="white"/>
</clipPath>
</defs>
</svg>
