<svg width="34" height="34" viewBox="0 0 34 34" fill="none" xmlns="http://www.w3.org/2000/svg">
<path d="M10.4611 19.3084C11.4581 19.3084 12.3752 18.9726 13.1109 18.4074L7.03288 12.3293C6.4624 13.0598 6.13184 13.9822 6.13184 14.9792C6.13184 17.3624 8.07255 19.3084 10.4611 19.3084Z" fill="#041427"/>
<path d="M28.5304 14.974C28.5304 13.977 28.1945 13.06 27.6293 12.3242L21.5513 18.3969C22.2817 18.9674 23.2041 19.298 24.2011 19.298C26.5897 19.3086 28.5304 17.3626 28.5304 14.974Z" fill="#041427"/>
<path d="M31.5904 8.35742L28.9033 11.0446C29.7937 12.1109 30.3268 13.4758 30.3268 14.9686C30.3268 18.3489 27.5757 21.1 24.1955 21.1C22.7079 21.1 21.3377 20.5615 20.2714 19.6765L17.3283 22.6195L14.3853 19.6765C13.3189 20.5669 11.954 21.1 10.4612 21.1C7.08094 21.1 4.32982 18.3489 4.32982 14.9686C4.32982 13.4811 4.86831 12.1109 5.75337 11.0446L4.3778 9.669L3.07156 8.36275C1.54671 10.8846 0.666992 13.8383 0.666992 17C0.666992 26.2024 8.12594 33.6667 17.3337 33.6667C26.5414 33.6667 34.0003 26.2077 34.0003 17C33.995 13.833 33.1153 10.8846 31.5904 8.35742Z" fill="#041427"/>
<path d="M29.3832 5.49427C26.3548 2.31662 22.0682 0.333252 17.3284 0.333252C12.5886 0.333252 8.30195 2.31662 5.27358 5.49427C4.86305 5.93146 4.47384 6.38465 4.10596 6.85917L17.3284 20.0923L30.5508 6.85917C30.1936 6.37932 29.7991 5.93146 29.3832 5.49427ZM17.3284 2.51389C21.2311 2.51389 24.8513 4.01741 27.5758 6.75787L17.3284 17.0053L7.08101 6.75787C9.80547 4.01208 13.431 2.51389 17.3284 2.51389Z" fill="#041427"/>
</svg>
