<svg width="47" height="48" viewBox="0 0 47 48" fill="none" xmlns="http://www.w3.org/2000/svg">
<path d="M13.8719 27.216C15.2606 27.216 16.5379 26.7482 17.5627 25.961L9.09682 17.4951C8.30222 18.5125 7.8418 19.7972 7.8418 21.1859C7.8418 24.5054 10.5449 27.216 13.8719 27.216Z" fill="#041427"/>
<path d="M39.0393 21.1781C39.0393 19.7894 38.5714 18.5121 37.7842 17.4873L29.3184 25.9457C30.3357 26.7403 31.6205 27.2008 33.0092 27.2008C36.3361 27.2156 39.0393 24.5051 39.0393 21.1781Z" fill="#041427"/>
<path d="M43.3019 11.9629L39.5591 15.7057C40.7993 17.1909 41.5419 19.092 41.5419 21.1714C41.5419 25.8796 37.71 29.7115 33.0018 29.7115C30.9299 29.7115 29.0213 28.9615 27.5361 27.7287L23.4368 31.828L19.3376 27.7287C17.8523 28.9689 15.9512 29.7115 13.8719 29.7115C9.16369 29.7115 5.33178 25.8796 5.33178 21.1714C5.33178 19.0995 6.08182 17.1909 7.31457 15.7057L5.39861 13.7897L3.57919 11.9703C1.4553 15.4829 0.22998 19.597 0.22998 24.0008C0.22998 36.8184 10.6192 47.215 23.4443 47.215C36.2693 47.215 46.6586 36.8258 46.6586 24.0008C46.6511 19.5896 45.4258 15.4829 43.3019 11.9629Z" fill="#041427"/>
<path d="M40.2271 7.97469C36.009 3.54868 30.0384 0.786133 23.4365 0.786133C16.8346 0.786133 10.8639 3.54868 6.64587 7.97469C6.07405 8.58364 5.53194 9.21487 5.01953 9.8758L23.4365 28.3076L41.8535 9.8758C41.3559 9.20744 40.8064 8.58364 40.2271 7.97469ZM23.4365 3.82345C28.8725 3.82345 33.9149 5.91764 37.7096 9.7347L23.4365 24.0079L9.16335 9.7347C12.9581 5.91021 18.0079 3.82345 23.4365 3.82345Z" fill="#041427"/>
</svg>
