<svg width="43" height="42" viewBox="0 0 43 42" fill="none" xmlns="http://www.w3.org/2000/svg">
<rect x="0.222168" width="42" height="42" rx="21" fill="#312755"/>
<g clip-path="url(#clip0_23896_5617)">
<path d="M34.2828 11.8403C33.9907 10.7346 33.0519 9.62882 31.362 8.39789C30.0058 7.41731 28.5663 6.854 27.4188 6.854C27.1893 6.854 26.9807 6.87487 26.772 6.91659C26.2504 7.02091 25.7915 7.39645 25.4994 7.95976C25.1447 8.62739 25.0612 9.52451 25.2907 10.067C25.3742 10.2339 25.4785 10.4425 25.6037 10.6303C24.4979 11.2979 23.872 11.4857 23.7886 11.5065C26.6677 12.4662 29.067 14.4691 30.5691 17.077L30.59 16.8267C30.6526 16.1382 30.8612 15.3454 31.1533 14.5317C31.4454 14.6152 31.7375 14.6569 32.0296 14.6569C32.8015 14.6569 33.4691 14.3439 33.8864 13.7806C34.3037 13.2173 34.4706 12.4662 34.2828 11.8403Z" fill="#5E12A0"/>
<path d="M31.2776 13.9276C33.1762 14.4491 33.9481 12.9887 33.6978 12.0081C33.4266 11.0276 32.5503 10.0261 31.0064 8.89951C29.4625 7.77289 27.8978 7.3139 26.8963 7.52253C25.8949 7.73116 25.6028 9.25419 25.8532 9.83836C25.9575 10.0679 26.187 10.4017 26.4999 10.7772C26.1035 11.0484 25.728 11.2571 25.415 11.4448C27.3345 12.3002 29.0035 13.6355 30.2553 15.3045C30.4014 14.7412 30.61 14.2405 30.7978 13.8024C30.9438 13.8233 31.1107 13.865 31.2776 13.9276Z" fill="url(#paint0_radial_23896_5617)"/>
<path d="M20.4077 34.374C26.8488 34.374 32.0703 29.1525 32.0703 22.7114C32.0703 16.2703 26.8488 11.0488 20.4077 11.0488C13.9666 11.0488 8.74512 16.2703 8.74512 22.7114C8.74512 29.1525 13.9666 34.374 20.4077 34.374Z" fill="url(#paint1_radial_23896_5617)"/>
<path d="M32.7392 11.0478C31.1536 9.37875 29.8184 8.94062 28.2119 8.58594C26.9601 8.29386 27.2939 7.5845 28.8169 7.73055C28.0867 7.48019 27.3982 7.4176 26.8975 7.52191C25.8961 7.73055 25.604 9.25357 25.8543 9.83774C25.9586 10.0672 26.1881 10.4011 26.5011 10.7766C25.9378 11.1521 25.4579 11.4234 25.0615 11.632C25.2493 11.7154 25.4788 11.8198 25.75 11.9658C26.4594 12.3413 27.2313 12.9672 27.2313 12.9672C26.063 11.9658 26.3133 11.5068 27.9198 10.3802C28.4205 10.0255 29.3385 10.0672 30.1939 10.5054C31.0493 10.9435 32.0507 12.0493 32.0507 12.0493L31.091 13.8852C31.1536 13.9061 31.2162 13.927 31.2788 13.9478C31.8838 14.1147 32.3637 14.073 32.7392 13.927C33.1773 13.6557 34.3248 12.7377 32.7392 11.0478Z" fill="#A98698" fill-opacity="0.6"/>
<path d="M28.1904 9.58806C28.6076 9.75497 29.1501 10.0471 29.8177 10.4852C30.6105 11.0068 31.299 11.5909 31.7371 12.0499C31.0069 13.0096 30.527 14.324 30.235 15.242C30.381 15.4507 30.5479 15.6593 30.694 15.8679C30.84 15.3463 31.0904 14.5744 31.4242 13.8025C31.5076 13.8233 31.6119 13.8233 31.7163 13.8233C31.9666 13.8233 32.2587 13.7816 32.4882 13.5938C32.6551 13.4686 32.8429 13.2391 32.822 12.8219C32.822 12.4255 32.5091 11.9248 31.8623 11.3197C31.4033 10.8816 30.7774 10.4017 30.1515 9.9636C28.3573 8.77439 27.1055 8.44058 26.5422 9.00389C26.1666 9.37943 26.2083 9.83842 26.3335 10.1722C25.6659 10.6104 25.1026 10.9233 24.7271 11.1319C24.9774 11.2154 25.2069 11.3197 25.4573 11.424C26.1249 11.0694 27.0846 10.4643 28.1904 9.58806ZM32.1335 12.5715C32.1961 12.6758 32.217 12.7801 32.217 12.8427C32.217 13.0305 32.1544 13.0931 32.1127 13.1348C32.0292 13.1974 31.8623 13.2391 31.7163 13.2391C31.8414 12.9888 31.9875 12.7801 32.1335 12.5715ZM26.9803 9.46288C27.0429 9.40029 27.2098 9.35857 27.481 9.40029C27.2724 9.5672 27.0637 9.71324 26.8551 9.85929C26.8342 9.71324 26.8551 9.5672 26.9803 9.46288Z" fill="#5E12A0"/>
<path d="M20.4077 10.3589C13.5854 10.3589 8.05664 15.8877 8.05664 22.71C8.05664 29.5323 13.5854 35.061 20.4077 35.061C27.23 35.061 32.7588 29.5323 32.7588 22.71C32.7588 15.8877 27.2092 10.3589 20.4077 10.3589ZM20.4077 34.3726C13.961 34.3726 8.74513 29.1567 8.74513 22.71C8.74513 16.2632 13.961 11.0474 20.4077 11.0474C26.8545 11.0474 32.0703 16.2632 32.0703 22.71C32.0703 29.1567 26.8336 34.3726 20.4077 34.3726Z" fill="#5E12A0"/>
<path d="M20.4077 34.374C26.8488 34.374 32.0703 29.1525 32.0703 22.7114C32.0703 16.2703 26.8488 11.0488 20.4077 11.0488C13.9666 11.0488 8.74512 16.2703 8.74512 22.7114C8.74512 29.1525 13.9666 34.374 20.4077 34.374Z" fill="url(#paint2_linear_23896_5617)"/>
<path d="M20.3246 32.9556C13.9613 31.9333 9.64258 25.9456 10.6857 19.5822C11.1447 16.7657 12.5634 14.3664 14.5663 12.6348C11.6455 14.3247 9.47567 17.2664 8.8915 20.8549C7.8692 27.2182 12.1879 33.206 18.5303 34.2283C22.0771 34.8125 25.4987 33.7067 28.0232 31.5369C25.7908 32.8304 23.0786 33.3938 20.3246 32.9556Z" fill="#A98698" fill-opacity="0.6"/>
<path d="M22.2656 11.2167C19.3239 10.7368 16.4656 11.4045 14.1289 12.8858C14.0872 12.9275 14.0455 12.9692 14.0455 12.9692C14.9426 12.4268 16.257 11.9469 16.257 11.9469C12.8772 13.9081 11.834 16.1404 11.834 16.1404C13.1484 13.5951 17.0081 11.8009 20.0333 11.6757C23.0584 11.5505 25.0405 12.4476 27.4606 14.3879C29.8808 16.3491 31.3412 20.3548 31.1951 23.526C31.07 26.6973 29.4009 29.2635 29.4009 29.2635C30.5484 27.7822 31.2369 26.6973 31.675 25.5915C31.7584 25.2577 31.8419 24.9239 31.8836 24.5692C32.9268 18.2268 28.629 12.239 22.2656 11.2167Z" fill="url(#paint3_linear_23896_5617)"/>
<path d="M31.4873 22.6069C31.4873 28.7199 26.5218 33.6854 20.4089 33.6854C14.2959 33.6854 9.30957 28.7199 9.30957 22.6069H31.4873Z" fill="url(#paint4_linear_23896_5617)"/>
<path d="M30.611 22.6069C30.611 28.5738 25.8959 33.4559 19.9707 33.6854H20.4088C26.5218 33.6854 31.4872 28.7199 31.4872 22.6069H30.611Z" fill="url(#paint5_linear_23896_5617)"/>
<path d="M10.8743 22.6069H9.30957C9.30957 28.7199 14.275 33.6854 20.388 33.6854C20.6592 33.6854 20.9096 33.6853 21.1599 33.6645C15.4225 33.2472 10.8743 28.4487 10.8743 22.6069Z" fill="url(#paint6_linear_23896_5617)"/>
<path d="M31.4669 22.7124C31.4669 21.4398 29.2554 20.7096 26.3137 20.4592C24.1856 20.2923 22.0367 20.5009 19.5748 21.252C17.4467 21.8779 15.5273 21.7736 14.1295 21.6067C11.0208 21.252 9.31006 21.2103 9.31006 22.7124C9.31006 24.8822 13.7331 27.5945 20.3676 26.6556C23.7266 26.1757 25.4583 25.1952 27.4403 24.5275C29.5892 23.8182 31.4669 23.8391 31.4669 22.7124Z" fill="url(#paint7_linear_23896_5617)"/>
<path d="M27.1053 18.8507C27.5432 18.8507 27.8981 18.4959 27.8981 18.0579C27.8981 17.62 27.5432 17.2651 27.1053 17.2651C26.6674 17.2651 26.3125 17.62 26.3125 18.0579C26.3125 18.4959 26.6674 18.8507 27.1053 18.8507Z" fill="white"/>
<path d="M24.0379 17.4522C25.075 17.4522 25.9156 16.6116 25.9156 15.5745C25.9156 14.5374 25.075 13.6968 24.0379 13.6968C23.0007 13.6968 22.1602 14.5374 22.1602 15.5745C22.1602 16.6116 23.0007 17.4522 24.0379 17.4522Z" fill="white"/>
<path d="M29.9436 14.0743H29.9019C29.7767 14.0534 29.6933 13.9283 29.7141 13.7822C29.9019 12.8225 30.6947 11.9045 30.7364 11.8628C30.8199 11.7585 30.9868 11.7585 31.0702 11.8419C31.1746 11.9254 31.1746 12.0923 31.0911 12.1758C31.0702 12.1966 30.34 13.052 30.1731 13.8865C30.1523 14.0117 30.0479 14.0743 29.9436 14.0743Z" fill="url(#paint8_linear_23896_5617)"/>
<path d="M27.4177 6.85468C28.5861 6.85468 30.0256 7.41799 31.3609 8.39856C33.0508 9.6295 33.9897 10.7144 34.2817 11.841C34.4486 12.4878 34.3026 13.218 33.8853 13.7604C33.4472 14.3237 32.8004 14.6367 32.0285 14.6367C31.7573 14.6367 31.4652 14.595 31.1522 14.5115C30.9645 14.9914 30.8184 15.4712 30.7141 15.9302C31.9868 17.8705 32.7379 20.2072 32.7379 22.7108C32.7379 29.5331 27.2091 35.0619 20.3868 35.0619C13.5645 35.0619 8.05656 29.5331 8.05656 22.7108C8.05656 15.8885 13.5853 10.3597 20.4076 10.3597C21.9098 10.3597 23.3494 10.6309 24.6846 11.1317C24.935 11.0065 25.2479 10.8396 25.6026 10.6309C25.4774 10.4432 25.3522 10.2554 25.2897 10.0676C25.0602 9.50432 25.1436 8.62806 25.4983 7.96043C25.7904 7.41799 26.2285 7.04245 26.7709 6.91727C26.9587 6.87554 27.1882 6.85468 27.4177 6.85468ZM27.4177 6.5C27.1673 6.5 26.917 6.52086 26.6875 6.58345C26.0616 6.7295 25.5191 7.14676 25.1645 7.81439C24.7681 8.58633 24.6638 9.58777 24.935 10.2345C24.9767 10.318 25.0184 10.4223 25.081 10.5266C24.935 10.6101 24.7889 10.6935 24.6429 10.7561C23.2659 10.2763 21.8472 10.0259 20.3868 10.0259C18.676 10.0259 17.0069 10.3597 15.4422 11.0273C13.9191 11.6741 12.563 12.5921 11.3947 13.7604C10.2263 14.9288 9.30836 16.2849 8.6616 17.8079C7.99397 19.3727 7.66016 21.0417 7.66016 22.7525C7.66016 24.4633 7.99397 26.1324 8.6616 27.6971C9.30836 29.2201 10.2263 30.5763 11.3947 31.7446C12.563 32.913 13.9191 33.8309 15.4422 34.4777C17.0069 35.1453 18.676 35.4791 20.3868 35.4791C22.0976 35.4791 23.7666 35.1453 25.3314 34.4777C26.8544 33.8309 28.2105 32.913 29.3789 31.7446C30.5472 30.5763 31.4652 29.2201 32.112 27.6971C32.7796 26.1324 33.1134 24.4633 33.1134 22.7525C33.1134 20.3115 32.4249 17.954 31.1105 15.9094C31.1731 15.5964 31.2774 15.2835 31.3817 14.9705C31.5904 15.0122 31.8199 15.0331 32.0285 15.0331C32.9048 15.0331 33.6767 14.6784 34.1774 14.0108C34.6573 13.3849 34.845 12.5086 34.6364 11.7784C34.3026 10.5683 33.3429 9.42086 31.5695 8.1482C30.1717 7.08417 28.6486 6.5 27.4177 6.5Z" fill="white"/>
<path d="M21.1803 32.4749C21.4223 32.4749 21.6184 32.2788 21.6184 32.0368C21.6184 31.7947 21.4223 31.5986 21.1803 31.5986C20.9383 31.5986 20.7422 31.7947 20.7422 32.0368C20.7422 32.2788 20.9383 32.4749 21.1803 32.4749Z" fill="white" fill-opacity="0.2"/>
<path d="M20.9304 32.3086C20.7635 32.1417 20.7635 31.8496 20.9304 31.6827C20.9513 31.6618 20.993 31.641 21.0139 31.6201C20.9513 31.641 20.9096 31.6827 20.8679 31.7244C20.7009 31.8913 20.7009 32.1834 20.8679 32.3503C21.0139 32.4964 21.2225 32.5172 21.4103 32.4129C21.2434 32.4755 21.0556 32.4338 20.9304 32.3086Z" fill="url(#paint9_linear_23896_5617)"/>
<path d="M21.3266 31.8896C21.3727 31.8896 21.4101 31.8522 21.4101 31.8061C21.4101 31.76 21.3727 31.7227 21.3266 31.7227C21.2805 31.7227 21.2432 31.76 21.2432 31.8061C21.2432 31.8522 21.2805 31.8896 21.3266 31.8896Z" fill="white" fill-opacity="0.3"/>
<path d="M23.8707 32.1634C24.1128 32.1634 24.3089 31.9673 24.3089 31.7252C24.3089 31.4832 24.1128 31.2871 23.8707 31.2871C23.6287 31.2871 23.4326 31.4832 23.4326 31.7252C23.4326 31.9673 23.6287 32.1634 23.8707 32.1634Z" fill="white" fill-opacity="0.2"/>
<path d="M23.6209 31.9937C23.454 31.8268 23.454 31.5347 23.6209 31.3678C23.6417 31.3469 23.6835 31.326 23.7043 31.3052C23.6417 31.326 23.6 31.3678 23.5583 31.4095C23.3914 31.5764 23.3914 31.8685 23.5583 32.0354C23.7043 32.1814 23.913 32.2023 24.1007 32.098C23.9338 32.1606 23.7461 32.1188 23.6209 31.9937Z" fill="url(#paint10_linear_23896_5617)"/>
<path d="M24.0175 31.578C24.0636 31.578 24.101 31.5407 24.101 31.4946C24.101 31.4485 24.0636 31.4111 24.0175 31.4111C23.9714 31.4111 23.9341 31.4485 23.9341 31.4946C23.9341 31.5407 23.9714 31.578 24.0175 31.578Z" fill="white" fill-opacity="0.3"/>
<path d="M19.6364 31.4115C19.959 31.4115 20.2206 31.1499 20.2206 30.8273C20.2206 30.5048 19.959 30.2432 19.6364 30.2432C19.3139 30.2432 19.0522 30.5048 19.0522 30.8273C19.0522 31.1499 19.3139 31.4115 19.6364 31.4115Z" fill="white" fill-opacity="0.2"/>
<path d="M19.3025 31.203C19.073 30.9735 19.073 30.598 19.3025 30.3685C19.3442 30.3268 19.3859 30.3059 19.4276 30.2642C19.3442 30.285 19.2816 30.3267 19.219 30.3893C18.9895 30.6188 18.9895 30.9944 19.219 31.2239C19.4068 31.4116 19.6989 31.4534 19.9283 31.3282C19.7197 31.4116 19.4694 31.3699 19.3025 31.203Z" fill="url(#paint11_linear_23896_5617)"/>
<path d="M19.8449 30.6595C19.914 30.6595 19.9701 30.6034 19.9701 30.5344C19.9701 30.4653 19.914 30.4092 19.8449 30.4092C19.7758 30.4092 19.7197 30.4653 19.7197 30.5344C19.7197 30.6034 19.7758 30.6595 19.8449 30.6595Z" fill="white" fill-opacity="0.3"/>
<path d="M22.6823 31.1176C23.0049 31.1176 23.2665 30.8559 23.2665 30.5334C23.2665 30.2108 23.0049 29.9492 22.6823 29.9492C22.3598 29.9492 22.0981 30.2108 22.0981 30.5334C22.0981 30.8559 22.3598 31.1176 22.6823 31.1176Z" fill="white" fill-opacity="0.2"/>
<path d="M22.3483 30.9096C22.1189 30.6801 22.1189 30.3045 22.3483 30.075C22.3901 30.0333 22.4318 30.0124 22.4735 29.9707C22.3901 29.9916 22.3275 30.0333 22.2649 30.0959C22.0354 30.3254 22.0354 30.7009 22.2649 30.9304C22.4527 31.1182 22.7448 31.1599 22.9742 31.0347C22.7656 31.1182 22.5153 31.0765 22.3483 30.9096Z" fill="url(#paint12_linear_23896_5617)"/>
<path d="M22.8908 30.3661C22.9599 30.3661 23.016 30.31 23.016 30.2409C23.016 30.1718 22.9599 30.1157 22.8908 30.1157C22.8217 30.1157 22.7656 30.1718 22.7656 30.2409C22.7656 30.31 22.8217 30.3661 22.8908 30.3661Z" fill="white" fill-opacity="0.3"/>
<path d="M17.1531 31.2031C17.6832 31.2031 18.1128 30.7735 18.1128 30.2434C18.1128 29.7135 17.6832 29.2837 17.1531 29.2837C16.6231 29.2837 16.1934 29.7135 16.1934 30.2434C16.1934 30.7735 16.6231 31.2031 17.1531 31.2031Z" fill="white" fill-opacity="0.2"/>
<path d="M16.6109 30.8459C16.2354 30.4704 16.2354 29.8653 16.6109 29.4898C16.6735 29.4272 16.7361 29.3855 16.8196 29.3438C16.6944 29.3855 16.5901 29.4689 16.4858 29.5524C16.1102 29.9279 16.1102 30.533 16.4858 30.9085C16.7987 31.2215 17.2786 31.284 17.6541 31.0545C17.2994 31.2006 16.8822 31.138 16.6109 30.8459Z" fill="url(#paint13_linear_23896_5617)"/>
<path d="M17.487 29.949C17.6021 29.949 17.6956 29.8555 17.6956 29.7404C17.6956 29.6252 17.6021 29.5317 17.487 29.5317C17.3718 29.5317 17.2783 29.6252 17.2783 29.7404C17.2783 29.8555 17.3718 29.949 17.487 29.949Z" fill="white" fill-opacity="0.3"/>
<path d="M25.7292 28.8452C26.2594 28.8452 26.689 28.4156 26.689 27.8855C26.689 27.3556 26.2594 26.9258 25.7292 26.9258C25.1993 26.9258 24.7695 27.3556 24.7695 27.8855C24.7695 28.4156 25.1993 28.8452 25.7292 28.8452Z" fill="white" fill-opacity="0.2"/>
<path d="M25.1656 28.4885C24.7901 28.1129 24.7901 27.5079 25.1656 27.1324C25.2282 27.0698 25.2908 27.0281 25.3743 26.9863C25.2491 27.0281 25.1448 27.1115 25.0404 27.195C24.6649 27.5705 24.6649 28.1755 25.0404 28.5511C25.3534 28.864 25.8333 28.9266 26.2088 28.6971C25.8541 28.8432 25.4577 28.7806 25.1656 28.4885Z" fill="url(#paint14_linear_23896_5617)"/>
<path d="M26.0631 27.5911C26.1783 27.5911 26.2718 27.4976 26.2718 27.3825C26.2718 27.2673 26.1783 27.1738 26.0631 27.1738C25.948 27.1738 25.8545 27.2673 25.8545 27.3825C25.8545 27.4976 25.948 27.5911 26.0631 27.5911Z" fill="white" fill-opacity="0.3"/>
</g>
<defs>
<radialGradient id="paint0_radial_23896_5617" cx="0" cy="0" r="1" gradientUnits="userSpaceOnUse" gradientTransform="translate(33.3172 10.6937) scale(9.32474 9.32473)">
<stop stop-color="#FFEAFF" stop-opacity="0.6"/>
<stop offset="0.68" stop-color="#A087C9"/>
<stop offset="1" stop-color="#10002F"/>
</radialGradient>
<radialGradient id="paint1_radial_23896_5617" cx="0" cy="0" r="1" gradientUnits="userSpaceOnUse" gradientTransform="translate(28.1293 14.671) scale(22.8142 22.8142)">
<stop stop-color="#FFEAFF" stop-opacity="0.6"/>
<stop offset="0.68" stop-color="#A087C9"/>
<stop offset="1" stop-color="#10002F"/>
</radialGradient>
<linearGradient id="paint2_linear_23896_5617" x1="18.5369" y1="34.2086" x2="22.2672" y2="11.1949" gradientUnits="userSpaceOnUse">
<stop stop-color="#81FFFF" stop-opacity="0.6"/>
<stop offset="0.62" stop-color="white" stop-opacity="0"/>
<stop offset="1" stop-color="white" stop-opacity="0"/>
</linearGradient>
<linearGradient id="paint3_linear_23896_5617" x1="28.6279" y1="14.792" x2="18.9841" y2="23.6405" gradientUnits="userSpaceOnUse">
<stop stop-color="white" stop-opacity="0.6"/>
<stop offset="0.29" stop-color="white" stop-opacity="0.6"/>
<stop offset="0.78" stop-color="white" stop-opacity="0"/>
<stop offset="1" stop-color="white" stop-opacity="0"/>
</linearGradient>
<linearGradient id="paint4_linear_23896_5617" x1="9.31896" y1="28.1397" x2="31.4818" y2="28.1397" gradientUnits="userSpaceOnUse">
<stop stop-color="#0002E9"/>
<stop offset="1" stop-color="#FF00C7"/>
</linearGradient>
<linearGradient id="paint5_linear_23896_5617" x1="32.531" y1="23.5791" x2="20.4678" y2="34.9795" gradientUnits="userSpaceOnUse">
<stop stop-color="white" stop-opacity="0.6"/>
<stop offset="0.29" stop-color="white" stop-opacity="0.6"/>
<stop offset="0.78" stop-color="white" stop-opacity="0"/>
<stop offset="1" stop-color="white" stop-opacity="0"/>
</linearGradient>
<linearGradient id="paint6_linear_23896_5617" x1="9.31896" y1="28.1397" x2="21.176" y2="28.1397" gradientUnits="userSpaceOnUse">
<stop stop-color="#000292" stop-opacity="0.7"/>
<stop offset="1" stop-color="#7D00C7" stop-opacity="0.7"/>
</linearGradient>
<linearGradient id="paint7_linear_23896_5617" x1="9.33433" y1="23.6328" x2="31.4676" y2="23.6328" gradientUnits="userSpaceOnUse">
<stop stop-color="#000292"/>
<stop offset="1" stop-color="#BE00C7"/>
</linearGradient>
<linearGradient id="paint8_linear_23896_5617" x1="31.104" y1="11.7612" x2="29.5134" y2="14.3462" gradientUnits="userSpaceOnUse">
<stop stop-color="white" stop-opacity="0.6"/>
<stop offset="0.29" stop-color="white" stop-opacity="0.6"/>
<stop offset="0.78" stop-color="white" stop-opacity="0"/>
<stop offset="1" stop-color="white" stop-opacity="0"/>
</linearGradient>
<linearGradient id="paint9_linear_23896_5617" x1="20.7399" y1="32.0424" x2="21.4026" y2="32.0424" gradientUnits="userSpaceOnUse">
<stop stop-color="white" stop-opacity="0.6"/>
<stop offset="0.29" stop-color="white" stop-opacity="0.6"/>
<stop offset="0.78" stop-color="white" stop-opacity="0"/>
<stop offset="1" stop-color="white" stop-opacity="0"/>
</linearGradient>
<linearGradient id="paint10_linear_23896_5617" x1="23.4214" y1="31.7266" x2="24.084" y2="31.7266" gradientUnits="userSpaceOnUse">
<stop stop-color="white" stop-opacity="0.6"/>
<stop offset="0.29" stop-color="white" stop-opacity="0.6"/>
<stop offset="0.78" stop-color="white" stop-opacity="0"/>
<stop offset="1" stop-color="white" stop-opacity="0"/>
</linearGradient>
<linearGradient id="paint11_linear_23896_5617" x1="19.0463" y1="30.8454" x2="19.929" y2="30.8454" gradientUnits="userSpaceOnUse">
<stop stop-color="white" stop-opacity="0.6"/>
<stop offset="0.29" stop-color="white" stop-opacity="0.6"/>
<stop offset="0.78" stop-color="white" stop-opacity="0"/>
<stop offset="1" stop-color="white" stop-opacity="0"/>
</linearGradient>
<linearGradient id="paint12_linear_23896_5617" x1="22.0901" y1="30.548" x2="22.9728" y2="30.548" gradientUnits="userSpaceOnUse">
<stop stop-color="white" stop-opacity="0.6"/>
<stop offset="0.29" stop-color="white" stop-opacity="0.6"/>
<stop offset="0.78" stop-color="white" stop-opacity="0"/>
<stop offset="1" stop-color="white" stop-opacity="0"/>
</linearGradient>
<linearGradient id="paint13_linear_23896_5617" x1="16.1945" y1="30.2653" x2="17.6361" y2="30.2653" gradientUnits="userSpaceOnUse">
<stop stop-color="white" stop-opacity="0.6"/>
<stop offset="0.29" stop-color="white" stop-opacity="0.6"/>
<stop offset="0.78" stop-color="white" stop-opacity="0"/>
<stop offset="1" stop-color="white" stop-opacity="0"/>
</linearGradient>
<linearGradient id="paint14_linear_23896_5617" x1="24.7572" y1="27.9072" x2="26.1987" y2="27.9072" gradientUnits="userSpaceOnUse">
<stop stop-color="white" stop-opacity="0.6"/>
<stop offset="0.29" stop-color="white" stop-opacity="0.6"/>
<stop offset="0.78" stop-color="white" stop-opacity="0"/>
<stop offset="1" stop-color="white" stop-opacity="0"/>
</linearGradient>
<clipPath id="clip0_23896_5617">
<rect width="29" height="29" fill="white" transform="translate(6.72217 6.5)"/>
</clipPath>
</defs>
</svg>
