<svg width="36" height="43" viewBox="0 0 36 43" fill="none" xmlns="http://www.w3.org/2000/svg">
<path d="M22.6475 18.0708L21.2281 21.9283L21.6415 26.2375L18.3189 26.2534H15.0276L15.4723 21.9283L14.0215 18.0708H22.6475Z" fill="#203064"/>
<path d="M26.602 19.3618L22.6948 21.9441V26.5305L19.7153 29.4375V30.8079L22.5933 33.4932H24.9955L31.0555 22.7679L26.602 19.3618Z" fill="#203064"/>
<path d="M11.6351 10.1255H24.964L26.5707 17.0328H10.083L11.6351 10.1255Z" fill="#203064"/>
<path d="M14.0053 21.9441L10.051 19.3936L5.58203 22.768L11.6733 33.5249H14.1067L16.9845 30.8079V29.4376L14.0053 26.5306V21.9441Z" fill="#203064"/>
<path fill-rule="evenodd" clip-rule="evenodd" d="M0.661099 11.2662L18.3419 0.921143L35.9527 11.2979V32.0119L18.264 42.3887L0.614258 32.004V11.2662H0.661099ZM18.3419 3.0361L2.42365 12.3514V30.9821L18.3419 40.2975L34.1901 30.9821V12.3514L18.3419 3.0361Z" fill="#203064"/>
</svg>
