<svg width="57" height="52" viewBox="0 0 57 52" fill="none" xmlns="http://www.w3.org/2000/svg">
<path d="M15.8143 25.8141C15.6961 27.8898 17.2774 29.6668 19.3317 29.7862C19.4056 29.7862 19.4794 29.7862 19.5533 29.7862C21.6224 29.7862 23.2924 28.0988 23.2776 26.0082C23.2776 23.9177 21.6076 22.2303 19.5386 22.2452C17.5582 22.2452 15.9178 23.8131 15.8143 25.8141Z" fill="#0033AD"/>
<path d="M1.89477 24.8433C1.22972 24.7985 0.653356 25.3211 0.623798 25.9931C0.594241 26.665 1.09672 27.2474 1.76176 27.2773C2.4268 27.3221 2.98839 26.7994 3.03273 26.1275C3.07707 25.4555 2.55981 24.8881 1.89477 24.8433Z" fill="#0033AD"/>
<path d="M15.5796 3.92202C16.1707 3.62337 16.4072 2.87674 16.1116 2.27943C15.816 1.68212 15.0771 1.4432 14.4859 1.74186C13.8948 2.04051 13.6583 2.77221 13.9539 3.36952C14.2495 3.98175 14.9736 4.23561 15.5796 3.92202Z" fill="#0033AD"/>
<path d="M19.3632 10.5971C20.2795 10.1342 20.6489 8.9993 20.1908 8.07348C19.7326 7.14765 18.6095 6.77434 17.6932 7.23725C16.7769 7.70016 16.4074 8.83505 16.8656 9.76087C17.3237 10.6867 18.4469 11.06 19.3632 10.5971Z" fill="#0033AD"/>
<path d="M6.62244 15.1821C7.33182 15.645 8.27766 15.4509 8.75058 14.7341C9.20872 14.0174 9.01659 13.0617 8.30722 12.5838C7.59784 12.1209 6.652 12.315 6.17908 13.0318C5.70616 13.7486 5.91306 14.7192 6.62244 15.1821Z" fill="#0033AD"/>
<path d="M8.88521 24.1707C7.8507 24.1109 6.97876 24.9024 6.91964 25.9476C6.86053 26.9929 7.6438 27.874 8.67831 27.9337C9.71282 27.9934 10.5848 27.202 10.6439 26.1567C10.703 25.1263 9.91972 24.2304 8.88521 24.1707Z" fill="#0033AD"/>
<path d="M6.83084 36.8188C6.07713 37.207 5.76678 38.1328 6.15102 38.9093C6.53527 39.6709 7.45155 39.9845 8.22004 39.5962C8.97376 39.208 9.28411 38.2822 8.89986 37.5057C8.51562 36.7441 7.58456 36.4305 6.83084 36.8188Z" fill="#0033AD"/>
<path d="M14.0719 20.2731C15.0916 20.9451 16.4513 20.6614 17.1016 19.631C17.7666 18.6007 17.4858 17.2269 16.4661 16.5698C15.4463 15.8979 14.0867 16.1816 13.4364 17.2119C12.7714 18.2273 13.0522 19.6012 14.0719 20.2731Z" fill="#0033AD"/>
<path d="M37.0545 10.4478C37.9116 11.0153 39.0792 10.7764 39.6408 9.91026C40.2023 9.04417 39.9659 7.86448 39.1087 7.29704C38.2516 6.7296 37.084 6.96852 36.5224 7.83462C35.9461 8.71565 36.1825 9.8804 37.0545 10.4478Z" fill="#0033AD"/>
<path d="M40.8637 3.80263C41.4252 4.17594 42.1642 4.01168 42.5336 3.44424C42.9031 2.8768 42.7405 2.13017 42.179 1.75685C41.6174 1.38354 40.8784 1.54779 40.509 2.1003C40.1543 2.66774 40.3168 3.42931 40.8637 3.80263Z" fill="#0033AD"/>
<path d="M37.3334 22.2148C35.2791 22.0953 33.5057 23.6931 33.4022 25.7688C33.284 27.8444 34.8653 29.6363 36.9196 29.7408C36.9934 29.7408 37.0673 29.7408 37.1265 29.7408C39.1807 29.7408 40.8507 28.0535 40.8507 25.9629C40.8655 23.9768 39.3137 22.3193 37.3334 22.2148Z" fill="#0033AD"/>
<path d="M20.5919 20.0047C21.2274 21.274 22.5131 22.0804 23.9319 22.0804C25.9861 22.0804 27.6561 20.393 27.6561 18.3024C27.6561 17.72 27.5231 17.1376 27.2571 16.6001C26.326 14.7335 24.0797 13.9869 22.2471 14.9276C20.3998 15.8833 19.6608 18.1531 20.5919 20.0047Z" fill="#0033AD"/>
<path d="M49.8367 15.1811C50.5904 14.7929 50.886 13.8521 50.5018 13.0905C50.1175 12.329 49.1865 12.0303 48.4328 12.4186C47.679 12.8068 47.3835 13.7326 47.7529 14.4942C48.152 15.2558 49.0682 15.5694 49.8367 15.1811Z" fill="#0033AD"/>
<path d="M40.3789 16.3764C39.3001 16.929 38.8567 18.258 39.4035 19.348C39.9503 20.4381 41.2656 20.8861 42.3445 20.3336C43.4233 19.7811 43.8667 18.4521 43.3199 17.362C42.7731 16.2719 41.4577 15.8389 40.3789 16.3764Z" fill="#0033AD"/>
<path d="M28.1863 3.2354C29.0287 3.2802 29.7528 2.62316 29.812 1.772C29.8711 0.920837 29.206 0.189136 28.3636 0.129405C27.5213 0.0846073 26.7971 0.726712 26.738 1.57787C26.6936 2.44397 27.3439 3.17567 28.1863 3.2354Z" fill="#0033AD"/>
<path d="M28.1738 12.9862C29.3856 13.0609 30.4201 12.1201 30.4793 10.8957C30.5531 9.67118 29.6221 8.6259 28.4102 8.56617C27.1984 8.4915 26.1639 9.43226 26.1048 10.6567C26.0456 11.8812 26.9619 12.9265 28.1738 12.9862Z" fill="#0033AD"/>
<path d="M16.2878 35.6246C17.3667 35.0721 17.81 33.7431 17.2632 32.653C16.7164 31.5629 15.4011 31.1149 14.3223 31.6674C13.2434 32.2199 12.8001 33.5489 13.3469 34.639C13.8937 35.7291 15.209 36.1771 16.2878 35.6246Z" fill="#0033AD"/>
<path d="M29.5895 16.2272C28.4663 17.9743 28.9392 20.3038 30.6683 21.4387C32.3974 22.5736 34.7029 22.0958 35.8261 20.3486C36.9493 18.6015 36.4763 16.272 34.7472 15.1371C34.1413 14.734 33.4319 14.5249 32.7078 14.5249C31.4516 14.5249 30.2841 15.167 29.5895 16.2272Z" fill="#0033AD"/>
<path d="M36.0769 31.9953C35.1458 30.1288 32.8995 29.3821 31.0669 30.3229C29.2196 31.2636 28.4806 33.5334 29.4117 35.3851C30.3428 37.2516 32.5891 37.9983 34.4217 37.0575C36.2543 36.1317 37.008 33.8918 36.0917 32.0252C36.0917 32.0103 36.0917 32.0103 36.0769 31.9953Z" fill="#0033AD"/>
<path d="M42.5974 31.7268C41.5777 31.0548 40.218 31.3386 39.5678 32.3689C38.9027 33.3993 39.1835 34.7731 40.2033 35.4301C41.223 36.1021 42.5826 35.8184 43.2329 34.788C43.8979 33.7726 43.6171 32.3988 42.5974 31.7268Z" fill="#0033AD"/>
<path d="M49.7493 26.0676C49.8085 25.0223 49.0252 24.1413 47.9907 24.0815C46.9562 24.0218 46.0842 24.8132 46.0251 25.8585C45.966 26.9038 46.7493 27.7848 47.7838 27.8446C48.8035 27.9043 49.6902 27.0979 49.7493 26.0676Z" fill="#0033AD"/>
<path d="M54.905 24.7236C54.24 24.6788 53.6636 25.2015 53.6341 25.8734C53.6045 26.5454 54.107 27.1278 54.772 27.1577C55.4371 27.2024 55.9986 26.6798 56.043 26.0078C56.0725 25.3359 55.5701 24.7684 54.905 24.7236Z" fill="#0033AD"/>
<path d="M50.0424 36.8189C49.333 36.356 48.3872 36.5502 47.9143 37.2669C47.4561 37.9837 47.6482 38.9394 48.3576 39.4172C49.067 39.8801 50.0128 39.686 50.4858 38.9692C50.9587 38.2525 50.7518 37.2819 50.0424 36.8189Z" fill="#0033AD"/>
<path d="M15.7881 48.1983C15.2265 47.8249 14.4875 47.9892 14.1181 48.5417C13.7486 49.1092 13.9112 49.8558 14.458 50.2291C15.0196 50.6024 15.7585 50.4382 16.128 49.8857C16.5122 49.3331 16.3496 48.5716 15.7881 48.1983Z" fill="#0033AD"/>
<path d="M41.0885 48.0784C40.4973 48.377 40.2609 49.1236 40.5564 49.721C40.852 50.3183 41.591 50.5572 42.1821 50.2585C42.7733 49.9599 43.0097 49.2282 42.7141 48.6309C42.4186 48.0186 41.6944 47.7648 41.0885 48.0784Z" fill="#0033AD"/>
<path d="M27.0793 35.7732C28.2025 34.026 27.7296 31.6965 26.0005 30.5467C24.2714 29.4118 21.9659 29.8897 20.8279 31.6368C19.6899 33.3839 20.1776 35.7134 21.9068 36.8632C22.5127 37.2664 23.2221 37.4755 23.9462 37.4755C25.2172 37.4904 26.3847 36.8483 27.0793 35.7732Z" fill="#0033AD"/>
<path d="M19.614 41.5522C18.7569 40.9847 17.5893 41.2237 17.0278 42.0897C16.4662 42.9558 16.7026 44.1355 17.5598 44.703C18.417 45.2704 19.5845 45.0315 20.1461 44.1654C20.7224 43.2993 20.486 42.1196 19.614 41.5522Z" fill="#0033AD"/>
<path d="M28.3217 48.7649C27.4793 48.7201 26.7552 49.3771 26.696 50.2283C26.6369 51.0794 27.302 51.8111 28.1444 51.8708C28.9867 51.9156 29.7109 51.2735 29.77 50.4224C29.8143 49.5563 29.1641 48.8246 28.3217 48.7649Z" fill="#0033AD"/>
<path d="M28.3369 39.0142C27.1251 38.9395 26.0906 39.8803 26.0315 41.1047C25.9576 42.3292 26.8886 43.3745 28.1005 43.4342C29.3123 43.494 30.3468 42.5681 30.406 41.3437C30.4798 40.1341 29.5488 39.0739 28.3369 39.0142Z" fill="#0033AD"/>
<path d="M37.3042 41.4037C36.3879 41.8816 36.0184 43.0164 36.4914 43.9423C36.9643 44.8681 38.0875 45.2414 39.0037 44.7636C39.92 44.3007 40.2895 43.1658 39.8313 42.2399C39.3584 41.3141 38.2352 40.9259 37.3042 41.4037Z" fill="#0033AD"/>
</svg>
