<svg width="55" height="54" viewBox="0 0 55 54" fill="none" xmlns="http://www.w3.org/2000/svg">
<mask id="mask0_39058_70820" style="mask-type:luminance" maskUnits="userSpaceOnUse" x="0" y="0" width="55" height="54">
<path d="M54.4165 0.25H0.916504V53.75H54.4165V0.25Z" fill="white"/>
</mask>
<g mask="url(#mask0_39058_70820)">
<path d="M27.309 1.18359C16.6446 1.18359 8.00616 9.8292 7.99902 20.4935C7.99902 21.7133 8.11316 22.9331 8.34142 24.1315L10.8381 22.4267C15.2251 19.4164 22.337 19.4164 26.7169 22.4267L29.3348 24.2243L30.7544 25.2015C34.7062 27.9122 41.112 27.9122 45.0567 25.2015L46.2194 24.4097C48.3594 13.9594 41.6256 3.75159 31.1752 1.60446C29.9055 1.34053 28.6144 1.21213 27.3161 1.21213L27.309 1.18359Z" fill="#F2B705"/>
</g>
<mask id="mask1_39058_70820" style="mask-type:luminance" maskUnits="userSpaceOnUse" x="0" y="0" width="55" height="54">
<path d="M54.4165 0.25H0.916504V53.75H54.4165V0.25Z" fill="white"/>
</mask>
<g mask="url(#mask1_39058_70820)">
<path d="M38.159 32.0934C35.3984 32.1434 32.6877 31.373 30.3765 29.8821L26.3462 27.1215C21.8736 24.3752 16.2311 24.3752 11.7514 27.1215L9.14769 28.9048C8.63409 29.2615 7.92789 29.126 7.57122 28.6124C7.21456 28.0988 7.35009 27.3926 7.86369 27.0359L10.4674 25.2526C15.7175 21.9926 22.3658 21.9926 27.6159 25.2526L31.6462 28.0132C35.6338 30.4599 40.6628 30.4599 44.6503 28.0132L46.1768 26.9646C46.6904 26.6079 47.3966 26.7434 47.7533 27.257C48.11 27.7706 47.9744 28.4768 47.4608 28.8335L45.9343 29.8821C43.6231 31.3658 40.9124 32.1362 38.159 32.0934Z" fill="#53CBC8"/>
</g>
<mask id="mask2_39058_70820" style="mask-type:luminance" maskUnits="userSpaceOnUse" x="0" y="0" width="55" height="54">
<path d="M54.4165 0.25H0.916504V53.75H54.4165V0.25Z" fill="white"/>
</mask>
<g mask="url(#mask2_39058_70820)">
<path d="M18.9645 40.2049V29.2908C18.9574 29.0626 18.9645 28.8343 18.993 28.606C19.0644 27.9854 19.5922 27.5146 20.22 27.5146C20.8263 27.536 21.3185 27.9997 21.3756 28.606C21.4255 28.9841 21.4326 29.3693 21.4184 29.7474V51.504C21.4469 52.2102 20.8976 52.7952 20.1914 52.8237C20.1843 52.8237 20.1772 52.8237 20.17 52.8237C19.4781 52.788 18.9502 52.196 18.9859 51.504C18.9859 51.4826 18.9859 51.4612 18.993 51.447V44.1852L18.9645 40.2049Z" fill="#53CBC8"/>
</g>
<mask id="mask3_39058_70820" style="mask-type:luminance" maskUnits="userSpaceOnUse" x="0" y="0" width="55" height="54">
<path d="M54.4165 0.25H0.916504V53.75H54.4165V0.25Z" fill="white"/>
</mask>
<g mask="url(#mask3_39058_70820)">
<path d="M16.674 34.7104V40.1317C16.674 41.0591 16.1675 41.6583 15.4756 41.6583C14.7908 41.6583 14.2415 41.0091 14.2344 40.1317V29.2819C14.2344 28.3332 14.7908 27.6912 15.5112 27.7554C16.2317 27.8196 16.6597 28.3617 16.6668 29.3176C16.674 31.0938 16.674 32.8985 16.674 34.7104Z" fill="#53CBC8"/>
</g>
<mask id="mask4_39058_70820" style="mask-type:luminance" maskUnits="userSpaceOnUse" x="0" y="0" width="55" height="54">
<path d="M54.4165 0.25H0.916504V53.75H54.4165V0.25Z" fill="white"/>
</mask>
<g mask="url(#mask4_39058_70820)">
<path d="M23.7144 34.7045V30.9025C23.7144 30.0179 24.1852 29.4473 24.8842 29.4473C25.6047 29.4829 26.1682 30.0964 26.1326 30.8169C26.1326 30.8311 26.1326 30.8525 26.1326 30.8668C26.154 33.4562 26.154 36.0456 26.1326 38.6421C26.1326 39.5267 25.6261 40.0617 24.8914 40.0474C24.1638 40.0403 23.7215 39.4981 23.7144 38.5922V34.7045Z" fill="#53CBC8"/>
</g>
<mask id="mask5_39058_70820" style="mask-type:luminance" maskUnits="userSpaceOnUse" x="0" y="0" width="55" height="54">
<path d="M54.4165 0.25H0.916504V53.75H54.4165V0.25Z" fill="white"/>
</mask>
<g mask="url(#mask5_39058_70820)">
<path d="M9.51172 35.489V31.6798C9.51172 30.7953 9.98252 30.2246 10.6816 30.2246C11.4021 30.2603 11.9656 30.8737 11.9299 31.5942C11.9299 31.6085 11.9299 31.6299 11.9299 31.6441C11.9513 34.2407 11.9513 36.8301 11.9299 39.4266C11.9299 40.3111 11.4235 40.839 10.6959 40.8319C9.97539 40.8247 9.51885 40.2826 9.51172 39.3767V35.489Z" fill="#53CBC8"/>
</g>
<mask id="mask6_39058_70820" style="mask-type:luminance" maskUnits="userSpaceOnUse" x="0" y="0" width="55" height="54">
<path d="M54.4165 0.25H0.916504V53.75H54.4165V0.25Z" fill="white"/>
</mask>
<g mask="url(#mask6_39058_70820)">
<path d="M29.6281 32.251C30.2915 32.251 30.8265 32.786 30.8265 33.4494V35.518C30.8265 36.1814 30.2915 36.7164 29.6281 36.7164C28.9647 36.7164 28.4297 36.1814 28.4297 35.518V33.4494C28.4368 32.7931 28.9718 32.251 29.6281 32.251Z" fill="#53CBC8"/>
</g>
<mask id="mask7_39058_70820" style="mask-type:luminance" maskUnits="userSpaceOnUse" x="0" y="0" width="55" height="54">
<path d="M54.4165 0.25H0.916504V53.75H54.4165V0.25Z" fill="white"/>
</mask>
<g mask="url(#mask7_39058_70820)">
<path d="M34.3713 34.0693C35.0347 34.0693 35.5696 34.6043 35.5696 35.2677V46.8879C35.5696 47.5513 35.0347 48.0863 34.3713 48.0863C33.7079 48.0863 33.1729 47.5513 33.1729 46.8879V35.2677C33.1729 34.6043 33.7079 34.0693 34.3713 34.0693Z" fill="#53CBC8"/>
</g>
<mask id="mask8_39058_70820" style="mask-type:luminance" maskUnits="userSpaceOnUse" x="0" y="0" width="55" height="54">
<path d="M54.4165 0.25H0.916504V53.75H54.4165V0.25Z" fill="white"/>
</mask>
<g mask="url(#mask8_39058_70820)">
<path d="M39.0871 34.5186C39.7505 34.5186 40.2855 35.0536 40.2855 35.717V45.5895C40.2855 46.2529 39.7505 46.7879 39.0871 46.7879C38.4237 46.7879 37.8887 46.2529 37.8887 45.5895V35.717C37.8887 35.0536 38.4237 34.5186 39.0871 34.5186Z" fill="#53CBC8"/>
</g>
<mask id="mask9_39058_70820" style="mask-type:luminance" maskUnits="userSpaceOnUse" x="0" y="0" width="55" height="54">
<path d="M54.4165 0.25H0.916504V53.75H54.4165V0.25Z" fill="white"/>
</mask>
<g mask="url(#mask9_39058_70820)">
<path d="M43.8595 33.3916C44.5229 33.3916 45.0579 33.9266 45.0579 34.59V38.8486C45.0579 39.512 44.5229 40.047 43.8595 40.047C43.1961 40.047 42.6611 39.512 42.6611 38.8486V34.59C42.6611 33.9266 43.2033 33.3916 43.8595 33.3916Z" fill="#53CBC8"/>
</g>
</svg>
