<svg width="57" height="50" viewBox="0 0 57 50" fill="none" xmlns="http://www.w3.org/2000/svg">
<g clip-path="url(#clip0_39058_70861)">
<path d="M39.8747 2.16091C46.2293 5.06769 50.5981 12.127 50.201 19.1863C38.6832 19.1863 27.1655 19.1863 16.0449 19.1863C16.0449 14.6185 17.6336 9.63548 20.8109 6.31345C25.1797 0.499891 33.5201 -1.16113 39.8747 2.16091Z" fill="#5FC0C1"/>
<path d="M39.0806 47.4238C39.8749 47.4238 40.2721 47.8391 40.2721 48.2543C40.2721 48.6696 39.8749 49.0848 39.0806 49.0848H20.8111C20.0168 49.0848 19.6196 48.6696 19.6196 48.2543C19.6196 47.8391 20.0168 47.4238 20.8111 47.4238H39.0806Z" fill="#E1177C"/>
<path d="M16.8394 49.5003C17.6338 49.5003 18.0309 49.0851 18.0309 48.2546C18.0309 47.424 17.6338 47.0088 16.8394 47.0088C16.0451 47.0088 15.6479 47.424 15.6479 48.2546C15.6479 49.0851 16.0451 49.5003 16.8394 49.5003Z" fill="#E1177C"/>
<path d="M27.96 44.5169C28.7544 44.5169 29.1515 44.1017 29.1515 43.2712C29.1515 42.4406 28.7544 42.0254 27.96 42.0254C27.1657 42.0254 26.7686 42.4406 26.7686 43.2712C26.7686 44.1017 27.1657 44.5169 27.96 44.5169Z" fill="#E1177C"/>
<path d="M49.4066 42.0254C50.2009 42.0254 50.5981 42.4406 50.5981 43.2712C50.5981 44.1017 50.2009 44.5169 49.4066 44.5169H31.5343C30.7399 44.5169 30.3428 44.1017 30.3428 43.2712C30.3428 42.4406 30.7399 42.0254 31.5343 42.0254H49.4066Z" fill="#E1177C"/>
<path d="M4.12997 39.5335C4.92429 39.5335 5.32146 39.1183 5.32146 38.2878C5.32146 37.4572 4.92429 37.042 4.12997 37.042C3.33564 37.042 2.93848 37.4572 2.93848 38.2878C2.93848 39.1183 3.7328 39.5335 4.12997 39.5335Z" fill="#E1177C"/>
<path d="M22.0022 37.042C22.7966 37.042 23.1937 37.4572 23.1937 38.2878C23.1937 39.1183 22.7966 39.5335 22.0022 39.5335H7.30721C6.51289 39.5335 6.11572 39.1183 6.11572 38.2878C6.11572 37.4572 6.51289 37.042 7.30721 37.042H22.0022Z" fill="#E1177C"/>
<path d="M55.3643 37.042C56.1586 37.042 56.5558 37.4572 56.5558 38.2878C56.5558 39.1183 56.1586 39.5335 55.3643 39.5335H25.9742C25.1799 39.5335 24.7827 39.1183 24.7827 38.2878C24.7827 37.4572 25.1799 37.042 25.9742 37.042H55.3643Z" fill="#E1177C"/>
<path d="M49.804 32.0596C50.5984 32.0596 50.9955 32.4748 50.9955 33.3053C50.9955 34.1358 50.5984 34.5511 49.804 34.5511H13.6622C13.265 34.9663 12.4707 34.1358 12.4707 33.3053C12.4707 32.4748 12.8679 32.0596 13.6622 32.0596H49.804Z" fill="#E1177C"/>
<path d="M9.69051 34.9664C10.4848 34.9664 10.882 34.5511 10.882 33.7206C10.882 32.8901 10.4848 32.0596 9.69051 32.0596C8.89619 32.0596 8.49902 32.8901 8.49902 33.3053C8.49902 33.7206 8.89619 34.9664 9.69051 34.9664Z" fill="#E1177C"/>
<path d="M42.2576 27.4912C43.052 27.4912 43.4491 27.9065 43.4491 28.737C43.4491 29.5675 43.052 29.9827 42.2576 29.9827H6.11581C5.71864 29.9827 4.92432 29.5675 4.92432 28.737C4.92432 27.9065 5.32148 27.4912 6.11581 27.4912H42.2576Z" fill="#E1177C"/>
<path d="M1.74715 29.9827C2.54148 29.9827 2.93864 29.5675 2.93864 28.737C2.93864 27.9065 2.54148 27.4912 1.74715 27.4912C0.952827 27.4912 0.555664 27.9065 0.555664 28.737C0.555664 29.5675 0.952827 29.9827 1.74715 29.9827Z" fill="#E1177C"/>
<path d="M9.69051 25.0003C10.4848 25.0003 10.882 24.5851 10.882 23.7546C10.882 22.924 10.4848 22.5088 9.69051 22.5088C8.89619 22.5088 8.49902 23.3393 8.49902 23.7546C8.49902 24.5851 8.89619 25.0003 9.69051 25.0003Z" fill="#E1177C"/>
<path d="M53.3783 22.5088C54.1726 22.5088 54.5698 22.924 54.5698 23.7546C54.5698 24.5851 54.1726 25.0003 53.3783 25.0003H14.0592C13.2648 25.0003 12.8677 24.5851 12.8677 23.7546C12.8677 22.924 13.2648 22.5088 14.0592 22.5088H53.3783Z" fill="#E1177C"/>
</g>
<defs>
<clipPath id="clip0_39058_70861">
<rect width="56" height="49" fill="white" transform="translate(0.555664 0.5)"/>
</clipPath>
</defs>
</svg>
