<svg width="66" height="66" viewBox="0 0 66 66" fill="none" xmlns="http://www.w3.org/2000/svg">
<path d="M38.5069 26.8154H27.9448C27.4959 26.8154 27.1323 27.1848 27.1323 27.6404V38.3654C27.1323 38.821 27.4959 39.1904 27.9448 39.1904H38.5069C38.9562 39.1904 39.32 38.821 39.32 38.3654V27.6404C39.32 27.1848 38.9562 26.8154 38.5069 26.8154Z" fill="black"/>
<path d="M26.3159 14.4375H15.7534C15.3046 14.4375 14.9409 14.8067 14.9409 15.2625V25.9875C14.9409 26.4431 15.3046 26.8125 15.7534 26.8125H26.3159C26.7646 26.8125 27.1284 26.4431 27.1284 25.9875V15.2625C27.1284 14.8067 26.7646 14.4375 26.3159 14.4375Z" fill="black"/>
<path d="M50.6903 14.4375H40.128C39.6787 14.4375 39.3149 14.8067 39.3149 15.2625V25.9875C39.3149 26.4431 39.6787 26.8125 40.128 26.8125H50.6903C51.1397 26.8125 51.5035 26.4431 51.5035 25.9875V15.2625C51.5035 14.8067 51.1397 14.4375 50.6903 14.4375Z" fill="black"/>
<path d="M26.3159 39.1875H15.7534C15.3046 39.1875 14.9409 39.5567 14.9409 40.0125V50.7375C14.9409 51.1931 15.3046 51.5625 15.7534 51.5625H26.3159C26.7646 51.5625 27.1284 51.1931 27.1284 50.7375V40.0125C27.1284 39.5567 26.7646 39.1875 26.3159 39.1875Z" fill="black"/>
<path d="M50.6903 39.1875H40.128C39.6787 39.1875 39.3149 39.5567 39.3149 40.0125V50.7375C39.3149 51.1931 39.6787 51.5625 40.128 51.5625H50.6903C51.1397 51.5625 51.5035 51.1931 51.5035 50.7375V40.0125C51.5035 39.5567 51.1397 39.1875 50.6903 39.1875Z" fill="black"/>
</svg>
