<svg width="43" height="42" viewBox="0 0 43 42" fill="none" xmlns="http://www.w3.org/2000/svg">
<path d="M11.8222 31C9.78492 31 8.11582 30.4814 6.81461 29.4444C5.5307 28.3889 4.88867 26.8889 4.88867 24.9444C4.88867 24.537 4.9315 24.037 5.01702 23.4444C5.23968 22.1111 5.55637 20.5093 5.96722 18.6389C7.1313 13.5463 10.1359 11 14.9808 11C16.2991 11 17.4803 11.2407 18.5245 11.7223C19.5689 12.1851 20.3906 12.8889 20.9898 13.8333C21.589 14.7593 21.8887 15.8704 21.8887 17.1667C21.8887 17.5556 21.8458 18.0463 21.7602 18.6389C21.5035 20.287 21.1953 21.8889 20.8358 23.4444C20.2366 25.9814 19.2009 27.8796 17.7285 29.1389C16.2562 30.3796 14.2875 31 11.8222 31ZM12.1817 27C13.1404 27 13.9536 26.6944 14.6213 26.0833C15.306 25.4723 15.794 24.537 16.0851 23.2777C16.4788 21.537 16.7784 20.0186 16.9838 18.7223C17.0523 18.3333 17.0865 17.9351 17.0865 17.5277C17.0865 15.8426 16.2734 15 14.647 15C13.6883 15 12.8666 15.3056 12.1817 15.9167C11.514 16.5277 11.0346 17.463 10.7436 18.7223C10.4355 19.963 10.1273 21.4814 9.81924 23.2777C9.75074 23.6481 9.71642 24.037 9.71642 24.4444C9.71642 26.1481 10.5381 27 12.1817 27Z" fill="#FF0420"/>
<path d="M23.4328 31C23.2388 31 23.089 30.9333 22.9831 30.7999C22.895 30.6475 22.8685 30.4762 22.9038 30.2856L26.5537 11.7144C26.5889 11.5049 26.6859 11.3334 26.8446 11.2001C27.0033 11.0667 27.1708 11 27.3471 11H34.3824C36.3396 11 37.9088 11.4382 39.0902 12.3144C40.2892 13.1905 40.8887 14.4572 40.8887 16.1143C40.8887 16.5905 40.8358 17.0857 40.73 17.6C40.2892 19.7906 39.3988 21.4095 38.0586 22.4572C36.7363 23.5047 34.9201 24.0285 32.6103 24.0285H29.0397L27.8231 30.2856C27.7879 30.4951 27.6909 30.6666 27.5322 30.7999C27.3735 30.9333 27.206 31 27.0297 31H23.4328ZM32.7954 20.0858C33.536 20.0858 34.1795 19.8667 34.7263 19.4286C35.2904 18.9905 35.6607 18.3619 35.8371 17.5428C35.89 17.2191 35.9164 16.9333 35.9164 16.6858C35.9164 16.1334 35.7665 15.7144 35.4668 15.4286C35.1669 15.1238 34.6557 14.9714 33.9327 14.9714H30.7589L29.7538 20.0858H32.7954Z" fill="#FF0420"/>
</svg>
