<svg width="39" height="38" viewBox="0 0 39 38" fill="none" xmlns="http://www.w3.org/2000/svg">
<path fill-rule="evenodd" clip-rule="evenodd" d="M23.7428 11.1961L11.4681 23.4713C11.3099 23.1642 11.167 22.8442 11.039 22.5122C10.6104 21.3969 10.396 20.2135 10.396 18.9638C10.396 17.713 10.6104 16.5302 11.039 15.4148C11.4681 14.299 12.0626 13.331 12.8226 12.5094C13.5828 11.6883 14.4962 11.0388 15.5623 10.5605C16.6292 10.0827 17.7995 9.8436 19.0742 9.8436C20.3493 9.8436 21.5261 10.0887 22.6042 10.5794C23.0052 10.7615 23.3847 10.9669 23.7428 11.1961ZM22.6598 27.4399C21.5931 27.9182 20.4227 28.157 19.148 28.157C17.8729 28.157 16.6962 27.9117 15.6174 27.4217C15.217 27.2389 14.8375 27.0336 14.4798 26.8039L26.754 14.5297C26.9124 14.8363 27.0553 15.1558 27.1832 15.4882C27.6118 16.6036 27.8262 17.7869 27.8262 19.0372C27.8262 20.2874 27.6118 21.4702 27.1832 22.5861C26.754 23.7014 26.1597 24.6695 25.3995 25.4905C24.6395 26.3118 23.7264 26.9617 22.6598 27.4399ZM24.5169 31.246C26.1597 30.535 27.5816 29.5729 28.7828 28.3588C29.9839 27.1457 30.9151 25.7297 31.5771 24.1117C32.2394 22.4939 32.5703 20.7777 32.5703 18.9638C32.5703 17.1494 32.2394 15.4332 31.5771 13.8148C31.1847 12.8552 30.7014 11.9691 30.1278 11.1559L38.1113 3.17238L34.9391 0L26.9313 8.00782C26.2123 7.51765 25.4318 7.09394 24.5903 6.73622C22.9476 6.03764 21.1335 5.68785 19.148 5.68785C17.1619 5.68785 15.3481 6.04358 13.7053 6.75457C12.0626 7.46555 10.6405 8.42757 9.43942 9.64116C8.23816 10.8547 7.30647 12.2707 6.64456 13.8887C5.98266 15.5066 5.6517 17.2228 5.6517 19.0372C5.6517 20.8512 5.98266 22.5668 6.64456 24.1852C7.03752 25.1452 7.52068 26.0315 8.09425 26.845L0.111328 34.8277L3.28359 38L11.291 29.9926C12.0099 30.4829 12.7904 30.9067 13.6319 31.2642C15.2747 31.9628 17.0885 32.3123 19.0742 32.3123C21.0601 32.3123 22.8742 31.9563 24.5169 31.246Z" fill="#2E3148"/>
</svg>
