<svg width="48" height="54" viewBox="0 0 48 54" fill="none" xmlns="http://www.w3.org/2000/svg">
<g clip-path="url(#clip0_39058_70803)">
<path d="M15.1468 13.6533C13.2373 13.6533 11.6895 15.1721 11.6895 17.046V22.135H15.1468V17.046H19.4681V22.135H22.9256V17.046C22.9256 15.1721 21.3777 13.6533 19.4681 13.6533H15.1468Z" fill="#7F3CE0"/>
<path d="M28.9761 13.6533C27.0665 13.6533 25.5186 15.1721 25.5186 17.046V22.135H28.9761V17.046H33.2974V22.135H36.7547V17.046C36.7547 15.1721 35.2069 13.6533 33.2974 13.6533H28.9761Z" fill="#7F3CE0"/>
<path d="M11.6895 35.7052C11.6895 37.5789 13.2373 39.0977 15.1468 39.0977H19.4681C21.3777 39.0977 22.9256 37.5789 22.9256 35.7052V30.6162H19.4681V35.7052H15.1468V30.6162H11.6895V35.7052Z" fill="#7F3CE0"/>
<path d="M25.5186 35.7052C25.5186 37.5789 27.0665 39.0977 28.9761 39.0977H33.2974C35.2069 39.0977 36.7547 37.5789 36.7547 35.7052V30.6162H33.2974V35.7052H28.9761V30.6162H25.5186V35.7052Z" fill="#7F3CE0"/>
<path fill-rule="evenodd" clip-rule="evenodd" d="M26.8149 2.13785C25.2105 1.22879 23.2335 1.22879 21.6291 2.13785L3.75358 12.2655C2.14906 13.1743 1.16064 14.8544 1.16064 16.6726V36.9276C1.16064 38.7457 2.14906 40.4257 3.75358 41.3349L21.6291 51.4623C23.2335 52.3712 25.2105 52.3712 26.8149 51.4623L44.6903 41.3349C46.2949 40.4257 47.2834 38.7457 47.2834 36.9276V16.6726C47.2834 14.8544 46.2949 13.1743 44.6903 12.2655L26.8149 2.13785ZM23.3577 5.07596C23.8924 4.77292 24.5515 4.77292 25.0862 5.07596L42.9616 15.2034C43.4967 15.5066 43.8261 16.0667 43.8261 16.6726V21.3741C43.7567 21.4652 43.6627 21.5846 43.5463 21.7244C43.2547 22.0743 42.8336 22.5382 42.3162 22.9973C41.2287 23.9629 39.9726 24.6794 38.7491 24.6794H9.42902C7.49506 24.6794 5.84216 25.5585 4.61789 26.4931V16.6726C4.61789 16.0667 4.94738 15.5066 5.48214 15.2034L23.3577 5.07596ZM4.61789 31.3681V36.9276C4.61789 37.5335 4.94738 38.0936 5.48214 38.3968L23.3577 48.5241C23.8924 48.8271 24.5515 48.8271 25.0862 48.5241L42.9616 38.3968C43.4967 38.0936 43.8261 37.5335 43.8261 36.9276V26.1774C42.5439 27.1448 40.7944 28.0721 38.7491 28.0721H9.42902C8.30609 28.0721 7.1247 28.7622 6.0766 29.731C5.58179 30.1884 5.17845 30.6516 4.89872 31.0011C4.78002 31.1497 4.68561 31.2753 4.61789 31.3681Z" fill="#7F3CE0"/>
</g>
<defs>
<clipPath id="clip0_39058_70803">
<rect width="47" height="54" fill="white" transform="translate(0.722168)"/>
</clipPath>
</defs>
</svg>
