<svg width="61" height="83" viewBox="0 0 61 83" fill="none" xmlns="http://www.w3.org/2000/svg">
<path d="M26.7879 55.7504L1.60727 61.5466C0.688831 61.7754 0 62.6906 0 63.6058V80.8418C0 82.2907 1.14806 83.2062 2.60226 82.9013L37.7327 74.8166C39.187 74.5117 39.7992 73.1387 39.187 71.8423L32.8344 58.801C31.8394 56.7418 32.8344 54.6064 35.054 54.1488L58.015 48.6577C59.6223 48.2764 61 46.5985 61 44.9207V28.9811C61 27.532 59.8519 26.5406 58.3977 26.9219L25.2572 34.7773C23.1907 35.2349 22.2723 37.2178 23.1907 39.1244L29.0075 51.0982C30.0025 53.1573 29.0075 55.2165 26.7879 55.7504Z" fill="black"/>
<path d="M10.2689 14.2761L16.8593 27.7792C17.7023 29.5438 16.8593 31.3852 14.9434 31.7688L2.75879 34.6075C1.22613 34.9911 0 36.5255 0 38.06V52.5604C0 55.0155 1.99246 56.55 4.36809 56.0129L15.7098 53.4044C17.2425 53.0975 18.4686 51.4863 18.4686 49.9519L18.5452 35.0678C18.5452 32.9963 20.2311 30.9248 22.2236 30.4645L59.3907 21.5647C60.3102 21.3346 61 20.4139 61 19.4932V2.15407C61 0.696352 59.8505 -0.301036 58.3945 0.0825746L11.7249 11.284C10.2689 11.5909 9.65581 12.9719 10.2689 14.2761Z" fill="black"/>
</svg>
