<svg width="87" height="75" viewBox="0 0 87 75" fill="none" xmlns="http://www.w3.org/2000/svg">
<path d="M87 46.6694C87 34.2918 82.0374 22.4213 73.2039 13.6691C64.3702 4.91692 52.3894 0 39.8966 0H34.9782V19.1725L15.6723 0.0446739H1.76976L25.3778 23.4538H0V28.3306C0.000996395 40.7079 4.964 52.5778 13.7974 61.3298C22.6308 70.0818 34.6111 74.999 47.1034 75H52.0257V55.8424L71.0873 74.7321H84.9898L61.6224 51.5462H87V46.6694ZM44.8641 41.7923H32.2502C30.9449 41.7923 29.6927 42.3062 28.7696 43.2209C27.8465 44.1354 27.3279 45.3758 27.3279 46.6694C27.3279 47.9628 27.8465 49.2031 28.7696 50.1178C29.6927 51.0323 30.9449 51.5462 32.2502 51.5462H42.1811V64.9259C34.0747 63.8428 26.5515 60.1523 20.7678 54.421C14.984 48.69 11.2599 41.2358 10.1677 33.2038H54.7498C55.4074 33.2219 56.0621 33.1091 56.675 32.8722C57.2877 32.6353 57.8466 32.279 58.3179 31.8246C58.7896 31.3702 59.1643 30.8266 59.4203 30.2263C59.6762 29.6258 59.8082 28.9805 59.8082 28.3288C59.8082 27.6771 59.6762 27.0318 59.4203 26.4316C59.1643 25.831 58.7896 25.2875 58.3179 24.833C57.8466 24.3785 57.2877 24.0223 56.675 23.7854C56.0621 23.5486 55.4074 23.4358 54.7498 23.4538H44.8189V10.0739C52.9253 11.1567 60.4485 14.8467 66.233 20.577C72.0171 26.3074 75.7423 33.7609 76.8361 41.7923H44.8641ZM50.35 28.1633C50.3469 27.3978 50.5731 26.6485 51.0003 26.0105C51.4273 25.3726 52.0358 24.8745 52.7486 24.5793C53.4615 24.2842 54.2467 24.2052 55.005 24.3525C55.763 24.4998 56.4601 24.8666 57.0077 25.4066C57.5555 25.9466 57.929 26.6353 58.0814 27.3859C58.2335 28.1364 58.1576 28.9148 57.8631 29.6224C57.5687 30.3303 57.0689 30.9354 56.4271 31.3616C55.7852 31.7876 55.0303 32.0154 54.2575 32.0162C53.2241 32.0172 52.2326 31.6122 51.4999 30.8899C50.7674 30.1676 50.3539 29.1872 50.35 28.1633Z" fill="black"/>
</svg>
