<svg width="56" height="56" viewBox="0 0 56 56" fill="none" xmlns="http://www.w3.org/2000/svg">
<rect width="56" height="56" rx="28" fill="#16DA93"/>
<path d="M41.2266 34.3335C40.7866 37.8801 37.88 40.7868 34.3333 41.2268C32.1866 41.4935 30.1866 40.9068 28.6266 39.7601C27.7333 39.1068 27.9466 37.7201 29.0133 37.4001C33.0266 36.1868 36.1866 33.0135 37.4133 29.0001C37.7333 27.9468 39.12 27.7335 39.7733 28.6135C40.9066 30.1868 41.4933 32.1868 41.2266 34.3335Z" fill="white"/>
<path d="M25.3198 14.6665C19.4398 14.6665 14.6665 19.4398 14.6665 25.3198C14.6665 31.1998 19.4398 35.9732 25.3198 35.9732C31.1998 35.9732 35.9732 31.1998 35.9732 25.3198C35.9598 19.4398 31.1998 14.6665 25.3198 14.6665ZM24.0665 23.8265L27.2798 24.9465C28.4398 25.3598 28.9998 26.1732 28.9998 27.4265C28.9998 28.8665 27.8532 30.0532 26.4532 30.0532H26.3332V30.1198C26.3332 30.6665 25.8798 31.1198 25.3332 31.1198C24.7865 31.1198 24.3332 30.6665 24.3332 30.1198V30.0398C22.8532 29.9732 21.6665 28.7332 21.6665 27.1865C21.6665 26.6398 22.1198 26.1865 22.6665 26.1865C23.2132 26.1865 23.6665 26.6398 23.6665 27.1865C23.6665 27.6665 24.0132 28.0532 24.4398 28.0532H26.4398C26.7465 28.0532 26.9865 27.7732 26.9865 27.4265C26.9865 26.9598 26.9065 26.9332 26.5998 26.8265L23.3865 25.7065C22.2398 25.3065 21.6665 24.4932 21.6665 23.2265C21.6665 21.7865 22.8132 20.5998 24.2132 20.5998H24.3332V20.5465C24.3332 19.9998 24.7865 19.5465 25.3332 19.5465C25.8798 19.5465 26.3332 19.9998 26.3332 20.5465V20.6265C27.8132 20.6932 28.9998 21.9332 28.9998 23.4798C28.9998 24.0265 28.5465 24.4798 27.9998 24.4798C27.4532 24.4798 26.9998 24.0265 26.9998 23.4798C26.9998 22.9998 26.6532 22.6132 26.2265 22.6132H24.2265C23.9198 22.6132 23.6798 22.8932 23.6798 23.2398C23.6665 23.6932 23.7465 23.7198 24.0665 23.8265Z" fill="white"/>
</svg>
