<svg width="56" height="56" viewBox="0 0 56 56" fill="none" xmlns="http://www.w3.org/2000/svg">
<rect width="56" height="56" rx="28" fill="#7335F7"/>
<path d="M33.5865 14.6665H22.4132C17.5598 14.6665 14.6665 17.5598 14.6665 22.4132V33.5732C14.6665 38.4398 17.5598 41.3332 22.4132 41.3332H33.5732C38.4265 41.3332 41.3198 38.4398 41.3198 33.5865V22.4132C41.3332 17.5598 38.4398 14.6665 33.5865 14.6665ZM37.3332 22.9865C37.3332 23.7198 36.7332 24.3198 35.9998 24.3198H33.3332C32.7865 24.3198 32.3332 24.7732 32.3332 25.3198C32.3332 25.8798 32.7865 26.3198 33.3332 26.3198H35.9998C36.7332 26.3198 37.3332 26.9198 37.3332 27.6532V28.3332C37.3332 29.0665 36.7332 29.6665 35.9998 29.6665H33.3332C32.7865 29.6665 32.3332 30.1198 32.3332 30.6665C32.3332 31.2132 32.7865 31.6665 33.3332 31.6665H35.9998C36.7332 31.6665 37.3332 32.2665 37.3332 32.9998V33.3332C37.3332 35.5465 35.5465 37.3332 33.3332 37.3332H22.6665C20.4532 37.3332 18.6665 35.5465 18.6665 33.3332V32.6665C18.6665 31.9332 19.2665 31.3332 19.9998 31.3332H21.9732C23.9332 31.3332 25.4932 29.6532 25.2932 27.6532C25.1198 25.9198 23.5332 24.6665 21.7865 24.6665H19.9998C19.2665 24.6665 18.6665 24.0665 18.6665 23.3332V22.6665C18.6665 20.4532 20.4532 18.6665 22.6665 18.6665H33.3332C35.5465 18.6665 37.3332 20.4532 37.3332 22.6665V22.9865ZM18.6665 27.9998C18.6665 27.2665 19.2665 26.6665 19.9998 26.6665H21.3332C22.0665 26.6665 22.6665 27.2665 22.6665 27.9998C22.6665 28.7332 22.0665 29.3332 21.3332 29.3332H19.9998C19.2665 29.3332 18.6665 28.7332 18.6665 27.9998Z" fill="white"/>
</svg>
