<svg width="189" height="167" viewBox="0 0 189 167" fill="none" xmlns="http://www.w3.org/2000/svg">
<path d="M148 55.5H175.75C178.203 55.5 180.556 56.4746 182.291 58.2093C184.025 59.944 185 62.2967 185 64.75V166.5C185 171.407 183.051 176.112 179.581 179.581C176.112 183.051 171.407 185 166.5 185M166.5 185C161.593 185 156.888 183.051 153.419 179.581C149.949 176.112 148 171.407 148 166.5V46.25C148 43.7967 147.025 41.444 145.291 39.7093C143.556 37.9746 141.203 37 138.75 37H46.25C43.7967 37 41.444 37.9746 39.7093 39.7093C37.9746 41.444 37 43.7967 37 46.25V157.25C37 164.61 39.9237 171.668 45.1278 176.872C50.3319 182.076 57.3902 185 64.75 185H166.5ZM74 74H111M74 111H111M74 148H111" stroke="#7335F7" stroke-width="10" stroke-linecap="round" stroke-linejoin="round"/>
</svg>
